<?xml version="1.0" encoding="UTF-8"?>
<svg width="88px" height="5px" viewBox="0 0 88 5" version="1.1" xmlns="http://www.w3.org/2000/svg" xmlns:xlink="http://www.w3.org/1999/xlink">
    <title>Fill 1</title>
    <g id="Page-1" stroke="none" stroke-width="1" fill="none" fill-rule="evenodd">
        <g id="1.0-Home---Cliente" transform="translate(-1080.000000, -1253.000000)" fill="#7854C0">
            <g id="como-funciona" transform="translate(145.000000, 840.000000)">
                <g id="Group-6" transform="translate(809.000000, 99.000000)">
                    <g id="Group-5" transform="translate(0.000000, 275.000000)">
                        <path d="M127.259644,39 C129.973422,39 131.367344,40.0810583 132.487167,40.9496124 C133.611274,41.8213684 134.319698,42.3147961 135.807337,42.3147961 C137.294221,42.3147961 138.002645,41.8215369 139.126248,40.9496124 C140.246071,40.0810583 141.639742,39 144.353267,39 C147.067045,39 148.460715,40.0810583 149.58079,40.9496124 C150.704645,41.8213684 151.412817,42.3147961 152.900205,42.3147961 C154.387593,42.3147961 155.095764,41.8213684 156.219871,40.9496124 C157.339695,40.0810583 158.733617,39 161.447394,39 C164.161423,39 165.555346,40.0808898 166.675169,40.9496124 C167.799528,41.8213684 168.5077,42.3147961 169.995591,42.3147961 C171.483231,42.3147961 172.191655,41.8213684 173.315761,40.9496124 C174.435837,40.0810583 175.829759,39 178.543788,39 C181.25807,39 182.65174,40.0810583 183.771815,40.9496124 C184.895922,41.8213684 185.604598,42.3147961 187.091986,42.3147961 C188.579625,42.3147961 189.288301,41.8213684 190.412659,40.9496124 C191.532483,40.0808898 192.926405,39 195.640687,39 C198.35522,39 199.749142,40.0808898 200.869469,40.9494439 C201.993576,41.8213684 202.702504,42.3147961 204.190395,42.3147961 C205.678539,42.3147961 206.387215,41.8213684 207.511573,40.9494439 C208.6319,40.0808898 210.025823,39 212.740356,39 C213.435931,39 214,39.3771486 214,39.842602 C214,40.3078868 213.435931,40.6852039 212.740356,40.6852039 C211.252212,40.6852039 210.543536,41.1784631 209.419178,42.0503876 C208.299103,42.9189417 206.90518,44 204.190395,44 C201.476114,44 200.082192,42.9189417 198.961612,42.0503876 C197.837254,41.1784631 197.12883,40.6852039 195.640687,40.6852039 C194.152795,40.6852039 193.444371,41.1784631 192.320265,42.0503876 C191.200189,42.9189417 189.806267,44 187.091986,44 C184.378208,44 182.984034,42.9189417 181.86421,42.0503876 C180.739852,41.1784631 180.03168,40.6852039 178.543788,40.6852039 C177.056149,40.6852039 176.347725,41.1784631 175.223618,42.0503876 C174.103291,42.9189417 172.709621,44 169.995591,44 C167.28131,44 165.88764,42.9189417 164.767564,42.0503876 C163.643458,41.1784631 162.934782,40.6852039 161.447394,40.6852039 C159.960006,40.6852039 159.251582,41.1784631 158.127728,42.0503876 C157.007904,42.9189417 155.613982,44 152.900205,44 C150.186427,44 148.792757,42.9189417 147.672681,42.0502191 C146.548575,41.1784631 145.840403,40.6852039 144.353267,40.6852039 C142.866131,40.6852039 142.157959,41.1784631 141.034105,42.0502191 C139.914281,42.9189417 138.520611,44 135.807337,44 C133.093056,44 131.699386,42.9189417 130.579562,42.0503876 C129.455456,41.1784631 128.747032,40.6852039 127.259644,40.6852039 C126.564069,40.6852039 126,40.3078868 126,39.842602 C126,39.3771486 126.564069,39 127.259644,39" id="Fill-1"></path>
                    </g>
                </g>
            </g>
        </g>
    </g>
</svg>