<?xml version="1.0" encoding="UTF-8"?>
<svg width="285px" height="308px" viewBox="0 0 285 308" version="1.1" xmlns="http://www.w3.org/2000/svg" xmlns:xlink="http://www.w3.org/1999/xlink">
    <title>ILUSTRACION_09</title>
    <defs>
        <linearGradient x1="1.631491%" y1="50%" x2="102.493809%" y2="48.9405203%" id="linearGradient-1">
            <stop stop-color="#A24598" offset="0%"></stop>
            <stop stop-color="#F7618B" offset="47.6741869%"></stop>
            <stop stop-color="#2A7AFF" offset="100%"></stop>
        </linearGradient>
        <filter x="-24.6%" y="-48.6%" width="149.3%" height="197.1%" filterUnits="objectBoundingBox" id="filter-2">
            <feGaussianBlur stdDeviation="17.5822659" in="SourceGraphic"></feGaussianBlur>
        </filter>
        <linearGradient x1="1.631491%" y1="50%" x2="102.493809%" y2="48.9085895%" id="linearGradient-3">
            <stop stop-color="#A24598" offset="0%"></stop>
            <stop stop-color="#F7618B" offset="47.6741869%"></stop>
            <stop stop-color="#2A7AFF" offset="100%"></stop>
        </linearGradient>
        <filter x="-40.2%" y="-78.1%" width="180.4%" height="256.3%" filterUnits="objectBoundingBox" id="filter-4">
            <feGaussianBlur stdDeviation="23.5683" in="SourceGraphic"></feGaussianBlur>
        </filter>
        <linearGradient x1="92.8079325%" y1="50%" x2="-11.7337163%" y2="50%" id="linearGradient-5">
            <stop stop-color="#9DDEFF" offset="0%"></stop>
            <stop stop-color="#E8F4FF" stop-opacity="0" offset="100%"></stop>
        </linearGradient>
        <linearGradient x1="0%" y1="50%" x2="94.6133707%" y2="50%" id="linearGradient-6">
            <stop stop-color="#9DDEFF" offset="0%"></stop>
            <stop stop-color="#E8F4FF" stop-opacity="0" offset="100%"></stop>
        </linearGradient>
        <path d="M106.071572,0.217349285 L106.262587,0.549264328 L93.3723889,8.02134929 L106.095389,15.3973493 L119.056035,7.88348541 L119.24705,8.21540046 L106.477389,15.6183493 L119.008389,22.8833493 L131.658602,15.5496215 L131.849617,15.8815366 L119.390389,23.1043493 L132.493389,30.7013493 L145.406857,23.2157577 L145.597871,23.5476727 L132.875389,30.9233493 L145.788389,38.4093493 L158.773216,30.8818938 L158.96423,31.2138088 L146.169389,38.6303493 L159.413389,46.3083493 L172.139575,38.9313367 L172.330589,39.2632518 L159.795389,46.5293493 L172.708389,54.0163493 L185.505934,46.5974729 L185.696948,46.9293879 L173.090389,54.2383493 L185.696948,61.5464383 L185.505934,61.8783534 L172.708389,54.4593493 L159.986389,61.8343493 L172.712485,69.2125744 L172.521471,69.5444895 L159.604389,62.0563493 L147.073389,69.3213493 L160.109918,76.8787106 L159.918904,77.2106256 L146.691389,69.5423493 L133.588389,77.1393493 L146.361663,84.5448467 L146.170649,84.8767617 L133.206389,77.3603493 L120.293389,84.8473493 L132.995304,92.2109828 L132.80429,92.5428979 L119.911389,85.0683493 L106.667389,92.7463493 L119.628946,100.260426 L119.437931,100.592341 L106.286389,92.9673493 L93.3733889,100.453349 L106.262587,107.926562 L106.071572,108.258477 L92.9913889,100.675349 L79.9117647,108.258477 L79.7207505,107.926562 L92.6093889,100.453349 L79.6963889,92.9673493 L66.5454058,100.592341 L66.3543916,100.260426 L79.3153889,92.7463493 L66.0713889,85.0683493 L53.1790468,92.5428979 L52.9880326,92.2109828 L65.6893889,84.8463493 L52.7763889,77.3603493 L39.8126879,84.8767617 L39.6216737,84.5448467 L52.3943889,77.1393493 L39.2903889,69.5423493 L26.064433,77.2106256 L25.8734188,76.8787106 L38.9083889,69.3213493 L26.3773889,62.0563493 L13.461866,69.5444895 L13.2708518,69.2125744 L25.9953889,61.8353493 L13.2733889,54.4593493 L0.477403078,61.8783534 L0.286388861,61.5464383 L12.8923889,54.2383493 L0.286388861,46.9293879 L0.477403078,46.5974729 L13.2743889,54.0163493 L26.1883889,46.5293493 L13.6527478,39.2632518 L13.843762,38.9313367 L26.5693889,46.3083493 L39.8133889,38.6303493 L27.0191067,31.2138088 L27.2101209,30.8818938 L40.1943889,38.4093493 L53.1073889,30.9233493 L40.3854656,23.5476727 L40.5764799,23.2157577 L53.4893889,30.7013493 L66.5933889,23.1053493 L54.1337205,15.8815366 L54.3247348,15.5496215 L66.9753889,22.8833493 L79.5053889,15.6193493 L66.7362875,8.21540046 L66.9273017,7.88348541 L79.8873889,15.3973493 L92.6103889,8.02134929 L79.7207505,0.549264328 L79.9117647,0.217349285 L92.9913889,7.80034929 L106.071572,0.217349285 Z M92.9903889,85.2593493 L80.0783889,92.7453493 L92.9913889,100.232349 L105.904389,92.7463493 L92.9903889,85.2593493 Z M79.3653889,77.3603493 L66.4523889,84.8463493 L79.6973889,92.5253493 L92.6093889,85.0383493 L79.3653889,77.3603493 Z M106.615389,77.3603493 L93.3723889,85.0383493 L106.286389,92.5253493 L119.529389,84.8473493 L106.615389,77.3603493 Z M92.9903889,69.4613493 L79.7473889,77.1393493 L92.9913889,84.8173493 L106.234389,77.1393493 L92.9903889,69.4613493 Z M119.910389,69.6523493 L106.998389,77.1393493 L119.911389,84.6253493 L132.824389,77.1393493 L119.910389,69.6523493 Z M66.0713889,69.6523493 L53.1583889,77.1393493 L66.0703889,84.6253493 L78.9833889,77.1383493 L66.0713889,69.6523493 Z M52.5863889,61.8343493 L39.6723889,69.3213493 L52.7763889,76.9183493 L65.6893889,69.4313493 L52.5863889,61.8343493 Z M106.285389,61.7533493 L93.3733889,69.2393493 L106.616389,76.9173493 L119.529389,69.4313493 L106.285389,61.7533493 Z M133.396389,61.8343493 L120.293389,69.4313493 L133.206389,76.9173493 L146.310389,69.3213493 L133.396389,61.8343493 Z M79.6963889,61.7533493 L66.4533889,69.4313493 L79.3653889,76.9173493 L92.6083889,69.2393493 L79.6963889,61.7533493 Z M119.770389,53.9353493 L106.667389,61.5323493 L119.911389,69.2103493 L133.014389,61.6133493 L119.770389,53.9353493 Z M66.2103889,53.9353493 L52.9673889,61.6133493 L66.0713889,69.2103493 L79.3143889,61.5323493 L66.2103889,53.9353493 Z M146.309389,54.3473493 L133.778389,61.6133493 L146.691389,69.0993493 L159.223389,61.8343493 L146.309389,54.3473493 Z M39.6733889,54.3483493 L26.7593889,61.8343493 L39.2903889,69.0993493 L52.2043889,61.6133493 L39.6733889,54.3483493 Z M92.9913889,54.0463493 L80.0783889,61.5323493 L92.9913889,69.0183493 L105.904389,61.5323493 L92.9913889,54.0463493 Z M26.5693889,46.7513493 L13.6563889,54.2383493 L26.3773889,61.6133493 L39.2913889,54.1263493 L26.5693889,46.7513493 Z M159.413389,46.7513493 L146.691389,54.1263493 L159.604389,61.6133493 L172.326389,54.2373493 L159.413389,46.7513493 Z M53.2973889,46.4493493 L40.0553889,54.1263493 L52.5853889,61.3913493 L65.8293889,53.7143493 L53.2973889,46.4493493 Z M132.684389,46.4483493 L120.153389,53.7133493 L133.396389,61.3913493 L145.928389,54.1263493 L132.684389,46.4483493 Z M79.5063889,46.2273493 L66.5933889,53.7133493 L79.6963889,61.3103493 L92.6093889,53.8243493 L79.5063889,46.2273493 Z M106.476389,46.2273493 L93.3733889,53.8243493 L106.285389,61.3103493 L119.389389,53.7143493 L106.476389,46.2273493 Z M40.1943889,38.8523493 L26.9513889,46.5293493 L39.6733889,53.9053493 L52.9163889,46.2273493 L40.1943889,38.8523493 Z M145.788389,38.8513493 L133.065389,46.2273493 L146.309389,53.9053493 L159.031389,46.5293493 L145.788389,38.8513493 Z M92.9913889,38.4093493 L79.8873889,46.0063493 L92.9913889,53.6033493 L106.094389,46.0063493 L92.9913889,38.4093493 Z M66.5933889,38.7413493 L53.6803889,46.2273493 L66.2113889,53.4923493 L79.1243889,46.0063493 L66.5933889,38.7413493 Z M119.389389,38.7413493 L106.858389,46.0063493 L119.771389,53.4923493 L132.302389,46.2273493 L119.389389,38.7413493 Z M53.4893889,31.1443493 L40.5763889,38.6303493 L53.2983889,46.0063493 L66.2113889,38.5203493 L53.4893889,31.1443493 Z M132.493389,31.1443493 L119.771389,38.5203493 L132.684389,46.0063493 L145.406389,38.6303493 L132.493389,31.1443493 Z M80.0783889,30.9233493 L66.9743889,38.5203493 L79.5053889,45.7853493 L92.6093889,38.1883493 L80.0783889,30.9233493 Z M105.903389,30.9233493 L93.3733889,38.1883493 L106.476389,45.7843493 L119.007389,38.5203493 L105.903389,30.9233493 Z M66.9743889,23.3263493 L53.8703889,30.9233493 L66.5923889,38.2983493 L79.6963889,30.7013493 L66.9743889,23.3263493 Z M119.008389,23.3253493 L106.286389,30.7013493 L119.389389,38.2983493 L132.112389,30.9223493 L119.008389,23.3253493 Z M92.9903889,23.4373493 L80.4603889,30.7013493 L92.9913889,37.9663493 L105.521389,30.7023493 L92.9903889,23.4373493 Z M79.8863889,15.8403493 L67.3563889,23.1043493 L80.0783889,30.4803493 L92.6083889,23.2163493 L79.8863889,15.8403493 Z M106.096389,15.8393493 L93.3733889,23.2153493 L105.904389,30.4803493 L118.627389,23.1043493 L106.096389,15.8393493 Z M92.9913889,8.24234929 L80.2683889,15.6183493 L92.9913889,22.9943493 L105.714389,15.6183493 L92.9913889,8.24234929 Z" id="path-7"></path>
        <radialGradient cx="50%" cy="50%" fx="50%" fy="50%" r="60.9769541%" gradientTransform="translate(0.500000,0.500000),scale(0.873719,1.000000),scale(1.000000,0.989279),translate(-0.500000,-0.500000)" id="radialGradient-9">
            <stop stop-color="#425991" offset="0%"></stop>
            <stop stop-color="#3364ED" stop-opacity="0" offset="100%"></stop>
        </radialGradient>
        <linearGradient x1="0%" y1="68.019716%" x2="100%" y2="32.340731%" id="linearGradient-10">
            <stop stop-color="#3364ED" offset="0%"></stop>
            <stop stop-color="#C3E4FF" offset="100%"></stop>
        </linearGradient>
        <linearGradient x1="0%" y1="32.06623%" x2="100%" y2="67.754862%" id="linearGradient-11">
            <stop stop-color="#3364ED" offset="0%"></stop>
            <stop stop-color="#C3E4FF" offset="100%"></stop>
        </linearGradient>
        <linearGradient x1="27.9410634%" y1="39.9447737%" x2="72.0589366%" y2="78.7244073%" id="linearGradient-12">
            <stop stop-color="#5DCAFF" offset="0%"></stop>
            <stop stop-color="#C5EBFF" offset="100%"></stop>
        </linearGradient>
        <linearGradient x1="50%" y1="-2.48949813e-15%" x2="50%" y2="100%" id="linearGradient-13">
            <stop stop-color="#7496D5" offset="0%"></stop>
            <stop stop-color="#3E5489" offset="100%"></stop>
        </linearGradient>
        <linearGradient x1="56.2823866%" y1="0%" x2="42.9822025%" y2="69.4025213%" id="linearGradient-14">
            <stop stop-color="#64CEFF" offset="0%"></stop>
            <stop stop-color="#74D7FF" stop-opacity="0" offset="100%"></stop>
        </linearGradient>
        <linearGradient x1="100%" y1="50%" x2="-2.22044605e-14%" y2="50%" id="linearGradient-15">
            <stop stop-color="#8AE3FF" offset="0%"></stop>
            <stop stop-color="#52C4FF" offset="100%"></stop>
        </linearGradient>
        <linearGradient x1="48.6313495%" y1="90.3016137%" x2="51.3140751%" y2="-7.70461821%" id="linearGradient-16">
            <stop stop-color="#3B4D82" offset="0%"></stop>
            <stop stop-color="#364F8B" offset="100%"></stop>
        </linearGradient>
        <linearGradient x1="50%" y1="19.2970634%" x2="50%" y2="100%" id="linearGradient-17">
            <stop stop-color="#4DAEFF" stop-opacity="0" offset="0%"></stop>
            <stop stop-color="#2C94EB" offset="100%"></stop>
        </linearGradient>
        <linearGradient x1="50%" y1="0%" x2="50%" y2="100%" id="linearGradient-18">
            <stop stop-color="#7792C4" offset="0%"></stop>
            <stop stop-color="#425991" offset="100%"></stop>
        </linearGradient>
        <linearGradient x1="88.565128%" y1="37.7044826%" x2="30.4182233%" y2="57.7635887%" id="linearGradient-19">
            <stop stop-color="#A9F2FF" offset="0%"></stop>
            <stop stop-color="#70E1FF" offset="100%"></stop>
        </linearGradient>
        <linearGradient x1="52.3691252%" y1="9.31837137%" x2="44.1327133%" y2="52.5324726%" id="linearGradient-20">
            <stop stop-color="#FF7E7E" offset="0%"></stop>
            <stop stop-color="#77D1FF" offset="100%"></stop>
        </linearGradient>
        <linearGradient x1="100%" y1="50%" x2="-2.22044605e-14%" y2="50%" id="linearGradient-21">
            <stop stop-color="#8AE3FF" offset="0%"></stop>
            <stop stop-color="#52C4FF" offset="100%"></stop>
        </linearGradient>
        <linearGradient x1="55.5873412%" y1="20.4968985%" x2="45.8540309%" y2="61.0502241%" id="linearGradient-22">
            <stop stop-color="#FFA6B1" offset="0%"></stop>
            <stop stop-color="#31ACEC" offset="100%"></stop>
        </linearGradient>
        <linearGradient x1="50%" y1="71.8814566%" x2="50%" y2="12.7937758%" id="linearGradient-23">
            <stop stop-color="#FFFFFF" offset="0%"></stop>
            <stop stop-color="#5AC8FF" offset="100%"></stop>
        </linearGradient>
        <linearGradient x1="50%" y1="82.8221849%" x2="50%" y2="12.3476562%" id="linearGradient-24">
            <stop stop-color="#FFFFFF" offset="0%"></stop>
            <stop stop-color="#5AC8FF" offset="100%"></stop>
        </linearGradient>
        <linearGradient x1="50%" y1="100%" x2="50%" y2="0%" id="linearGradient-25">
            <stop stop-color="#FFFFFF" offset="0%"></stop>
            <stop stop-color="#5AC8FF" offset="100%"></stop>
        </linearGradient>
        <linearGradient x1="50%" y1="36.0033482%" x2="50%" y2="86.6311961%" id="linearGradient-26">
            <stop stop-color="#5DCAFF" offset="0%"></stop>
            <stop stop-color="#57C6FF" stop-opacity="0.368149909" offset="100%"></stop>
        </linearGradient>
        <linearGradient x1="50%" y1="70.8303571%" x2="50%" y2="12.3476562%" id="linearGradient-27">
            <stop stop-color="#FFFFFF" offset="0%"></stop>
            <stop stop-color="#5AC8FF" offset="100%"></stop>
        </linearGradient>
        <linearGradient x1="50%" y1="0%" x2="50%" y2="100%" id="linearGradient-28">
            <stop stop-color="#FFFFFF" offset="0%"></stop>
            <stop stop-color="#FFFFFF" stop-opacity="0" offset="100%"></stop>
        </linearGradient>
        <linearGradient x1="0%" y1="44.5222895%" x2="146.786557%" y2="59.7355408%" id="linearGradient-29">
            <stop stop-color="#5AC8FF" offset="0%"></stop>
            <stop stop-color="#57C6FF" stop-opacity="0.368149909" offset="100%"></stop>
        </linearGradient>
        <linearGradient x1="50%" y1="36.0033482%" x2="50%" y2="86.6311961%" id="linearGradient-30">
            <stop stop-color="#5DCAFF" offset="0%"></stop>
            <stop stop-color="#57C6FF" stop-opacity="0.368149909" offset="100%"></stop>
        </linearGradient>
        <linearGradient x1="50%" y1="82.9982384%" x2="50%" y2="6.11915339%" id="linearGradient-31">
            <stop stop-color="#FFFFFF" offset="0%"></stop>
            <stop stop-color="#5AC8FF" offset="100%"></stop>
        </linearGradient>
        <linearGradient x1="50%" y1="10.2910431%" x2="50%" y2="88.4903169%" id="linearGradient-32">
            <stop stop-color="#6EB5FF" offset="0%"></stop>
            <stop stop-color="#5582FF" offset="100%"></stop>
        </linearGradient>
        <linearGradient x1="48.8999755%" y1="90.3016137%" x2="51.0561606%" y2="-7.70461821%" id="linearGradient-33">
            <stop stop-color="#3364ED" offset="0%"></stop>
            <stop stop-color="#5582FF" offset="100%"></stop>
        </linearGradient>
        <linearGradient x1="100%" y1="50%" x2="-2.22044605e-14%" y2="50%" id="linearGradient-34">
            <stop stop-color="#8AE3FF" offset="0%"></stop>
            <stop stop-color="#52C4FF" offset="100%"></stop>
        </linearGradient>
        <linearGradient x1="50%" y1="19.2970634%" x2="50%" y2="100%" id="linearGradient-35">
            <stop stop-color="#4DAEFF" stop-opacity="0" offset="0%"></stop>
            <stop stop-color="#2C94EB" offset="100%"></stop>
        </linearGradient>
        <linearGradient x1="50%" y1="0%" x2="50%" y2="100%" id="linearGradient-36">
            <stop stop-color="#7792C4" offset="0%"></stop>
            <stop stop-color="#425991" offset="100%"></stop>
        </linearGradient>
        <linearGradient x1="59.5317145%" y1="4.0959462%" x2="45.1601896%" y2="78.9845626%" id="linearGradient-37">
            <stop stop-color="#A9F2FF" offset="0%"></stop>
            <stop stop-color="#70E1FF" offset="100%"></stop>
        </linearGradient>
        <linearGradient x1="59.5317145%" y1="4.0959462%" x2="45.1601896%" y2="78.9845626%" id="linearGradient-38">
            <stop stop-color="#72CFDF" offset="0%"></stop>
            <stop stop-color="#3DC1E4" offset="100%"></stop>
        </linearGradient>
        <linearGradient x1="100%" y1="50%" x2="0%" y2="50%" id="linearGradient-39">
            <stop stop-color="#3B4D82" offset="0%"></stop>
            <stop stop-color="#4D75D3" offset="100%"></stop>
        </linearGradient>
        <linearGradient x1="100%" y1="50%" x2="-2.22044605e-14%" y2="50%" id="linearGradient-40">
            <stop stop-color="#8AE3FF" offset="0%"></stop>
            <stop stop-color="#52C4FF" offset="100%"></stop>
        </linearGradient>
        <linearGradient x1="50%" y1="86.6311961%" x2="50%" y2="0%" id="linearGradient-41">
            <stop stop-color="#5DCAFF" offset="0%"></stop>
            <stop stop-color="#FFFFFF" offset="100%"></stop>
        </linearGradient>
        <linearGradient x1="50%" y1="94.0853851%" x2="50%" y2="35.15625%" id="linearGradient-42">
            <stop stop-color="#FFFFFF" offset="0%"></stop>
            <stop stop-color="#5AC8FF" offset="100%"></stop>
        </linearGradient>
        <linearGradient x1="62.4453694%" y1="9.52845982%" x2="50%" y2="75.6835938%" id="linearGradient-43">
            <stop stop-color="#FFFFFF" offset="0%"></stop>
            <stop stop-color="#FFFFFF" stop-opacity="0" offset="100%"></stop>
        </linearGradient>
    </defs>
    <g id="ILUSTRACION_09" stroke="none" stroke-width="1" fill="none" fill-rule="evenodd">
        <g id="Gee-city" transform="translate(36.000000, 51.000000)">
            <polygon id="Path-3" fill="url(#linearGradient-1)" opacity="0.1484375" filter="url(#filter-2)" points="7.43809524 154.990959 84.0316843 205.54448 221.565079 148.526816 145.36153 96.9543164"></polygon>
            <polygon id="Path-3" fill="url(#linearGradient-3)" opacity="0.745627332" filter="url(#filter-4)" points="26.5968254 154.367365 89.4841933 196.4953 202.406349 148.98058 139.839224 106.003497"></polygon>
            <g id="环绕虚线" transform="translate(0.000000, 83.560884)">
                <path d="M105.976131,0 L211.952263,61.329089 L105.976131,122.658178 L0,61.329089 L105.976131,0 Z" id="Rectangle-2" stroke="#3364ED" stroke-width="0.64575" stroke-linecap="round" stroke-linejoin="round" stroke-dasharray="1.423234802484512,1.423234802484512,1.423234802484512,1.423234802484512"></path>
                <g id="Group-6" transform="translate(16.421527, 70.145146)">
                    <path d="M0.266834483,5.53522391 L19.6502751,5.50760317 C20.239727,5.50694501 20.7182809,5.98405575 20.719403,6.5735069 L20.7196628,6.73638194 C20.720785,7.32590407 20.243645,7.8045688 19.6541226,7.80550924 C19.654062,7.80550934 19.6540014,7.80550943 19.6539406,7.80532776 L0.270499945,7.83294849 C-0.318951902,7.83360665 -0.797505801,7.35649591 -0.798627917,6.76704477 L-0.798887744,6.60416972 C-0.800009942,6.01464759 -0.322869971,5.53598287 0.266652451,5.53504243 C0.266713042,5.53504233 0.266773633,5.53504224 0.266834483,5.53522391 Z" id="Rectangle-23" fill="url(#linearGradient-5)" transform="translate(9.960388, 6.670276) rotate(30.000000) translate(-9.960388, -6.670276) "></path>
                    <ellipse id="Oval-12" fill="#3DBEFF" cx="18.3310065" cy="11.4992042" rx="1.14568791" ry="1.14992042"></ellipse>
                </g>
                <g id="Group-6" transform="translate(168.148895, 86.730158) scale(-1, 1) translate(-168.148895, -86.730158) translate(157.952372, 79.727816)">
                    <path d="M0.266834483,5.53522391 L19.6502751,5.50760317 C20.239727,5.50694501 20.7182809,5.98405575 20.719403,6.5735069 L20.7196628,6.73638194 C20.720785,7.32590407 20.243645,7.8045688 19.6541226,7.80550924 C19.654062,7.80550934 19.6540014,7.80550943 19.6539406,7.80532776 L0.270499945,7.83294849 C-0.318951902,7.83360665 -0.797505801,7.35649591 -0.798627917,6.76704477 L-0.798887744,6.60416972 C-0.800009942,6.01464759 -0.322869971,5.53598287 0.266652451,5.53504243 C0.266713042,5.53504233 0.266773633,5.53504224 0.266834483,5.53522391 Z" id="Rectangle-23" fill="url(#linearGradient-6)" transform="translate(9.960388, 6.670276) rotate(30.000000) translate(-9.960388, -6.670276) "></path>
                    <ellipse id="Oval-12" fill="#3DBEFF" cx="1.14568791" cy="1.53322723" rx="1.14568791" ry="1.14992042"></ellipse>
                </g>
            </g>
            <g id="底板" transform="translate(0.000000, 66.312078)">
                <polygon id="投影" fill="#D7E2F6" points="105.976131 10.3492838 211.952263 71.6783728 105.976131 133.007462 0 71.6783728"></polygon>
                <g id="网格" transform="translate(12.602567, 7.282829)">
                    <mask id="mask-8" fill="white">
                        <use xlink:href="#path-7"></use>
                    </mask>
                    <use id="Mask" fill="#96CFFF" fill-rule="nonzero" xlink:href="#path-7"></use>
                    <ellipse id="Oval" fill="url(#radialGradient-9)" mask="url(#mask-8)" cx="93.1826165" cy="18.7820335" rx="53.0835397" ry="46.3801236"></ellipse>
                </g>
                <path d="M105.785184,0.255037848 L210.929105,61.329089 L105.785184,122.40314 L0.641261595,61.329089 L105.785184,0.255037848 Z" id="Rectangle-2" stroke="#3364ED" stroke-width="0.64575"></path>
                <polygon id="Rectangle-20" fill="url(#linearGradient-10)" points="105.785184 122.658178 211.570367 61.329089 211.570367 65.5454639 105.785184 126.874553"></polygon>
                <polygon id="Rectangle-20" fill="url(#linearGradient-11)" points="0 60.9457822 105.785184 122.274871 105.785184 126.491246 0 65.1621571"></polygon>
            </g>
            <g id="线路" transform="translate(13.366359, 64.012237)">
                <g id="人" transform="translate(158.868723, 0.000000)">
                    <line x1="0.0149178113" y1="56.0750907" x2="12.629419" y2="63.5286113" id="Path-20" stroke="#3364ED" stroke-width="0.64575"></line>
                    <line x1="12.5115683" y1="1.383498" x2="12.5115683" y2="63.7381885" id="Path-21" stroke="#3768EE" stroke-width="0.64575" stroke-dasharray="1.423234802484512,1.423234802484512,1.423234802484512,1.423234802484512"></line>
                    <polygon id="Rectangle-21" fill="url(#linearGradient-12)" points="12.220671 0 25.205134 7.28282932 25.205134 19.5486471 12.220671 12.2658178"></polygon>
                    <path d="M19.4244786,10.7696217 C18.8733088,10.9409188 18.1705944,10.5271603 17.6194247,9.70680529 C16.4215267,9.64470452 16.4215267,10.8682875 16.4215267,12.0921933 L20.6223823,14.5656586 C20.6223823,13.3417528 20.6223823,12.1181698 19.4244786,10.7696217 Z M19.8721299,9.00594238 C19.8721299,7.94593209 19.2676253,6.73064275 18.5219545,6.29159154 C17.7762837,5.85254032 17.1715408,6.35582427 17.1715408,7.41583456 C17.1715408,8.47550542 17.7762837,9.69127454 18.5219545,10.1303258 C19.2676253,10.569377 19.8721299,10.0656132 19.8721299,9.00594238 Z" id="Shape" fill="#3767EF" fill-rule="nonzero"></path>
                </g>
                <g id="机器人" transform="translate(0.000000, 27.214783)">
                    <line x1="25.9129841" y1="28.7412727" x2="12.2266381" y2="36.5863352" id="Path-26" stroke="#3364ED" stroke-width="0.64575"></line>
                    <line x1="12.5115683" y1="1.09152602" x2="12.5115683" y2="36.5234052" id="Path-21" stroke="#3768EE" stroke-width="0.64575" stroke-dasharray="1.423234802484512,1.423234802484512,1.423234802484512,1.423234802484512"></line>
                    <polygon id="Rectangle-21" fill="url(#linearGradient-12)" transform="translate(6.492231, 9.774324) scale(-1, 1) translate(-6.492231, -9.774324) " points="0 0 12.984463 7.28282932 12.984463 19.5486471 0 12.2658178"></polygon>
                    <path d="M6.75600487,7.67485854 L7.5151541,7.2515509 L7.5151541,7.86643891 L9.17860595,6.93888494 L9.17860595,8.23398922 L9.74514727,7.91808127 L9.74514727,10.0033223 L9.17860595,10.3192302 L9.17860595,11.857989 L3.60886495,14.9637208 L3.60886495,13.424962 L3.05516775,13.733708 L3.05516775,11.648467 L3.60886495,11.339721 L3.60886495,10.0446168 L5.43382714,9.02700335 L5.43382714,8.41211535 L6.16134003,8.00644838 L6.16134003,7.14577402 C5.99235389,7.13155491 5.87982577,7.00070129 5.87982577,6.77992496 C5.87982577,6.4403317 6.14606629,6.01657913 6.47449062,5.83344712 C6.80291495,5.65031511 7.06915547,5.77715201 7.06915547,6.11674528 C7.06915547,6.35102849 6.94243745,6.62536759 6.75600487,6.83311883 L6.75600487,7.67485854 Z M5.13649472,12.5746823 L5.13649472,13.0358483 L7.66382031,11.6265915 L7.66382031,11.1654255 L5.13649472,12.5746823 Z M5.14283262,11.6268809 C5.48978875,11.4334154 5.77095989,10.986539 5.77095989,10.6288678 C5.77095989,10.2711117 5.48970642,10.1379326 5.14283262,10.3313522 C4.79595882,10.5247718 4.51470534,10.9716092 4.51470534,11.3293653 C4.51470534,11.6870365 4.79587648,11.8203464 5.14283262,11.6268809 Z M7.73438251,10.1818121 C8.08125631,9.98839255 8.36250979,9.54147021 8.36250979,9.183799 C8.36250979,8.82604289 8.08125631,8.69286379 7.73438251,8.88628338 C7.38750871,9.07970297 7.10609057,9.52663223 7.10609057,9.88438834 C7.10609057,10.2420595 7.38750871,10.3752317 7.73438251,10.1818121 Z" id="Combined-Shape" fill="#3767EF" fill-rule="nonzero"></path>
                </g>
                <g id="线路1" transform="translate(113.423103, 75.511441)" stroke="#3364ED" stroke-width="0.64575">
                    <polyline id="Path-25" points="0.335650754 0.326409702 18.777795 11.0335463 18.777795 3.11099889"></polyline>
                    <ellipse id="Oval-4" fill="#FFFFFF" cx="18.7129025" cy="1.53322723" rx="1.52758388" ry="1.53322723"></ellipse>
                </g>
                <g id="线路2" transform="translate(66.068003, 90.843713)" stroke="#3364ED" stroke-width="0.64575">
                    <polyline id="Path-28" points="0.323716505 18.6914473 12.7614417 11.4797394 26.2299876 19.0747541 39.5262328 11.4797394 39.5262328 2.24521008"></polyline>
                    <ellipse id="Oval-4" fill="#FFFFFF" cx="39.5262328" cy="1.72488063" rx="1.71853186" ry="1.72488063"></ellipse>
                </g>
                <g id="线路3" transform="translate(50.410268, 74.361520)" stroke="#3364ED" stroke-width="0.64575">
                    <polyline id="Path-27" points="48.0845812 0.372825761 15.1527668 20.1071371 1.66259007 12.1115967 1.66259007 5.14769063"></polyline>
                    <ellipse id="Oval-4" fill="#FFFFFF" cx="1.71853186" cy="3.25810785" rx="1.71853186" ry="1.72488063"></ellipse>
                </g>
            </g>
            <g id="建筑物1" transform="translate(79.434362, 0.000000)">
                <polygon id="Rectangle-3" fill="url(#linearGradient-13)" points="0 41.7804419 26.3508219 57.1127142 26.3508219 111.925587 0 96.5933152"></polygon>
                <g id="Group-8" transform="translate(2.291376, 42.930362)">
                    <path d="M0,0 L0.381895969,0.397194734 L0.381895969,54.8128733 L0,54.4156786 L0,0 Z M2.67327179,1.53322723 L3.05516775,1.93042196 L3.05516775,56.3461005 L2.67327179,55.9489058 L2.67327179,1.53322723 Z M5.34654357,3.06645445 L5.72843954,3.46364919 L5.72843954,57.8793278 L5.34654357,57.482133 L5.34654357,3.06645445 Z M8.01981536,4.59968168 L8.40171133,4.99687641 L8.40171133,59.412555 L8.01981536,59.0153603 L8.01981536,4.59968168 Z M10.6930871,6.1329089 L11.0749831,6.53010364 L11.0749831,60.9457822 L10.6930871,60.5485875 L10.6930871,6.1329089 Z M13.3663589,7.66613613 L13.7482549,8.06333086 L13.7482549,62.4790095 L13.3663589,62.0818147 L13.3663589,7.66613613 Z M16.0396307,9.19936335 L16.4215267,9.59655809 L16.4215267,64.0122367 L16.0396307,63.6150419 L16.0396307,9.19936335 Z M18.7129025,10.7325906 L19.0947985,11.1297853 L19.0947985,65.5454639 L18.7129025,65.1482692 L18.7129025,10.7325906 Z M21.3861743,12.2658178 L21.7680703,12.6630125 L21.7680703,67.0786911 L21.3861743,66.6814964 L21.3861743,12.2658178 Z" id="Combined-Shape" fill="url(#linearGradient-14)"></path>
                    <polygon id="Rectangle-4" fill="#79DAFF" points="21.0042783 15.7155791 22.1499662 16.4821927 22.1499662 19.9319539 21.0042783 19.1653403"></polygon>
                    <polygon id="Rectangle-4" fill="#79DAFF" points="18.3310065 27.9813969 19.4766944 28.7480105 19.4766944 32.1977717 18.3310065 31.4311581"></polygon>
                    <polygon id="Rectangle-4" fill="#79DAFF" points="15.6577347 43.3136691 16.8034227 44.0802827 16.8034227 47.530044 15.6577347 46.7634304"></polygon>
                    <polygon id="Rectangle-4" fill="#79DAFF" points="10.3111912 18.3987267 11.4568791 19.1653403 11.4568791 22.6151016 10.3111912 21.848488"></polygon>
                    <polygon id="Rectangle-4" fill="#FF7777" points="10.3111912 33.3476922 11.4568791 34.1143058 11.4568791 35.647533 10.3111912 34.8809194"></polygon>
                    <polygon id="Rectangle-4" fill="#FF7777" points="15.6577347 14.5656586 16.8034227 15.3322723 16.8034227 16.8654995 15.6577347 16.0988859"></polygon>
                    <polygon id="Rectangle-4" fill="#FF7777" points="7.63791939 4.59968168 8.78360729 5.36629529 8.78360729 6.89952252 7.63791939 6.1329089"></polygon>
                    <polygon id="Rectangle-4" fill="#FF7777" points="2.29137582 14.9489655 3.43706372 15.7155791 3.43706372 17.2488063 2.29137582 16.4821927"></polygon>
                    <polygon id="Rectangle-4" fill="#79DAFF" points="4.9646476 26.0648628 6.11033551 26.8314765 6.11033551 30.2812377 4.9646476 29.5146241"></polygon>
                    <polygon id="Rectangle-4" fill="#79DAFF" points="2.29137582 4.21637487 3.43706372 4.98298848 3.43706372 8.43274974 2.29137582 7.66613613"></polygon>
                </g>
                <polygon id="Rectangle-3" fill="url(#linearGradient-15)" points="26.3508219 26.4481696 52.7016438 41.7804419 26.3508219 57.1127142 0 41.7804419"></polygon>
                <polygon id="Rectangle-3" fill="url(#linearGradient-16)" transform="translate(39.526233, 76.853015) scale(-1, 1) translate(-39.526233, -76.853015) " points="26.3508219 41.7804419 52.7016438 57.1127142 52.7016438 111.925587 26.3508219 96.5933152"></polygon>
                <path d="M49.26458,84.3274974 L49.26458,91.9936335 L30.1697816,103.109531 L30.1697816,95.4433948 L49.26458,84.3274974 Z M49.26458,73.5949068 L49.26458,81.261043 L30.1697816,92.3769404 L30.1697816,84.7108042 L49.26458,73.5949068 Z M49.26458,62.8623163 L49.26458,70.5284524 L30.1697816,81.6443498 L30.1697816,73.9782136 L49.26458,62.8623163 Z" id="Combined-Shape" fill-opacity="0.109999999" fill="#FFFFFF"></path>
                <polygon id="Rectangle-3" fill="#FF5730" transform="translate(48.118892, 48.871618) scale(-1, 1) translate(-48.118892, -48.871618) " points="46.9732042 47.530044 49.26458 48.8645195 49.26458 50.2131916 46.9732042 48.8787161"></polygon>
                <path d="M14.8939428,41.9304315 L14.8939428,0.303950319 L26.3508219,0.303950319 L26.3508219,0.10181587 L37.807701,0.10181587 L37.807701,41.9304315 L26.3508219,48.5966369 L14.8939428,41.9304315 Z" id="Combined-Shape" fill="url(#linearGradient-17)"></path>
                <polygon id="Rectangle-3" fill="url(#linearGradient-18)" points="26.3508219 35.2642262 37.807701 41.9304315 26.3508219 48.5966369 14.8939428 41.9304315"></polygon>
                <g id="Group-9" transform="translate(19.094798, 21.465181)" fill="#EFF7FF">
                    <ellipse id="Oval-2" cx="0.572843954" cy="10.924244" rx="1" ry="1"></ellipse>
                    <ellipse id="Oval-2" cx="13.3663589" cy="7.28282932" rx="1" ry="1"></ellipse>
                    <ellipse id="Oval-2" cx="9.16550326" cy="0.383306806" rx="1" ry="1"></ellipse>
                    <ellipse id="Oval-2" cx="2.29137582" cy="4.59968168" rx="1" ry="1"></ellipse>
                </g>
                <g id="AI" transform="translate(17.185319, 31.431158)">
                    <path d="M13.7628059,0.72235216 L13.7964078,1.94123408 L6.528,8.47635216 L16.6237866,3.54487549 L18.0819142,3.22715602 L18.0819142,4.37190077 L7.56837645,10.6614424 L6.11024888,9.8344171 L6.11,8.85235216 L5.44089889,9.45477311 L3.91611405,8.58994096 L3.91611405,7.43672289 L5.20637055,7.49762327 L3.38162804,6.4626602 L1.52478483,7.23361949 L0,6.36878733 L0,5.20121882 L12.6715665,1.30324314 L13.7628059,0.72235216 Z" fill="#425991"></path>
                    <path d="M5.44089889,8.30485269 L3.91611405,7.44002054 L5.20637055,6.34770286 L3.38162804,5.31273978 L1.52478483,6.08369907 L0,5.21886691 L12.6715665,0.153322723 L13.7964078,0.791313657 L5.44089889,8.30485269 Z M7.02540048,4.80958327 L9.33104991,2.84764283 L5.99221294,4.22357678 L7.02540048,4.80958327 Z M7.56837645,9.51152196 L6.11024888,8.68449668 L16.6237866,2.39495507 L18.0819142,3.22198035 L7.56837645,9.51152196 Z" fill="url(#linearGradient-19)"></path>
                </g>
            </g>
            <g id="建筑物2" transform="translate(38.953389, 73.594907)">
                <polygon id="Rectangle-3" fill="#3364ED" opacity="0.3" transform="translate(39.526233, 23.190062) scale(-1, 1) translate(-39.526233, -23.190062) " points="26.3508219 15.3322723 52.7016438 0 52.7016438 31.0478513 26.3508219 46.3801236"></polygon>
                <polygon id="Rectangle-3" fill="#3364ED" opacity="0.701596967" transform="translate(26.541770, 46.188470) scale(-1, 1) translate(-26.541770, -46.188470) " points="26.7327179 61.7123958 53.0835397 46.3801236 26.3508219 30.6645445 0 45.9968168"></polygon>
                <polygon id="Rectangle-3" fill="#3364ED" opacity="0.5" transform="translate(13.175411, 23.190062) scale(-1, 1) translate(-13.175411, -23.190062) " points="26.3508219 15.3322723 0 0 0 31.0478513 26.3508219 46.3801236"></polygon>
                <g id="Group-10" transform="translate(5.728440, 6.516216)">
                    <polygon id="Rectangle-3" fill="url(#linearGradient-20)" points="0 12.110273 20.8133303 24.220546 20.8133303 48.7438489 0 36.6335759"></polygon>
                    <polygon id="Rectangle-3" fill="url(#linearGradient-21)" points="20.8133303 0 41.6266607 12.110273 20.8133303 24.220546 0 12.110273"></polygon>
                    <polygon id="Rectangle-3" fill="url(#linearGradient-22)" transform="translate(31.219995, 30.427061) scale(-1, 1) translate(-31.219995, -30.427061) " points="20.8133303 12.110273 41.6266607 24.220546 41.6266607 48.7438489 20.8133303 36.6335759"></polygon>
                </g>
                <polygon id="Rectangle-3" stroke="url(#linearGradient-23)" stroke-width="0.711617419" stroke-linejoin="round" points="0 15.3322723 26.3508219 30.6645445 26.3508219 61.7123958 0 46.3801236"></polygon>
                <polygon id="Rectangle-3" stroke="url(#linearGradient-24)" stroke-width="0.711617419" stroke-linejoin="round" transform="translate(39.526233, 38.522334) scale(-1, 1) translate(-39.526233, -38.522334) " points="26.3508219 15.3322723 52.7016438 30.6645445 52.7016438 61.7123958 26.3508219 46.3801236"></polygon>
                <polygon id="Rectangle-3" stroke="url(#linearGradient-25)" stroke-width="0.711617419" stroke-linejoin="round" points="26.3508219 0 52.7016438 15.3322723 26.3508219 30.6645445 0 15.3322723"></polygon>
                <g id="点" transform="translate(16.039631, 13.415738)" fill="#A2FF74">
                    <ellipse id="Oval-12" cx="7.63791939" cy="4.59968168" rx="1" ry="1"></ellipse>
                    <ellipse id="Oval-12" cx="19.0947985" cy="5.36629529" rx="1" ry="1"></ellipse>
                    <ellipse id="Oval-12" cx="13.7482549" cy="0.766613613" rx="1" ry="1"></ellipse>
                    <ellipse id="Oval-12" cx="12.220671" cy="8.81605655" rx="1" ry="1"></ellipse>
                    <ellipse id="Oval-12" cx="0.763791939" cy="5.36629529" rx="1" ry="1"></ellipse>
                </g>
            </g>
            <g id="建筑物3" transform="translate(131.754109, 60.562475)">
                <polygon id="Rectangle-3" stroke="url(#linearGradient-27)" stroke-width="0.711617419" fill="url(#linearGradient-26)" stroke-linejoin="round" points="0 7.66613613 27.1146138 23.3817152 27.1146138 67.0786911 0 51.3631121"></polygon>
                <g id="Group-17" transform="translate(3.437064, 17.632113)" fill="url(#linearGradient-28)">
                    <polygon id="Rectangle-6" points="0 0 1.90947985 1.14992042 1.90947985 3.83306806 0 2.68314765"></polygon>
                    <polygon id="Rectangle-6" points="4.58275163 9.96597697 6.49223148 11.1158974 6.49223148 13.799045 4.58275163 12.6491246"></polygon>
                    <polygon id="Rectangle-6" points="11.0749831 18.0154199 12.984463 19.1653403 12.984463 21.848488 11.0749831 20.6985675"></polygon>
                    <polygon id="Rectangle-6" points="14.1301509 27.9813969 16.0396307 29.1313173 16.0396307 31.8144649 14.1301509 30.6645445"></polygon>
                    <polygon id="Rectangle-6" points="0.381895969 19.1653403 2.29137582 20.3152607 2.29137582 22.9984084 0.381895969 21.848488"></polygon>
                    <polygon id="Rectangle-6" points="9.16550326 1.53322723 11.0749831 2.68314765 11.0749831 5.36629529 9.16550326 4.21637487"></polygon>
                    <polygon id="Rectangle-6" points="16.8034227 9.96597697 18.7129025 11.1158974 18.7129025 13.799045 16.8034227 12.6491246"></polygon>
                </g>
                <polygon id="Rectangle-3" stroke="#5AC8FF" stroke-width="0.711617419" fill="url(#linearGradient-29)" stroke-linejoin="round" points="12.984463 0 40.4809728 15.7155791 27.1146138 23.3817152 0 7.66613613"></polygon>
                <polygon id="Rectangle-3" stroke="url(#linearGradient-31)" stroke-width="0.711617419" fill="url(#linearGradient-30)" stroke-linejoin="round" transform="translate(33.797793, 41.588788) scale(-1, 1) translate(-33.797793, -41.588788) " points="27.1146138 16.0988859 40.4809728 23.765022 40.4809728 67.0786911 27.1146138 59.412555"></polygon>
                <polygon id="Rectangle-3" fill="#FFFFFF" points="30.5516775 26.29818 37.807701 22.2317948 37.807701 23.148398 30.5516775 27.2147833"></polygon>
                <polygon id="Rectangle-3" fill="#FFFFFF" points="30.5516775 30.1312481 37.807701 26.0648628 37.807701 26.9814661 30.5516775 31.0478513"></polygon>
                <polygon id="Rectangle-3" fill="#FFFFFF" points="30.5516775 33.9643162 37.807701 29.8979309 37.807701 30.8145341 30.5516775 34.8809194"></polygon>
                <polygon id="Rectangle-3" fill="#FFFFFF" points="30.5516775 37.7973842 37.807701 33.730999 37.807701 34.6476022 30.5516775 38.7139875"></polygon>
                <polygon id="Rectangle-3" fill="#FFFFFF" points="30.5516775 41.6304523 37.807701 37.564067 37.807701 38.4806703 30.5516775 42.5470555"></polygon>
            </g>
            <g id="建筑物4" transform="translate(99.292952, 60.945782)">
                <polygon id="Rectangle-3" fill="url(#linearGradient-32)" points="0 30.2812377 18.3310065 41.0138283 18.3310065 84.7108042 0 73.9782136"></polygon>
                <polygon id="Rectangle-3" fill="url(#linearGradient-33)" transform="translate(27.496510, 57.496021) scale(-1, 1) translate(-27.496510, -57.496021) " points="18.3310065 30.2812377 36.6620131 41.0138283 36.6620131 84.7108042 18.3310065 73.9782136"></polygon>
                <polygon id="Rectangle-3" fill="url(#linearGradient-34)" points="18.3310065 19.5486471 36.6620131 30.2812377 18.3310065 41.0138283 0 30.2812377"></polygon>
                <path d="M10.3111912,29.9771746 L10.3111912,0.144863022 L18.5219545,0.144863022 L18.5219545,0 L26.7327179,0 L26.7327179,29.9771746 L18.5219545,34.7546217 L10.3111912,29.9771746 Z" id="Combined-Shape" fill="url(#linearGradient-35)"></path>
                <polygon id="Rectangle-3" fill="url(#linearGradient-36)" points="18.5219545 25.2982492 26.7327179 30.0756964 18.5219545 34.8531435 10.3111912 30.0756964"></polygon>
                <g id="Group-16" transform="translate(12.984463, 17.248806)">
                    <polygon id="Path-2" fill="url(#linearGradient-37)" points="5.42150557 0 0 7.67100233 5.42150557 10.9051535"></polygon>
                    <polygon id="Path-2" fill="url(#linearGradient-38)" transform="translate(8.057296, 5.452577) scale(-1, 1) translate(-8.057296, -5.452577) " points="10.7680491 0 5.34654357 7.67100233 10.7680491 10.9051535"></polygon>
                </g>
                <g id="Group-9" transform="translate(13.748255, 7.666136)" fill="#EFF7FF">
                    <ellipse id="Oval-2" cx="0.572843954" cy="10.924244" rx="1" ry="1"></ellipse>
                    <ellipse id="Oval-2" cx="8.40171133" cy="8.04944294" rx="1" ry="1"></ellipse>
                    <ellipse id="Oval-2" cx="6.11033551" cy="0.383306806" rx="1" ry="1"></ellipse>
                    <ellipse id="Oval-2" cx="2.29137582" cy="4.59968168" rx="1" ry="1"></ellipse>
                </g>
            </g>
            <g id="建筑物5" transform="translate(87.072281, 103.876145)">
                <path d="M0,3.06645445 L9.9292952,3.06645445 L9.9292952,38.3306806 C9.9292952,39.8125422 7.70654676,41.0138283 4.9646476,41.0138283 C2.22274844,41.0138283 0,39.8125422 0,38.3306806 L0,38.3306806 L0,3.06645445 Z" id="Combined-Shape" fill="url(#linearGradient-39)"></path>
                <ellipse id="Oval-3" fill="url(#linearGradient-40)" cx="4.9646476" cy="2.68314765" rx="4.9646476" ry="2.68314765"></ellipse>
            </g>
            <g id="建筑物6" transform="translate(100.820536, 123.041485)">
                <path d="M9.57348649,3.42226316 L9.57348649,26.8314765 C9.57348649,27.1194987 9.46208877,27.3917026 9.27092713,27.6411233 C9.04616251,27.934388 8.7143065,28.1950664 8.30601223,28.4157294 C7.45088245,28.8778849 6.26860557,29.1588154 4.9646476,29.1588154 C3.70239202,29.1588154 2.55427154,28.8954334 1.70611747,28.4593923 C0.95572196,28.0736095 0.424975349,27.5558837 0.361880203,26.9481389 L0.361880203,26.9481389 L0.355899179,3.42226316 L9.57348649,3.42226316 Z" id="Combined-Shape" stroke="url(#linearGradient-42)" stroke-width="0.711617419" fill="url(#linearGradient-41)"></path>
                <ellipse id="Oval-3" fill="url(#linearGradient-40)" cx="4.9646476" cy="2.68314765" rx="4.9646476" ry="2.68314765"></ellipse>
            </g>
            <g id="装饰物1" transform="translate(30.933574, 120.358337)">
                <ellipse id="Oval-5" fill-opacity="0.270000011" fill="#3667EF" cx="8.01981536" cy="15.1406189" rx="8.01981536" ry="4.02472147"></ellipse>
                <ellipse id="Oval-5" fill="#3667EF" cx="7.82886737" cy="15.0447922" rx="1" ry="1"></ellipse>
                <g id="Group" transform="translate(4.200856, 0.000000)">
                    <polygon id="Rectangle-7" fill="#83C6FF" points="0 0 8.01981536 4.59968168 8.01981536 14.5656586 0 9.96597697"></polygon>
                    <polygon id="Rectangle-7" fill="url(#linearGradient-43)" points="0 3.83306806 8.01981536 8.43274974 8.01981536 14.5656586 0 9.96597697"></polygon>
                    <line x1="0.540397714" y1="4.25567879" x2="7.69386118" y2="8.24109634" id="Path-3" stroke="#008AFF" stroke-width="0.64575"></line>
                    <path d="M0.355808709,0.614246638 L7.66400665,4.80578755 L7.66400665,13.951412 L0.355808709,9.7598711 L0.355808709,0.614246638 Z" id="Rectangle-7" stroke="#3465EE" stroke-width="0.711617419"></path>
                </g>
            </g>
            <g id="装饰物2" transform="translate(160.014411, 120.741644)">
                <ellipse id="Oval-5" fill-opacity="0.270000011" fill="#3667EF" cx="12.029723" cy="14.8531387" rx="12.029723" ry="6.0370822"></ellipse>
                <ellipse id="Oval-5" fill="#3667EF" cx="12.029723" cy="14.6614853" rx="1" ry="1"></ellipse>
                <g id="Combined-Shape" transform="translate(8.019815, 0.000000)">
                    <path d="M0.355808709,0.609259926 L8.04590262,4.94771437 L8.04590262,12.0273358 L4.3516639,12.6463902 L0.355808709,7.49693918 L0.355808709,0.609259926 Z" id="Rectangle-5" stroke="#3465EE" stroke-width="0.711617419" fill="#83C6FF"></path>
                    <polygon id="Rectangle-5" fill="#008AFF" points="4.20085566 4.21637487 6.49223148 5.59831318 6.49223148 9.95847455 4.20085566 10.3492838"></polygon>
                    <polygon id="Rectangle" fill="#FFFFFF" points="3.05516775 3.83306806 4.20085566 4.58195267 4.20085566 6.1329089 3.05516775 5.3840243"></polygon>
                    <polygon id="Rectangle" fill="#FFFFFF" opacity="0.6" points="1.52758388 4.59968168 2.67327179 5.34856628 2.67327179 6.89952252 1.52758388 6.15063791"></polygon>
                    <polygon id="Rectangle" fill="#FFFFFF" opacity="0.8" points="3.05516775 6.89952252 4.20085566 7.64840712 4.20085566 9.19936335 3.05516775 8.45047875"></polygon>
                    <polygon id="Rectangle" fill="#FFFFFF" opacity="0.4" points="2.29137582 7.66613613 3.05516775 8.0491486 3.05516775 8.81605655 2.29137582 8.43304408"></polygon>
                </g>
            </g>
        </g>
    </g>
</svg>