<svg width="69" height="50" viewBox="0 0 69 50" fill="none" xmlns="http://www.w3.org/2000/svg">
<path d="M35.6722 3.16284H14.9748C14.4169 3.16284 13.9647 2.71068 13.9647 2.15274C13.9647 1.5948 14.417 1.14264 14.9748 1.14264H35.6722C36.2301 1.14264 36.6824 1.5948 36.6824 2.15274C36.6824 2.71068 36.2302 3.16284 35.6722 3.16284Z" fill="url(#paint0_linear)"/>
<path d="M15.8892 10.5672H5.23557C4.67763 10.5672 4.22546 10.115 4.22546 9.5571C4.22546 8.99916 4.67776 8.547 5.23557 8.547H15.8892C16.4472 8.547 16.8993 8.99916 16.8993 9.5571C16.8993 10.115 16.4472 10.5672 15.8892 10.5672Z" fill="url(#paint1_linear)"/>
<path d="M15.5239 17.4507H11.3155C10.7576 17.4507 10.3054 16.9985 10.3054 16.4406C10.3054 15.8826 10.7577 15.4305 11.3155 15.4305H15.5241C16.082 15.4305 16.5342 15.8826 16.5342 16.4406C16.5342 16.9985 16.0819 17.4507 15.5239 17.4507Z" fill="url(#paint2_linear)"/>
<path d="M11.3155 22.4356H1.0101C0.452164 22.4356 0 21.9834 0 21.4255C0 20.8676 0.452296 20.4154 1.0101 20.4154H11.3154C11.8733 20.4154 12.3255 20.8676 12.3255 21.4255C12.3255 21.9834 11.8733 22.4356 11.3155 22.4356Z" fill="url(#paint3_linear)"/>
<path d="M37.0191 48.7587H14.9748C14.4169 48.7587 13.9647 48.3065 13.9647 47.7484C13.9647 47.1904 14.417 46.7383 14.9748 46.7383H37.0191C37.577 46.7383 38.0292 47.1905 38.0292 47.7484C38.0292 48.3064 37.577 48.7587 37.0191 48.7587Z" fill="url(#paint4_linear)"/>
<path d="M15.8892 41.3543H5.23557C4.67763 41.3543 4.22546 40.9022 4.22546 40.3442C4.22546 39.7863 4.67776 39.334 5.23557 39.334H15.8892C16.4472 39.334 16.8993 39.7861 16.8993 40.3442C16.8993 40.9023 16.4472 41.3543 15.8892 41.3543Z" fill="url(#paint5_linear)"/>
<path d="M15.5239 34.4708H11.3155C10.7576 34.4708 10.3054 34.0187 10.3054 33.4606C10.3054 32.9025 10.7577 32.4505 11.3155 32.4505H15.5241C16.082 32.4505 16.5342 32.9027 16.5342 33.4606C16.5342 34.0185 16.0819 34.4708 15.5239 34.4708Z" fill="url(#paint6_linear)"/>
<path d="M11.3155 29.486H1.0101C0.452164 29.486 0 29.0339 0 28.4759C0 27.918 0.452296 27.4657 1.0101 27.4657H11.3154C11.8733 27.4657 12.3255 27.9179 12.3255 28.4759C12.3255 29.034 11.8733 29.486 11.3155 29.486Z" fill="url(#paint7_linear)"/>
<circle cx="43.0369" cy="24.9506" r="24.9136" fill="url(#paint8_linear)"/>
<circle cx="43.0368" cy="24.9506" r="19.1302" fill="#F4FBFF"/>
<path d="M43.037 12.8058C42.479 12.8058 42.0267 12.3536 42.0267 11.7957V10.2536C42.0267 9.69569 42.4789 9.24353 43.037 9.24353C43.595 9.24353 44.0471 9.69569 44.0471 10.2536V11.7955C44.0471 12.3535 43.5949 12.8058 43.037 12.8058Z" fill="#72B8F8"/>
<path d="M52.339 16.6587C52.0806 16.6587 51.8219 16.56 51.6246 16.3628C51.2301 15.9683 51.2301 15.3287 51.6246 14.9341L52.7148 13.8439C53.1094 13.4496 53.7489 13.4496 54.1435 13.8439C54.5379 14.2384 54.5379 14.878 54.1435 15.2726L53.0532 16.3628C52.856 16.56 52.5975 16.6587 52.339 16.6587Z" fill="#72B8F8"/>
<path d="M57.7339 25.9608H56.1921C55.6342 25.9608 55.1819 25.5087 55.1819 24.9506C55.1819 24.3925 55.634 23.9405 56.1921 23.9405H57.7339C58.2918 23.9405 58.7441 24.3927 58.7441 24.9506C58.7441 25.5085 58.2918 25.9608 57.7339 25.9608Z" fill="#72B8F8"/>
<path d="M53.4292 36.3531C53.1708 36.3531 52.9122 36.2544 52.7148 36.0572L51.6246 34.967C51.2301 34.5724 51.2301 33.9328 51.6246 33.5383C52.0191 33.144 52.6587 33.144 53.0532 33.5383L54.1435 34.6285C54.5379 35.0231 54.5379 35.6627 54.1435 36.0572C53.9463 36.2544 53.6878 36.3531 53.4292 36.3531Z" fill="#72B8F8"/>
<path d="M43.037 40.6577C42.479 40.6577 42.0267 40.2055 42.0267 39.6474V38.1057C42.0267 37.5477 42.4789 37.0956 43.037 37.0956C43.595 37.0956 44.0471 37.5477 44.0471 38.1057V39.6474C44.0471 40.2055 43.5949 40.6577 43.037 40.6577Z" fill="#72B8F8"/>
<path d="M32.6447 36.3531C32.3862 36.3531 32.1277 36.2544 31.9304 36.0572C31.5359 35.6627 31.5359 35.0231 31.9304 34.6285L33.0207 33.5383C33.4151 33.144 34.0548 33.144 34.4493 33.5383C34.8438 33.9328 34.8438 34.5724 34.4493 34.967L33.359 36.0572C33.1618 36.2544 32.9033 36.3531 32.6447 36.3531Z" fill="#72B8F8"/>
<path d="M29.882 25.9608H28.3401C27.7821 25.9608 27.33 25.5087 27.33 24.9506C27.33 24.3925 27.7823 23.9405 28.3401 23.9405H29.882C30.4399 23.9405 30.8921 24.3927 30.8921 24.9506C30.8921 25.5085 30.4398 25.9608 29.882 25.9608Z" fill="#72B8F8"/>
<path d="M33.735 16.6587C33.4765 16.6587 33.2179 16.56 33.0207 16.3628L31.9304 15.2726C31.5359 14.878 31.5359 14.2384 31.9304 13.8439C32.3249 13.4496 32.9646 13.4496 33.359 13.8439L34.4493 14.9341C34.8438 15.3287 34.8438 15.9683 34.4493 16.3628C34.252 16.56 33.9935 16.6587 33.735 16.6587Z" fill="#72B8F8"/>
<path d="M47.4589 25.9608H43.0371C42.4792 25.9608 42.0269 25.5087 42.0269 24.9506V16.4405C42.0269 15.8825 42.479 15.4304 43.0371 15.4304C43.5952 15.4304 44.0472 15.8825 44.0472 16.4405V23.9404H47.4589C48.0169 23.9404 48.4692 24.3925 48.4692 24.9505C48.4692 25.5084 48.0169 25.9608 47.4589 25.9608Z" fill="#72B8F8"/>
<defs>
<linearGradient id="paint0_linear" x1="187.615" y1="17.9252" x2="186.664" y2="-3.85912" gradientUnits="userSpaceOnUse">
<stop stop-color="#592589"/>
<stop offset="0.471529" stop-color="#592589"/>
<stop offset="1" stop-color="#B590D1"/>
</linearGradient>
<linearGradient id="paint1_linear" x1="101.102" y1="25.3295" x2="99.4059" y2="3.63643" gradientUnits="userSpaceOnUse">
<stop stop-color="#592589"/>
<stop offset="0.471529" stop-color="#592589"/>
<stop offset="1" stop-color="#B590D1"/>
</linearGradient>
<linearGradient id="paint2_linear" x1="57.917" y1="32.213" x2="54.53" y2="10.9262" gradientUnits="userSpaceOnUse">
<stop stop-color="#592589"/>
<stop offset="0.471529" stop-color="#592589"/>
<stop offset="1" stop-color="#B590D1"/>
</linearGradient>
<linearGradient id="paint3_linear" x1="94.2138" y1="37.1979" x2="92.4701" y2="15.5124" gradientUnits="userSpaceOnUse">
<stop stop-color="#592589"/>
<stop offset="0.471529" stop-color="#592589"/>
<stop offset="1" stop-color="#B590D1"/>
</linearGradient>
<linearGradient id="paint4_linear" x1="197.909" y1="63.522" x2="197.012" y2="41.7318" gradientUnits="userSpaceOnUse">
<stop stop-color="#592589"/>
<stop offset="0.471529" stop-color="#592589"/>
<stop offset="1" stop-color="#B590D1"/>
</linearGradient>
<linearGradient id="paint5_linear" x1="101.102" y1="56.1176" x2="99.4056" y2="34.4231" gradientUnits="userSpaceOnUse">
<stop stop-color="#592589"/>
<stop offset="0.471529" stop-color="#592589"/>
<stop offset="1" stop-color="#B590D1"/>
</linearGradient>
<linearGradient id="paint6_linear" x1="57.917" y1="49.2341" x2="54.5296" y2="27.946" gradientUnits="userSpaceOnUse">
<stop stop-color="#592589"/>
<stop offset="0.471529" stop-color="#592589"/>
<stop offset="1" stop-color="#B590D1"/>
</linearGradient>
<linearGradient id="paint7_linear" x1="94.2138" y1="44.2493" x2="92.4699" y2="22.5624" gradientUnits="userSpaceOnUse">
<stop stop-color="#592589"/>
<stop offset="0.471529" stop-color="#592589"/>
<stop offset="1" stop-color="#B590D1"/>
</linearGradient>
<linearGradient id="paint8_linear" x1="23.8171" y1="-51.1464" x2="-74.947" y2="37.1204" gradientUnits="userSpaceOnUse">
<stop stop-color="#592589"/>
<stop offset="1" stop-color="#B590D1"/>
</linearGradient>
</defs>
</svg>
