<svg width="43" height="50" viewBox="0 0 43 50" fill="none" xmlns="http://www.w3.org/2000/svg">
<path d="M43 22.1461V46.44C42.9998 48.3398 41.4598 49.8798 39.56 49.88H15.48C13.5803 49.8798 12.0403 48.3398 12.04 46.44V10.32H30.4752C31.3396 10.3215 32.172 10.6472 32.808 11.2327L41.8928 19.6188C42.5977 20.2703 42.999 21.1862 43 22.1461Z" fill="url(#paint0_linear)"/>
<path d="M15.48 12.04L17.2 20.64L10.32 15.48L3.44 20.64L5.16 12.04L0 6.88H6.88L10.32 0L13.76 6.88H20.64L15.48 12.04Z" fill="url(#paint1_linear)"/>
<path d="M42.6516 20.64H35.2599C33.3602 20.6398 31.8202 19.0998 31.8199 17.2V10.5952C32.1837 10.7489 32.5179 10.9646 32.8079 11.2327L41.8927 19.6188C42.2077 19.9084 42.4652 20.2549 42.6516 20.64Z" fill="#7DAFFF"/>
<path d="M25.7999 17.2H27.5199V18.92H25.7999V17.2Z" fill="#3B57C4"/>
<path d="M19.7799 17.2H23.2199V18.92H19.7799V17.2Z" fill="#3B57C4"/>
<path d="M24.08 22.36H30.1V24.08H24.08V22.36Z" fill="#3B57C4"/>
<path d="M36.12 27.52H37.84V29.24H36.12V27.52Z" fill="#3B57C4"/>
<path d="M23.22 27.52H33.54V29.24H23.22V27.52Z" fill="#3B57C4"/>
<path d="M17.2 27.52H20.64V29.24H17.2V27.52Z" fill="#3B57C4"/>
<path d="M26.6599 32.68H37.8399V34.4H26.6599V32.68Z" fill="#3B57C4"/>
<path d="M17.2 32.68H24.08V34.4H17.2V32.68Z" fill="#3B57C4"/>
<path d="M35.26 37.84H37.84V39.56H35.26V37.84Z" fill="#3B57C4"/>
<path d="M23.22 37.84H32.68V39.56H23.22V37.84Z" fill="#3B57C4"/>
<path d="M17.2 37.84H20.64V39.56H17.2V37.84Z" fill="#3B57C4"/>
<path d="M27.5199 43H37.8399V44.72H27.5199V43Z" fill="#3B57C4"/>
<path d="M17.2 43H24.94V44.72H17.2V43Z" fill="#3B57C4"/>
<path d="M19.7799 22.36H21.4999V24.08H19.7799V22.36Z" fill="#3B57C4"/>
<defs>
<linearGradient id="paint0_linear" x1="12.04" y1="10.32" x2="12.04" y2="49.88" gradientUnits="userSpaceOnUse">
<stop stop-color="#ABCFFB"/>
<stop offset="1" stop-color="#72A2F6"/>
</linearGradient>
<linearGradient id="paint1_linear" x1="5.05894" y1="-4.29072" x2="-7.56942" y2="16.5026" gradientUnits="userSpaceOnUse">
<stop stop-color="#DFBA43"/>
<stop offset="1" stop-color="#E8A476"/>
</linearGradient>
</defs>
</svg>
