<?xml version="1.0" encoding="UTF-8"?>
<svg width="285px" height="308px" viewBox="0 0 285 308" version="1.1" xmlns="http://www.w3.org/2000/svg" xmlns:xlink="http://www.w3.org/1999/xlink">
    <title>ILUSTRACION_10</title>
    <defs>
        <linearGradient x1="50%" y1="-32.2815801%" x2="50%" y2="128.81272%" id="linearGradient-1">
            <stop stop-color="#253659" offset="0%"></stop>
            <stop stop-color="#102131" offset="100%"></stop>
        </linearGradient>
        <linearGradient x1="217.295029%" y1="161.094694%" x2="-101.17364%" y2="-72.1381408%" id="linearGradient-2">
            <stop stop-color="#F7618B" offset="0%"></stop>
            <stop stop-color="#2A7AFF" offset="100%"></stop>
        </linearGradient>
        <linearGradient x1="108.09934%" y1="92.789898%" x2="7.03787989%" y2="-26.1119089%" id="linearGradient-3">
            <stop stop-color="#F7618B" offset="0%"></stop>
            <stop stop-color="#2A7AFF" offset="100%"></stop>
        </linearGradient>
    </defs>
    <g id="ILUSTRACION_10" stroke="none" stroke-width="1" fill="none" fill-rule="evenodd">
        <g id="Icon" transform="translate(157.000000, 198.000000)">
            <rect id="Icon-bg" fill="url(#linearGradient-1)" transform="translate(24.729453, 24.729453) rotate(-360.000000) translate(-24.729453, -24.729453) " x="0.185622185" y="0.185622185" width="49.0876607" height="49.0876607" rx="6.69312"></rect>
            <path d="M38.6795755,22.6573209 L38.6795755,22.6573209 L38.6451171,21.6580252 C38.6451171,21.6235667 38.6451171,21.6235667 38.6451171,21.5891083 C38.6451171,21.5546498 38.6451171,21.5546498 38.6451171,21.5201913 L38.6451171,19.3493076 C38.6451171,18.5912213 38.0248646,18.0054273 37.3012367,18.0054273 L36.9911104,18.0054273 L36.9911104,16.523713 C36.9911104,15.7656266 36.370858,15.1798326 35.6472301,15.1798326 L35.3371038,15.1798326 L35.3371038,14.2839124 C35.3371038,13.525826 34.7168513,12.940032 33.9932234,12.940032 L29.3068714,12.940032 C28.548785,12.940032 27.962991,13.5602845 27.962991,14.2839124 L27.962991,15.2487496 L12.1465527,15.2487496 C11.3884663,15.2487496 10.8026723,15.8690021 10.8026723,16.5926299 L10.8026723,22.6228624 L10.4925461,22.6228624 C9.70000124,22.6228624 9.04529029,23.2775734 9.04529029,24.0701182 L9.04529029,37.8190482 C9.04529029,38.611593 9.70000124,39.266304 10.4925461,39.266304 L38.6795755,39.266304 C39.4721204,39.266304 40.1268313,38.611593 40.1268313,37.8190482 L40.1268313,24.0701182 C40.1268313,23.2775734 39.4721204,22.6573209 38.6795755,22.6573209 Z M37.6458214,19.3493076 L37.6458214,21.4857329 L37.6458214,21.5546498 C37.6458214,21.5891083 37.6458214,21.6235667 37.6458214,21.6580252 L37.6458214,22.6573209 L15.1788982,22.6573209 L15.1788982,21.6580252 C15.1788982,21.4857329 15.316732,21.347899 15.4890244,21.347899 L31.8223398,21.347899 C32.0980075,21.347899 32.3392168,21.1066897 32.3392168,20.8310219 L32.3392168,19.3493076 C32.3392168,19.1770153 32.4770507,19.0391814 32.6493431,19.0391814 L37.2667782,19.0391814 C37.473529,19.0047229 37.6458214,19.1425568 37.6458214,19.3493076 Z M35.9573563,16.523713 L35.9573563,17.9709688 L32.6838015,17.9709688 C31.9257152,17.9709688 31.3399212,18.5912213 31.3399212,19.3148492 L31.3399212,20.2796864 L15.5234829,20.2796864 C14.7653965,20.2796864 14.1796025,20.8999388 14.1796025,21.6235667 L14.1796025,22.6228624 L13.5248915,22.6228624 L13.5248915,18.8324306 C13.5248915,18.6601382 13.6627254,18.5223043 13.8350178,18.5223043 L30.1683331,18.5223043 C30.4440009,18.5223043 30.6852102,18.281095 30.6852102,18.0054273 L30.6852102,16.523713 C30.6852102,16.3514206 30.8230441,16.2135868 30.9953364,16.2135868 L35.6127716,16.2135868 C35.8195224,16.2135868 35.9573563,16.3514206 35.9573563,16.523713 Z M11.8364265,16.5926299 C11.8364265,16.4203376 11.9742603,16.2825037 12.1465527,16.2825037 L28.479868,16.2825037 C28.7555358,16.2825037 28.9967451,16.0412944 28.9967451,15.7656266 L28.9967451,14.2839124 C28.9967451,14.11162 29.134579,13.9737861 29.3068714,13.9737861 L33.958765,13.9737861 C34.1310573,13.9737861 34.2688912,14.11162 34.2688912,14.2839124 L34.2688912,15.1798326 L30.9953364,15.1798326 C30.2372501,15.1798326 29.6514561,15.8000851 29.6514561,16.523713 L29.6514561,17.4885502 L13.8350178,17.4885502 C13.0769314,17.4885502 12.4911374,18.1088027 12.4911374,18.8324306 L12.4911374,22.6228624 L11.8364265,22.6228624 L11.8364265,16.5926299 Z M39.0930772,37.8535067 C39.0930772,38.094716 38.9207848,38.2670083 38.6795755,38.2670083 L10.4925461,38.2670083 C10.2513368,38.2670083 10.0790444,38.094716 10.0790444,37.8535067 L10.0790444,24.0701182 C10.0790444,23.8289089 10.2513368,23.6566165 10.4925461,23.6566165 L38.6795755,23.6566165 C38.9207848,23.6566165 39.0930772,23.8289089 39.0930772,24.0701182 L39.0930772,37.8535067 Z" id="Shape" fill="url(#linearGradient-2)" fill-rule="nonzero"></path>
        </g>
        <g id="Icon" transform="translate(53.000000, 61.000000)">
            <rect id="Icon-bg" fill="url(#linearGradient-1)" transform="translate(20.430409, 94.430409) rotate(-360.000000) translate(-20.430409, -94.430409) " x="0.153353057" y="74.1533531" width="40.5541118" height="40.5541118" rx="5.5083"></rect>
            <g transform="translate(114.000000, 0.000000)">
                <rect id="Icon-bg" fill="url(#linearGradient-1)" transform="translate(14.409553, 14.409553) rotate(-360.000000) translate(-14.409553, -14.409553) " x="0.1081598" y="0.1081598" width="28.6027856" height="28.6027856" rx="3.885"></rect>
                <path d="M23.1654133,10.1956371 L20.7023966,8.40590326 C20.5116054,8.26046918 20.2898133,8.19160125 20.0690614,8.18369497 C19.7709111,8.16892269 19.4814994,8.26795935 19.2603314,8.47456312 C19.3061046,7.93943229 18.9940143,7.41886567 18.4669978,7.25054497 L15.5768336,6.31011287 C15.4624005,6.2718298 15.3473432,6.25684946 15.2333262,6.24873511 C14.8132527,6.24873511 14.4245962,6.47052729 14.2113345,6.83026337 C14.1043916,6.31011287 13.6397932,5.92 13.0821918,5.92 L10.0463855,5.92 C9.40556006,5.92 8.88,6.43994244 8.88,7.08305651 L8.88,22.5001092 C8.88,23.142183 9.40556006,23.6623335 10.0463855,23.6623335 L12.1517466,23.6623335 L12.9506978,24.1675036 C13.5603142,24.5886175 14.3087067,24.4402706 14.6590801,24.0362176 L23.5546939,11.6025402 C23.7604654,11.1131826 23.6154475,10.5243722 23.1654133,10.1956371 Z M9.30714759,7.08243233 C9.30714759,6.6696409 9.6348424,6.35588612 10.0465935,6.35588612 L13.0821918,6.35588612 C13.4945672,6.35588612 13.8070736,6.66943284 13.8070736,7.08243233 L13.8070736,10.2409942 L9.30714759,10.2409942 L9.30714759,7.08243233 Z M13.8072816,18.9054531 L9.30693953,18.9054531 L9.30693953,15.0053647 L13.8072816,15.0053647 L13.8072816,18.9054531 Z M13.8072816,14.5771768 L9.30693953,14.5771768 L9.30693953,10.6770884 L13.8072816,10.6770884 L13.8072816,14.5771768 Z M14.2419194,8.04616717 L14.5165589,7.19728156 C14.6078973,6.90662146 14.8673483,6.70750785 15.1492699,6.68503735 C15.2404003,6.67713106 15.3398531,6.69252752 15.4388897,6.72332043 L18.3298862,7.66416865 C18.7191668,7.78650805 18.9251464,8.19909142 18.8023909,8.58920429 L17.8267966,11.602124 L14.2419194,10.4322015 L14.2419194,8.04616717 Z M14.2412952,10.8911823 L14.2412952,10.8911823 L17.6890608,12.0151235 L16.4912582,15.7169306 L14.2415033,14.9824781 L14.2415033,10.8911823 L14.2412952,10.8911823 Z M14.2412952,19.5329627 L14.2412952,15.4416669 L14.2415033,15.4416669 L16.3622609,16.1299301 L15.1642503,19.831113 L14.2412952,19.5329627 Z M16.1489992,21.1310731 L15.3704379,20.5726395 L16.6364842,16.6725511 L18.429339,17.9804175 L16.1489992,21.1310731 Z M18.6883739,17.6206814 L16.774012,16.2439471 L18.0400583,12.3442748 L20.9687137,14.4704419 L18.6883739,17.6206814 Z M12.9001392,18.0293116 C13.010796,18.0293116 13.1005011,18.1190168 13.1005011,18.2296736 C13.1005011,18.3403305 13.010796,18.4300356 12.9001392,18.4300356 C12.7894823,18.4300356 12.6997772,18.3403305 12.6997772,18.2296736 C12.6997772,18.1190168 12.7894823,18.0293116 12.9001392,18.0293116 Z M10.9776629,18.0295197 C11.0882049,18.0295197 11.1778168,18.1191317 11.1778168,18.2296736 C11.1778168,18.3402156 11.0882049,18.4298275 10.9776629,18.4298275 C10.867121,18.4298275 10.777509,18.3402156 10.777509,18.2296736 C10.777509,18.1191317 10.867121,18.0295197 10.9776629,18.0295197 Z M10.0164248,17.3882782 C10.1269668,17.3882782 10.2165787,17.4778901 10.2165787,17.5884321 C10.2165787,17.698974 10.1269668,17.788586 10.0164248,17.788586 C9.90588285,17.788586 9.8162709,17.698974 9.8162709,17.5884321 C9.8162709,17.4778901 9.90588285,17.3882782 10.0164248,17.3882782 Z M11.9391091,17.3880701 C12.049766,17.3880701 12.1394711,17.4777752 12.1394711,17.5884321 C12.1394711,17.6990889 12.049766,17.7887941 11.9391091,17.7887941 C11.8284522,17.7887941 11.7387471,17.6990889 11.7387471,17.5884321 C11.7387471,17.4777752 11.8284522,17.3880701 11.9391091,17.3880701 Z M10.9776629,16.7472447 C11.0882049,16.7472447 11.1778168,16.8368567 11.1778168,16.9473986 C11.1778168,17.0579406 11.0882049,17.1475525 10.9776629,17.1475525 C10.867121,17.1475525 10.777509,17.0579406 10.777509,16.9473986 C10.777509,16.8368567 10.867121,16.7472447 10.9776629,16.7472447 Z M12.9001392,16.7470366 C13.010796,16.7470366 13.1005011,16.8367417 13.1005011,16.9473986 C13.1005011,17.0580555 13.010796,17.1477606 12.9001392,17.1477606 C12.7894823,17.1477606 12.6997772,17.0580555 12.6997772,16.9473986 C12.6997772,16.8367417 12.7894823,16.7470366 12.9001392,16.7470366 Z M11.9391091,16.1064193 C12.049766,16.1064193 12.1394711,16.1961244 12.1394711,16.3067813 C12.1394711,16.4174381 12.049766,16.5071432 11.9391091,16.5071432 C11.8284522,16.5071432 11.7387471,16.4174381 11.7387471,16.3067813 C11.7387471,16.1961244 11.8284522,16.1064193 11.9391091,16.1064193 Z M10.0164248,16.1066273 C10.1269668,16.1066273 10.2165787,16.1962393 10.2165787,16.3067813 C10.2165787,16.4173232 10.1269668,16.5069352 10.0164248,16.5069352 C9.90588285,16.5069352 9.8162709,16.4173232 9.8162709,16.3067813 C9.8162709,16.1962393 9.90588285,16.1066273 10.0164248,16.1066273 Z M10.9776629,15.4658019 C11.0882049,15.4658019 11.1778168,15.5554139 11.1778168,15.6659558 C11.1778168,15.7764978 11.0882049,15.8661098 10.9776629,15.8661098 C10.867121,15.8661098 10.777509,15.7764978 10.777509,15.6659558 C10.777509,15.5554139 10.867121,15.4658019 10.9776629,15.4658019 Z M12.9001392,15.4655939 C13.010796,15.4655939 13.1005011,15.555299 13.1005011,15.6659558 C13.1005011,15.7766127 13.010796,15.8663178 12.9001392,15.8663178 C12.7894823,15.8663178 12.6997772,15.7766127 12.6997772,15.6659558 C12.6997772,15.555299 12.7894823,15.4655939 12.9001392,15.4655939 Z M20.0465909,8.61229898 C20.1837026,8.61958108 20.3366268,8.66577045 20.4585501,8.75731693 L22.9149088,10.5391445 C23.2423955,10.7840313 23.3112635,11.2430121 23.074699,11.5717472 L21.2212988,14.1261023 L18.1854924,11.9088048 L18.9253545,9.61410883 L19.4290682,8.91835553 C19.5809522,8.71133563 19.8102345,8.60460075 20.0465909,8.61229898 Z M11.1524335,13.668786 C11.2630904,13.668786 11.3527955,13.7584911 11.3527955,13.869148 C11.3527955,13.9798048 11.2630904,14.0695099 11.1524335,14.0695099 C11.0417766,14.0695099 10.9520715,13.9798048 10.9520715,13.869148 C10.9520715,13.7584911 11.0417766,13.668786 11.1524335,13.668786 Z M12.4338763,13.6689941 C12.5444182,13.6689941 12.6340302,13.758606 12.6340302,13.869148 C12.6340302,13.9796899 12.5444182,14.0693019 12.4338763,14.0693019 C12.3233343,14.0693019 12.2337223,13.9796899 12.2337223,13.869148 C12.2337223,13.758606 12.3233343,13.6689941 12.4338763,13.6689941 Z M9.94942942,13.6689941 C10.0599714,13.6689941 10.1495833,13.758606 10.1495833,13.869148 C10.1495833,13.9796899 10.0599714,14.0693019 9.94942942,14.0693019 C9.83888747,14.0693019 9.74927551,13.9796899 9.74927551,13.869148 C9.74927551,13.758606 9.83888747,13.6689941 9.94942942,13.6689941 Z M13.0749097,13.0552165 C13.1854517,13.0552165 13.2750636,13.1448284 13.2750636,13.2553704 C13.2750636,13.3659123 13.1854517,13.4555243 13.0749097,13.4555243 C12.9643678,13.4555243 12.8747558,13.3659123 12.8747558,13.2553704 C12.8747558,13.1448284 12.9643678,13.0552165 13.0749097,13.0552165 Z M11.7930508,13.0552165 C11.9035928,13.0552165 11.9932048,13.1448284 11.9932048,13.2553704 C11.9932048,13.3659123 11.9035928,13.4555243 11.7930508,13.4555243 C11.6825089,13.4555243 11.5928969,13.3659123 11.5928969,13.2553704 C11.5928969,13.1448284 11.6825089,13.0552165 11.7930508,13.0552165 Z M10.4914262,13.0552165 C10.6019682,13.0552165 10.6915802,13.1448284 10.6915802,13.2553704 C10.6915802,13.3659123 10.6019682,13.4555243 10.4914262,13.4555243 C10.3808843,13.4555243 10.2912723,13.3659123 10.2912723,13.2553704 C10.2912723,13.1448284 10.3808843,13.0552165 10.4914262,13.0552165 Z M11.1524335,12.4139749 C11.2630904,12.4139749 11.3527955,12.50368 11.3527955,12.6143369 C11.3527955,12.7249938 11.2630904,12.8146989 11.1524335,12.8146989 C11.0417766,12.8146989 10.9520715,12.7249938 10.9520715,12.6143369 C10.9520715,12.50368 11.0417766,12.4139749 11.1524335,12.4139749 Z M9.94942942,12.414183 C10.0599714,12.414183 10.1495833,12.5037949 10.1495833,12.6143369 C10.1495833,12.7248789 10.0599714,12.8144908 9.94942942,12.8144908 C9.83888747,12.8144908 9.74927551,12.7248789 9.74927551,12.6143369 C9.74927551,12.5037949 9.83888747,12.414183 9.94942942,12.414183 Z M12.4338763,12.414183 C12.5444182,12.414183 12.6340302,12.5037949 12.6340302,12.6143369 C12.6340302,12.7248789 12.5444182,12.8144908 12.4338763,12.8144908 C12.3233343,12.8144908 12.2337223,12.7248789 12.2337223,12.6143369 C12.2337223,12.5037949 12.3233343,12.414183 12.4338763,12.414183 Z M13.0749097,11.7465178 C13.1854517,11.7465178 13.2750636,11.8361298 13.2750636,11.9466717 C13.2750636,12.0572137 13.1854517,12.1468256 13.0749097,12.1468256 C12.9643678,12.1468256 12.8747558,12.0572137 12.8747558,11.9466717 C12.8747558,11.8361298 12.9643678,11.7465178 13.0749097,11.7465178 Z M11.7930508,11.7465178 C11.9035928,11.7465178 11.9932048,11.8361298 11.9932048,11.9466717 C11.9932048,12.0572137 11.9035928,12.1468256 11.7930508,12.1468256 C11.6825089,12.1468256 11.5928969,12.0572137 11.5928969,11.9466717 C11.5928969,11.8361298 11.6825089,11.7465178 11.7930508,11.7465178 Z M10.4914262,11.7465178 C10.6019682,11.7465178 10.6915802,11.8361298 10.6915802,11.9466717 C10.6915802,12.0572137 10.6019682,12.1468256 10.4914262,12.1468256 C10.3808843,12.1468256 10.2912723,12.0572137 10.2912723,11.9466717 C10.2912723,11.8361298 10.3808843,11.7465178 10.4914262,11.7465178 Z M11.1524335,11.1054843 C11.2630904,11.1054843 11.3527955,11.1951894 11.3527955,11.3058463 C11.3527955,11.4165032 11.2630904,11.5062083 11.1524335,11.5062083 C11.0417766,11.5062083 10.9520715,11.4165032 10.9520715,11.3058463 C10.9520715,11.1951894 11.0417766,11.1054843 11.1524335,11.1054843 Z M9.94942942,11.1056924 C10.0599714,11.1056924 10.1495833,11.1953044 10.1495833,11.3058463 C10.1495833,11.4163883 10.0599714,11.5060002 9.94942942,11.5060002 C9.83888747,11.5060002 9.74927551,11.4163883 9.74927551,11.3058463 C9.74927551,11.1953044 9.83888747,11.1056924 9.94942942,11.1056924 Z M12.4338763,11.1056924 C12.5444182,11.1056924 12.6340302,11.1953044 12.6340302,11.3058463 C12.6340302,11.4163883 12.5444182,11.5060002 12.4338763,11.5060002 C12.3233343,11.5060002 12.2337223,11.4163883 12.2337223,11.3058463 C12.2337223,11.1953044 12.3233343,11.1056924 12.4338763,11.1056924 Z M11.1524335,9.40542445 C11.2630904,9.40542445 11.3527955,9.49512956 11.3527955,9.60578643 C11.3527955,9.71644329 11.2630904,9.8061484 11.1524335,9.8061484 C11.0417766,9.8061484 10.9520715,9.71644329 10.9520715,9.60578643 C10.9520715,9.49512956 11.0417766,9.40542445 11.1524335,9.40542445 Z M9.94984554,9.40542445 C10.0605024,9.40542445 10.1502075,9.49512956 10.1502075,9.60578643 C10.1502075,9.71644329 10.0605024,9.8061484 9.94984554,9.8061484 C9.83918868,9.8061484 9.74948357,9.71644329 9.74948357,9.60578643 C9.74948357,9.49512956 9.83918868,9.40542445 9.94984554,9.40542445 Z M12.4338763,9.40563251 C12.5444182,9.40563251 12.6340302,9.49524447 12.6340302,9.60578643 C12.6340302,9.71632838 12.5444182,9.80594034 12.4338763,9.80594034 C12.3233343,9.80594034 12.2337223,9.71632838 12.2337223,9.60578643 C12.2337223,9.49524447 12.3233343,9.40563251 12.4338763,9.40563251 Z M13.0749097,9.40563251 C13.1854517,9.40563251 13.2750636,9.49524447 13.2750636,9.60578643 C13.2750636,9.71632838 13.1854517,9.80594034 13.0749097,9.80594034 C12.9643678,9.80594034 12.8747558,9.71632838 12.8747558,9.60578643 C12.8747558,9.49524447 12.9643678,9.40563251 13.0749097,9.40563251 Z M10.4914262,9.40563251 C10.6019682,9.40563251 10.6915802,9.49524447 10.6915802,9.60578643 C10.6915802,9.71632838 10.6019682,9.80594034 10.4914262,9.80594034 C10.3808843,9.80594034 10.2912723,9.71632838 10.2912723,9.60578643 C10.2912723,9.49524447 10.3808843,9.40563251 10.4914262,9.40563251 Z M11.7930508,9.40563251 C11.9035928,9.40563251 11.9932048,9.49524447 11.9932048,9.60578643 C11.9932048,9.71632838 11.9035928,9.80594034 11.7930508,9.80594034 C11.6825089,9.80594034 11.5928969,9.71632838 11.5928969,9.60578643 C11.5928969,9.49524447 11.6825089,9.40563251 11.7930508,9.40563251 Z M9.94984554,8.79143881 C10.0605024,8.79143881 10.1502075,8.88114392 10.1502075,8.99180078 C10.1502075,9.10245764 10.0605024,9.19216275 9.94984554,9.19216275 C9.83918868,9.19216275 9.74948357,9.10245764 9.74948357,8.99180078 C9.74948357,8.88114392 9.83918868,8.79143881 9.94984554,8.79143881 Z M11.1524335,8.79143881 C11.2630904,8.79143881 11.3527955,8.88114392 11.3527955,8.99180078 C11.3527955,9.10245764 11.2630904,9.19216275 11.1524335,9.19216275 C11.0417766,9.19216275 10.9520715,9.10245764 10.9520715,8.99180078 C10.9520715,8.88114392 11.0417766,8.79143881 11.1524335,8.79143881 Z M10.4914262,8.79164687 C10.6019682,8.79164687 10.6915802,8.88125883 10.6915802,8.99180078 C10.6915802,9.10234273 10.6019682,9.19195469 10.4914262,9.19195469 C10.3808843,9.19195469 10.2912723,9.10234273 10.2912723,8.99180078 C10.2912723,8.88125883 10.3808843,8.79164687 10.4914262,8.79164687 Z M12.4338763,8.79164687 C12.5444182,8.79164687 12.6340302,8.88125883 12.6340302,8.99180078 C12.6340302,9.10234273 12.5444182,9.19195469 12.4338763,9.19195469 C12.3233343,9.19195469 12.2337223,9.10234273 12.2337223,8.99180078 C12.2337223,8.88125883 12.3233343,8.79164687 12.4338763,8.79164687 Z M11.7930508,8.79164687 C11.9035928,8.79164687 11.9932048,8.88125883 11.9932048,8.99180078 C11.9932048,9.10234273 11.9035928,9.19195469 11.7930508,9.19195469 C11.6825089,9.19195469 11.5928969,9.10234273 11.5928969,8.99180078 C11.5928969,8.88125883 11.6825089,8.79164687 11.7930508,8.79164687 Z M13.0749097,8.79164687 C13.1854517,8.79164687 13.2750636,8.88125883 13.2750636,8.99180078 C13.2750636,9.10234273 13.1854517,9.19195469 13.0749097,9.19195469 C12.9643678,9.19195469 12.8747558,9.10234273 12.8747558,8.99180078 C12.8747558,8.88125883 12.9643678,8.79164687 13.0749097,8.79164687 Z M13.0749097,8.15082145 C13.1854517,8.15082145 13.2750636,8.24043341 13.2750636,8.35097537 C13.2750636,8.46151732 13.1854517,8.55112928 13.0749097,8.55112928 C12.9643678,8.55112928 12.8747558,8.46151732 12.8747558,8.35097537 C12.8747558,8.24043341 12.9643678,8.15082145 13.0749097,8.15082145 Z M10.4914262,8.15082145 C10.6019682,8.15082145 10.6915802,8.24043341 10.6915802,8.35097537 C10.6915802,8.46151732 10.6019682,8.55112928 10.4914262,8.55112928 C10.3808843,8.55112928 10.2912723,8.46151732 10.2912723,8.35097537 C10.2912723,8.24043341 10.3808843,8.15082145 10.4914262,8.15082145 Z M12.4338763,8.15082145 C12.5444182,8.15082145 12.6340302,8.24043341 12.6340302,8.35097537 C12.6340302,8.46151732 12.5444182,8.55112928 12.4338763,8.55112928 C12.3233343,8.55112928 12.2337223,8.46151732 12.2337223,8.35097537 C12.2337223,8.24043341 12.3233343,8.15082145 12.4338763,8.15082145 Z M9.94984554,8.15061339 C10.0605024,8.15061339 10.1502075,8.2403185 10.1502075,8.35097537 C10.1502075,8.46163223 10.0605024,8.55133734 9.94984554,8.55133734 C9.83918868,8.55133734 9.74948357,8.46163223 9.74948357,8.35097537 C9.74948357,8.2403185 9.83918868,8.15061339 9.94984554,8.15061339 Z M11.7930508,8.15082145 C11.9035928,8.15082145 11.9932048,8.24043341 11.9932048,8.35097537 C11.9932048,8.46151732 11.9035928,8.55112928 11.7930508,8.55112928 C11.6825089,8.55112928 11.5928969,8.46151732 11.5928969,8.35097537 C11.5928969,8.24043341 11.6825089,8.15082145 11.7930508,8.15082145 Z M11.1524335,8.15061339 C11.2630904,8.15061339 11.3527955,8.2403185 11.3527955,8.35097537 C11.3527955,8.46163223 11.2630904,8.55133734 11.1524335,8.55133734 C11.0417766,8.55133734 10.9520715,8.46163223 10.9520715,8.35097537 C10.9520715,8.2403185 11.0417766,8.15061339 11.1524335,8.15061339 Z M9.94984554,7.48274015 C10.0605024,7.48274015 10.1502075,7.57244526 10.1502075,7.68310213 C10.1502075,7.79375899 10.0605024,7.8834641 9.94984554,7.8834641 C9.83918868,7.8834641 9.74948357,7.79375899 9.74948357,7.68310213 C9.74948357,7.57244526 9.83918868,7.48274015 9.94984554,7.48274015 Z M11.1524335,7.48274015 C11.2630904,7.48274015 11.3527955,7.57244526 11.3527955,7.68310213 C11.3527955,7.79375899 11.2630904,7.8834641 11.1524335,7.8834641 C11.0417766,7.8834641 10.9520715,7.79375899 10.9520715,7.68310213 C10.9520715,7.57244526 11.0417766,7.48274015 11.1524335,7.48274015 Z M11.7930508,7.48294821 C11.9035928,7.48294821 11.9932048,7.57256017 11.9932048,7.68310213 C11.9932048,7.79364408 11.9035928,7.88325604 11.7930508,7.88325604 C11.6825089,7.88325604 11.5928969,7.79364408 11.5928969,7.68310213 C11.5928969,7.57256017 11.6825089,7.48294821 11.7930508,7.48294821 Z M13.0749097,7.48294821 C13.1854517,7.48294821 13.2750636,7.57256017 13.2750636,7.68310213 C13.2750636,7.79364408 13.1854517,7.88325604 13.0749097,7.88325604 C12.9643678,7.88325604 12.8747558,7.79364408 12.8747558,7.68310213 C12.8747558,7.57256017 12.9643678,7.48294821 13.0749097,7.48294821 Z M10.4914262,7.48294821 C10.6019682,7.48294821 10.6915802,7.57256017 10.6915802,7.68310213 C10.6915802,7.79364408 10.6019682,7.88325604 10.4914262,7.88325604 C10.3808843,7.88325604 10.2912723,7.79364408 10.2912723,7.68310213 C10.2912723,7.57256017 10.3808843,7.48294821 10.4914262,7.48294821 Z M12.4338763,7.48294821 C12.5444182,7.48294821 12.6340302,7.57256017 12.6340302,7.68310213 C12.6340302,7.79364408 12.5444182,7.88325604 12.4338763,7.88325604 C12.3233343,7.88325604 12.2337223,7.79364408 12.2337223,7.68310213 C12.2337223,7.57256017 12.3233343,7.48294821 12.4338763,7.48294821 Z M9.94984554,6.8421228 C10.0605024,6.8421228 10.1502075,6.93182791 10.1502075,7.04248477 C10.1502075,7.15314163 10.0605024,7.24284675 9.94984554,7.24284675 C9.83918868,7.24284675 9.74948357,7.15314163 9.74948357,7.04248477 C9.74948357,6.93182791 9.83918868,6.8421228 9.94984554,6.8421228 Z M11.1524335,6.8421228 C11.2630904,6.8421228 11.3527955,6.93182791 11.3527955,7.04248477 C11.3527955,7.15314163 11.2630904,7.24284675 11.1524335,7.24284675 C11.0417766,7.24284675 10.9520715,7.15314163 10.9520715,7.04248477 C10.9520715,6.93182791 11.0417766,6.8421228 11.1524335,6.8421228 Z M11.7930508,6.84233086 C11.9035928,6.84233086 11.9932048,6.93194282 11.9932048,7.04248477 C11.9932048,7.15302673 11.9035928,7.24263869 11.7930508,7.24263869 C11.6825089,7.24263869 11.5928969,7.15302673 11.5928969,7.04248477 C11.5928969,6.93194282 11.6825089,6.84233086 11.7930508,6.84233086 Z M13.0749097,6.84233086 C13.1854517,6.84233086 13.2750636,6.93194282 13.2750636,7.04248477 C13.2750636,7.15302673 13.1854517,7.24263869 13.0749097,7.24263869 C12.9643678,7.24263869 12.8747558,7.15302673 12.8747558,7.04248477 C12.8747558,6.93194282 12.9643678,6.84233086 13.0749097,6.84233086 Z M10.4914262,6.84233086 C10.6019682,6.84233086 10.6915802,6.93194282 10.6915802,7.04248477 C10.6915802,7.15302673 10.6019682,7.24263869 10.4914262,7.24263869 C10.3808843,7.24263869 10.2912723,7.15302673 10.2912723,7.04248477 C10.2912723,6.93194282 10.3808843,6.84233086 10.4914262,6.84233086 Z M12.4338763,6.84233086 C12.5444182,6.84233086 12.6340302,6.93194282 12.6340302,7.04248477 C12.6340302,7.15302673 12.5444182,7.24263869 12.4338763,7.24263869 C12.3233343,7.24263869 12.2337223,7.15302673 12.2337223,7.04248477 C12.2337223,6.93194282 12.3233343,6.84233086 12.4338763,6.84233086 Z" id="Combined-Shape" fill="url(#linearGradient-3)" fill-rule="nonzero"></path>
            </g>
            <path d="M17.0264176,102.668341 L16.1450896,100.175442 L9.5225392,100.175442 L8.6160304,102.668341 L2.623,102.668341 L10.0765168,85.0166 L16.0695472,85.0166 L23.2460752,102.668341 L17.0264176,102.668341 Z M11.0333872,95.9954288 L14.709784,95.9954288 L12.8967664,90.8333648 L11.0333872,95.9954288 Z M35.7483424,89.989808 C36.8646968,90.8879277 37.4228656,92.1427583 37.4228656,93.7543376 L37.4228656,102.668341 L31.8579088,102.668341 L31.8579088,101.182674 C31.0185446,102.340996 29.7259431,102.920149 27.9800656,102.920149 C26.5363592,102.920149 25.4074313,102.52985 24.593248,101.749242 C23.7790647,100.968633 23.3719792,99.9152466 23.3719792,98.5890512 C23.3719792,97.2292812 23.8252291,96.1968787 24.7317424,95.4918128 C25.6382557,94.7867469 26.9644313,94.4174322 28.7103088,94.3838576 L31.8579088,94.3838576 C31.8411215,93.8970264 31.6522674,93.5235149 31.2913408,93.263312 C30.9304142,93.0031091 30.4058194,92.8730096 29.7175408,92.8730096 C29.1803477,92.8730096 28.5382437,92.9485512 27.7912096,93.0996368 C27.0441755,93.2507224 26.2929558,93.4689538 25.537528,93.7543376 L24.278488,89.9772176 C25.4535979,89.5407482 26.6244934,89.2092043 27.7912096,88.982576 C28.9579258,88.7559477 30.0532797,88.6426352 31.077304,88.6426352 C33.0749908,88.6426352 34.631988,89.0916883 35.7483424,89.989808 Z M31.014352,99.0423056 C31.3584913,98.8576455 31.6396741,98.5974465 31.8579088,98.2617008 L31.8579088,97.0026608 L29.8938064,97.0026608 C29.0880168,97.0026608 28.685128,97.3719755 28.685128,98.110616 C28.685128,98.4967235 28.7942437,98.7946934 29.0124784,99.0045344 C29.2307131,99.2143754 29.5412732,99.3192944 29.944168,99.3192944 C30.3134882,99.3192944 30.6702127,99.2269657 31.014352,99.0423056 Z" id="Aa" fill="#986CC0" opacity="0.191989272"></path>
            <text id="Bb" font-family="Helvetica" font-size="9.4428" font-weight="normal" fill="#8C6EC7">
                <tspan x="14.6844454" y="102.4102">Bb</tspan>
            </text>
        </g>
    </g>
</svg>