<?xml version="1.0" encoding="UTF-8"?>
<svg width="14px" height="14px" viewBox="0 0 14 14" version="1.1" xmlns="http://www.w3.org/2000/svg" xmlns:xlink="http://www.w3.org/1999/xlink">
    <title>ICON_01</title>
    <defs>
        <linearGradient x1="0%" y1="-16.3254217%" x2="100%" y2="100%" id="linearGradient-1">
            <stop stop-color="#0D2A93" offset="0%"></stop>
            <stop stop-color="#9C5EBE" offset="57.4451982%"></stop>
            <stop stop-color="#E2689A" offset="100%"></stop>
        </linearGradient>
    </defs>
    <g id="Page-1" stroke="none" stroke-width="1" fill="none" fill-rule="evenodd">
        <g id="1.0-Home---Usuario" transform="translate(-88.000000, -223.000000)" fill="url(#linearGradient-1)" fill-rule="nonzero">
            <path d="M95,227.741443 C93.7545859,227.741443 92.7413774,228.754665 92.7413774,230.000096 C92.7413774,231.245527 93.7545859,232.25875 95,232.25875 C96.2454141,232.25875 97.2586226,231.245527 97.2586226,230.000096 C97.2586226,228.754665 96.2454141,227.741443 95,227.741443 Z M95,230.720943 C94.6026746,230.720943 94.279163,230.397619 94.279163,230.000096 C94.279163,229.602573 94.6026746,229.279249 95,229.279249 C95.3973254,229.279249 95.720837,229.602573 95.720837,230.000096 C95.720837,230.397619 95.3973254,230.720943 95,230.720943 Z M95,225.33862 C92.4297836,225.33862 90.3385874,227.429652 90.3385874,230.000096 C90.3385874,232.57054 92.4297836,234.661573 95,234.661573 C97.5702164,234.661573 99.6614126,232.57054 99.6614126,230.000096 C99.6614126,227.429652 97.5702164,225.33862 95,225.33862 Z M95,233.123766 C93.2776801,233.123766 91.876373,231.72244 91.876373,230.000096 C91.876373,228.277753 93.2776801,226.876426 95,226.876426 C96.7223199,226.876426 98.123627,228.277753 98.123627,230.000096 C98.123627,231.72244 96.7223199,233.123766 95,233.123766 Z M102,230.000096 C102,228.346569 101.422562,226.826255 100.460292,225.627151 L101.342981,224.744449 L100.255767,223.657028 L99.3728855,224.539729 C98.1739895,223.577446 96.653504,223 95,223 C93.346496,223 91.8262028,223.577446 90.6271145,224.539729 L89.7442333,223.656836 L88.6570189,224.744257 L89.5397078,225.626958 C88.5776307,226.826063 88,228.346377 88,229.999904 C88,231.653431 88.5774385,233.173745 89.5397078,234.372849 L88.6570189,235.255551 L89.7442333,236.342972 L90.6271145,235.460271 C91.8260105,236.422554 93.346496,237 95,237 C96.653504,237 98.1739895,236.422554 99.3728855,235.460271 L100.255767,236.343164 L101.342981,235.255743 L100.460292,234.373042 C101.422562,233.173937 102,231.653623 102,230.000096 Z M95,235.462386 C91.9880547,235.462386 89.5377856,233.011891 89.5377856,230.000096 C89.5377856,226.988302 91.9880547,224.537807 95,224.537807 C98.0119453,224.537807 100.462214,226.988302 100.462214,230.000096 C100.462214,233.011891 98.0119453,235.462386 95,235.462386 Z" id="ICON_01"></path>
        </g>
    </g>
</svg>