<?xml version="1.0" encoding="UTF-8"?>
<svg width="285px" height="308px" viewBox="0 0 285 308" version="1.1" xmlns="http://www.w3.org/2000/svg" xmlns:xlink="http://www.w3.org/1999/xlink">
    <title>ILUSTRACION_03</title>
    <defs>
        <linearGradient x1="-46.0839838%" y1="132.824025%" x2="95.8956492%" y2="13.5111508%" id="linearGradient-1">
            <stop stop-color="#72B8F8" offset="0%"></stop>
            <stop stop-color="#E9EFFD" offset="68%"></stop>
        </linearGradient>
        <linearGradient x1="52.6990057%" y1="64.1646672%" x2="8.20811671%" y2="-25.6197773%" id="linearGradient-2">
            <stop stop-color="#E8A476" offset="0%"></stop>
            <stop stop-color="#F1B287" offset="100%"></stop>
        </linearGradient>
        <linearGradient x1="-24.7995921%" y1="56.9496928%" x2="130.785328%" y2="45.4194394%" id="linearGradient-3">
            <stop stop-color="#7288F6" offset="0%"></stop>
            <stop stop-color="#72B6F6" offset="100%"></stop>
        </linearGradient>
        <linearGradient x1="-75.9176543%" y1="68.8965806%" x2="127.976901%" y2="35.6439011%" id="linearGradient-4">
            <stop stop-color="#7288F6" offset="0%"></stop>
            <stop stop-color="#72B6F6" offset="100%"></stop>
        </linearGradient>
        <linearGradient x1="44.9190759%" y1="23.8259802%" x2="142.805512%" y2="45.1536212%" id="linearGradient-5">
            <stop stop-color="#E8A476" offset="0%"></stop>
            <stop stop-color="#F1B287" offset="100%"></stop>
        </linearGradient>
        <linearGradient x1="140.61179%" y1="-119.469117%" x2="62.0993777%" y2="90.6918846%" id="linearGradient-6">
            <stop stop-color="#632E40" offset="0%"></stop>
            <stop stop-color="#48202D" offset="100%"></stop>
        </linearGradient>
        <linearGradient x1="-15.9028909%" y1="-53.7492629%" x2="221.591891%" y2="13.7469365%" id="linearGradient-7">
            <stop stop-color="#E8A476" offset="0%"></stop>
            <stop stop-color="#F1B287" offset="100%"></stop>
        </linearGradient>
        <linearGradient x1="62.338544%" y1="50.1915527%" x2="162.352992%" y2="50.1915527%" id="linearGradient-8">
            <stop stop-color="#E8A476" offset="0%"></stop>
            <stop stop-color="#F1B287" offset="100%"></stop>
        </linearGradient>
        <linearGradient x1="1.43399139e-12%" y1="50.0442488%" x2="100%" y2="50.0442488%" id="linearGradient-9">
            <stop stop-color="#E8A476" offset="0%"></stop>
            <stop stop-color="#F1B287" offset="100%"></stop>
        </linearGradient>
        <linearGradient x1="65.425357%" y1="7.05748337%" x2="-7.92580398%" y2="174.732378%" id="linearGradient-10">
            <stop stop-color="#105B91" offset="3%"></stop>
            <stop stop-color="#010027" offset="100%"></stop>
        </linearGradient>
        <linearGradient x1="0.0845308538%" y1="49.9626587%" x2="100.084531%" y2="49.9626587%" id="linearGradient-11">
            <stop stop-color="#E8A476" offset="0%"></stop>
            <stop stop-color="#F1B287" offset="100%"></stop>
        </linearGradient>
        <linearGradient x1="117.42584%" y1="70.7968173%" x2="-39.0298478%" y2="5.68263138%" id="linearGradient-12">
            <stop stop-color="#105B91" offset="3%"></stop>
            <stop stop-color="#010027" offset="100%"></stop>
        </linearGradient>
        <linearGradient x1="-6.2516079%" y1="-0.689172972%" x2="125.446662%" y2="130.372143%" id="linearGradient-13">
            <stop stop-color="#7288F6" offset="0%"></stop>
            <stop stop-color="#72B6F6" offset="100%"></stop>
        </linearGradient>
        <linearGradient x1="58.4708148%" y1="15.897129%" x2="26.2066077%" y2="180.705848%" id="linearGradient-14">
            <stop stop-color="#E8A476" offset="0%"></stop>
            <stop stop-color="#F1B287" offset="100%"></stop>
        </linearGradient>
        <linearGradient x1="31.4530316%" y1="65.4744318%" x2="80.9859741%" y2="39.1234181%" id="linearGradient-15">
            <stop stop-color="#632E40" offset="0%"></stop>
            <stop stop-color="#48202D" offset="100%"></stop>
        </linearGradient>
        <linearGradient x1="-46.6505607%" y1="352.538011%" x2="55.9955785%" y2="42.6125461%" id="linearGradient-16">
            <stop stop-color="#E8A476" offset="0%"></stop>
            <stop stop-color="#F1B287" offset="100%"></stop>
        </linearGradient>
        <linearGradient x1="-24.3229771%" y1="42.6517633%" x2="79.1981355%" y2="53.8508263%" id="linearGradient-17">
            <stop stop-color="#7288F6" offset="0%"></stop>
            <stop stop-color="#72B6F6" offset="100%"></stop>
        </linearGradient>
        <linearGradient x1="14.7926842%" y1="89.7728173%" x2="36.1131938%" y2="65.4721602%" id="linearGradient-18">
            <stop stop-color="#7288F6" offset="0%"></stop>
            <stop stop-color="#72B6F6" offset="100%"></stop>
        </linearGradient>
        <linearGradient x1="17.7084957%" y1="68.2531796%" x2="55.5384455%" y2="46.4882234%" id="linearGradient-19">
            <stop stop-color="#7288F6" offset="0%"></stop>
            <stop stop-color="#72B6F6" offset="100%"></stop>
        </linearGradient>
        <linearGradient x1="262.189291%" y1="-394.998446%" x2="100.31302%" y2="-63.3107681%" id="linearGradient-20">
            <stop stop-color="#E8A476" offset="0%"></stop>
            <stop stop-color="#F1B287" offset="100%"></stop>
        </linearGradient>
    </defs>
    <g id="ILUSTRACION_03" stroke="none" stroke-width="1" fill="none" fill-rule="evenodd">
        <g id="WG_ilustraciones-04" transform="translate(11.000000, 23.000000)" fill-rule="nonzero">
            <path d="M232.88,224.5659 C228.436695,229.063309 223.55617,233.10663 218.3108,236.6359 C170.7834,270.2544 114.5372,260.4564 102.5808,258.0637 C84.9302,254.5137 50.8147,247.6977 26.1422,219.0989 C-11.1754,175.8386 -5.3605,107.6786 23.5862,62.6788 C28.8757,54.4499 56.8497,8.7685 113.6923,1.4484 C148.0989,-2.9678 188.1997,5.9782 217.26,29.962 C278.1993,80.3081 273.8612,182.0227 232.88,224.5659 Z" id="Path" fill="url(#linearGradient-1)"></path>
            <path d="M193.83,149.5473 L180.1554,116.3406 C179.890716,115.69975 179.265459,115.281977 178.5721,115.282699 L170.1799,115.282699 C169.596378,115.283598 169.053194,115.580588 168.737505,116.071341 C168.421816,116.562095 168.376774,117.179527 168.6179,117.7109 L184.4722,152.295 C184.808389,153.030872 185.614019,153.430725 186.4034,153.2535 L192.6301,151.869 C193.121014,151.756744 193.537553,151.433937 193.768763,150.986567 C193.999972,150.539197 194.022374,150.012693 193.83,149.5473 L193.83,149.5473 Z" id="Path" fill="#040728"></path>
            <rect id="Rectangle" fill="#040728" x="210.8558" y="188.6754" width="4.0257" height="43.5443"></rect>
            <path d="M197.1954,230.4376 L228.549,230.4376 C229.631257,230.4376 230.5086,231.314943 230.5086,232.3972 L230.5086,233.0575 L195.25,233.0575 L195.25,232.3972 C195.25,231.320464 196.118692,230.445402 197.1954,230.4376 L197.1954,230.4376 Z" id="Path" fill="#040728"></path>
            <rect id="Rectangle" fill="#040728" x="191.4018" y="178.92" width="44.3395" height="12.5741" rx="4.331"></rect>
            <path d="M183.18,159.6435 C178.625079,160.58844 174.304432,162.43256 170.471,165.0679 C169.404855,165.764314 168.826776,167.005808 168.98,168.27 C169.7823,174.66 173.098,195.2997 184.0178,215.4708 C184.588089,216.538377 184.761659,217.773492 184.5077,218.9569 L182.6049,227.7822 L179.0549,231.0837 L188.15,231.0837 L194.185,214.7537 L191.6077,213.9372 C189.606121,213.303782 188.231883,211.463846 188.1926,209.3648 L187.8944,191.8491 C187.949594,187.019531 186.249066,182.334246 183.109,178.6644 L197.5788,177.9544 L183.18,159.6435 Z" id="Path" fill="#DA9569"></path>
            <path d="M175.5262,232.6741 C174.7026,233.7604 184.4083,235.1804 189.3144,232.8232 C189.3144,232.8232 196.1162,220.9875 196.1162,214.8957 C196.1162,214.8957 195.5766,213.6603 191.5864,213.9372 C191.5864,213.9372 189.3002,227.9455 186.8933,229.5146 C184.4864,231.0837 180.1483,229.6708 180.1483,229.6708 C180.1483,229.6708 176.7474,231.0837 175.5262,232.6741 Z" id="Path" fill="#040728"></path>
            <path d="M195.7257,178.92 C195.6547,178.7851 180.1483,177.0527 180.1483,177.0527 C180.379106,180.8208 180.014909,184.601737 179.0691,188.2565 C177.4787,194.7459 154.7161,222.869 154.7161,222.869 L157.1017,230.4376 C150.120595,232.973845 142.553091,233.427698 135.3189,231.744 L150.1082,222.869 C150.1082,222.869 163.9532,175.6824 172.4377,167.2689 L187.9796,161.88 L195.7257,178.92 Z" id="Path" fill="url(#linearGradient-2)"></path>
            <path d="M230.5015,151.4643 C230.5015,151.4643 239.4333,164.7555 240.1717,170.8118 C240.9101,176.8681 237.7222,179.3318 228.3502,179.7436 C218.9782,180.1554 193.9507,180.141259 193.9507,180.141259 L172.5939,161.88 C172.5939,161.88 188.1571,156.3207 192.2041,154.78 C196.2511,153.2393 230.5015,151.4643 230.5015,151.4643 Z" id="Path" fill="url(#linearGradient-3)"></path>
            <path d="M156.2,227.91 C156.2,227.91 158.7702,230.395 157.0307,233.164 C157.0307,233.164 136.675,236.7779 131.1512,235.1378 C131.1512,235.1378 132.2943,232.5179 138.521,229.5359 L138.0595,229.8909 C137.821061,229.978412 137.647421,230.186483 137.60399,230.436733 C137.560558,230.686983 137.653932,230.941395 137.84894,231.104133 C138.043947,231.266871 138.310961,231.313212 138.5494,231.2257 C142.6532,230.9701 151.1377,230.2175 156.2,227.91 Z" id="Path" fill="#040728"></path>
            <path d="M206.3402,149.7035 C206.3402,149.7035 195.96,139.799 190.8196,133.2386 C188.053608,129.685655 187.175521,125.014866 188.4624,120.7 C190.7983,112.8261 194.9518,104.6682 195.3352,103.3973 C195.9174,101.4519 207.5756,101.529569 207.5756,101.529569 C207.5756,101.529569 230.5299,116.44 239.5256,141.6663 L229.4223,144.84 C229.4223,144.84 223.4299,134.7864 217.5085,128.3893 C217.5085,128.3893 227.7538,141.929 228.1159,147.467 L206.3402,149.7035 Z" id="Path" fill="url(#linearGradient-4)"></path>
            <path d="M193.9223,92.5272 C194.043,92.9319 197.0889,103.0281 197.3303,103.234 C197.5717,103.4399 204.0043,103.7878 207.036,101.7217 L201.8956,90.9581 L193.9223,92.5272 Z" id="Path" fill="#DA9569"></path>
            <path d="M190.1593,77.7237 C190.1593,77.7237 186.5525,81.6642 186.4744,89.5381 C186.3963,97.412 190.0244,99.3503 193.0916,98.4486 C196.1588,97.5469 200.3762,95.5234 202.9748,89.2683 C205.5734,83.0132 194.9518,72.8105 190.1593,77.7237 Z" id="Path" fill="url(#linearGradient-5)"></path>
            <path d="M198.3527,87.2093 C198.3527,87.2093 197.3871,76.1901 188.9452,79.9318 L187.6033,82.218 C187.6033,82.218 182.115,78.384 186.02,73.556 C188.231719,70.9775201 191.445278,69.4744158 194.842078,69.429578 C198.238877,69.3847403 201.490992,70.8024976 203.77,73.3217 C209.0453,79.1508 209.805,84.1208 207.7247,89.0269 C205.6444,93.933 202.4707,90.9084 202.4707,90.9084 C202.4707,90.9084 203.0174,86.9679 201.4767,85.697 C199.936,84.4261 199.013,87.2377 199.013,87.2377 L198.3527,87.2093 Z" id="Path" fill="url(#linearGradient-6)"></path>
            <path d="M199.7798,87.8341 C199.7798,87.8341 199.2473,82.1541 202.421,83.07 C205.5947,83.9859 202.634,88.4234 201.3986,89.9925 L199.7798,87.8341 Z" id="Path" fill="url(#linearGradient-7)"></path>
            <path d="M185.1467,150.4419 L192.7934,143.0721 L203.3653,147.538 C203.3653,147.538 213.8946,149.171 219.9154,147.538 L225.9362,145.9121 L239.554,141.6521 L241.684,147.6942 C242.219861,149.228327 241.678957,150.932029 240.3563,151.8761 C239.269417,152.680212 238.117624,153.39266 236.9128,154.0061 C235.1236,154.7942 192.7224,153.4665 192.7224,153.4665 L185.1467,150.4419 Z" id="Path" fill="url(#linearGradient-8)"></path>
            <path d="M203.5996,74.692 C202.884382,74.3802963 202.396811,73.7025082 202.328713,72.9252957 C202.260614,72.1480833 202.622886,71.3958329 203.273,70.9645 C207.8383,67.9399 215.7051,65.2845 223.6855,74.3654 C232.6812,84.6036 237.7151,89.46 240.5622,89.46 C241.405911,89.4212878 242.192798,89.8847484 242.568051,90.6414071 C242.943305,91.3980658 242.836031,92.3049717 242.2946,92.9532 C241.3858,93.9969 239.8309,94.9341 237.2394,95.495 C217.26,99.7905 212.8935,78.2562 203.5996,74.692 Z" id="Path" fill="#48202D"></path>
            <path d="M65.746,235.421875 C65.5267073,235.421875 65.3096375,235.377831 65.107,235.294 C64.7178954,235.146213 64.4064546,234.845272 64.2454156,234.461463 C64.0843767,234.077653 64.0878412,233.644584 64.255,233.2634 L98.335,157.8827 C98.7215562,157.094618 99.6526267,156.740811 100.465,157.0733 C100.852825,157.222504 101.162619,157.524036 101.322249,157.907687 C101.48188,158.291338 101.477417,158.723627 101.3099,159.1039 L67.2299,234.4846 C66.9622291,235.061296 66.3817588,235.427909 65.746,235.421875 Z" id="Path" fill="#040728"></path>
            <path d="M104.1073,235.421902 C103.469492,235.428908 102.886441,235.062418 102.6163,234.4846 L68.5363,159.1039 C68.3687826,158.723627 68.3643198,158.291338 68.5239506,157.907687 C68.6835815,157.524036 68.9933755,157.222504 69.3812,157.0733 C70.1935733,156.740811 71.1246438,157.094618 71.5112,157.8827 L105.5912,233.2634 C105.758359,233.644584 105.761823,234.077653 105.600784,234.461463 C105.439745,234.845272 105.128305,235.146213 104.7392,235.294 C104.538772,235.376929 104.324202,235.420325 104.1073,235.421902 Z" id="Path" fill="#040728"></path>
            <path d="M205.8432,235.421822 C205.623907,235.421822 205.406838,235.377831 205.2042,235.294 C204.815095,235.146213 204.503655,234.845272 204.342616,234.461463 C204.181577,234.077653 204.185041,233.644584 204.3522,233.2634 L238.4322,157.8827 C238.818756,157.094618 239.749827,156.740811 240.5622,157.0733 C240.950025,157.222504 241.259819,157.524036 241.419449,157.907687 C241.57908,158.291338 241.574617,158.723627 241.4071,159.1039 L207.32,234.4846 C207.053396,235.058944 206.476396,235.425117 205.8432,235.421822 L205.8432,235.421822 Z" id="Path" fill="#040728"></path>
            <path d="M244.24,235.421902 C243.602192,235.428908 243.019141,235.062418 242.749,234.4846 L208.669,159.1039 C208.501483,158.723627 208.49702,158.291338 208.656651,157.907687 C208.816281,157.524036 209.126075,157.222504 209.5139,157.0733 C210.326273,156.740811 211.257344,157.094618 211.6439,157.8827 L245.7239,233.2634 C245.891059,233.644584 245.894523,234.077653 245.733484,234.461463 C245.572445,234.845272 245.261005,235.146213 244.8719,235.294 C244.671472,235.376929 244.456902,235.420325 244.24,235.421902 L244.24,235.421902 Z" id="Path" fill="#040728"></path>
            <path d="M255.103,155.5326 C255.215291,155.020064 255.060278,154.485539 254.6912,154.1126 C254.296751,153.706182 253.75231,153.480188 253.186,153.4878 L55.522,153.4878 C54.7817853,153.473197 54.0784724,153.810365 53.6263,154.3966 C53.2115896,154.942823 53.1533386,155.680669 53.4772,156.2852 L55.6072,160.3535 C56.1616834,161.326832 57.2066865,161.916181 58.3265,161.8871 L251.8299,161.8871 C252.858223,161.928826 253.780659,161.259031 254.0593,160.2683 L255.103,155.5326 Z" id="Path" fill="#040728"></path>
            <path d="M27.9598,181.8239 C26.767,183.5918 22.0242,223.6003 21.2787,238.3754 C21.2553643,238.853205 21.4290263,239.319669 21.7591407,239.665887 C22.089255,240.012104 22.546926,240.207213 23.0253,240.207213 L23.0253,240.207213 C23.8883154,240.210541 24.6243941,239.583064 24.7577,238.7304 L33.441,183.1019 L27.9598,181.8239 Z" id="Path" fill="#040728"></path>
            <path d="M66.1223,181.8239 C67.3151,183.5918 72.0579,223.6003 72.8034,238.3754 C72.8267357,238.853205 72.6530737,239.319669 72.3229593,239.665887 C71.992845,240.012104 71.535174,240.207213 71.0568,240.207213 L71.0568,240.207213 C70.1937846,240.210541 69.4577059,239.583064 69.3244,238.7304 L60.6411,183.1019 L66.1223,181.8239 Z" id="Path" fill="#040728"></path>
            <path d="M20.7817,178.707 L20.7817,179.1401 C20.7817,182.2783 23.4584,184.8556 26.8451,184.9124 L66.9743,185.6224 C70.3113,185.6792 73.0874,183.2652 73.2507,180.1767 L73.2507,179.7791 C73.4211,176.5557 70.6805,173.8364 67.2015,173.7796 L27.0581,173.0696 C23.643,172.9702 20.8101,175.5191 20.7817,178.707 Z" id="Path" fill="#040728"></path>
            <path d="M88.75,231.957 C82.36,231.957 79.5626,231.4103 78.2988,230.9062 C78.5530597,232.003126 79.529992,232.779964 80.656,232.780607 L103.1985,232.780607 C103.5406,232.78184 103.863562,232.622893 104.071268,232.351062 C104.278975,232.079232 104.347481,231.725854 104.2564,231.3961 C101.672,231.602 96.2121,231.957 88.75,231.957 Z" id="Path" fill="#040728"></path>
            <path d="M104.2422,231.3961 C104.207085,231.257183 104.144298,231.126781 104.0576,231.0127 C102.3394,228.8188 98.8888,225.3753 94.1957,225.4463 C87.3229,225.5386 84.9231,226.2841 79.5839,225.4818 L78.3201,229.6637 C78.199015,230.067507 78.1867684,230.496138 78.2846,230.9062 C79.5484,231.4103 82.3671,231.957 88.7358,231.957 C96.2121,231.957 101.672,231.602 104.2422,231.3961 Z" id="Path" fill="#040728"></path>
            <path d="M81.1317,220.9804 L79.5839,226.2415 C79.5839,226.2415 83.0132,227.8035 86.0236,226.5539 L86.62,221.9957 L81.1317,220.9804 Z" id="Path" fill="url(#linearGradient-9)"></path>
            <path d="M127.8568,228.62 C122.8868,232.6102 120.3521,233.9521 119.0599,234.3568 C119.939143,235.055346 121.183957,235.055346 122.0632,234.3568 L139.6357,220.2349 C139.900409,220.021016 140.051272,219.696697 140.044328,219.356448 C140.037385,219.0162 139.873415,218.698306 139.6002,218.4954 C137.74,220.2704 133.6859,223.9553 127.8568,228.62 Z" id="Path" fill="#040728"></path>
            <path d="M139.6002,218.4954 C139.486482,218.409632 139.355772,218.349118 139.2168,218.3179 C136.5117,217.6931 131.6695,217.1819 128.0556,220.171 C122.759,224.5517 121.3532,226.632 116.6956,229.3584 L118.3215,233.3841 C118.476326,233.776314 118.733826,234.119647 119.067,234.3781 C120.3592,233.9734 122.901,232.6315 127.8639,228.6413 C133.6859,223.9553 137.74,220.2704 139.6002,218.4954 Z" id="Path" fill="#040728"></path>
            <path d="M48.0386,161.0351 C48.0386,161.0351 86.194,164.152 94.0182,167.8369 C101.8424,171.5218 87.6282,223.1601 87.6282,223.1601 C87.6282,223.1601 85.4982,224.1896 80.7554,222.7128 C80.7554,222.7128 85.6189,184.6071 82.005,176.3427 L40.6901,169.5835 L48.0386,161.0351 Z" id="Path" fill="url(#linearGradient-10)"></path>
            <path d="M112.89,222.1022 C113.245,222.4217 116.6814,229.3584 116.6814,229.3584 C116.6814,229.3584 120.5083,228.5277 121.2893,226.1066 L117.86,219.8515 L112.89,222.1022 Z" id="Path" fill="url(#linearGradient-11)"></path>
            <path d="M25.0559,160.7156 C24.2340117,162.946831 23.8296803,165.310244 23.8631,167.6878 C23.977116,173.194878 28.3430892,177.669535 33.8457,177.9189 L78.952,179.9779 C79.9063007,180.011392 80.7216973,180.675896 80.9471,181.6038 C82.005,185.7005 87.188,198.2888 112.5137,223.4157 C113.190627,224.081819 114.236212,224.196363 115.0413,223.6926 L118.6481,221.4135 C119.025406,221.173203 119.144678,220.677283 118.9179,220.2917 L92.6479,175.441 C91.2660829,173.166291 89.0490127,171.522601 86.4709,170.8615 L48.0315,161.0351 L25.0559,160.7156 Z" id="Path" fill="url(#linearGradient-12)"></path>
            <path d="M24.9352,160.5878 C24.9352,160.5878 24.4879,138.2299 28.9538,117.1926 C30.5976437,109.422768 34.9077849,102.472791 41.1374,97.5469 L43.2248,95.9068 L53.6831,100.1668 L59.0507,109.4465 C62.0114,115.3608 61.2872,128.2118 59.0507,134.4314 C55.3232,144.84 52.3412,155.6249 51.0703,160.9286 C51.0703,160.9144 33.7534,163.2006 24.9352,160.5878 Z" id="Path" fill="url(#linearGradient-13)"></path>
            <path d="M50.41,79.2431 L42.245,98.193 C42.245,98.193 44.8578,104.0718 54.0097,101.7856 L57.2757,88.7216 L50.41,79.2431 Z" id="Path" fill="#DA9569"></path>
            <path d="M66.598,70.6024 C66.6974,70.8722 66.9104,89.5381 66.9104,89.5381 L56.2604,89.4316 L53.4204,71.7739 C53.4204,71.7739 64.9508,66.172 66.598,70.6024 Z" id="Path" fill="url(#linearGradient-14)"></path>
            <path d="M56.5444,75.1677 L57.3112,84.5823 C57.3194396,84.7015563 57.3457743,84.8188651 57.3893,84.9302 C57.6449,85.6402 58.7028,87.9548 61.0174,86.7194 C63.1474,85.6047 65.0502,84.5894 66.5625,84.7456 C67.2406142,84.8007445 67.7643833,85.3645665 67.7695,86.0449 C67.8204498,88.9983691 67.6424166,91.951345 67.237,94.8773 C67.124536,95.5591782 66.5053727,96.0390298 65.817,95.9778 C62.5186159,95.77815 59.2544953,95.196803 56.09,94.2454 C55.6333084,94.0907231 55.2980775,93.6982577 55.2167,93.223 C54.812,90.8942 53.5624,83.8084 52.9092,81.863 C52.2986,80.0596 49.7923,79.4419 48.7202,79.2573 C48.3686284,79.2019043 48.0567114,79.0008339 47.8611,78.7035 C47.1511,77.6598 45.9583,75.1535 49.0539,73.343 C49.3651665,73.1642065 49.5902389,72.8664071 49.6773,72.5181625 C49.7643612,72.1699179 49.7059088,71.8012373 49.5154,71.497 C48.7202,70.2332 48.0954,68.1813 50.3887,66.4631 C52.682,64.7449 55.0179,65.6963 56.3172,66.6051 C56.8454774,66.9678832 57.5579675,66.8990291 58.007,66.4418 C58.3147243,66.133164 58.7818302,66.0482357 59.1785,66.2288 C59.5202463,66.3447709 59.8949187,66.3125456 60.2118433,66.1399228 C60.5287679,65.9673 60.7590647,65.6700103 60.847,65.32 C61.2153046,63.4186492 62.9085273,62.0652741 64.8443,62.125 C69.5658,61.9191 71.1704,66.8536 70.6095,70.0699 C70.0486,73.2862 64.9295,73.2152 62.1392,72.2567 C60.0092,71.5467 57.8792,73.2365 56.9491,74.1027 C56.6583556,74.3770799 56.5092443,74.7694781 56.5444,75.1677 L56.5444,75.1677 Z" id="Path" fill="url(#linearGradient-15)"></path>
            <path d="M53.25,85.3136 C53.25,85.3136 53.96,79.6691 51.7874,78.8029 C49.6148,77.9367 46.8813,79.2147 48.3297,82.8783 C50.0976,87.4294 53.25,85.3136 53.25,85.3136 Z" id="Path" fill="url(#linearGradient-16)"></path>
            <path d="M75.5795,142.6319 C48.6563,151.0809 50.0834,113.1882 49.913,112.9255 C39.263,96.5955 33.2493,118.3499 34.293,121.41 C43.7644,155.6817 67.6275,153.9848 76.893,147.254 C75.9560497,145.90096 75.4941192,144.275464 75.5795,142.6319 L75.5795,142.6319 Z" id="Path" fill="url(#linearGradient-17)"></path>
            <path d="M54.9398,136.7815 C54.785681,136.732456 54.6529253,136.632263 54.5635,136.4975 C50.4881,130.143 49.3379,121.3106 49.0894,115.02 C49.1597408,114.706544 49.431791,114.479375 49.7527664,114.46607 C50.0737418,114.452765 50.3636591,114.656641 50.4597,114.9632 C50.6514,119.9758 51.5957,129.3407 55.7208,135.7591 C55.9145765,136.08078 55.8243421,136.497725 55.5149,136.7105 C55.3440089,136.820494 55.1323113,136.84663 54.9398,136.7815 Z" id="Path" fill="url(#linearGradient-18)"></path>
            <path d="M47.4209,145.3938 C47.3334414,145.37121 47.2529428,145.327302 47.1866,145.266 C41.0309,140.1114 36.3946,132.0103 33.4055,121.1828 C33.4055,120.863062 33.6193957,120.582831 33.9277523,120.498282 C34.2361089,120.413733 34.5629396,120.545725 34.7261,120.8207 C37.6371,131.3713 42.1243,139.2807 48.067,144.2507 C48.3426766,144.502061 48.3767961,144.923902 48.1451,145.2163 C47.9566941,145.407664 47.6764424,145.476353 47.4209,145.3938 Z" id="Path" fill="url(#linearGradient-19)"></path>
            <path d="M91.4267,134.7154 C91.4267,134.7154 90.9865,135.4254 87.8341,137.8607 C84.6817,140.296 81.508,141.7089 83.922,138.3506 C86.336,134.9923 85.1574,133.267 82.4097,136.8809 C81.0698525,138.757647 79.4815281,140.443898 77.6882,141.8935 C76.9782,142.1704 76.2682,142.4118 75.5582,142.6035 C75.4769629,144.248688 75.943929,145.874329 76.8859,147.2256 C77.9793,146.8635 78.597,146.6008 78.597,146.6008 C78.597,146.6008 86.9324,145.0814 88.7145,141.5314 C89.8189518,139.344346 90.7265978,137.063351 91.4267,134.7154 L91.4267,134.7154 Z" id="Path" fill="url(#linearGradient-20)"></path>
            <path d="M155.1776,117.008 C155.1776,117.008 86.1372,82.8925 108.7152,57.7727 C131.2932,32.6529 173.3891,42.6994 175.5191,69.1327 C177.6491,95.566 126.4155,89.3677 155.1776,117.008 Z" id="Path" fill="#FFFFFF"></path>
            <path d="M114.5585,64.9579 L145.0246,64.9579 C145.416722,64.9579 145.7346,64.6400222 145.7346,64.2479 C145.7346,63.8557778 145.416722,63.5379 145.0246,63.5379 L114.5585,63.5379 C114.166378,63.5379 113.8485,63.8557778 113.8485,64.2479 C113.8485,64.6400222 114.166378,64.9579 114.5585,64.9579 Z" id="Path" fill="#91B3FA"></path>
            <path d="M154.07,64.9579 L163.1154,64.9579 C163.507522,64.9579 163.8254,64.6400222 163.8254,64.2479 C163.8254,63.8557778 163.507522,63.5379 163.1154,63.5379 L154.07,63.5379 C153.677878,63.5379 153.36,63.8557778 153.36,64.2479 C153.36,64.6400222 153.677878,64.9579 154.07,64.9579 Z" id="Path" fill="#91B3FA"></path>
            <path d="M113.529,71.1278 L124.96,71.1278 C125.352122,71.1278 125.67,70.8099222 125.67,70.4178 C125.67,70.0256778 125.352122,69.7078 124.96,69.7078 L113.529,69.7078 C113.136878,69.7078 112.819,70.0256778 112.819,70.4178 C112.819,70.8099222 113.136878,71.1278 113.529,71.1278 Z" id="Path" fill="#91B3FA"></path>
            <path d="M141.7586,71.1278 L162.0859,71.1278 C162.478022,71.1278 162.7959,70.8099222 162.7959,70.4178 C162.7959,70.0256778 162.478022,69.7078 162.0859,69.7078 L141.7586,69.7078 C141.366478,69.7078 141.0486,70.0256778 141.0486,70.4178 C141.0486,70.8099222 141.366478,71.1278 141.7586,71.1278 Z" id="Path" fill="#91B3FA"></path>
            <path d="M112.4995,77.2977 L142.9159,77.2977 C143.308022,77.2977 143.6259,76.9798222 143.6259,76.5877 C143.6259,76.1955778 143.308022,75.8777 142.9159,75.8777 L112.4995,75.8777 C112.107378,75.8777 111.7895,76.1955778 111.7895,76.5877 C111.7895,76.9798222 112.107378,77.2977 112.4995,77.2977 Z" id="Path" fill="#91B3FA"></path>
            <path d="M150.52,77.2977 L161.0493,77.2977 C161.441422,77.2977 161.7593,76.9798222 161.7593,76.5877 C161.7593,76.1955778 161.441422,75.8777 161.0493,75.8777 L150.52,75.8777 C150.127878,75.8777 149.81,76.1955778 149.81,76.5877 C149.81,76.9798222 150.127878,77.2977 150.52,77.2977 Z" id="Path" fill="#91B3FA"></path>
        </g>
    </g>
</svg>