<?xml version="1.0" encoding="UTF-8"?>
<svg width="285px" height="308px" viewBox="0 0 285 308" version="1.1" xmlns="http://www.w3.org/2000/svg" xmlns:xlink="http://www.w3.org/1999/xlink">
    <title>ILUSTRACION_02</title>
    <defs>
        <linearGradient x1="148.592331%" y1="174.656019%" x2="60.0311834%" y2="64.1514449%" id="linearGradient-1">
            <stop stop-color="#72B8F8" offset="0%"></stop>
            <stop stop-color="#E9EFFD" offset="100%"></stop>
        </linearGradient>
        <linearGradient x1="0.0347942442%" y1="50.0343392%" x2="99.9986579%" y2="50.0343392%" id="linearGradient-2">
            <stop stop-color="#7288F6" offset="0%"></stop>
            <stop stop-color="#72B6F6" offset="100%"></stop>
        </linearGradient>
        <linearGradient x1="-1.90141281%" y1="42.7615796%" x2="105.834836%" y2="56.3167709%" id="linearGradient-3">
            <stop stop-color="#7288F6" offset="0%"></stop>
            <stop stop-color="#72B6F6" offset="100%"></stop>
        </linearGradient>
        <linearGradient x1="35.6307147%" y1="-19.0639682%" x2="82.2859452%" y2="222.5515%" id="linearGradient-4">
            <stop stop-color="#E8A476" offset="0%"></stop>
            <stop stop-color="#F1B287" offset="100%"></stop>
        </linearGradient>
        <linearGradient x1="63.5868881%" y1="-19.5880014%" x2="19.5337378%" y2="222.027467%" id="linearGradient-5">
            <stop stop-color="#E8A476" offset="0%"></stop>
            <stop stop-color="#F1B287" offset="100%"></stop>
        </linearGradient>
        <linearGradient x1="182.391255%" y1="-406.959196%" x2="-36.4793587%" y2="337.497252%" id="linearGradient-6">
            <stop stop-color="#E8A476" offset="0%"></stop>
            <stop stop-color="#F1B287" offset="100%"></stop>
        </linearGradient>
        <linearGradient x1="259.028246%" y1="-638.185588%" x2="37.3164109%" y2="114.775946%" id="linearGradient-7">
            <stop stop-color="#E8A476" offset="0%"></stop>
            <stop stop-color="#F1B287" offset="100%"></stop>
        </linearGradient>
        <linearGradient x1="30.6036664%" y1="55.6484083%" x2="161.081221%" y2="32.0290936%" id="linearGradient-8">
            <stop stop-color="#105B91" offset="3%"></stop>
            <stop stop-color="#010027" offset="94%"></stop>
        </linearGradient>
        <linearGradient x1="-26.735736%" y1="51.1046978%" x2="175.251611%" y2="48.3703784%" id="linearGradient-9">
            <stop stop-color="#105B91" offset="3%"></stop>
            <stop stop-color="#010027" offset="100%"></stop>
        </linearGradient>
        <linearGradient x1="51.0728317%" y1="122.350874%" x2="48.8667271%" y2="-24.867848%" id="linearGradient-10">
            <stop stop-color="#E8A476" offset="0%"></stop>
            <stop stop-color="#F1B287" offset="100%"></stop>
        </linearGradient>
        <linearGradient x1="42.3416393%" y1="95.9229363%" x2="63.0109368%" y2="-40.160006%" id="linearGradient-11">
            <stop stop-color="#E8A476" offset="0%"></stop>
            <stop stop-color="#F1B287" offset="100%"></stop>
        </linearGradient>
        <linearGradient x1="62.9188609%" y1="28.7624681%" x2="0.359581764%" y2="99.3950529%" id="linearGradient-12">
            <stop stop-color="#632E40" offset="0%"></stop>
            <stop stop-color="#48202D" offset="100%"></stop>
        </linearGradient>
        <linearGradient x1="40.9691363%" y1="316.178505%" x2="69.1927929%" y2="-528.692358%" id="linearGradient-13">
            <stop stop-color="#E8A476" offset="0%"></stop>
            <stop stop-color="#F1B287" offset="100%"></stop>
        </linearGradient>
        <linearGradient x1="-16.9385074%" y1="38.5686273%" x2="117.164932%" y2="54.8691483%" id="linearGradient-14">
            <stop stop-color="#7288F6" offset="0%"></stop>
            <stop stop-color="#72B6F6" offset="100%"></stop>
        </linearGradient>
    </defs>
    <g id="ILUSTRACION_02" stroke="none" stroke-width="1" fill="none" fill-rule="evenodd">
        <g id="WG_ilustraciones-03" transform="translate(26.000000, 24.000000)" fill-rule="nonzero">
            <path d="M215.5617,210.8094 C211.455581,215.036753 206.936206,218.842028 202.0713,222.1682 C158.0815,253.7334 106.0252,244.55 94.9584,242.287 C78.621,238.9655 47.0412,232.5488 24.2141,205.6994 C-10.3295,165.0822 -4.9494,101.0831 21.8416,58.838 C26.7399,51.1146 52.6257,8.2198 105.2441,1.3432 C137.0867,-2.8178 174.2072,5.5772 201.0931,28.0977 C257.5148,75.3725 253.4998,170.8711 215.5617,210.8094 Z" id="Path" fill="url(#linearGradient-1)"></path>
            <path d="M10.6945,6.1977 L188.3765,6.1977 C193.2237,6.1977 197.1365,11.753 197.043291,18.5201 L194.5377,211.2401 C194.4209,220.314 189.0846,227.541 178.1638,227.432728 L6.0736,224.4093 C5.7597,224.329 1.9491,218.927 1.95638953,212.2986 L2.0367,18.3303 C2.0367,11.607 5.913,6.1977 10.6945,6.1977 Z" id="Path" fill="#040728"></path>
            <path d="M14.6,11.4099 L185.2302,11.4099 C189.8803,11.4099 193.6325,16.6878 193.546403,23.0899 L191.1432,206.1666 C191.0337,214.7806 185.9091,221.6572 179.6822,221.54899 L14.4321,218.6788 C9.8769,218.5985 6.2196,213.4666 6.2196,207.1667 L6.2999,22.8709 C6.2999,16.5564 10.0229,11.4099 14.6,11.4099 Z" id="Path" fill="#BDD0FB"></path>
            <path d="M12.045,10.8259 L189.435,10.8259 C192.060803,10.8339515 194.18404,12.9669881 194.180006,15.5928 L194.180006,38.8506 L6.2196,38.8506 L6.2196,16.6513 C6.2196,13.4259571 8.83425706,10.8113 12.0596,10.8113 L12.045,10.8259 Z" id="Path" fill="#040728"></path>
            <path d="M172.4479,26.9005 L75.3579,25.9807 C73.073,25.9807 71.2334,24.4477 71.2334,22.5935 L71.2334,19.3596 C71.2334,17.8996 72.6934,16.7608 74.4235,16.7608 L173.1414,16.7608 C174.8861,16.7608 176.2585,17.9653 176.1271,19.3742 L175.6672,24.4842 C175.5431,25.8712 174.1342,26.9224 172.4479,26.9005 Z" id="Path" fill="url(#linearGradient-2)"></path>
            <path d="M184.69,55.5749143 L14.8044,55.5749143 C13.6795617,55.5749143 12.7677,54.6630383 12.7677,53.5382 L12.7677,48.0997 C12.7677,47.556372 12.9854586,47.0357112 13.3723838,46.6542743 C13.7593091,46.2728373 14.2830283,46.0624823 14.8263,46.0703 L184.7119,47.5303 C185.829855,47.5343214 186.734328,48.441738 186.734328,49.5597 L186.734328,53.5017 C186.743821,54.0494309 186.532579,54.5780248 186.147969,54.9681288 C185.76336,55.3582327 185.237815,55.5769516 184.69,55.5749143 L184.69,55.5749143 Z" id="Path" fill="#FFFFFF" opacity="0.6"></path>
            <path d="M55.407,26.0683054 C53.3920187,26.0712524 51.5739401,24.8593388 50.8014757,22.9983023 C50.0290113,21.1372657 50.4544951,18.994112 51.8793035,17.5693035 C53.304112,16.1444951 55.4472657,15.7190113 57.3083023,16.4914757 C59.1693388,17.2639401 60.3812524,19.0820187 60.3783054,21.097 C60.3742796,23.8409062 58.1509062,26.0642796 55.407,26.0683054 L55.407,26.0683054 Z M55.407,16.6878 C52.9879928,16.6878 51.027,18.6487928 51.027,21.0678 C51.027,23.4868072 52.9879928,25.4478 55.407,25.4478 C57.8260072,25.4478 59.787,23.4868072 59.787,21.0678 C59.787,18.6487928 57.8260072,16.6878 55.407,16.6878 L55.407,16.6878 Z" id="Shape" fill="#FFFFFF"></path>
            <path d="M39.1718,26.4479 C37.1574804,26.4479 35.3416421,25.2341095 34.5714791,23.3728378 C33.8013161,21.5115661 34.2286037,19.3696099 35.6539873,17.9463163 C37.079371,16.5230226 39.2219518,16.0988785 41.0820914,16.8717718 C42.942231,17.6446652 44.1533535,19.4622826 44.1504054,21.4766 C44.1463725,24.2233536 41.9185565,26.4479 39.1718,26.4479 L39.1718,26.4479 Z M39.1718,17.0674 C36.7527928,17.0674 34.7918,19.0283928 34.7918,21.4474 C34.7918,23.8664072 36.7527928,25.8274 39.1718,25.8274 C41.5908072,25.8274 43.5518,23.8664072 43.5518,21.4474 C43.5518,19.0283928 41.5908072,17.0674 39.1718,17.0674 L39.1718,17.0674 Z" id="Shape" fill="#FFFFFF"></path>
            <path d="M23.579,26.4479054 C21.5640187,26.4508524 19.7459401,25.2389388 18.9734757,23.3779023 C18.2010113,21.5168657 18.6264951,19.373712 20.0513035,17.9489035 C21.476112,16.5240951 23.6192657,16.0986113 25.4803023,16.8710757 C27.3413388,17.6435401 28.5532524,19.4616187 28.5503054,21.4766 C28.5462796,24.2205062 26.3229062,26.4438796 23.579,26.4479054 L23.579,26.4479054 Z M23.579,17.0674 C21.1599928,17.0674 19.199,19.0283928 19.199,21.4474 C19.199,23.8664072 21.1599928,25.8274 23.579,25.8274 C25.9980072,25.8274 27.959,23.8664072 27.959,21.4474 C27.959,19.0283928 25.9980072,17.0674 23.579,17.0674 L23.579,17.0674 Z" id="Shape" fill="#FFFFFF"></path>
            <path d="M117.53,71.9707 L85.7531,71.7079 C84.7589559,71.6958816 83.9605184,70.8844083 83.9645844,69.8902 L83.9645844,68.9996 C83.9796898,68.0294301 84.7541099,67.2421565 85.7239,67.2111 L117.53,66.43 C118.018298,66.4181178 118.490526,66.6048453 118.838648,66.9474637 C119.186771,67.2900821 119.381,67.7592743 119.376964,68.2477 L119.376964,70.1822 C119.371159,70.6649307 119.172852,71.1253743 118.826047,71.4612135 C118.479242,71.7970526 118.012666,71.9804673 117.53,71.9707 Z" id="Path" fill="#FFFFFF" opacity="0.6"></path>
            <path d="M124.3847,129.706857 L77.6063,129.3122 C76.84674,129.308355 76.1200397,129.001918 75.5870688,128.460727 C75.0540979,127.919535 74.7588197,127.18823 74.7664501,126.4287 L75.19,79.57 C75.2055658,78.0166668 76.4546339,76.7578909 78.0078,76.7303 L124.1949,77.6063 C126.152103,77.64226 127.715243,79.2477345 127.699027,81.2052 L127.3047,126.8594 C127.298974,127.625412 126.98714,128.357321 126.43866,128.892089 C125.890179,129.426857 125.150612,129.720066 124.3847,129.706857 L124.3847,129.706857 Z" id="Path" fill="#FFFFFF" opacity="0.6"></path>
            <path d="M58.4,71.9707 L26.6231,71.7079 C25.6289559,71.6958816 24.8305184,70.8844083 24.8345844,69.8902 L24.8345844,68.9996 C24.8459702,68.0278777 25.6224964,67.238463 26.5939,67.2111 L58.4,66.43 C58.8882984,66.4181178 59.3605261,66.6048453 59.7086484,66.9474637 C60.0567706,67.2900821 60.2509996,67.7592743 60.2469636,68.2477 L60.2469636,70.1822 C60.2411589,70.6649307 60.0428524,71.1253743 59.696047,71.4612135 C59.3492417,71.7970526 58.882666,71.9804673 58.4,71.9707 L58.4,71.9707 Z" id="Path" fill="#FFFFFF" opacity="0.6"></path>
            <path d="M65.2766,129.70655 L18.4982,129.3122 C17.73864,129.308355 17.0119397,129.001918 16.4789688,128.460727 C15.9459979,127.919535 15.6507197,127.18823 15.6583501,126.4287 L16.06,79.57 C16.0754628,78.0194469 17.3201896,76.7617879 18.8705,76.7303 L65.0649,77.6063 C67.0221034,77.64226 68.5852429,79.2477345 68.569027,81.2052 L68.1747,126.8594 C68.1689215,127.621563 67.8600961,128.3501 67.3163779,128.884231 C66.7726598,129.418362 66.038745,129.71418 65.2766,129.70655 L65.2766,129.70655 Z" id="Path" fill="#FFFFFF" opacity="0.6"></path>
            <path d="M176.8206,73.073 L145.0437,72.8102 C144.565524,72.808312 144.108018,72.6150194 143.77334,72.2734839 C143.438663,71.9319484 143.254689,71.4706155 143.262261,70.9925 L143.262261,70.08 C143.266163,69.1079009 144.042683,68.315203 145.0145,68.2915 L176.7987,67.5031 C177.286998,67.4912178 177.759226,67.6779453 178.107348,68.0205637 C178.455471,68.3631821 178.6497,68.8323743 178.645664,69.3208 L178.645664,71.2626 C178.649599,71.746505 178.458129,72.211543 178.114574,72.5523502 C177.771018,72.8931574 177.304457,73.0808852 176.8206,73.073 Z" id="Path" fill="#FFFFFF" opacity="0.6"></path>
            <path d="M183.668,130.80885 L136.8896,130.4218 C136.13065,130.416014 135.405085,130.108961 134.872533,129.568195 C134.339981,129.027429 134.044069,128.29725 134.049815,127.5383 L134.4368,80.6869 C134.452366,79.1335668 135.701434,77.8747909 137.2546,77.8472 L183.449,78.7232 C185.405044,78.7591746 186.966076,80.3658316 186.945897,82.3221 L186.5515,127.9763 C186.545722,128.734591 186.238434,129.459414 185.697454,129.990807 C185.156474,130.5222 184.426273,130.81648 183.668,130.80885 Z" id="Path" fill="#FFFFFF" opacity="0.6"></path>
            <rect id="Rectangle" fill="#FFFFFF" opacity="0.6" x="17.6733" y="137.9627" width="168.4694" height="8.2709" rx="4.13545"></rect>
            <rect id="Rectangle" fill="#FFFFFF" opacity="0.6" x="18.0383" y="151.0151" width="168.4694" height="8.2709" rx="4.13545"></rect>
            <rect id="Rectangle" fill="#FFFFFF" opacity="0.6" x="16.7973" y="165.7027" width="168.4694" height="8.2709" rx="4.13545"></rect>
            <rect id="Rectangle" fill="#FFFFFF" opacity="0.6" x="17.1623" y="178.7551" width="168.4694" height="8.2709" rx="4.13545"></rect>
            <rect id="Rectangle" fill="#FFFFFF" opacity="0.6" x="16.7973" y="192.5375" width="168.4694" height="8.2709" rx="4.13545"></rect>
            <path d="M159.8116,125.2315 C159.7167,125.414 156.8186,127.4215 156.8186,127.4215 C156.8186,127.4215 154.8038,138.5029 158.4976,143.9633 C162.1914,149.4237 174.7766,139.7001 174.7766,139.7001 C174.7766,139.7001 181.8503,138.5978 185.4054,124.684 C186.223,121.4866 181.1203,123.954 175.4409,124.5015 C168.1117,125.2972 159.8116,125.2315 159.8116,125.2315 Z" id="Path" fill="#48202D"></path>
            <path d="M147.2483,159.9868 C149.659973,158.334875 152.332657,157.100948 155.1542,156.3368 C156.2127,156.044693 161.9432,157.7092 165.4837,157.6289 C170.3528,157.5194 175.3022,155.3075 179.3099,156.3003 C183.3176,157.2931 186.5442,158.5925 188.4276,159.9503 C194.0632,163.958 197.3701,171.4259 199.3776,178.8208 C196.91487,181.268863 193.982264,183.193308 190.7563,184.4783 L189.873,220.4454 L168.63,231.2786 L144.3575,219.0949 L145.2116,183.96 C145.2116,183.96 137.5028,180.3684 136.9407,179.0617 C136.3786,177.755 140.452,164.6661 147.2483,159.9868 Z" id="Path" fill="url(#linearGradient-3)"></path>
            <path d="M137.2984,178.9011 C137.2984,178.9011 126.9689,207.5317 150.5187,219.2993 C155.4097,218.6496 153.5336,210.5393 153.5336,210.5393 C153.5336,210.5393 143.3136,208.269 146.3723,184.3834 C143.5399,182.0547 137.2984,178.9011 137.2984,178.9011 Z" id="Path" fill="url(#linearGradient-4)"></path>
            <path d="M198.8885,178.9011 C198.8885,178.9011 205.9914,208.7873 185.6609,219.2993 C180.7699,218.6496 182.6533,210.5393 182.6533,210.5393 C182.6533,210.5393 190.9023,206.4732 189.8146,184.3834 C192.6397,182.0547 198.8885,178.9011 198.8885,178.9011 Z" id="Path" fill="url(#linearGradient-5)"></path>
            <rect id="Rectangle" fill="#321371" x="144.0655" y="189.8219" width="46.6324" height="31.4922" rx="3.6865"></rect>
            <path d="M170.1265,198.3483 C170.299863,199.113437 170.149807,199.916202 169.711762,200.567052 C169.273716,201.217903 168.586509,201.659146 167.8124,201.7866 C166.139829,202.030249 164.585553,200.874338 164.3376,199.2024 C164.0894,197.538 164.8559,195.8736 166.5276,195.6254 C168.25742,195.442526 169.832119,196.633931 170.1265,198.3483 L170.1265,198.3483 Z" id="Path" fill="#91B3FA"></path>
            <path d="M211.1452,230.68 C205.8089,229.4536 193.4719,230.1106 193.4719,230.1106 L192.9755,231.4684 L192.1433,238.2209 C192.1433,238.2209 203.889,240.3379 209.6633,240.330643 C210.214971,240.332774 210.763803,240.251557 211.2912,240.0897 C211.4664,239.9291 211.6343,239.7685 211.8022,239.586 C214.2696,236.8777 213.5615,232.9357 211.1452,230.68 Z" id="Path" fill="#040728"></path>
            <path d="M211.7,230.7822 C211.527292,230.728975 211.351837,230.685112 211.1744,230.6508 C213.5907,232.9357 214.2988,236.8777 211.846,239.5568 C211.6781,239.7393 211.5102,239.8999 211.335,240.0605 C215.6493,238.71 216.1603,232.0451 211.7,230.7822 Z" id="Path" fill="#040728"></path>
            <path d="M189.9314,229.7018 L192.0192,229.7894 C193.16403,229.857774 194.225742,230.409864 194.9392,231.3078 C195.70319,232.265461 196.085471,233.472118 196.0123,234.695 C195.967671,235.652347 195.575805,236.560646 194.91,237.25 C194.264795,237.894336 193.374703,238.231774 192.4645,238.1771 L189.2671,237.9508 L189.9314,229.7018 Z" id="Path" fill="url(#linearGradient-6)"></path>
            <path d="M119.72,230.0011 C125.0855,228.9353 137.3933,230.0011 137.3933,230.0011 L137.8678,231.3735 L138.5248,238.1552 C138.5248,238.1552 126.7353,239.9072 120.9464,239.7247 C120.394772,239.707663 119.848683,239.609268 119.3258,239.4327 C119.151175,239.268944 118.985469,239.095928 118.8294,238.9144 C116.4277,236.1331 117.2307,232.213 119.72,230.0011 Z" id="Path" fill="#040728"></path>
            <path d="M119.1725,230.1179 L119.7054,230.0011 C117.2307,232.1911 116.4277,236.1331 118.8148,238.8852 C118.970869,239.066728 119.136575,239.239744 119.3112,239.4035 C115.0042,237.9216 114.6538,231.2421 119.1725,230.1179 Z" id="Path" fill="#040728"></path>
            <path d="M140.9338,229.7018 L138.846,229.7018 C137.696241,229.723737 136.612446,230.243 135.8749,231.1253 C135.083734,232.0584 134.669765,233.253444 134.7142,234.476 C134.733366,235.449103 135.113179,236.380425 135.78,237.0894 C136.405508,237.752746 137.284957,238.116747 138.1963,238.0895 L141.401,237.9581 L140.9338,229.7018 Z" id="Path" fill="url(#linearGradient-7)"></path>
            <path d="M212.6344,209.51 C210.2181,203.9401 204.2978,203.0349 199.2608,205.641 C199.1732,205.7505 167.2649,222.1025 139.1307,229.2711 C139.920902,231.878108 140.362735,234.578199 140.4447,237.3011 C140.4447,237.907 140.4447,238.4983 140.4447,239.0823 C162.0162,237.9727 185.4346,230.7822 205.5607,224.4823 C211.7657,222.4164 215.35,215.6493 212.6344,209.51 Z" id="Path" fill="url(#linearGradient-8)"></path>
            <path d="M190.0847,237.6953 C189.974607,234.692509 190.598535,231.708177 191.9024,229.001 C191.9389,228.8769 191.9827,228.7601 192.0192,228.6433 C190.4132,228.1396 188.3692,227.468 185.6098,226.5409 C168.413272,220.796709 151.760013,213.538849 135.8457,204.8526 C130.1882,201.7647 123.7642,203.8379 121.9757,210.5247 C120.3624,216.4888 124.027,221.263 129.2757,223.38 C147.3724,230.68 173.9517,237.2865 190.1285,238.3742 C190.1066,238.1479 190.092,237.9216 190.0847,237.6953 Z" id="Path" fill="url(#linearGradient-9)"></path>
            <path d="M155.1542,156.3149 C156.661788,161.947067 161.910394,165.751773 167.7321,165.4326 C178.3609,165.2355 179.3099,156.2784 179.3099,156.2784 L172.3676,154.8184 L171.7836,147.0877 L161.3446,147.8177 L161.1548,155.1688 L155.1542,156.3149 Z" id="Path" fill="url(#linearGradient-10)"></path>
            <path d="M162.3447,124.2679 C162.3447,124.2679 151.2268,145.8029 164.4179,151.0297 C173.7181,154.6797 179.5508,136.729 177.8134,131.8526 C175.1197,124.319 173.3531,125.2169 173.3531,125.2169 L162.3447,124.2679 Z" id="Path" fill="url(#linearGradient-11)"></path>
            <path d="M177.8134,131.8526 C177.8134,131.765 177.755,131.692 177.7331,131.6117 C177.7331,132.0132 177.7915,132.4293 177.7988,132.8527 L177.8426,131.9402 C177.82959,131.912197 177.819794,131.882809 177.8134,131.8526 L177.8134,131.8526 Z" id="Path" fill="#FFFFFF"></path>
            <path d="M177.7331,131.6117 C177.7331,131.4657 177.6966,131.3197 177.6747,131.181 C178.2441,132.13 177.1491,129.94 177.7331,131.6117 Z" id="Path" fill="#FFFFFF"></path>
            <path d="M182.9599,118.4863 C188.9167,117.1285 184.7849,135.5537 175.9154,132.5388 C167.0459,129.5239 162.9141,127.6624 161.5344,130.0933 C160.1547,132.5242 157.8844,142.5033 157.0814,137.3276 C156.3514,132.495 155.6725,123.6547 160.3299,121.7202 C162.9798,120.6252 165.3085,122.9977 167.1262,122.4064 C169.9367,121.4866 172.645,121.4574 174.3094,122.4064 C177.463,124.2387 179.1712,119.3477 182.9599,118.4863 Z" id="Path" fill="url(#linearGradient-12)"></path>
            <path d="M160.5416,133.6776 C160.5416,133.6776 158.6144,130.7576 157.7384,133.7433 C156.8624,136.729 157.4172,140.8243 159.1984,138.9117 C160.9796,136.9991 160.5416,133.6776 160.5416,133.6776 Z" id="Path" fill="url(#linearGradient-13)"></path>
            <path d="M161.33,63.2034 L77.9859,60.5389 C76.1824452,60.4836256 74.4334874,61.1611033 73.1378661,62.4168381 C71.8422448,63.672573 71.1104272,65.3994987 71.1093,67.2038 L71.1093,103.4848 C71.1093,107.165723 74.0932774,110.1497 77.7742,110.1497 L132.714,110.1497 L143.5618,123.2897 L147.752,110.1497 L161.111,110.1497 C164.791923,110.1497 167.776023,107.165723 167.776023,103.4848 L167.776023,69.9048 C167.797625,66.2935852 164.939332,63.3219967 161.33,63.2034 Z" id="Path" fill="url(#linearGradient-14)"></path>
            <polygon id="Path" fill="#FFFFFF" points="109.2518 96.36 90.6149 86.7094 90.6149 83.6507 109.2518 73.9344 109.2518 78.9276 96.5206 85.1399 109.2518 91.3814"></polygon>
            <polygon id="Path" fill="#FFFFFF" points="127.4872 71.1239 117.9315 100.667 112.9602 100.6232 122.64 70.8684"></polygon>
            <polygon id="Path" fill="#FFFFFF" points="130.9328 91.8705 142.4303 86.5634 130.9328 79.8182 130.9328 74.9783 147.46 85.5195 147.46 88.33 130.9036 96.6885"></polygon>
        </g>
    </g>
</svg>