<?xml version="1.0" encoding="UTF-8"?>
<svg width="285px" height="308px" viewBox="0 0 285 308" version="1.1" xmlns="http://www.w3.org/2000/svg" xmlns:xlink="http://www.w3.org/1999/xlink">
    <title>ILUSTRACION_04</title>
    <defs>
        <linearGradient x1="112.407659%" y1="129.514856%" x2="23.8481626%" y2="19.0064754%" id="linearGradient-1">
            <stop stop-color="#72B8F8" offset="0%"></stop>
            <stop stop-color="#E9EFFD" offset="68%"></stop>
        </linearGradient>
        <linearGradient x1="-23.7422198%" y1="49.9851566%" x2="67.8888478%" y2="49.9851566%" id="linearGradient-2">
            <stop stop-color="#310D71" offset="9%"></stop>
            <stop stop-color="#72B6F6" offset="100%"></stop>
        </linearGradient>
        <linearGradient x1="-1.11012134e-14%" y1="50.0017782%" x2="99.998653%" y2="50.0017782%" id="linearGradient-3">
            <stop stop-color="#FB6FBB" offset="0%"></stop>
            <stop stop-color="#FF9085" offset="100%"></stop>
        </linearGradient>
        <linearGradient x1="89.4927597%" y1="45.1196105%" x2="-8.60983057%" y2="62.7832994%" id="linearGradient-4">
            <stop stop-color="#FEBBBA" offset="0%"></stop>
            <stop stop-color="#FF928E" offset="100%"></stop>
        </linearGradient>
        <linearGradient x1="112.497235%" y1="48.2450801%" x2="23.7558062%" y2="52.5013851%" id="linearGradient-5">
            <stop stop-color="#E8A476" offset="0%"></stop>
            <stop stop-color="#F1B287" offset="100%"></stop>
        </linearGradient>
        <linearGradient x1="138.997623%" y1="-152.307692%" x2="34.2537331%" y2="107.975709%" id="linearGradient-6">
            <stop stop-color="#105B91" offset="3%"></stop>
            <stop stop-color="#010027" offset="100%"></stop>
        </linearGradient>
        <linearGradient x1="77.1601736%" y1="-47.7860144%" x2="39.3737098%" y2="73.7397445%" id="linearGradient-7">
            <stop stop-color="#105B91" offset="3%"></stop>
            <stop stop-color="#010027" offset="100%"></stop>
        </linearGradient>
        <linearGradient x1="18.3300233%" y1="34.0555621%" x2="105.863487%" y2="76.1588355%" id="linearGradient-8">
            <stop stop-color="#E8A476" offset="0%"></stop>
            <stop stop-color="#F1B287" offset="100%"></stop>
        </linearGradient>
        <linearGradient x1="60.8953907%" y1="114.068577%" x2="16.0922015%" y2="58.0791725%" id="linearGradient-9">
            <stop stop-color="#632E40" offset="0%"></stop>
            <stop stop-color="#48202D" offset="100%"></stop>
        </linearGradient>
        <linearGradient x1="-180.617629%" y1="-40.7283695%" x2="116.347381%" y2="76.151464%" id="linearGradient-10">
            <stop stop-color="#E8A476" offset="0%"></stop>
            <stop stop-color="#F1B287" offset="100%"></stop>
        </linearGradient>
        <linearGradient x1="100%" y1="50.0026015%" x2="6.23283102e-13%" y2="50.0026015%" id="linearGradient-11">
            <stop stop-color="#FEBBBA" offset="0%"></stop>
            <stop stop-color="#FF928E" offset="100%"></stop>
        </linearGradient>
        <linearGradient x1="100.009395%" y1="50.0872127%" x2="3.65083776e-12%" y2="50.0872127%" id="linearGradient-12">
            <stop stop-color="#FEBBBA" offset="0%"></stop>
            <stop stop-color="#FF928E" offset="100%"></stop>
        </linearGradient>
        <linearGradient x1="68.3124752%" y1="107.245195%" x2="-1.08634004%" y2="-53.4723355%" id="linearGradient-13">
            <stop stop-color="#105B91" offset="3%"></stop>
            <stop stop-color="#010027" offset="100%"></stop>
        </linearGradient>
        <linearGradient x1="-89.5958132%" y1="78.9196798%" x2="132.780743%" y2="33.0838699%" id="linearGradient-14">
            <stop stop-color="#310D71" offset="9%"></stop>
            <stop stop-color="#72B6F6" offset="100%"></stop>
        </linearGradient>
        <linearGradient x1="0.205319606%" y1="49.9970366%" x2="100.225566%" y2="49.9970366%" id="linearGradient-15">
            <stop stop-color="#7288F6" offset="0%"></stop>
            <stop stop-color="#72B6F6" offset="100%"></stop>
        </linearGradient>
        <linearGradient x1="93.6423107%" y1="-83.8299355%" x2="27.528131%" y2="140.216066%" id="linearGradient-16">
            <stop stop-color="#105B91" offset="3%"></stop>
            <stop stop-color="#010027" offset="100%"></stop>
        </linearGradient>
        <linearGradient x1="32.2017142%" y1="73.6616285%" x2="71.705891%" y2="21.1645821%" id="linearGradient-17">
            <stop stop-color="#105B91" offset="3%"></stop>
            <stop stop-color="#010027" offset="100%"></stop>
        </linearGradient>
        <linearGradient x1="60.5003786%" y1="-84.3924334%" x2="33.3329549%" y2="239.020561%" id="linearGradient-18">
            <stop stop-color="#FEBBBA" offset="0%"></stop>
            <stop stop-color="#FF928E" offset="100%"></stop>
        </linearGradient>
        <linearGradient x1="52.3847921%" y1="-20.0392408%" x2="43.3300206%" y2="252.771721%" id="linearGradient-19">
            <stop stop-color="#FEBBBA" offset="0%"></stop>
            <stop stop-color="#FF928E" offset="100%"></stop>
        </linearGradient>
        <linearGradient x1="63.6960624%" y1="114.420379%" x2="34.4524344%" y2="-11.0625258%" id="linearGradient-20">
            <stop stop-color="#105B91" offset="3%"></stop>
            <stop stop-color="#010027" offset="100%"></stop>
        </linearGradient>
        <linearGradient x1="40.6662472%" y1="40.6343531%" x2="59.8875549%" y2="69.664381%" id="linearGradient-21">
            <stop stop-color="#7288F6" offset="0%"></stop>
            <stop stop-color="#72B6F6" offset="100%"></stop>
        </linearGradient>
        <linearGradient x1="40.3224712%" y1="71.5057911%" x2="90.1128654%" y2="-7.30089158%" id="linearGradient-22">
            <stop stop-color="#E8A476" offset="0%"></stop>
            <stop stop-color="#F1B287" offset="100%"></stop>
        </linearGradient>
        <linearGradient x1="-0.208940681%" y1="-13.5868403%" x2="67.576003%" y2="64.7245546%" id="linearGradient-23">
            <stop stop-color="#632E40" offset="0%"></stop>
            <stop stop-color="#48202D" offset="100%"></stop>
        </linearGradient>
        <linearGradient x1="49.5075615%" y1="52.7524319%" x2="178.076612%" y2="-204.134346%" id="linearGradient-24">
            <stop stop-color="#E8A476" offset="0%"></stop>
            <stop stop-color="#F1B287" offset="100%"></stop>
        </linearGradient>
        <linearGradient x1="-64.846592%" y1="-50.1464129%" x2="593.233542%" y2="592.532943%" id="linearGradient-25">
            <stop stop-color="#7288F6" offset="0%"></stop>
            <stop stop-color="#72B6F6" offset="100%"></stop>
        </linearGradient>
        <linearGradient x1="79.6690006%" y1="57.0396492%" x2="-15.8243157%" y2="40.9414338%" id="linearGradient-26">
            <stop stop-color="#E8A476" offset="0%"></stop>
            <stop stop-color="#F1B287" offset="100%"></stop>
        </linearGradient>
        <linearGradient x1="681.12797%" y1="-1181.03012%" x2="280.005745%" y2="-398.62719%" id="linearGradient-27">
            <stop stop-color="#7288F6" offset="0%"></stop>
            <stop stop-color="#72B6F6" offset="100%"></stop>
        </linearGradient>
        <linearGradient x1="535.803311%" y1="-624.967129%" x2="203.434574%" y2="-161.380389%" id="linearGradient-28">
            <stop stop-color="#7288F6" offset="0%"></stop>
            <stop stop-color="#72B6F6" offset="100%"></stop>
        </linearGradient>
        <linearGradient x1="58.44%" y1="31.16%" x2="206.76%" y2="-300.56%" id="linearGradient-29">
            <stop stop-color="#7288F6" offset="0%"></stop>
            <stop stop-color="#72B6F6" offset="100%"></stop>
        </linearGradient>
    </defs>
    <g id="ILUSTRACION_04" stroke="none" stroke-width="1" fill="none" fill-rule="evenodd">
        <g id="WG_ilustraciones-05" transform="translate(14.000000, 28.000000)" fill-rule="nonzero">
            <path d="M218.88,213.7728 C214.71769,218.062133 210.134639,221.92208 205.2,225.2944 C160.55,257.336 107.7148,247.9956 96.52,245.7156 C79.9368,242.3488 47.88,235.8356 24.7152,208.5896 C-10.3436,167.3596 -4.8868,102.41 22.306,59.5308 C27.284,51.6876 53.5572,8.1624 106.9548,1.178 C139.2776,-3.0476 176.9508,5.472 204.2348,28.3328 C261.4856,76.3116 257.4044,173.2344 218.88,213.7728 Z" id="Path" fill="url(#linearGradient-1)"></path>
            <g id="Group" opacity="0.3" transform="translate(126.160000, 44.840000)" fill="#91B3FA">
                <path d="M75.5212,41.1616 C75.8147378,41.6760455 75.6776823,42.3286907 75.202,42.6816 C74.138,43.4416 73.0284,44.2016 71.896,44.9084 C71.6310393,45.0710345 71.3122592,45.1215684 71.0099901,45.0488527 C70.7077211,44.976137 70.4468028,44.7861474 70.2848,44.5208 L70.2848,44.5208 C69.9584671,43.9725738 70.1348154,43.2637893 70.68,42.9324 C71.7592,42.2712 72.8156,41.5568 73.8264,40.812 C74.3481345,40.435228 75.0756806,40.5468979 75.4604,41.0628 L75.5212,41.1616 Z M66.6976,46.246 C66.6976,46.284 66.7356,46.3296 66.7584,46.3676 C66.9994096,46.953285 66.7341962,47.6247112 66.158,47.8876 C64.942,48.4196 63.688,48.906 62.4416,49.3316 C62.1394605,49.4391744 61.8065211,49.4189067 61.5196615,49.2754769 C61.232802,49.1320471 61.0168241,48.8778562 60.9216,48.5716 C60.8238122,48.274325 60.8491485,47.9502699 60.9919508,47.6718055 C61.134753,47.3933412 61.3831257,47.1836636 61.6816,47.0896 C62.8672,46.6792 64.0528,46.2232 65.208,45.714 C65.7675531,45.4857954 66.4092066,45.7149574 66.6976,46.246 L66.6976,46.246 Z M56.962,49.286 C57.0302374,49.4040856 57.078996,49.5323977 57.1064,49.666 C57.1640484,49.9704998 57.0977588,50.2854141 56.9222471,50.5408335 C56.7467354,50.7962529 56.4765246,50.9710426 56.1716,51.0264 C54.872,51.2772 53.5496,51.4748 52.2272,51.604 C51.7993516,51.6704321 51.3697815,51.4952339 51.1104286,51.1485301 C50.8510757,50.8018262 50.8043163,50.3402654 50.9888662,49.948591 C51.173416,49.5569166 51.5591212,49.2991253 51.9916,49.2784 C53.238,49.1492 54.4996,48.9668 55.7384,48.7312 C56.229614,48.6184004 56.7378764,48.832728 57,49.2632 L56.962,49.286 Z M46.8008,50.046 C46.9190435,50.2342375 46.9748936,50.4549784 46.9604,50.6768 C46.9505148,50.9866157 46.8173382,51.279661 46.590446,51.4908562 C46.3635539,51.7020514 46.0617287,51.8139135 45.752,51.8016 C44.4296,51.7484 43.092,51.642 41.7772,51.4824 C41.3058996,51.5156478 40.860829,51.2622626 40.6488497,50.8400135 C40.4368704,50.4177644 40.4995599,49.9094713 40.8077811,49.5513803 C41.1160024,49.1932893 41.609301,49.0556362 42.0584,49.2024 C43.3124,49.3544 44.5816,49.4532 45.8584,49.4988 C46.2427648,49.5106011 46.5960586,49.7128904 46.8008,50.0384 L46.8008,50.046 Z M36.7308,48.526 C36.8903786,48.7937961 36.9316623,49.1158089 36.8448,49.4152 C36.7663791,49.7152674 36.5713332,49.9715719 36.3030229,50.1271348 C36.0347125,50.2826977 35.7153743,50.3246265 35.416,50.2436 C34.1392,49.9092 32.8624,49.4836 31.616,49.058 C31.0073823,48.8376384 30.6926385,48.1656178 30.9130001,47.557 C31.1333617,46.9483823 31.8053822,46.6336384 32.414,46.854 C33.5996,47.2796 34.8156,47.6596 36.024,47.9864 C36.3197676,48.0651755 36.5732614,48.2559773 36.7308,48.5184 L36.7308,48.526 Z M27.2384,44.84 C27.4836237,45.283723 27.4152865,45.8348783 27.0691209,46.2052756 C26.7229552,46.5756728 26.1776756,46.6810875 25.7184,46.4664 C24.5404,45.8508 23.3852,45.1744 22.268,44.46 C21.8934841,44.2450522 21.6677485,43.8413505 21.6807266,43.40973 C21.6937047,42.9781095 21.9432878,42.5886997 22.3300417,42.396642 C22.7167955,42.2045844 23.1778806,42.2410842 23.5296,42.4916 C24.586,43.168 25.688,43.814 26.8052,44.3992 C26.9862575,44.50496 27.1358045,44.6571307 27.2384,44.84 Z M3.154,9.2796 C3.24049797,9.42276496 3.29253391,9.58407637 3.306,9.7508 C3.4352,10.9972 3.6252,12.2588 3.8608,13.4976 C3.89902945,14.0858499 3.49380065,14.6107274 2.91502722,14.7226236 C2.3362538,14.8345198 1.76458658,14.4985089 1.5808,13.9384 C1.33,12.6388 1.1324,11.3088 0.9956,9.994 C0.937984144,9.4458883 1.27056543,8.93184572 1.79414242,8.75976098 C2.31771941,8.58767624 2.89041086,8.80418162 3.1692,9.2796 L3.154,9.2796 Z M18.81,39.1248 C19.1003961,39.6179939 18.9915178,40.2488631 18.5526089,40.6161902 C18.1137001,40.9835173 17.4735169,40.9795452 17.0392,40.6068 C16.036,39.7404 15.0556,38.8284 14.1284,37.886 C13.6744248,37.4270277 13.6744248,36.6881723 14.1284,36.2292 C14.3456408,36.007777 14.6428038,35.8830253 14.953,35.8830253 C15.2631962,35.8830253 15.5603592,36.007777 15.7776,36.2292 C16.6592,37.126 17.594,37.9924 18.544,38.8132 C18.6497051,38.8892072 18.7399779,38.9846386 18.81,39.0944 L18.81,39.1248 Z M5.32,19.1976 C5.3581045,19.2649778 5.38868812,19.3363396 5.4112,19.4104 C5.8216,20.6036 6.2852,21.7892 6.7944,22.9444 C7.05463657,23.5362283 6.78582834,24.2269634 6.194,24.4872 C5.60217166,24.7474366 4.91143657,24.4786283 4.6512,23.8868 C4.1192,22.6708 3.6328,21.4244 3.1996,20.1704 C2.99188731,19.5977573 3.25814562,18.9615297 3.81180888,18.7075194 C4.36547213,18.453509 5.02140582,18.666652 5.32,19.1976 L5.32,19.1976 Z M11.8408,31.6388 C12.1556337,32.1762301 11.9944056,32.8660872 11.4739864,33.2083084 C10.9535673,33.5505295 10.2562916,33.4252138 9.8876,32.9232 C9.1276,31.8592 8.3676,30.7496 7.6608,29.6172 L7.6608,29.6172 C7.32710963,29.0631479 7.50574804,28.3434905 8.05980006,28.0098001 C8.61385208,27.6761097 9.33350952,27.854748 9.6672,28.4088 C10.3284,29.4804 11.0428,30.5368 11.7876,31.5476 L11.8408,31.6388 Z" id="Shape"></path>
                <path d="M3.04,1.0336 C3.16025892,1.24036501 3.21336937,1.47936204 3.192,1.7176 C3.1464,2.318 3.116,2.9336 3.0932,3.534 C3.0782663,3.95214365 2.84139001,4.33055727 2.47180014,4.52669613 C2.10221027,4.72283499 1.65605631,4.70690092 1.30140014,4.48489613 C0.946743969,4.26289134 0.737466298,3.86854365 0.7524,3.4504 C0.7524,2.812 0.8132,2.166 0.8588,1.5352 C0.905351889,1.02850949 1.27197026,0.608974825 1.76785157,0.494939403 C2.26373288,0.38090398 2.77678737,0.59814454 3.04,1.0336 L3.04,1.0336 Z" id="Path"></path>
            </g>
            <g id="Group" opacity="0.3" transform="translate(141.360000, 3.040000)" fill="#91B3FA">
                <path d="M4.2636,11.1796 C4.56190379,11.6825359 4.44897251,12.3278575 3.9976,12.6996 C3.534,13.0796 3.0628,13.4596 2.6144,13.8852 C2.31742568,14.2248286 1.85168471,14.363528 1.4172882,14.2417044 C0.98289169,14.1198808 0.657191017,13.7592269 0.580127319,13.3147019 C0.503063622,12.8701768 0.688359347,12.4209356 1.0564,12.16 C1.5276,11.7344 2.0216,11.3088 2.508,10.906 C3.00858588,10.4982785 3.744085,10.5694558 4.1572,11.0656 C4.19425587,11.102085 4.22975418,11.1401189 4.2636,11.1796 L4.2636,11.1796 Z" id="Path"></path>
                <path d="M72.5268,23.2332 C72.8004,23.6968 73.0664,24.168 73.3248,24.6392 C73.6333063,25.2079428 73.4223428,25.9190937 72.8536,26.2276 C72.2848572,26.5361063 71.5737063,26.3251428 71.2652,25.7564 C70.6724,24.6544 70.034,23.5828 69.3576,22.5568 C69.1151064,22.2064984 69.0821201,21.7520963 69.2714792,21.3704454 C69.4608384,20.9887944 69.8426285,20.7401869 70.2682582,20.72138 C70.6938879,20.7025731 71.0961172,20.9165379 71.3184,21.28 C71.7389333,21.9133333 72.1417333,22.5644 72.5268,23.2332 Z M75.8936,30.2556 C75.9245853,30.3149217 75.9524891,30.3758026 75.9772,30.438 C76.4408,31.6616 76.8512,32.9156 77.2084,34.162 C77.3237968,34.5692828 77.2131451,35.0071911 76.9181263,35.3107691 C76.6231074,35.614347 76.1885418,35.737474 75.7781262,35.6337691 C75.3677105,35.5300642 75.0437967,35.2152828 74.9284,34.808 C74.5864,33.6148 74.1684,32.4216 73.758,31.2664 C73.5259896,30.6599057 73.8285308,29.9800378 74.4344,29.7464 C74.9798616,29.5356401 75.5976871,29.7512354 75.8936,30.2556 L75.8936,30.2556 Z M67.5944,16.3704 C67.884742,16.8907871 67.7377384,17.5462428 67.2529632,17.8927889 C66.768188,18.2393351 66.1004298,18.1663195 65.702,17.7232 C64.8964,16.796 64.03,15.884 63.1408,15.0252 C62.6868248,14.5662277 62.6868248,13.8273723 63.1408,13.3684 C63.3580408,13.146977 63.6552038,13.0222253 63.9654,13.0222253 C64.2755962,13.0222253 64.5727592,13.146977 64.79,13.3684 C65.7324,14.2728 66.6368,15.2304 67.4956,16.2108 C67.5324275,16.2614884 67.5654512,16.3148343 67.5944,16.3704 Z M78.3788,39.976 C78.4562866,40.1068085 78.5078906,40.2512997 78.5308,40.4016 C78.7056,41.6936 78.8348,43.0084 78.9108,44.308 C78.9338794,44.7261436 78.7321286,45.124837 78.3815452,45.3538961 C78.0309619,45.5829553 77.5848079,45.6075806 77.2111452,45.4184961 C76.8374825,45.2294116 76.5930794,44.8553436 76.57,44.4372 C76.5016,43.206 76.38,41.952 76.2128,40.7284 C76.1347525,40.1758615 76.4576398,39.6450683 76.9841907,39.4603136 C77.5107417,39.2755589 78.0944946,39.4882327 78.3788,39.9684 L78.3788,39.976 Z M60.2224,9.576 C60.4559691,9.9799001 60.4291453,10.4835912 60.154,10.8604 C59.9716058,11.1117174 59.6962662,11.2796396 59.3893319,11.3267504 C59.0823976,11.3738613 58.769371,11.2962465 58.52,11.1112 C57.5244,10.3512 56.4832,9.69 55.4268,9.044 C55.0551814,8.83373618 54.8275539,8.43778548 54.8328477,8.01083905 C54.8381414,7.58389262 55.0755164,7.19370758 55.4522342,6.99272251 C55.8289519,6.79173744 56.2852268,6.81184902 56.6428,7.0452 C57.76,7.7216 58.8544,8.4588 59.9032,9.2264 C60.0294589,9.32610858 60.1374606,9.44696762 60.2224,9.5836 L60.2224,9.576 Z M51.5356,4.56 C51.7936921,4.99807813 51.739421,5.55267799 51.4013008,5.932413 C51.0631805,6.31214801 50.518567,6.43014161 50.0536,6.2244 C48.9212,5.7228 47.7736,5.2744 46.5804,4.8716 C46.2728444,4.77825612 46.0172097,4.56254092 45.8734714,4.27506431 C45.7297331,3.98758769 45.7105418,3.65365078 45.8204,3.3516 C45.9126697,3.05189009 46.1220821,2.80215388 46.4011214,2.65905679 C46.6801607,2.5159597 47.0051685,2.49163429 47.3024,2.5916 C48.5412,3.0096 49.7648,3.4884 50.9656,4.0128 C51.2125791,4.12465902 51.4137575,4.31779036 51.5356,4.56 L51.5356,4.56 Z M41.9596,1.5732 C42.1063005,1.81721012 42.1577231,2.10680065 42.104,2.3864 C41.9777189,3.02066829 41.3637102,3.43453054 40.7284,3.3136 C39.5124,3.0704 38.2736,2.888 37.0424,2.7512 C36.6180357,2.71585217 36.2463553,2.45280716 36.0718908,2.06435292 C35.8974264,1.67589869 35.9477108,1.22333878 36.2031905,0.882656116 C36.4586702,0.54197345 36.8790268,0.366932551 37.3008,0.4256 C38.5928,0.57 39.9,0.7676 41.1768,1.0184 C41.512815,1.08502538 41.8006109,1.30017375 41.9596,1.6036 L41.9596,1.5732 Z M31.9732,0.76 C32.0704424,0.929322768 32.1252051,1.11968824 32.1328,1.3148 C32.1409681,1.62523875 32.0254261,1.92619739 31.8116125,2.15141437 C31.5977989,2.37663135 31.3032442,2.5076413 30.9928,2.5156 C29.754,2.5536 28.5,2.6372 27.2764,2.7816 C26.8596819,2.83163949 26.4480726,2.65471209 26.1976391,2.31790216 C25.9472055,1.98109222 25.8962929,1.53597038 26.0642054,1.15131041 C26.2321178,0.766650436 26.5931455,0.501349532 27.0104,0.456 C28.3024,0.3116 29.6248,0.2204 30.9244,0.1824 C31.3534759,0.16800496 31.755995,0.389682124 31.9732,0.76 Z M22.04,2.1584 C22.0953228,2.25407532 22.1387128,2.35616952 22.1692,2.4624 C22.3276653,3.08765791 21.9503807,3.72326352 21.3256,3.8836 C20.1248,4.1952 18.924,4.5524 17.7536,4.9628 C17.1528303,5.14015853 16.5189209,4.81306103 16.3153469,4.22066085 C16.111773,3.62826067 16.4107127,2.98059646 16.9936,2.7512 C18.2248,2.3256 19.494,1.9456 20.748,1.6188 C21.2504325,1.49544153 21.7745493,1.71433735 22.04,2.1584 L22.04,2.1584 Z M12.6616,5.6924 L12.6996,5.7608 C12.8395038,6.03680202 12.8636279,6.35718411 12.7666321,6.6510242 C12.6696364,6.94486429 12.4595215,7.18792476 12.1828,7.3264 C11.3696,7.7444 10.5564,8.1852 9.7736,8.6412 L8.93,9.1504 C8.3801453,9.49038649 7.65878649,9.3202547 7.3188,8.7704 C6.97881351,8.2205453 7.1489453,7.49918649 7.6988,7.1592 L8.588,6.6272 C9.4164,6.1408 10.2676,5.6772 11.1264,5.244 C11.6744921,4.97078866 12.3405336,5.16629336 12.654,5.6924 L12.6616,5.6924 Z" id="Shape"></path>
                <path d="M78.6676,50.0232 C78.7870805,50.233042 78.8400816,50.4741971 78.8196,50.7148 C78.7664,51.3456 78.7056,51.984 78.622,52.6224 C78.5961144,53.0578281 78.3302352,53.4427332 77.9321573,53.6210635 C77.5340794,53.7993938 77.0698612,53.7415568 76.7277101,53.4710012 C76.385559,53.2004456 76.2222526,52.7620683 76.304,52.3336 C76.38,51.7332 76.4408,51.1176 76.4864,50.5248 C76.5115797,50.2153921 76.6586481,49.9286618 76.8952478,49.7276946 C77.1318475,49.5267274 77.4385948,49.4279877 77.748,49.4532 C78.1284112,49.4841071 78.4706815,49.6962581 78.6676,50.0232 L78.6676,50.0232 Z" id="Path"></path>
            </g>
            <path d="M207.5256,58.5656 C207.603979,58.347965 207.537041,58.1045543 207.3584,57.9576 L202.2208,53.732 C202.615102,50.6054241 202.499602,47.4355883 201.8788,44.346 L206.6896,39.786 C206.854737,39.6232019 206.903023,39.3757368 206.8112,39.1628 L203.49,31.92 C203.391273,31.7068933 203.169055,31.5790418 202.9352,31.6008 L196.3156,32.2468 C194.386917,29.7574996 192.063487,27.6009462 189.4376,25.8628 L189.5972,19.2052 C189.601972,18.9721639 189.458601,18.7616834 189.24,18.6808 L181.7616,15.8992 C181.54167,15.8195998 181.295442,15.8864767 181.146,16.0664 L176.9204,21.204 C173.796358,20.8097189 170.629026,20.9252212 167.542,21.546 L162.982,16.7352 C162.819202,16.5700626 162.571737,16.5217767 162.3588,16.6136 L155.04,19.9044 C154.827746,19.9991428 154.701574,20.2207144 154.7284,20.4516 L155.3744,27.0712 C152.884024,28.9861888 150.724798,31.2968943 148.9828,33.9112 L142.3328,33.7516 C142.098355,33.7419928 141.8853,33.887117 141.8084,34.1088 L139.08,41.6252 C138.997994,41.845025 139.065255,42.0926654 139.2472,42.2408 L144.3848,46.4664 C143.986718,49.5902713 144.102243,52.7582211 144.7268,55.8448 L139.916,60.4048 C139.742354,60.5629215 139.692934,60.8161981 139.7944,61.028 L143.1156,68.286 C143.212201,68.4965605 143.432423,68.6219646 143.6628,68.5976 L150.2824,67.9516 C152.213353,70.4436781 154.539322,72.6027736 157.168,74.3432 L157.0084,80.9932 C157.000136,81.2249642 157.140885,81.4360883 157.358,81.5176 L164.844,84.2992 C165.061419,84.3825219 165.307759,84.3147784 165.452,84.132 L169.6776,78.9944 C172.803831,79.3963496 175.974913,79.2808041 179.0636,78.6524 L183.6236,83.4632 C183.781722,83.6368462 184.034998,83.686266 184.2468,83.5848 L191.4972,80.2636 C191.709099,80.1675952 191.837134,79.9481076 191.8164,79.7164 L191.1704,73.0968 C193.653131,71.1757633 195.808946,68.8659619 197.5544,66.2568 L204.212,66.4088 C204.442447,66.4125033 204.651185,66.2733451 204.7364,66.0592 L207.5256,58.5656 Z" id="Path" fill="#91B3FA"></path>
            <path d="M180.2112,46.0408 C181.979545,49.0495167 181.600841,52.8561411 179.274376,55.4574834 C176.947911,58.0588257 173.20702,58.8585367 170.020301,57.4357781 C166.833581,56.0130196 164.931579,52.6939543 165.3152,49.2252 C165.665464,45.9989574 167.925928,43.3019827 171.04132,42.3933265 C174.156713,41.4846704 177.512629,42.5435343 179.5424,45.0756 C179.788344,45.3807642 180.011862,45.7033415 180.2112,46.0408 L180.2112,46.0408 Z M167.96,53.2 C168.115338,53.4644405 168.287981,53.7183269 168.4768,53.96 C170.604595,56.6051834 174.473558,57.0253041 177.119531,54.8984919 C179.765505,52.7716796 180.187062,48.9028721 178.061232,46.2561095 C175.935402,43.6093468 172.066752,43.1863531 169.4192,45.3112 C167.053801,47.2210606 166.434272,50.5703933 167.96,53.2 Z" id="Shape" fill="#BDD0FB"></path>
            <path d="M190.1216,40.0444 C190.464673,40.6253291 190.776711,41.2240358 191.0564,41.838 L191.0564,41.838 C191.1476,42.0356 191.2312,42.2332 191.3148,42.4308 C191.72575,43.4001284 192.0562,44.4016444 192.3028,45.4252 L192.3028,45.4708 L192.3028,45.5924 C192.3028,45.6684 192.3408,45.7444 192.356,45.8204 C192.402363,46.0180185 192.312519,46.2224906 192.1356,46.322 C192.095697,46.3518623 192.048394,46.3702577 191.9988,46.3752 C191.877627,46.4044488 191.749762,46.3828171 191.644953,46.3153372 C191.540144,46.2478574 191.467528,46.1404128 191.444,46.018 C191.153316,44.7099296 190.725345,43.4362035 190.1672,42.218 C185.837504,32.8152263 174.721879,28.6808391 165.3,32.9688 C164.7148,33.2424 164.1372,33.5388 163.59,33.858 C155.295886,38.7498391 152.038032,49.1172282 156.0432,57.874 C160.370346,67.301157 171.514503,71.4432329 180.9484,67.1308 C181.529382,66.8688732 182.095206,66.5745436 182.6432,66.2492 C185.01782,64.8607484 187.055313,62.9634139 188.6092,60.6936 C188.652375,60.6403072 188.703669,60.5941423 188.7612,60.5568 C188.913963,60.4585373 189.110037,60.4585373 189.2628,60.5568 C189.476314,60.7040659 189.530664,60.9961986 189.3844,61.2104 C187.748419,63.5928597 185.607693,65.5856805 183.1144,67.0472 C182.539284,67.3867865 181.945549,67.6938033 181.336,67.9668 C171.813533,72.1534317 160.67584,68.240613 155.864147,59.0182015 C151.052454,49.7957901 154.214617,38.4221768 163.096,33.0068 C163.6812,32.6724 164.2816,32.3532 164.8972,32.072 C174.091012,27.880258 184.965967,31.2997872 190.1064,39.9988 L190.1216,40.0444 Z" id="Path" fill="#BDD0FB"></path>
            <g id="Group" opacity="0.3" transform="translate(196.080000, 93.480000)" fill="#91B3FA">
                <path d="M52.3792,11.3544 C52.5428538,11.6303734 52.5024473,11.9815993 52.2804,12.2132 C51.8624,12.6616 51.4216,13.1024 50.9732,13.5204 C50.6798207,13.7624241 50.2489968,13.7353613 49.9882104,13.4585265 C49.7274239,13.1816916 49.7261072,12.7500206 49.9852,12.4716 C50.4108,12.0688 50.8288,11.6508 51.2316,11.2252 C51.5208705,10.9641259 51.9607295,10.9641259 52.25,11.2252 C52.3003985,11.2602512 52.3441488,11.3040015 52.3792,11.3544 Z" id="Path"></path>
                <path d="M48.2144,15.0328 C48.4066793,15.352487 48.3206064,15.7662988 48.0168,15.9828 C47.1656,16.606 46.2764,17.1912 45.3644,17.7308 L44.7868,18.0576 C44.4362746,18.2356918 44.0077833,18.1170327 43.7988,17.784 C43.6220889,17.4315809 43.7441977,17.0025499 44.08,16.796 L44.6348,16.4844 C45.5012,15.9752 46.3524,15.4128 47.1656,14.82 C47.491374,14.6026808 47.9289474,14.6684814 48.1764,14.972 L48.2144,15.0328 Z M41.6708,18.696 C41.6890131,18.7247977 41.7042897,18.7553509 41.7164,18.7872 C41.8470424,19.1562336 41.6759875,19.5641338 41.3212,19.7296 C40.1304532,20.2113365 38.9123397,20.6224498 37.6732,20.9608 C37.3434534,20.944094 37.0622143,20.7163988 36.9772499,20.3973487 C36.8922855,20.0782986 37.0230347,19.7408891 37.3008,19.5624 C38.4801965,19.2397731 39.6398788,18.848983 40.774,18.392 C41.1072503,18.2719696 41.4792328,18.3980654 41.6708,18.696 Z M34.428,20.6492 C34.4746815,20.7314218 34.5056108,20.8216323 34.5192,20.9152 C34.5533574,21.3041552 34.2872264,21.655711 33.9036,21.7284 C32.631877,21.9098419 31.3500293,22.0113744 30.0656,22.0324 C29.7537154,21.9298885 29.5429099,21.6386996 29.5429099,21.3104 C29.5429099,20.9821004 29.7537154,20.6909115 30.0656,20.5884 C31.2914822,20.5683612 32.5149224,20.4719074 33.7288,20.2996 C34.0085284,20.2781481 34.2773245,20.4125461 34.428,20.6492 L34.428,20.6492 Z M26.9268,20.7708 C27.0667566,21.0060927 27.0615943,21.3003032 26.9134692,21.530541 C26.7653442,21.7607789 26.4997406,21.8874328 26.2276,21.8576 C24.9488181,21.717229 23.6797932,21.4989568 22.4276,21.204 C22.0992875,21.2308107 21.7910786,21.0430691 21.6642925,20.7390408 C21.5375063,20.4350126 21.6210097,20.0839188 21.8710962,19.8695251 C22.1211827,19.6551314 22.4809125,19.6262509 22.762,19.798 C23.9515622,20.0788457 25.1571283,20.2869644 26.372,20.4212 C26.6002813,20.4478501 26.8042412,20.5763728 26.9268,20.7708 L26.9268,20.7708 Z M19.6232,19.0532 C19.7355593,19.2390074 19.7552167,19.4664712 19.6764,19.6688 C19.5254349,20.0308364 19.1237481,20.2185098 18.7492,20.102 C17.5483289,19.6626284 16.3734887,19.155138 15.2304,18.582 C14.9994769,18.3481452 14.9450344,17.9923516 15.0954609,17.7001438 C15.2458874,17.407936 15.5670976,17.2455257 15.8916,17.2976 C16.9808601,17.855761 18.1026061,18.348111 19.2508,18.772 C19.403762,18.8197599 19.5353925,18.9191544 19.6232,19.0532 L19.6232,19.0532 Z M12.958,15.618 C13.1295671,15.9087222 13.076787,16.2795204 12.8309138,16.5108234 C12.5850406,16.7421263 12.211713,16.772185 11.932,16.5832 C10.8713937,15.858093 9.85616233,15.0687506 8.892,14.2196 C8.61072445,13.9482231 8.58114064,13.5077531 8.8236,13.2012 C9.09797564,12.9176951 9.54366164,12.8912841 9.8496,13.1404 C10.7657037,13.957591 11.7301103,14.7189646 12.7376,15.4204 C12.8262235,15.4671038 12.9019339,15.5349821 12.958,15.618 L12.958,15.618 Z M7.3416,10.64 C7.51844932,10.9367306 7.45765562,11.3174912 7.1972,11.5444 C6.89254688,11.7888454 6.45220525,11.7625564 6.1788,11.4836 C5.32804159,10.5207697 4.53861975,9.50543613 3.8152,8.4436 C3.61102812,8.11011481 3.69322229,7.67612959 4.0052,7.4404 C4.33868519,7.23622812 4.77267041,7.31842229 5.0084,7.6304 C5.70788185,8.64175212 6.46933997,9.60880393 7.2884,10.526 C7.31149253,10.561261 7.32940828,10.5996519 7.3416,10.64 L7.3416,10.64 Z M1.5884,1.0108 C1.61064366,1.04652752 1.62850549,1.08480288 1.6416,1.1248 C2.01405568,2.12131523 2.43768562,3.09794712 2.9108,4.0508 L3.1236,4.4764 C3.2140255,4.64538417 3.23275993,4.84361514 3.17559343,5.02654795 C3.11842693,5.20948075 2.9901543,5.36177202 2.8196,5.4492 C2.65104228,5.54179792 2.45202952,5.56171178 2.26846618,5.50434823 C2.08490283,5.44698468 1.93264045,5.31729734 1.8468,5.1452 C1.76066667,4.9932 1.68466667,4.8412 1.6188,4.6892 C1.12163157,3.70028145 0.677665219,2.68550121 0.2888,1.6492 C0.16029716,1.29868107 0.320209425,0.908003 0.65760334,0.748184829 C0.994997256,0.588366659 1.39858851,0.712122008 1.5884,1.0336 L1.5884,1.0108 Z" id="Shape"></path>
            </g>
            <g id="Group" opacity="0.3" transform="translate(222.680000, 52.440000)" fill="#91B3FA">
                <path d="M29.64,15.7244 C29.8434885,16.0623004 29.7346198,16.5011776 29.3968,16.7048 C29.0519709,16.8933501 28.6202653,16.7878953 28.4012,16.4616 C27.7803447,15.4307053 27.0976284,14.4383556 26.3568,13.49 C26.1470457,13.1762704 26.2142924,12.753928 26.5111101,12.5208564 C26.8079277,12.2877848 27.2341689,12.3226234 27.4892,12.6008 C28.2661982,13.5940588 28.9843609,14.631969 29.64,15.7092 L29.64,15.7244 Z M31.3576,18.9924 C31.3730904,19.0135127 31.3858577,19.0364939 31.3956,19.0608 C31.9142421,20.2108501 32.3634485,21.3909684 32.7408,22.5948 C32.8334612,22.8447309 32.7808782,23.1253838 32.604024,23.3248184 C32.4271698,23.5242531 32.1548192,23.610021 31.8956008,23.547913 C31.6363824,23.4858051 31.4324718,23.2859265 31.3652,23.028 C31.0014149,21.8797494 30.5725884,20.7531286 30.0808,19.6536 C29.9405675,19.3080152 30.0866227,18.912496 30.417803,18.7409919 C30.7489832,18.5694879 31.156286,18.6784467 31.3576,18.9924 L31.3576,18.9924 Z M25.08,9.918 C25.2320649,10.2038716 25.1863049,10.5546983 24.966,10.792 C24.6767295,11.0530741 24.2368705,11.0530741 23.9476,10.792 C23.0947946,9.94258071 22.19127,9.14565178 21.242,8.4056 C21.0894132,8.28969676 20.989783,8.11735503 20.9654885,7.92728643 C20.941194,7.73721782 20.994272,7.54535701 21.1128,7.3948 C21.3674949,7.09433424 21.8095438,7.03825341 22.1312,7.2656 C23.1235841,8.04367457 24.0701003,8.8785374 24.966,9.766 C25.0102087,9.81169849 25.0485079,9.86276411 25.08,9.918 Z M33.5464,26.0376 C33.5870805,26.1109803 33.6153292,26.1905904 33.63,26.2732 C33.8597198,27.5293265 34.012007,28.7983863 34.086,30.0732 C34.0029543,30.3923085 33.7236112,30.6214623 33.3944249,30.6405204 C33.0652385,30.6595786 32.7613169,30.4641928 32.642,30.1568 C32.5735589,28.9531129 32.4288686,27.7549761 32.2088,26.5696 C32.2087755,26.2513883 32.4069961,25.9668517 32.7055009,25.8566085 C33.0040056,25.7463652 33.3395869,25.8337591 33.5464,26.0756 L33.5464,26.0376 Z M19.2584,5.3808 C19.3738327,5.66484042 19.3072874,5.99042367 19.0896593,6.20639049 C18.8720312,6.42235731 18.5459476,6.48640579 18.2628,6.3688 C17.2318398,5.74813933 16.1632396,5.19226417 15.0632,4.7044 C14.7375543,4.66679013 14.4727193,4.42461843 14.4062046,4.10362709 C14.3396899,3.78263575 14.4864861,3.45516728 14.7703726,3.29125232 C15.054259,3.12733736 15.4112557,3.16391777 15.656,3.382 C16.8082936,3.89475351 17.9276462,4.47854283 19.0076,5.13 C19.1208747,5.18576333 19.2158157,5.2727926 19.2812,5.3808 L19.2584,5.3808 Z M12.5248,2.3408 C12.6401471,2.59920824 12.6023712,2.90030377 12.4267633,3.12220833 C12.2511553,3.34411289 11.9668002,3.45007383 11.6888,3.3972 C10.5395896,3.03957255 9.36952622,2.75276744 8.1852,2.5384 C7.9239803,2.50144018 7.70371756,2.32494581 7.61070636,2.07806391 C7.51769516,1.831182 7.56674634,1.55322532 7.73864262,1.35309179 C7.91053889,1.15295827 8.177908,1.06251658 8.436,1.1172 C9.69490746,1.35406087 10.9384739,1.66622143 12.16,2.052 C12.3251674,2.10925363 12.4632584,2.22568329 12.5476,2.3788 L12.5248,2.3408 Z M5.32,1.0716 C5.39164916,1.19307557 5.42353596,1.33390893 5.4112,1.4744 C5.37202809,1.86420498 5.04296333,2.16036327 4.6512,2.1584097 C3.44906741,2.08237639 2.24333259,2.08237639 1.0412,2.1584097 C0.721313114,2.07727555 0.490337283,1.7989822 0.469535782,1.46962511 C0.448734282,1.14026802 0.642861566,0.835126045 0.95,0.7144 C2.21550758,0.637766432 3.48449242,0.637766432 4.75,0.7144 C4.98521809,0.738323037 5.19590472,0.870353323 5.32,1.0716 L5.32,1.0716 Z" id="Shape"></path>
                <path d="M33.9948,33.44 C34.0696974,33.563161 34.1042402,33.7066466 34.0936,33.8504 C34.0556,34.466 33.9948,35.0892 33.9188,35.6896 C33.907298,35.9610021 33.7444338,36.2029789 33.4973276,36.315806 C33.2502214,36.4286331 32.9606996,36.3932128 32.7480808,36.2241428 C32.535462,36.0550728 32.4357352,35.7809705 32.49,35.5148 C32.5584,34.9372 32.6192,34.3444 32.6572,33.7592 C32.6701916,33.4395929 32.8940504,33.1675756 33.205185,33.0933276 C33.5163196,33.0190796 33.8388873,33.1606996 33.9948,33.44 L33.9948,33.44 Z" id="Path"></path>
            </g>
            <path d="M248.3224,90.0828 C248.378227,89.9373158 248.33548,89.7724345 248.216,89.6724 L244.7732,86.8452 C245.042392,84.7543417 244.965361,82.6334213 244.5452,80.5676 L247.7676,77.5276 C247.882047,77.4201123 247.912887,77.2504937 247.8436,77.1096 L245.6244,72.2 C245.55948,72.0558765 245.409127,71.9699603 245.252,71.9872 L240.8288,72.4204 C239.534875,70.7567941 237.97944,69.3142954 236.2232,68.1492 L236.3296,63.6956 C236.333167,63.540891 236.238735,63.4007662 236.094,63.346 L231.0856,61.484 C230.939889,61.4327643 230.777663,61.474823 230.6752,61.5904 L227.848,65.0332 C225.756967,64.7678493 223.636674,64.8448575 221.5704,65.2612 L218.5304,62.0388 C218.422912,61.9243532 218.253294,61.8935134 218.1124,61.9628 L213.256,64.182 C213.111876,64.2469196 213.02596,64.3972728 213.0432,64.5544 L213.4764,68.9776 C211.812794,70.2715252 210.370295,71.8269598 209.2052,73.5832 L204.7516,73.4768 C204.59493,73.4743742 204.454211,73.572266 204.402,73.72 L202.54,78.7208 C202.488764,78.8665107 202.530823,79.028737 202.6464,79.1312 L206.0892,81.9584 C205.823714,84.0494268 205.900723,86.1697419 206.3172,88.236 L203.0948,91.276 C202.984676,91.3857983 202.954373,91.5524652 203.0188,91.694 L205.238,96.5504 C205.30292,96.6945235 205.453273,96.7804397 205.6104,96.7632 L210.0336,96.33 C211.327525,97.9936059 212.88296,99.4361046 214.6392,100.6012 L214.5328,105.0548 C214.52794,105.212202 214.626733,105.354216 214.776,105.4044 L219.7768,107.2664 C219.922409,107.319866 220.08591,107.277477 220.1872,107.16 L223.0144,103.7172 C225.105427,103.982686 227.225742,103.905677 229.292,103.4892 L232.332,106.7116 C232.439488,106.826047 232.609106,106.856887 232.75,106.7876 L237.6064,104.5684 C237.750524,104.50348 237.83644,104.353127 237.8192,104.196 L237.386,99.7728 C239.050056,98.4770297 240.494786,96.9219563 241.6648,95.1672 L246.1108,95.2736 C246.268202,95.2784595 246.410216,95.179667 246.4604,95.0304 L248.3224,90.0828 Z" id="Path" fill="#91B3FA"></path>
            <path d="M230.1356,81.662 C230.73048,82.6695398 230.981245,83.8433336 230.85,85.006 C230.567212,87.5977739 228.492843,89.6287814 225.895675,89.8567646 C223.298506,90.0847478 220.902019,88.4461985 220.172015,85.9433289 C219.442012,83.4404593 220.581845,80.770483 222.894342,79.5664806 C225.206838,78.3624782 228.047815,78.9598433 229.6796,80.9932 C229.847094,81.2051654 229.99947,81.4286503 230.1356,81.662 Z M221.92,86.4424 C222.0174,86.6137678 222.129274,86.7764938 222.2544,86.9288 C223.153137,88.0474701 224.580408,88.6016933 225.998574,88.382699 C227.416739,88.1637047 228.610346,87.2047633 229.129774,85.8670989 C229.649202,84.5294345 229.415537,83.01627 228.5168,81.8976 L228.5168,81.8976 C227.222888,80.1742387 224.798788,79.7806091 223.026052,81.0060028 C221.253316,82.2313965 220.765007,84.6382116 221.92,86.4576 L221.92,86.4424 Z" id="Shape" fill="#BDD0FB"></path>
            <path d="M237.044,77.52 C237.272,77.9152 237.4848,78.3256 237.6824,78.7436 C238.065703,79.5883058 238.363584,80.4692208 238.5716,81.3732 L238.5716,81.4948 C238.632484,81.7952735 238.494865,82.1010934 238.2296,82.2548 C238.164129,82.294953 238.092094,82.3232525 238.0168,82.3384 C237.632591,82.4030997 237.261684,82.1667697 237.158,81.7912 C236.972965,80.9459375 236.697791,80.1229627 236.3372,79.3364 L236.3372,79.3364 C236.3372,79.2908 236.2992,79.2452 236.2764,79.2072 C234.940938,76.3649865 232.553976,74.1524142 229.6188,73.036 L229.6188,73.036 L229.5352,73.036 C226.513146,71.9031829 223.163512,72.0263312 220.2328,73.378 C219.852983,73.5507838 219.482597,73.7435879 219.1232,73.9556 C213.501418,77.2216172 211.443301,84.3320517 214.451364,90.0959791 C217.459426,95.8599066 224.469355,98.2379346 230.3636,95.494 C230.7436,95.3166667 231.1084,95.1266667 231.458,94.924 C232.993752,94.0215889 234.313961,92.7947542 235.3264,91.3292 C235.382605,91.2396493 235.46119,91.1663029 235.5544,91.1164 C235.845122,90.9448329 236.21592,90.997613 236.447223,91.2434862 C236.678526,91.4893594 236.708585,91.862687 236.5196,92.1424 C235.390708,93.7857241 233.914411,95.1608333 232.1952,96.1704 C231.796846,96.4056674 231.385822,96.6187909 230.964,96.8088 C226.534121,98.8316378 221.361573,98.3375047 217.394805,95.5125358 C213.428036,92.687567 211.269694,87.9609424 211.732805,83.1131358 C212.195915,78.2653292 215.210121,74.0328378 219.64,72.01 C225.997689,69.1412492 233.495666,71.5150627 237.044,77.52 Z" id="Path" fill="#BDD0FB"></path>
            <g id="Group" transform="translate(23.560000, 54.720000)">
                <path d="M195.1148,97.736 C195.129558,117.617075 189.026784,137.021242 177.6348,153.3148 C177.5892,153.3756 177.4372,153.4364 177.4372,153.5048 L177.4372,153.5048 C160.1852,178.79 130.6136,195.169454 97.4472,195.169454 C94.7840602,195.186885 92.1227953,195.021826 89.4824,194.674 L89.4824,194.674 C89.4824,194.674 89.4824,194.8336 89.4824,194.8336 C88.1752,194.7272 86.8756,194.674 85.5836,194.5144 C85.1276,194.4612 84.6716,194.446 84.2156,194.3776 C83.7596,194.3092 83.4024,194.2864 82.9996,194.2256 C82.5968,194.1648 82.3004,194.1344 81.9584,194.0736 L81.7228,194.0736 C80.8716,193.9368 80.0204,193.7848 79.1768,193.6252 L79.1768,193.6252 C51.9445288,188.313893 28.2446769,171.697352 13.9689398,147.90639 C-0.306797162,124.115427 -3.81763779,95.3844957 4.3092,68.856 C4.75,67.4196 5.3048,66.006 5.6696,64.6076 L5.6696,64.6076 C6.7716,62.2744 7.5088,59.9792 8.5196,57.7296 C8.93,56.8252 9.3784,55.936 9.8116,55.0468 C12.1793896,50.1962537 14.9477941,45.5517405 18.088,41.1616 C18.3692,40.7664 18.6656,40.4016 18.9544,39.976 C20.1096,38.4002667 21.3154667,36.8650667 22.572,35.3704 C24.4416,33.0904 26.4176,30.9548 28.4772,28.8876 C33.8660536,23.4785257 39.8675536,18.7166046 46.36,14.6984 C48.374,13.4596 50.4412,12.2816 52.5464,11.1872 C57.6741055,8.501349 63.0335357,6.28330288 68.5596,4.56 C116.435543,-10.1909629 167.734832,13.49773 187.5528,59.508 C188.9664,62.8064 189.9164,66.2036 191.3908,69.6768 L191.3908,69.6768 C191.3908,69.6768 191.216,69.6768 191.2236,69.7224 C193.877871,78.8209647 195.188778,88.2584706 195.1148,97.736 L195.1148,97.736 Z" id="Path" fill="url(#linearGradient-2)"></path>
                <g style="mix-blend-mode: soft-light;" transform="translate(3.800000, 3.040000)" fill="#FFFFFF" id="Path">
                    <polygon points="85.6824 191.9608 85.6824 191.9608 85.69 191.9608 85.6824 191.9608"></polygon>
                    <path d="M115.0336,127.5964 C112.936,130.5528 106.4608,134.3376 110.8536,141.778 C115.2464,149.2184 110.5496,150.594 107.5552,149.8948 C104.5608,149.1956 95.1748,148.8308 96.7328,153.0868 C98.2908,157.3428 100.9736,158.9388 97.546,160.588 C94.1184,162.2372 92.6668,166.5008 89.186,172.3908 C85.7052,178.2808 77.4136,173.1888 79.8684,179.1016 C82.3232,185.0144 84.2308,184.4216 83.9952,188.5636 C83.942,189.696 84.6944,190.8436 85.7128,191.9608 C84.4056,191.8544 83.0908,191.7176 81.7836,191.558 L80.4156,191.3832 L79.1996,191.2084 L78.1584,191.0488 C78.0748,191.0488 78.0976,191.0488 78.0216,191.0108 C77.178,190.8664 76.7448,190.7144 75.6428,190.5548 L75.6428,190.5548 C74.8828,189.8556 75.3692,189.1032 75.4832,188.2748 C76.5776,180.6748 66.082,175.4384 64.3188,170.1108 C62.5556,164.7832 64.3188,161.6216 63.9008,157.1908 C63.4828,152.76 64.9268,146.9612 62.3808,143.2524 C59.8348,139.5436 49.6432,138.32 47.6976,130.8644 C45.752,123.4088 50.2892,112.29 52.06,110.39 C53.8308,108.49 43.5936,99.8944 38.76,99.6208 C33.9264,99.3472 35.8416,89.5052 27.5956,91.0024 C19.3496,92.4996 4.5068,87.8408 7.5696,82.8856 C10.1004,78.8044 14.3412,69.7984 0.4864,65.7856 C0.9272,64.3492 1.482,62.9356 1.8468,61.5372 L1.8468,61.5372 C2.9488,59.204 3.686,56.9088 4.6968,54.6592 C5.1072,53.7548 5.5556,52.8656 5.9888,51.9764 C8.36232195,47.1289565 11.1304501,42.4849067 14.2652,38.0912 C14.5464,37.696 14.8428,37.3312 15.1316,36.9056 C16.2944,35.3324 17.4952,33.7972 18.7492,32.3 C20.6188,30.02 22.5948,27.8844 24.6544,25.8172 C30.0432536,20.4081257 36.0447536,15.6462046 42.5372,11.628 C45.2884,13.5584 48.4196,14.744 51.1252,13.2772 C57.7676,9.5608 53.4052,8.9908 50.6692,8.854 C49.9582642,8.80533363 49.2792854,8.54010752 48.7236,8.094 C53.8604785,5.42513857 59.2275417,3.22489702 64.7596,1.52 C64.3416,5.2668 59.2496,11.286 62.9964,10.5564 C67.3588,9.7204 69.1448,-2.0596 72.3444,1.8544 C75.544,5.7684 68.7876,10.9744 75.1792,7.9344 C81.5708,4.8944 82.4296,-1.6188 89.5508,1.5884 C96.672,4.7956 96.064,8.6868 98.0628,8.3068 C100.0616,7.9268 106.4988,12.2588 102.6228,15.8156 C98.7468,19.3724 95.0836,14.8428 89.1936,13.4672 C83.3036,12.0916 83.4404,16.9328 80.7272,18.0272 C78.014,19.1216 64.6608,12.6616 61.3928,18.4756 C58.1248,24.2896 56.6884,28.2644 61.5904,28.1124 C66.4924,27.9604 66.804,26.714 66.4164,30.3316 C66.0288,33.9492 66.918,36.67 71.3564,33.2576 C75.7948,29.8452 74.784,26.5392 78.242,28.158 C81.7,29.7768 82.118,28.3176 85.7964,25.6424 C89.4748,22.9672 94.3084,22.6936 95.5776,28.6824 C96.8468,34.6712 94.6808,36.024 88.2132,36.328 C81.7456,36.632 81.0084,34.6028 78.9488,40.0064 C76.8892,45.41 68.3088,52.3716 60.8228,55.2064 C53.3368,58.0412 50.3804,62.3124 50.5552,68.0352 C50.73,73.758 47.9104,79.8076 45.9952,75.088 C44.08,70.3684 38.8056,62.3732 33.3944,67.7008 C27.9832,73.0284 18.544,82.4904 28.9636,84.2156 C39.3832,85.9408 33.9416,76.228 39.2008,78.1736 C44.46,80.1192 35.872,84.436 39.3832,85.9864 C42.8944,87.5368 44.3688,86.8148 44.346,91.6104 C44.3232,96.406 45.5088,101.0496 49.7724,99.0128 C54.036,96.976 59.508,89.8244 65.6716,95.3724 C71.8352,100.9204 71.4248,98.002 74.6624,96.3756 C77.9,94.7492 79.9824,99.6132 81.2896,101.8248 C82.5968,104.0364 87.818,101.7792 92.036,108.3532 C96.254,114.9272 97.9032,116.1052 102.714,113.734 C107.5248,111.3628 109.478,113.126 110.732,116.4472 C111.986,119.7684 114.9424,116.5232 116.3636,120.9084 C117.7848,125.2936 117.1084,124.64 115.0336,127.5964 Z"></path>
                    <path d="M131.48,47.918 C128.0676,40.6068 144.9472,41.4276 147.934,41.99 C150.9208,42.5524 157.9736,36.9892 158.8704,34.428 C159.7672,31.8668 161.2948,33.0752 166.6376,33.0068 C171.9804,32.9384 167.2608,31.7376 161.386,29.7996 C155.5112,27.8616 160.5348,27.6792 155.1236,23.408 C152.798,21.5384 153.5352,19.95 155.0856,18.7644 C167.507999,28.8090212 177.284559,41.7400682 183.5628,56.43 C183.400022,56.3789435 183.231532,56.3483089 183.0612,56.3388 C179.322,56.3388 178.5012,48.0548 176.5708,46.4588 C174.6404,44.8628 176.624,51.0188 177.0876,53.5268 C177.5512,56.0348 176.0692,53.9296 174.1996,56.2476 C172.33,58.5656 168.948,58.6112 168.644,55.1304 C168.34,51.6496 165.8852,48.2372 160.9072,46.6488 C155.9292,45.0604 151.6428,46.36 147.5996,47.88 C143.5564,49.4 134.9228,55.176 131.48,47.918 Z"></path>
                    <path d="M173.8728,150.48 C174.2148,147.9644 174.762,145.3728 173.7132,144.4 C171.1672,142.0364 170.6124,135.5992 171.494,132.3312 C172.3756,129.0632 179.2384,129.2456 174.5796,123.8116 C169.9208,118.3776 165.7028,111.8948 167.6636,108.1936 C169.6244,104.4924 169.0316,104.234 165.3836,104.2568 C161.7356,104.2796 160.0636,104.4392 156.4232,101.1636 C152.7828,97.888 147.706,108.9916 133.8968,100.054 C120.0876,91.1164 127.9536,75.8024 133.1368,75.734 C138.32,75.6656 144.4304,73.0208 140.1592,66.6672 C135.888,60.3136 142.5532,59.394 145.806,60.8456 C149.0588,62.2972 154.8272,58.4288 160.702,56.696 C166.5768,54.9632 166.3412,64.5696 169.6092,66.4924 C172.8772,68.4152 179.0636,66.8876 182.2708,63.8096 C184.5508,61.6208 185.06,64.1744 187.3248,66.6064 C195.845036,95.1541468 190.893265,126.028578 173.8728,150.48 Z"></path>
                    <path d="M149.1728,35.72 C149.1728,35.72 153.482,33.7744 151.924,30.6432 C150.366,27.512 147.9264,17.9208 146.1328,20.9456 C144.3392,23.9704 146.9916,29.8756 146.4064,32.4216 C145.8212,34.9676 145.806,36.3356 149.1728,35.72 Z"></path>
                    <path d="M144.8788,32.8244 C144.818,31.8136 145.4564,27.7172 142.2264,27.8464 C142.2264,27.8464 137.5676,29.792 140.296,33.098 C143.0244,36.404 144.9472,33.8276 144.8788,32.8244 Z"></path>
                </g>
                <path d="M194.8564,97.5612 C194.916921,117.429577 188.858914,136.834837 177.5056,153.14 C177.464196,153.195005 177.440356,153.261226 177.4372,153.33 L177.4372,153.33 C159.166613,179.491349 129.227502,195.028901 97.318,194.910282 C94.6101926,194.903456 91.9059431,194.713016 89.224,194.3396 L89.224,194.3396 C89.224,194.3396 89.224,194.5828 89.224,194.5828 C87.9168,194.4688 86.6172,194.4612 85.3252,194.3016 C84.8692,194.2484 84.4056,194.2484 83.9496,194.18 C83.4936,194.1116 83.144,194.104 82.7412,194.0356 C82.3384,193.9672 82.042,193.952 81.7,193.8912 L81.4644,193.8912 C80.6132,193.7544 79.762,193.61 78.9184,193.4428 L78.9184,193.4428 C36.8265407,185.346836 4.9334822,150.750558 0.2812,108.1404 C10.2604829,136.464146 34.4873858,157.389089 63.9616,163.1416 L63.9616,163.1416 C64.6668607,163.395768 65.4085452,163.534352 66.158,163.552 L66.3632,163.5976 L67.26,163.742 L68.3088,163.8864 L69.4944,164.0232 C70.6116,164.16 71.7288,164.4108 72.8612,164.502 C72.8612,164.502 72.8612,164.6084 72.8612,164.6084 L72.8612,164.6084 C75.1412,164.6084 77.4212,164.7908 79.7848,164.7908 C107.382017,164.812132 133.23363,151.292722 148.96,128.6148 C148.96,128.5616 149.0512,128.4856 149.0892,128.4248 C163.715465,107.364725 167.953505,80.7895596 160.6032,56.2248 C160.6032,56.2248 160.6032,56.2248 160.6032,56.1792 L160.6032,56.1792 C159.797615,53.1736345 158.750474,50.2380811 157.472,47.4012 C147.974825,25.1331813 129.376473,8.01273464 106.4,0.3876 C125.539283,2.15186884 143.724073,9.5580376 158.65,21.6676 C171.098664,31.6920959 180.912964,44.6030394 187.2412,59.28 C188.6548,62.586 189.5212,65.9756 191.0412,69.4488 L191.0412,69.4488 C191.0412,69.4488 190.9272,69.4488 190.9348,69.4868 C193.604905,78.6034422 194.926111,88.0618439 194.8564,97.5612 Z" id="Path" fill="url(#linearGradient-3)" opacity="0.3" style="mix-blend-mode: multiply;"></path>
            </g>
            <path d="M103.36,98.686 C103.36,98.686 98.1692,95.2812 97.4472,96.064 C96.9166099,96.7840277 96.4463472,97.5466158 96.0412,98.344 C95.6456044,99.07305 95.7686643,99.9744642 96.3452,100.5708 L97.6828,101.954 C98.2920112,102.580667 99.1414642,102.91482 100.014359,102.871175 C100.887253,102.82753 101.699138,102.410311 102.2428,101.726 C102.911335,100.847468 103.300553,99.7883717 103.36,98.686 Z" id="Path" fill="url(#linearGradient-4)"></path>
            <path d="M108.68,92.2184 C108.68,92.2184 106.894,87.5292 104.8192,87.9624 C103.262946,88.3830223 101.790107,89.0667485 100.4644,89.984 L97.1204,94.506 C97.1204,94.506 106.4988,98.1996 109.7972,96.0868 C117.00019,97.0675282 124.309838,96.9573582 131.48,95.76 C129.952134,92.4771761 128.807136,89.0294287 128.0676,85.4848 C121.9116,88.92 115.3148,91.542 108.68,92.2184 Z" id="Path" fill="url(#linearGradient-5)"></path>
            <path d="M159.3948,58.216 C159.3948,58.216 145.6768,75.4984 128.0372,85.4772 C128.785915,89.0256909 129.941138,92.4760595 131.48,95.76 C140.6,94.24 151.24,90.6756 160.2004,82.7108 L159.3948,58.216 Z" id="Path" fill="url(#linearGradient-6)"></path>
            <path d="M176.5024,134.7936 C173.8196,122.0484 171.1368,114.6764 162.1536,90.5236 C159.3264,82.9236 156.7652,75.2324 158.004,67.222 L159.3948,58.216 C159.3948,58.216 176.8748,52.3108 196.2016,57.9728 C196.2016,57.9728 222.5964,69.4412 204.668,126.0764 C196.5892,135.1204 187.1272,137.6968 176.5024,134.7936 Z" id="Path" fill="url(#linearGradient-7)"></path>
            <path d="M162.3664,46.7324 L166.9264,57.608 C167.211386,58.2933329 167.828511,58.7841628 168.5604,58.9076 C171.1748,59.356 177.4828,60.0552 181.6248,57.3268 C181.873244,57.1705708 182.0455,56.9180302 182.100282,56.6297055 C182.155063,56.3413809 182.087433,56.0432619 181.9136,55.8068 L173.5536,43.8064 L162.3664,46.7324 Z" id="Path" fill="#DA9569"></path>
            <path d="M167.048,30.096 C166.858,30.2708 159.03,45.6532 159.03,45.6532 L167.9068,49.9396 L177.4904,36.48 C177.4904,36.48 170.24,27.1016 167.048,30.096 Z" id="Path" fill="url(#linearGradient-8)"></path>
            <path d="M173.4624,38.0836 L169.0316,45.4632 C168.965793,45.5758515 168.883858,45.6782693 168.7884,45.7672 C168.264,46.2536 166.4552,47.6824 165.0644,45.7672 C163.8788,44.118 162.7844,42.6132 161.5684,41.9672 C161.231369,41.7934898 160.838683,41.7624567 160.478551,41.8810717 C160.118418,41.9996867 159.821034,42.2580051 159.6532,42.598 C158.462315,44.9129019 157.44615,47.3135914 156.6132,49.78 C156.389459,50.4835136 156.747916,51.2402562 157.434,51.5128 C160.169429,52.6484592 163.025098,53.4694639 165.946,53.96 C166.465667,54.0361672 166.98446,53.8163397 167.2912,53.39 C168.644,51.5356 172.4668,46.3448 173.774,45.03 C175.0812,43.7152 177.2244,44.27 178.2276,44.5664 C178.609911,44.673573 179.019484,44.6185969 179.36,44.4144 C180.386,43.7988 182.172,42.2636 180.538,39.6644 C180.138091,39.0118742 180.330107,38.1595918 180.9712,37.7416 C182.1188,36.9816 183.3576,35.5832 182.172,33.2956 C181.280732,31.5346748 179.32913,30.5790412 177.3916,30.9548 C176.750676,31.0366291 176.132251,30.687219 175.8716,30.096 C175.745038,29.7786389 175.451704,29.5586389 175.1116,29.526 C174.391897,29.3663453 173.921794,28.6728605 174.04,27.9452 C174.451629,26.253827 173.602967,24.508645 172.0184,23.788 C168.2184,21.6828 164.8364,25.118 163.9776,28.0136 C163.1188,30.9092 167.4128,32.9612 170.1032,33.3336 C172.0792,33.5844 173.1432,35.7428 173.6068,36.8676 C173.738255,37.2746005 173.685518,37.7187049 173.4624,38.0836 L173.4624,38.0836 Z" id="Path" fill="url(#linearGradient-9)"></path>
            <path d="M171.9044,47.272 C171.9044,47.272 173.812,42.788 175.9932,42.9704 C178.1744,43.1528 179.892,45.3264 177.1864,47.7736 C173.8272,50.806 171.9044,47.272 171.9044,47.272 Z" id="Path" fill="url(#linearGradient-10)"></path>
            <path d="M174.8,247.0912 C179.018,247.456 186.3292,248.0488 192.0976,248.2996 C195.5708,248.4516 197.562,248.1096 198.7172,247.6536 C198.7172,247.7828 198.7172,247.9044 198.7172,248.0184 C198.689948,248.630887 198.197456,249.120073 197.5848,249.1432 C190.038867,249.566581 182.475133,249.566581 174.9292,249.1432 C174.63327,249.127577 174.366765,248.959167 174.225623,248.698596 C174.08448,248.438025 174.089017,248.122801 174.2376,247.8664 C174.407305,247.595569 174.595204,247.336573 174.8,247.0912 Z" id="Path" fill="#040728"></path>
            <path d="M192.0824,248.2996 C186.314,248.0488 179.0028,247.456 174.7848,247.0912 C178.9268,242.0068 192.0824,238.5792 192.0824,238.5792 L195.7988,238.5792 C197.690347,241.226638 198.705563,244.399854 198.702009,247.6536 C197.5468,248.1096 195.5556,248.4516 192.0824,248.2996 Z" id="Path" fill="#040728"></path>
            <path d="M196.4296,232.5068 L196.08,239.4 C196.043582,240.150626 195.47895,240.769488 194.7348,240.8744 C193.799938,241.014917 192.845231,240.936875 191.9456,240.6464 C191.299653,240.434588 190.821376,239.886319 190.6992,239.2176 L189.4984,232.5144 L196.4296,232.5068 Z" id="Path" fill="url(#linearGradient-11)"></path>
            <path d="M244.72,248.2464 C246.093689,248.203406 247.300465,247.32246 247.76,246.0272 L247.76,246.0272 C247.982963,247.20419 247.29593,248.363355 246.1564,248.7328 C244.747043,249.281722 243.235202,249.517704 241.7256,249.4244 C240.448608,249.422006 239.234962,248.86783 238.3968,247.9044 L238.3968,247.9044 C239.704,248.596 241.68,248.672 244.72,248.2464 Z" id="Path" fill="#040728"></path>
            <path d="M236.0712,232.4688 L239.1112,232.4688 C243.7776,232.37 246.7112,242.212 247.6688,246.0272 C247.209265,247.32246 246.002489,248.203406 244.6288,248.2464 C241.5888,248.672 239.6432,248.596 238.2676,247.912 C235.7444,244.5908 234.4676,239.7344 233.8976,236.8996 C233.46037,235.09192 234.374047,233.229424 236.0712,232.4688 L236.0712,232.4688 Z" id="Path" fill="#040728"></path>
            <path d="M238.7388,226.0772 L240.4412,232.8488 C240.643455,233.681003 240.24703,234.543071 239.4836,234.9312 C238.413753,235.53944 237.194362,235.834411 235.9648,235.7824 C235.384169,235.710257 234.896491,235.311247 234.7108,234.7564 L232.2104,227.6352 L238.7388,226.0772 Z" id="Path" fill="url(#linearGradient-12)"></path>
            <path d="M240.768,228.038 C238.64,229.9152 231.8,230.1584 231.8,230.1584 C206.9632,170.6276 196.6196,154.28 196.6196,154.28 C200.2068,176.7532 197.3796,234.4296 197.3796,234.4296 C193.2832,236.2308 188.0088,234.4296 188.0088,234.4296 C187.6744,197.638 182.4988,158.1104 175.8488,132.8176 C192.6144,132.4452 201.6888,128.7896 204.6376,126.4868 C218.5912,148.96 240.768,228.038 240.768,228.038 Z" id="Path" fill="url(#linearGradient-13)"></path>
            <path d="M171.608,149.416 L174.6936,168.606 C175.243259,171.955613 178.339583,174.273663 181.7084,173.8576 L227.8784,168.226 C230.13275,167.957957 231.846572,166.072428 231.8988,163.8028 C231.9976,158.84 231.8,150.0164 229.7176,141.9832 L171.608,149.416 Z" id="Path" fill="url(#linearGradient-14)"></path>
            <path d="M183.3424,133.6992 L183.2892,132.1792 C183.403228,131.816961 183.686961,131.533228 184.0492,131.4192 C185.4552,131.0088 188.9664,130.15 190.8512,131.214 L191.3224,132.9088 L183.3424,133.6992 Z" id="Path" fill="#321371"></path>
            <path d="M187.644,131.7004 C187.32934,131.820211 186.990321,131.861936 186.656,131.822 C186.24855,131.778686 185.921126,131.466854 185.858,131.062 L185.2576,126.4108 L187.6288,126.1068 L188.2216,130.758 C188.263044,131.166313 188.026647,131.552014 187.644,131.7004 L187.644,131.7004 Z" id="Path" fill="#321371"></path>
            <path d="M206.2716,130.7656 L206.2184,129.2456 C206.334667,128.884724 206.617524,128.601867 206.9784,128.4856 C208.3844,128.0752 211.9032,127.2164 213.7804,128.2804 L214.32,129.96 L206.2716,130.7656 Z" id="Path" fill="#321371"></path>
            <path d="M210.5808,128.7668 C210.263505,128.88666 209.922016,128.928369 209.5852,128.8884 C209.192483,128.829401 208.884199,128.521117 208.8252,128.1284 L208.1716,122.9832 L210.5352,122.6868 L211.1964,127.8244 C211.229882,128.2421 210.976748,128.629614 210.5808,128.7668 L210.5808,128.7668 Z" id="Path" fill="#321371"></path>
            <path d="M185.1664,127.5584 L210.52,123.462 C211.098309,123.369272 211.532655,122.8842 211.5612,122.2992 C211.618914,121.209627 211.508692,120.11766 211.2344,119.0616 C210.827904,117.682775 209.494813,116.790851 208.0652,116.9412 C203.3,117.4352 191.2084,118.9856 184.8852,122.474 C184.214675,122.842134 183.766322,123.514664 183.6844,124.2752 C183.570978,125.148007 183.662042,126.035232 183.9504,126.8668 C184.141063,127.355989 184.648491,127.644588 185.1664,127.5584 Z" id="Path" fill="#321371"></path>
            <path d="M171.4484,134.634 C179.664,133.4788 215.2016,128.554 225.6972,128.470366 C226.597982,128.465371 227.405771,129.024142 227.7188,129.8688 C229.514314,134.811847 230.748203,139.941151 231.3972,145.16 C231.482018,146.032187 230.947205,146.845482 230.1128,147.1132 L207.0924,154.5916 L198.7324,155.6632 L172.9532,153.8848 C172.046125,153.826827 171.294508,153.159767 171.1292,152.266 C170.5592,149.0816 169.3432,141.626 169.6092,136.6708 C169.670474,135.645285 170.434434,134.799248 171.4484,134.634 L171.4484,134.634 Z" id="Path" fill="#321371"></path>
            <path d="M206.72,158.2472 L199.3784,159.182 C198.420124,159.308077 197.518989,158.697525 197.2808,157.7608 L195.5252,150.7992 C195.392632,150.268787 195.49402,149.706988 195.803635,149.256375 C196.113249,148.805763 196.601325,148.509656 197.144,148.4432 L205.96,147.3108 C206.491768,147.24221 207.027937,147.39967 207.438174,147.744905 C207.848411,148.09014 208.095146,148.591532 208.1184,149.1272 L208.392,156.2788 C208.427447,157.268549 207.702447,158.122072 206.72,158.2472 L206.72,158.2472 Z" id="Path" fill="url(#linearGradient-15)"></path>
            <path d="M205.6788,157.0616 L200.0928,157.776 C199.362056,157.871378 198.675802,157.404072 198.4968,156.6892 L197.1592,151.3692 C197.058063,150.965565 197.135007,150.537936 197.3705,150.194872 C197.605993,149.851808 197.977388,149.626301 198.3904,149.5756 L205.1088,148.7168 C205.512616,148.665337 205.919485,148.785801 206.230191,149.048818 C206.540897,149.311834 206.726884,149.693229 206.7428,150.1 L206.9556,155.5416 C206.993291,156.304305 206.436563,156.967076 205.6788,157.0616 Z" id="Path" fill="#321371"></path>
            <path d="M201.3164,100.7532 C202.643488,106.221302 203.155681,111.855428 202.8364,117.4732 C202.739141,118.432323 201.966372,119.182646 201.0048,119.2516 C199.9028,119.3276 198.4132,119.434 197.0832,119.51 C195.624,119.5936 193.9976,118.6664 192.9108,117.8912 C192.665831,117.713052 192.330558,117.726556 192.100709,117.923828 C191.87086,118.121099 191.806665,118.450446 191.9456,118.7196 C192.539219,119.740943 193.35159,120.6182 194.3244,121.2884 C194.8792,121.7064 196.7184,122.4512 196.6044,123.2796 C196.549857,123.539708 196.423473,123.77931 196.2396,123.9712 C195.129127,125.134145 193.70683,125.952164 192.1432,126.3272 C191.947149,126.365619 191.76561,126.457704 191.6188,126.5932 C191.5808,127.5812 194.6132,128.6756 195.4188,128.934 C196.592794,129.33602 197.839449,129.481161 199.0744,129.3596 C202.1144,129.0404 204.9492,126.9276 206.5984,124.3892 C210.9988,117.5492 213.2712,109.3792 214.1072,103.1092 C209.9652,98.9976 203.7864,100.0312 201.3164,100.7532 Z" id="Path" fill="#DA9569"></path>
            <path d="M214.0616,103.7324 C217.36,79.078 198.36,60.116 198.36,60.116 L187.0512,73.2944 C195.6392,83.9952 199.7204,93.8144 201.5824,101.498 C204.0144,100.776 209.9652,99.6436 214.0616,103.7324 Z" id="Path" fill="url(#linearGradient-16)"></path>
            <path d="M201.2708,101.3764 C200.949983,101.375246 200.671115,101.155911 200.5944,100.8444 C198.3144,91.352 193.4504,81.9508 186.2,72.9144 C186.042517,72.7189043 186.001293,72.4542428 186.091856,72.2201109 C186.182419,71.985979 186.39101,71.817947 186.639056,71.7793109 C186.887102,71.7406748 187.136917,71.8373043 187.2944,72.0328 C194.674,81.2364 199.6064,90.82 201.9548,100.51 C201.998234,100.690406 201.968173,100.880679 201.871239,101.038909 C201.774306,101.197139 201.61845,101.310348 201.438,101.3536 C201.383539,101.368654 201.327303,101.3764 201.2708,101.3764 Z" id="Path" fill="url(#linearGradient-17)"></path>
            <path d="M48.1536,247.5548 C48.1557045,247.432112 48.142945,247.30962 48.1156,247.19 C46.2992,239.9776 37.278,235.4936 37.278,235.4936 L33.6984,235.7748 C31.6464,242.1284 31.9048,246.0196 32.2392,247.76 C32.2483223,247.806511 32.2610268,247.852247 32.2772,247.8968 C37.5683144,248.282262 42.8839929,248.167755 48.1536,247.5548 L48.1536,247.5548 Z" id="Path" fill="#040728"></path>
            <path d="M32.2772,247.8968 C32.4039862,248.464498 32.8436425,248.910056 33.4096,249.0444 C37.6048,249.926 44.2776,249.2192 47.0896,248.8544 C47.7185217,248.743026 48.1748718,248.193478 48.1688599,247.5548 C42.8941706,248.168713 37.5733574,248.283221 32.2772,247.8968 Z" id="Path" fill="#040728"></path>
            <path d="M32.262,230.4472 L33.782,237.7356 C33.872764,238.248763 34.2841584,238.644806 34.8004,238.716 C35.5819264,238.796754 36.3702955,238.783998 37.1488,238.678 C37.9538741,238.509918 38.4792358,237.731979 38.3344,236.9224 L37.2856,230.4472 L32.262,230.4472 Z" id="Path" fill="url(#linearGradient-18)"></path>
            <path d="M63.6424,247.8056 C59.6904,247.6992 57.6536,247.228 56.5972,246.8024 C56.5972,247.19 56.5972,247.5624 56.5972,248.0032 C56.5867836,248.211264 56.6622323,248.414483 56.8059045,248.565339 C56.9495768,248.716194 57.1488754,248.801461 57.3572,248.801201 L79.0476,248.6568 C79.3714897,248.621939 79.6569106,248.428477 79.8092599,248.140536 C79.9616092,247.852596 79.9609872,247.507789 79.8076,247.2204 C76.988,247.4484 69.7452,247.9804 63.6424,247.8056 Z" id="Path" fill="#040728"></path>
            <path d="M79.8,247.2204 C79.7798287,247.16114 79.7517051,247.104893 79.7164,247.0532 C77.8012,244.378 72.922,239.0504 63.2852,236.74 L58.6644,236.5956 C58.6644,236.5956 56.6048,240.1676 56.5668,246.8024 C57.6232,247.228 59.66,247.6992 63.612,247.8056 C69.7452,247.9804 76.988,247.4484 79.8,247.2204 Z" id="Path" fill="#040728"></path>
            <path d="M57.6308,229.8012 C57.6992,230.1432 58.6644,235.3264 59.0368,237.3404 C59.1052859,237.799067 59.4792276,238.151012 59.9412,238.1916 C61.0038181,238.269671 62.0721358,238.18769 63.1104,237.9484 C63.723493,237.751134 64.1159567,237.152943 64.0528,236.512 L63.536,228.304 L57.6308,229.8012 Z" id="Path" fill="url(#linearGradient-19)"></path>
            <path d="M54.1272,134.0032 C54.1272,134.0032 60.4884,177.7108 65.0788,229.7632 C65.1020781,230.747138 64.4056198,231.601589 63.4372,231.7772 C61.7415697,232.164218 60.008423,232.363021 58.2692,232.37 C57.3579326,232.342221 56.5936983,231.673516 56.4452,230.774 C54.8796,221.6008 43.7228,172.3832 40.7892,161.5532 C40.7892,161.5532 37.43,207.5636 38.5092,231.4732 C38.5411847,232.067403 38.1048238,232.583708 37.5136,232.6512 C36.1345483,232.802698 34.7430517,232.802698 33.364,232.6512 C32.6724837,232.582635 32.1155198,232.053832 32.0112,231.3668 C30.9016,223.5996 24.4872,177.4068 24.7608,144.1264 C24.7608,142.2492 26.9648,126.8288 26.9648,126.8288 L54.1272,134.0032 Z" id="Path" fill="url(#linearGradient-20)"></path>
            <path d="M25.9996,136.5264 C25.3466866,136.289272 24.8883187,135.697829 24.8216,135.0064 C23.9704,126.806 19.874,75.924 45.7292,54.9936 C45.7292,54.9936 47.2492,51.11 59.4092,60.648 C71.5692,70.186 65.0712,80.18 62.1528,93.9664 C58.6264,110.6864 52.4324,124.2828 55.1684,134.5504 C55.3615495,135.258312 54.9870557,135.997445 54.302,136.2604 C45.2086951,139.759532 35.157066,139.854002 25.9996,136.5264 Z" id="Path" fill="url(#linearGradient-21)"></path>
            <path d="M55.8144,39.748 C55.8144,40.508 45.486,55.1304 45.486,55.1304 C45.486,55.1304 47.3404,58.786 56.1868,61.75 L63.7868,46.0484 L55.8144,39.748 Z" id="Path" fill="#DA9569"></path>
            <path d="M63.9464,31.3424 C63.9464,31.3424 67.6172,39.7784 67.868,44.2092 C68.1188,48.64 69.0688,51.5128 63.9464,52.402 C58.824,53.2912 54.5072,50.7452 52.174,46.322 C52.174,46.322 48.5108,39.482 49.3316,36.7384 C50.1524,33.9948 63.9464,31.3424 63.9464,31.3424 Z" id="Path" fill="url(#linearGradient-22)"></path>
            <path d="M53.96,43.1604 L54.2564,43.0312 C54.4330963,42.9522673 54.5696991,42.8043355 54.6343335,42.6219229 C54.6989679,42.4395103 54.6859799,42.2385738 54.5984,42.066 C53.8764,40.6752 52.4704,37.506 54.2868,36.746 C56.6276,35.7808 65.9148,33.8884 67.9212,30.5976 C69.844,27.4284 68.134,23.3396 65.5728,22.1768 C65.4023437,22.0976045 65.1996752,22.1640532 65.1092,22.3288 L64.8964,22.7316 C64.8328945,22.860177 64.6959172,22.9354797 64.5533283,22.9202023 C64.4107394,22.9049249 64.2928245,22.8023124 64.258,22.6632 L64.258,22.6632 C64.21809,22.5321416 64.1053067,22.4364728 63.9694939,22.4184735 C63.833681,22.4004742 63.699871,22.463462 63.6272,22.5796 C63.0116,23.56 61.3472,25.1636 56.9088,25.9844 C50.5856,27.1472 46.4132,29.7008 46.2688,34.0708 C46.26711,34.1980526 46.1964029,34.3143347 46.0841989,34.3743875 C45.971995,34.4344403 45.8360209,34.4287763 45.7292,34.3596 C45.2656,34.0708 44.5132,33.9416 43.5176,34.7776 C41.7848,36.2368 42.4916,40.0216 46.2992,43.1376 C46.3854608,43.2037621 46.4360339,43.3062877 46.4360339,43.415 C46.4360339,43.5237123 46.3854608,43.6262379 46.2992,43.6924 C45.6076,44.1408 44.5816,45.2124 47.2416,46.6336 C48.9246907,47.6428418 50.8921727,48.0726445 52.8428,47.8572 C52.936405,47.8407399 53.0192741,47.7868793 53.0723239,47.7080215 C53.1253737,47.6291638 53.1440312,47.5321063 53.124,47.4392 L52.2804,43.6012 C52.2573121,43.4975368 52.2825979,43.3889991 52.3491226,43.3062128 C52.4156474,43.2234265 52.5161971,43.1753688 52.6224,43.1756 L53.96,43.1604 Z" id="Path" fill="url(#linearGradient-23)"></path>
            <path d="M54.0816,43.9736 C54.0816,43.9736 52.6832,38.5776 50.2816,40.09 C47.88,41.6024 51.5356,46.17 53.4736,46.3372 L54.0816,43.9736 Z" id="Path" fill="url(#linearGradient-24)"></path>
            <path d="M63.3232,65.0712 L64.0376,84.1928 C65.9315908,84.8448125 67.8597993,85.3928297 69.8136,85.8344 C70.9612,82.1408 73.4844,77.6112 75.5516,74.2444 C67.9592,71.554 63.3232,65.0712 63.3232,65.0712 Z" id="Path" fill="url(#linearGradient-25)"></path>
            <path d="M101.2472,64.7444 C90.8276,75.9924 82.3916,76.6612 75.5516,74.2444 C73.4844,77.6112 70.9916,82.1408 69.8136,85.8344 C97.6372,91.9676 104.1884,66.386 104.1884,66.386 L101.2472,64.7444 Z" id="Path" fill="#DA9569"></path>
            <path d="M103.36,63.5512 C104.285889,62.7132326 105.564393,62.3836625 106.78,62.6696 C108.9992,63.0724 110.9752,63.8476 112.3584,62.6696 C113.7416,61.4916 114.2356,63.0724 114.2356,63.0724 L110.086,66.2188 L103.36,63.5512 Z" id="Path" fill="#DA9569"></path>
            <path d="M100.8824,65.7552 C100.8824,65.7552 101.7032,62.32 104.1808,62.7912 C106.6584,63.2624 112.2824,66.3176 113.734,65.7552 C115.1856,65.1928 117.04,63.84 117.99,64.3188 L116.28,66.4012 C116.28,66.4012 120.5892,63.916 121.334,65.4436 L114.1672,69.4792 C114.1672,69.4792 103.7096,68.4 100.8824,65.7552 Z" id="Path" fill="#DA9569"></path>
            <path d="M51.756,90.0904 C51.756,90.0904 71.3488,106.4988 92.4996,99.3396 C93.8067966,98.8909935 95.240777,98.99813 96.4668,99.636 L102.5468,102.8508 C105.099988,104.1977 108.260699,103.313235 109.744,100.8368 C110.634523,99.4570714 111.217723,97.9018709 111.454,96.2768 L99.56,91.4432 L100.4416,89.984 C100.4416,89.984 94.6276,89.4976 93.1076,93.6548 C93.1076,93.6548 82.042,98.2604 63.384,77.7328 C63.3764,77.7328 54.91,84.9376 51.756,90.0904 Z" id="Path" fill="url(#linearGradient-26)"></path>
            <path d="M50.7072,89.9232 C50.6386553,89.9261451 50.5713009,89.9045917 50.5172,89.8624 C42.2712,84.2916 38.3572,75.3008 38.3572,75.2096 C38.2876089,75.0395668 38.3647924,74.8449302 38.532,74.7688 C38.6136056,74.7332754 38.7060063,74.7317483 38.7887412,74.764557 C38.8714761,74.7973657 38.9377185,74.8618029 38.9728,74.9436 C38.9728,75.0348 42.8184,83.8508 50.8972,89.3076 C51.0512083,89.4133857 51.0918156,89.6231903 50.9884,89.7788 C50.9247697,89.8709947 50.8192029,89.9252047 50.7072,89.9232 L50.7072,89.9232 Z" id="Path" fill="url(#linearGradient-27)"></path>
            <path d="M62.9888,77.4592 C62.8734714,77.459345 62.7666053,77.3986913 62.7076,77.2996 C62.7076,77.2616 60.1616,73.34 55.366,64.752 C53.884,62.1072 51.946,60.4352 49.5976,59.774 C45.7064,58.6872 41.9976,60.7772 41.9216,60.7924 C41.7636283,60.8707592 41.5719566,60.8129841 41.4836047,60.6603762 C41.3952528,60.5077684 41.4405872,60.3127792 41.5872,60.2148 C41.7544,60.1236 45.6076,57.9348 49.7724,59.128 C52.3032,59.8348 54.378,61.6132 55.9512,64.448 C60.7316,73.0208 63.2472,76.9348 63.27,76.9728 C63.3668639,77.1287984 63.3232499,77.3334488 63.1712,77.4364 C63.112845,77.4574402 63.0505386,77.4652285 62.9888,77.4592 Z" id="Path" fill="url(#linearGradient-28)"></path>
            <circle id="Oval" fill="#91B3FA" cx="116.6524" cy="135.5384" r="15.58"></circle>
            <path d="M132.24,134.1096 L101.08,134.1096 C101.08,134.1096 99.8412,143.0548 113.7416,166.7364 C114.333683,167.801119 115.435358,168.482835 116.6524,168.5376 C117.881698,168.456875 118.983575,167.750986 119.5708,166.668 C133.4636,142.9864 132.24,134.1096 132.24,134.1096 Z" id="Path" fill="#91B3FA"></path>
            <path d="M117.04,169.1912 L117.04,169.2596 L116.66,169.2596 C115.302206,169.252981 114.048539,168.530823 113.3616,167.3596 C105.2296,153.52 102.2504,144.7724 101.2016,139.8704 C100.901856,138.773512 100.723454,137.64703 100.6696,136.5112 C100.605835,135.948066 100.605835,135.379534 100.6696,134.8164 L100.6696,134.5656 C101.261563,126.139214 108.291515,119.6185 116.738564,119.660442 C125.185612,119.70279 132.150148,126.293326 132.658,134.7252 C132.677821,135.011124 132.677821,135.298076 132.658,135.584 L132.658,135.6372 C132.657589,137.162508 132.440074,138.679993 132.012,140.144 C130.91,145.0384 128.1056,153.7024 120.118,167.314 C119.486703,168.430919 118.322009,169.141238 117.04,169.1912 Z M101.5132,135.318 C101.5132,135.318 101.5132,135.926 101.5588,136.4276 L101.5588,136.4276 C101.610551,137.504062 101.778731,138.571754 102.0604,139.612 L102.0604,139.612 C103.1092,144.4456 106.058,153.0944 114.1292,166.8428 C114.73935,167.742008 115.755727,168.28009 116.8424,168.2792 L117.0324,168.7276 L117.0324,168.2792 C117.97478,168.098911 118.819891,167.583204 119.4112,166.8276 C127.3532,153.3072 130.3628,144.7116 131.2748,139.8856 L131.2748,139.8856 C131.778409,138.52382 131.985689,137.070268 131.8828,135.622 L131.8828,135.5612 L131.8828,135.5612 C131.883689,135.305926 131.858221,135.051243 131.8068,134.8012 L131.8068,134.8012 C131.336648,126.779878 124.679071,120.52478 116.64404,120.554983 C108.609008,120.585406 101.998816,126.890559 101.5892,134.9152 L101.5892,135.3332 L101.5132,135.318 Z" id="Shape" fill="#BDD0FB"></path>
            <circle id="Oval" fill="#FFFFFF" opacity="0.8" cx="116.698" cy="135.4852" r="8.9984"></circle>
            <path d="M116.698,144.9852 C111.451295,144.9852 107.198,140.731905 107.198,135.4852 C107.198,130.238495 111.451295,125.9852 116.698,125.9852 C121.944705,125.9852 126.198,130.238495 126.198,135.4852 C126.189631,140.728435 121.941235,144.976831 116.698,144.9852 L116.698,144.9852 Z M116.698,126.996 C113.260674,126.996 110.161953,129.067004 108.847256,132.242973 C107.532559,135.418943 108.260903,139.074164 110.692547,141.503633 C113.124191,143.933101 116.780062,144.658174 119.954854,143.340636 C123.129646,142.023098 125.197875,138.922525 125.194803,135.4852 C125.190605,130.795515 121.387687,126.996 116.698,126.996 L116.698,126.996 Z" id="Shape" fill="url(#linearGradient-29)"></path>
            <path d="M108.1632,126.16 C108.119066,126.160622 108.077072,126.141024 108.0492,126.1068 C107.991266,126.047696 107.991266,125.953104 108.0492,125.894 C110.589755,123.718914 113.82474,122.524666 117.1692,122.527196 C117.253147,122.527196 117.3212,122.595253 117.3212,122.6792 C117.3212,122.763147 117.253147,122.8312 117.1692,122.8312 C113.905067,122.831254 110.748528,123.998446 108.2696,126.122 C108.240766,126.148592 108.202356,126.16231 108.1632,126.16 L108.1632,126.16 Z" id="Path" fill="#BDD0FB"></path>
            <path d="M103.36,136.6024 C103.276053,136.6024 103.207993,136.534347 103.207993,136.4504 C103.205313,133.853646 103.929271,131.307944 105.298,129.1012 C105.318353,129.067009 105.351913,129.042731 105.390755,129.0341 C105.429598,129.025468 105.470282,129.033247 105.5032,129.0556 C105.570869,129.100772 105.590968,129.191219 105.5488,129.2608 C104.210902,131.420099 103.502825,133.910215 103.5044,136.4504 C103.506487,136.489996 103.4922,136.528708 103.46489,136.557456 C103.43758,136.586203 103.399651,136.6024 103.36,136.6024 L103.36,136.6024 Z" id="Path" fill="#BDD0FB"></path>
        </g>
    </g>
</svg>