<?xml version="1.0" encoding="UTF-8"?>
<svg width="118px" height="127px" viewBox="0 0 118 127" version="1.1" xmlns="http://www.w3.org/2000/svg" xmlns:xlink="http://www.w3.org/1999/xlink">
    <title>ILUSTRACION_05</title>
    <defs>
        <linearGradient x1="328.981765%" y1="57.8631119%" x2="-98.2133399%" y2="50.9768707%" id="linearGradient-1">
            <stop stop-color="#592589" offset="0%"></stop>
            <stop stop-color="#592589" offset="47.1528497%"></stop>
            <stop stop-color="#B590D1" offset="100%"></stop>
        </linearGradient>
        <linearGradient x1="328.981765%" y1="75.2641543%" x2="-98.2133399%" y2="53.1386824%" id="linearGradient-2">
            <stop stop-color="#592589" offset="0%"></stop>
            <stop stop-color="#592589" offset="47.1528497%"></stop>
            <stop stop-color="#B590D1" offset="100%"></stop>
        </linearGradient>
        <linearGradient x1="328.981765%" y1="154.596824%" x2="-98.2133399%" y2="62.9945458%" id="linearGradient-3">
            <stop stop-color="#592589" offset="0%"></stop>
            <stop stop-color="#592589" offset="47.1528497%"></stop>
            <stop stop-color="#B590D1" offset="100%"></stop>
        </linearGradient>
        <linearGradient x1="328.981765%" y1="76.7125214%" x2="-98.2133399%" y2="53.3186197%" id="linearGradient-4">
            <stop stop-color="#592589" offset="0%"></stop>
            <stop stop-color="#592589" offset="47.1528497%"></stop>
            <stop stop-color="#B590D1" offset="100%"></stop>
        </linearGradient>
        <linearGradient x1="328.981765%" y1="57.0085213%" x2="-98.2133399%" y2="50.8707009%" id="linearGradient-5">
            <stop stop-color="#592589" offset="0%"></stop>
            <stop stop-color="#592589" offset="47.1528497%"></stop>
            <stop stop-color="#B590D1" offset="100%"></stop>
        </linearGradient>
        <linearGradient x1="328.981765%" y1="75.2674739%" x2="-98.2133399%" y2="53.1390948%" id="linearGradient-6">
            <stop stop-color="#592589" offset="0%"></stop>
            <stop stop-color="#592589" offset="47.1528497%"></stop>
            <stop stop-color="#B590D1" offset="100%"></stop>
        </linearGradient>
        <linearGradient x1="328.981765%" y1="154.610567%" x2="-98.2133399%" y2="62.9962532%" id="linearGradient-7">
            <stop stop-color="#592589" offset="0%"></stop>
            <stop stop-color="#592589" offset="47.1528497%"></stop>
            <stop stop-color="#B590D1" offset="100%"></stop>
        </linearGradient>
        <linearGradient x1="328.981765%" y1="76.7160313%" x2="-98.2133399%" y2="53.3190558%" id="linearGradient-8">
            <stop stop-color="#592589" offset="0%"></stop>
            <stop stop-color="#592589" offset="47.1528497%"></stop>
            <stop stop-color="#B590D1" offset="100%"></stop>
        </linearGradient>
        <linearGradient x1="100%" y1="-3.61529051%" x2="-98.2133399%" y2="173.530529%" id="linearGradient-9">
            <stop stop-color="#592589" offset="0%"></stop>
            <stop stop-color="#B590D1" offset="100%"></stop>
        </linearGradient>
    </defs>
    <g id="ILUSTRACION_05" stroke="none" stroke-width="1" fill="none" fill-rule="evenodd">
        <g id="icon_tiempo" transform="translate(25.000000, 39.000000)" fill-rule="nonzero">
            <g id="Group" transform="translate(0.000000, 1.061728)">
                <path d="M35.672216,2.10116049 L14.9748827,2.10116049 C14.4169444,2.10116049 13.9647809,1.64899691 13.9647809,1.09105864 C13.9647809,0.53312037 14.4170772,0.0809567901 14.9748827,0.0809567901 L35.672216,0.0809567901 C36.2301543,0.0809567901 36.6824506,0.53312037 36.6824506,1.09105864 C36.6824506,1.64899691 36.230287,2.10116049 35.672216,2.10116049 Z" id="Path" fill="url(#linearGradient-1)"></path>
                <path d="M15.8891636,9.5055216 L5.23551543,9.5055216 C4.67757716,9.5055216 4.22541358,9.05335802 4.22541358,8.49541975 C4.22541358,7.93748148 4.67770988,7.4853179 5.23551543,7.4853179 L15.8891636,7.4853179 C16.4471019,7.4853179 16.8992654,7.93748148 16.8992654,8.49541975 C16.8992654,9.05335802 16.4471019,9.5055216 15.8891636,9.5055216 Z" id="Path" fill="url(#linearGradient-2)"></path>
                <path d="M15.523929,16.3889722 L11.3155031,16.3889722 C10.7575648,16.3889722 10.3054012,15.9368086 10.3054012,15.3788704 C10.3054012,14.8209321 10.7576975,14.3687685 11.3155031,14.3687685 L15.5240617,14.3687685 C16.082,14.3687685 16.5341636,14.8209321 16.5341636,15.3788704 C16.5341636,15.9368086 16.0818673,16.3889722 15.523929,16.3889722 Z" id="Path" fill="url(#linearGradient-3)"></path>
                <path d="M11.3155031,21.3739198 L1.01010185,21.3739198 C0.45216358,21.3739198 3.37507799e-14,20.9217562 3.37507799e-14,20.3638179 C3.37507799e-14,19.8058796 0.452296296,19.353716 1.01010185,19.353716 L11.3153704,19.353716 C11.8733086,19.353716 12.3254722,19.8058796 12.3254722,20.3638179 C12.3254722,20.9217562 11.8733086,21.3739198 11.3155031,21.3739198 Z" id="Path" fill="url(#linearGradient-4)"></path>
                <path d="M37.0191512,47.6969537 L14.9748827,47.6969537 C14.4169444,47.6969537 13.9647809,47.2447901 13.9647809,46.6867191 C13.9647809,46.1286481 14.4170772,45.6766173 14.9748827,45.6766173 L37.0191512,45.6766173 C37.5770895,45.6766173 38.0292531,46.1287809 38.0292531,46.6867191 C38.0292531,47.2446574 37.5770895,47.6969537 37.0191512,47.6969537 Z" id="Path" fill="url(#linearGradient-5)"></path>
                <path d="M15.8891636,40.2925926 L5.23551543,40.2925926 C4.67757716,40.2925926 4.22541358,39.840429 4.22541358,39.2824907 C4.22541358,38.7245525 4.67770988,38.2722562 5.23551543,38.2722562 L15.8891636,38.2722562 C16.4471019,38.2722562 16.8992654,38.7244198 16.8992654,39.2824907 C16.8992654,39.8405617 16.4471019,40.2925926 15.8891636,40.2925926 Z" id="Path" fill="url(#linearGradient-6)"></path>
                <path d="M15.523929,33.409142 L11.3155031,33.409142 C10.7575648,33.409142 10.3054012,32.9569784 10.3054012,32.3989074 C10.3054012,31.8408364 10.7576975,31.3888056 11.3155031,31.3888056 L15.5240617,31.3888056 C16.082,31.3888056 16.5341636,31.8409691 16.5341636,32.3989074 C16.5341636,32.9568457 16.0818673,33.409142 15.523929,33.409142 Z" id="Path" fill="url(#linearGradient-7)"></path>
                <path d="M11.3155031,28.4243272 L1.01010185,28.4243272 C0.45216358,28.4243272 3.37507799e-14,27.9721636 3.37507799e-14,27.4142253 C3.37507799e-14,26.856287 0.452296296,26.4039907 1.01010185,26.4039907 L11.3153704,26.4039907 C11.8733086,26.4039907 12.3254722,26.8561543 12.3254722,27.4142253 C12.3254722,27.9722963 11.8733086,28.4243272 11.3155031,28.4243272 Z" id="Path" fill="url(#linearGradient-8)"></path>
            </g>
            <circle id="Oval" fill="url(#linearGradient-9)" cx="43.0368951" cy="24.9506173" r="24.9135895"></circle>
            <circle id="Oval" fill="#F4FBFF" cx="43.0368951" cy="24.9506173" r="19.1302222"></circle>
            <g id="Group" transform="translate(27.206790, 9.157407)" fill="#A483E6">
                <path d="M15.8302377,3.6483642 C15.2722994,3.6483642 14.8200031,3.19620062 14.8200031,2.63826235 L14.8200031,1.09623457 C14.8200031,0.538296296 15.2721667,0.086132716 15.8302377,0.086132716 C16.3883086,0.086132716 16.8403395,0.538296296 16.8403395,1.09623457 L16.8403395,2.63812963 C16.8403395,3.1960679 16.3881759,3.6483642 15.8302377,3.6483642 Z" id="Path"></path>
                <path d="M25.1321728,7.50124383 C24.8737747,7.50124383 24.6151111,7.4026358 24.4177623,7.20541975 C24.0233302,6.81085494 24.0233302,6.1712963 24.4177623,5.77673148 L25.5080247,4.68646914 C25.9025895,4.29216975 26.5421481,4.29216975 26.936713,4.68646914 C27.3311451,5.08103395 27.3311451,5.72059259 26.936713,6.11515741 L25.8464506,7.20541975 C25.6492346,7.4026358 25.3907037,7.50124383 25.1321728,7.50124383 L25.1321728,7.50124383 Z" id="Path"></path>
                <path d="M30.5270802,16.8034444 L28.9853179,16.8034444 C28.4273796,16.8034444 27.9750833,16.3512809 27.9750833,15.7932099 C27.9750833,15.2351389 28.4272469,14.783108 28.9853179,14.783108 L30.5270802,14.783108 C31.0850185,14.783108 31.5373148,15.2352716 31.5373148,15.7932099 C31.5373148,16.3511481 31.0850185,16.8034444 30.5270802,16.8034444 Z" id="Path"></path>
                <path d="M26.2224352,27.195642 C25.964037,27.195642 25.7053735,27.097034 25.5080247,26.8998179 L24.4177623,25.8095556 C24.0233302,25.4149907 24.0233302,24.7754321 24.4177623,24.3808673 C24.8123272,23.9865679 25.4518858,23.9865679 25.8464506,24.3808673 L26.936713,25.4711296 C27.3311451,25.8656944 27.3311451,26.5052531 26.936713,26.8998179 C26.7394969,27.097034 26.480966,27.195642 26.2224352,27.195642 Z" id="Path"></path>
                <path d="M15.8302377,31.500287 C15.2722994,31.500287 14.8200031,31.0481235 14.8200031,30.4900525 L14.8200031,28.9482901 C14.8200031,28.3903519 15.2721667,27.9381883 15.8302377,27.9381883 C16.3883086,27.9381883 16.8403395,28.3903519 16.8403395,28.9482901 L16.8403395,30.4900525 C16.8403395,31.0481235 16.3881759,31.500287 15.8302377,31.500287 Z" id="Path"></path>
                <path d="M5.43790741,27.195642 C5.17937654,27.195642 4.92084568,27.097034 4.72362963,26.8998179 C4.32906481,26.5052531 4.32906481,25.8656944 4.72362963,25.4711296 L5.81389198,24.3808673 C6.20832407,23.9865679 6.84801543,23.9865679 7.24244753,24.3808673 C7.63701235,24.7754321 7.63701235,25.4149907 7.24244753,25.8095556 L6.15218519,26.8998179 C5.95496914,27.097034 5.69643827,27.195642 5.43790741,27.195642 L5.43790741,27.195642 Z" id="Path"></path>
                <path d="M2.67515741,16.8034444 L1.13326235,16.8034444 C0.575324074,16.8034444 0.123160494,16.3512809 0.123160494,15.7932099 C0.123160494,15.2351389 0.57545679,14.783108 1.13326235,14.783108 L2.67515741,14.783108 C3.23309568,14.783108 3.68525926,15.2352716 3.68525926,15.7932099 C3.68525926,16.3511481 3.23296296,16.8034444 2.67515741,16.8034444 Z" id="Path"></path>
                <path d="M6.52816975,7.50124383 C6.26963889,7.50124383 6.01110802,7.4026358 5.81389198,7.20541975 L4.72362963,6.11515741 C4.32906481,5.72059259 4.32906481,5.08103395 4.72362963,4.68646914 C5.11806173,4.29216975 5.75775309,4.29216975 6.15218519,4.68646914 L7.24244753,5.77673148 C7.63701235,6.1712963 7.63701235,6.81085494 7.24244753,7.20541975 C7.04523148,7.4026358 6.78670062,7.50124383 6.52816975,7.50124383 L6.52816975,7.50124383 Z" id="Path"></path>
            </g>
            <path d="M47.4588611,25.9608519 L43.0370278,25.9608519 C42.4790895,25.9608519 42.0267932,25.5086883 42.0267932,24.9506173 L42.0267932,16.440466 C42.0267932,15.8825278 42.4789568,15.4303642 43.0370278,15.4303642 C43.5950988,15.4303642 44.0471296,15.8825278 44.0471296,16.440466 L44.0471296,23.9403827 L47.4588611,23.9403827 C48.0167994,23.9403827 48.4690957,24.3925463 48.4690957,24.9504846 C48.4690957,25.5084228 48.0167994,25.9608519 47.4588611,25.9608519 Z" id="Path" fill="#A483E6"></path>
        </g>
    </g>
</svg>