<?xml version="1.0" encoding="UTF-8"?>
<svg width="118px" height="127px" viewBox="0 0 118 127" version="1.1" xmlns="http://www.w3.org/2000/svg" xmlns:xlink="http://www.w3.org/1999/xlink">
    <title>ILUSTRACION_08</title>
    <defs>
        <linearGradient x1="41.6495713%" y1="48.6899387%" x2="-57.2825485%" y2="155.904932%" id="linearGradient-1">
            <stop stop-color="#105B91" offset="0%"></stop>
            <stop stop-color="#010027" offset="100%"></stop>
        </linearGradient>
        <linearGradient x1="50%" y1="0%" x2="50%" y2="100%" id="linearGradient-2">
            <stop stop-color="#ABCFFB" offset="0%"></stop>
            <stop stop-color="#72A2F6" offset="100%"></stop>
        </linearGradient>
        <linearGradient x1="50%" y1="0%" x2="50%" y2="100%" id="linearGradient-3">
            <stop stop-color="#ABCFFB" offset="0%"></stop>
            <stop stop-color="#72A2F6" offset="100%"></stop>
        </linearGradient>
        <linearGradient x1="41.946478%" y1="22.6945279%" x2="61.7082052%" y2="100%" id="linearGradient-4">
            <stop stop-color="#7288F6" offset="0%"></stop>
            <stop stop-color="#72B6F6" offset="100%"></stop>
        </linearGradient>
    </defs>
    <g id="ILUSTRACION_08" stroke="none" stroke-width="1" fill="none" fill-rule="evenodd">
        <g id="icon_precio" transform="translate(34.000000, 39.000000)" fill-rule="nonzero">
            <path d="M44.459276,49.8099548 L23.0565611,49.8099548 C20.1061968,49.8099548 17.7058824,47.4096403 17.7058824,44.459276 L17.7058824,19.1651584 C17.7058824,18.8494683 17.8083235,18.5422421 17.9977376,18.2895928 L26.7533937,6.61538462 C27.0290023,6.24793891 27.4614344,6.03167421 27.9208145,6.03167421 L39.5950226,6.03167421 C40.0544027,6.03167421 40.4868348,6.24793891 40.7624434,6.61538462 L49.5180995,18.2895928 C49.7075136,18.5422421 49.8099548,18.8494683 49.8099548,19.1651584 L49.8099548,44.459276 C49.8099548,47.4096403 47.4096403,49.8099548 44.459276,49.8099548 Z" id="Path" fill="url(#linearGradient-1)"></path>
            <path d="M49.5180995,18.2895928 L40.7624434,6.61538462 C40.4868348,6.24793891 40.0544027,6.03167421 39.5950226,6.03167421 L33.7579186,6.03167421 L33.7579186,49.8099548 L44.459276,49.8099548 C47.4096403,49.8099548 49.8099548,47.4096403 49.8099548,44.459276 L49.8099548,19.1651584 C49.8099548,18.8494683 49.7075136,18.5422421 49.5180995,18.2895928 Z" id="Path" fill="url(#linearGradient-2)"></path>
            <path d="M16.69869,43.0779253 L1.56463575,27.943871 C-0.521642534,25.8575928 -0.521642534,22.4631222 1.56463575,20.3768439 L19.4503009,2.49127602 C19.6735701,2.26800679 19.9631878,2.12324661 20.2757647,2.07849548 L34.7219163,0.0147873303 C35.1766267,-0.050199095 35.6353258,0.102733032 35.9601606,0.427567873 L44.2150905,8.68249774 C44.5399253,9.00733258 44.6927602,9.46603167 44.627871,9.92074208 L42.5641629,24.3667964 C42.519509,24.6793733 42.3746516,24.9690882 42.1513824,25.1922602 L24.2657172,43.0779253 C22.1794389,45.1641063 18.784871,45.1641063 16.69869,43.0779253 Z" id="Path" fill="url(#linearGradient-3)"></path>
            <path d="M44.6277738,9.92074208 C44.6927602,9.46603167 44.5398281,9.00733258 44.2149932,8.68249774 L40.0875769,4.55508145 L9.1316629,35.5108982 L16.69869,43.0779253 C18.7849683,45.1642036 22.1794389,45.1642036 24.2657172,43.0779253 L42.1513824,25.1922602 C42.3745543,24.968991 42.5194118,24.6793733 42.5640656,24.3667964 L44.6277738,9.92074208 Z" id="Path" fill="url(#linearGradient-4)"></path>
            <path d="M17.3871765,34.1360656 C17.0086403,33.7575294 16.853276,33.1841312 17.034129,32.641767 L23.9132534,12.004491 C24.168043,11.2399276 24.9944796,10.8266606 25.759043,11.0815475 C26.5238982,11.3363371 26.936776,12.1626765 26.6819864,12.9273371 L19.802862,33.5646131 C19.5480724,34.3291765 18.7216357,34.7424434 17.9570724,34.4875566 C17.734776,34.4135226 17.5422489,34.291138 17.3871765,34.1360656 Z" id="Path" fill="#DCDFFF"></path>
            <path d="M33.8978145,19.6875792 C32.1900724,17.9798371 29.4115136,17.9798371 27.7037715,19.6875792 C25.9960294,21.3953213 25.9960294,24.1738801 27.7037715,25.8816222 C29.4115136,27.5893643 32.1900724,27.5893643 33.8978145,25.8816222 C35.6055566,24.1738801 35.6055566,21.395224 33.8978145,19.6875792 Z M31.8331335,23.8169412 C31.2639186,24.3861561 30.3376674,24.3861561 29.7684525,23.8169412 C29.1992376,23.2477262 29.1992376,22.3214751 29.7684525,21.7522602 C30.3376674,21.1830452 31.2639186,21.1830452 31.8331335,21.7522602 C32.4023484,22.3214751 32.4024457,23.247629 31.8331335,23.8169412 L31.8331335,23.8169412 Z" id="Shape" fill="#72B8F8"></path>
            <path d="M16.0122466,19.6875792 C14.3045045,17.9798371 11.5259457,17.9798371 9.81820362,19.6875792 C8.11046154,21.3953213 8.11046154,24.1738801 9.81820362,25.8816222 C11.5259457,27.5893643 14.3045045,27.5893643 16.0122466,25.8816222 C17.7199887,24.1738801 17.7199887,21.395224 16.0122466,19.6875792 Z M13.9475656,23.8169412 C13.3783507,24.3861561 12.4520995,24.3861561 11.8828846,23.8169412 C11.3136697,23.2477262 11.3136697,22.3214751 11.8828846,21.7522602 C12.4520995,21.1830452 13.3783507,21.1830452 13.9475656,21.7522602 C14.5167805,22.3214751 14.5167805,23.247629 13.9475656,23.8169412 L13.9475656,23.8169412 Z" id="Shape" fill="#DCDFFF"></path>
            <path d="M19.8027647,33.5646131 L24.1652217,20.4772421 L19.5506991,25.0917647 L17.0340317,32.6416697 C16.8531787,33.1840339 17.008543,33.7574321 17.3870792,34.1359683 C17.5421516,34.2910407 17.7346787,34.4134253 17.9568778,34.4874593 C18.7215385,34.7425407 19.5479751,34.3291765 19.8027647,33.5646131 Z" id="Path" fill="#72B8F8"></path>
            <g id="Group" transform="translate(33.855204, 0.000000)">
                <path d="M10.3597896,0.427373303 C9.78999095,-0.142425339 8.86597738,-0.142425339 8.29608145,0.427373303 L0.0412488688,8.68230317 L2.10495701,10.7460113 L10.3597896,2.49108145 C10.9297828,1.92128281 10.9297828,0.997171946 10.3597896,0.427373303 L10.3597896,0.427373303 Z" id="Path" fill="#00429B"></path>
                <path d="M10.3597896,2.49108145 C10.9296855,1.92128281 10.9297828,0.997269231 10.3597896,0.427373303 L1.0730543,9.7141086 L2.10495701,10.7460113 L10.3597896,2.49108145 Z" id="Path" fill="#002659"></path>
            </g>
            <g id="Group" transform="translate(31.325792, 6.128959)">
                <path d="M5.66627149,7.10823077 C5.29279412,7.10823077 4.91931674,6.96570814 4.63446606,6.68076018 L0.506952489,2.55324661 C-0.0629434389,1.98344796 -0.0629434389,1.05943439 0.506952489,0.489538462 C1.07675113,-0.080260181 2.00076471,-0.080260181 2.57066063,0.489538462 L6.69817421,4.61705204 C7.26807014,5.18685068 7.26807014,6.11086425 6.69817421,6.68076018 C6.41322624,6.96570814 6.03974887,7.10823077 5.66627149,7.10823077 Z" id="Path" fill="#DCDFFF"></path>
                <path d="M6.69817421,4.61705204 L4.63446606,2.55334389 L2.57075792,4.61705204 L4.63446606,6.68076018 C4.91941403,6.96570814 5.2928914,7.10823077 5.66627149,7.10823077 C6.03974887,7.10823077 6.41322624,6.96570814 6.69807692,6.68076018 C7.26807014,6.11096154 7.26807014,5.18694796 6.69817421,4.61705204 L6.69817421,4.61705204 Z" id="Path" fill="#72B8F8"></path>
            </g>
        </g>
    </g>
</svg>