<?xml version="1.0" encoding="UTF-8"?>
<svg width="588px" height="656px" viewBox="0 0 588 656" version="1.1" xmlns="http://www.w3.org/2000/svg" xmlns:xlink="http://www.w3.org/1999/xlink">
    <title>ILUSTRACION_01</title>
    <defs>
        <linearGradient x1="48.9014863%" y1="56.368291%" x2="57.2685794%" y2="83.0150656%" id="linearGradient-1">
            <stop stop-color="#E8A476" offset="0%"></stop>
            <stop stop-color="#F1B287" offset="100%"></stop>
        </linearGradient>
        <linearGradient x1="35.5672899%" y1="63.0067353%" x2="46.9695097%" y2="46.9691193%" id="linearGradient-2">
            <stop stop-color="#F58672" offset="0%"></stop>
            <stop stop-color="#F7A191" offset="100%"></stop>
        </linearGradient>
        <linearGradient x1="47.2313826%" y1="2.71965582%" x2="53.0645076%" y2="89.8995548%" id="linearGradient-3">
            <stop stop-color="#7288F6" offset="0%"></stop>
            <stop stop-color="#72B6F6" offset="100%"></stop>
        </linearGradient>
        <linearGradient x1="47.2219027%" y1="2.76183278%" x2="53.1116991%" y2="88.7189113%" id="linearGradient-4">
            <stop stop-color="#105B91" offset="3%"></stop>
            <stop stop-color="#72B6F6" offset="94%"></stop>
        </linearGradient>
        <linearGradient x1="60.5887439%" y1="48.3590368%" x2="28.2890982%" y2="96.5824367%" id="linearGradient-5">
            <stop stop-color="#105B91" offset="0%"></stop>
            <stop stop-color="#010027" offset="100%"></stop>
        </linearGradient>
        <linearGradient x1="52.6064663%" y1="40.7062762%" x2="60.3156414%" y2="51.1817891%" id="linearGradient-6">
            <stop stop-color="#632E40" offset="0%"></stop>
            <stop stop-color="#48202D" offset="100%"></stop>
        </linearGradient>
        <linearGradient x1="100%" y1="38.2624888%" x2="-58.5872446%" y2="77.4291636%" id="linearGradient-7">
            <stop stop-color="#592589" offset="0%"></stop>
            <stop stop-color="#B590D1" offset="100%"></stop>
        </linearGradient>
        <linearGradient x1="100%" y1="40.5881076%" x2="-98.2133399%" y2="71.685158%" id="linearGradient-8">
            <stop stop-color="#592589" offset="0%"></stop>
            <stop stop-color="#B590D1" offset="100%"></stop>
        </linearGradient>
        <linearGradient x1="28.2671577%" y1="46.4987851%" x2="49.5702804%" y2="50.0331345%" id="linearGradient-9">
            <stop stop-color="#CF8D61" offset="0%"></stop>
            <stop stop-color="#E8A476" offset="100%"></stop>
        </linearGradient>
        <linearGradient x1="53.5640058%" y1="79.5737643%" x2="47.014687%" y2="2.84504658%" id="linearGradient-10">
            <stop stop-color="#072C47" offset="0%"></stop>
            <stop stop-color="#104E7A" offset="100%"></stop>
        </linearGradient>
        <linearGradient x1="59.1800949%" y1="18.7677277%" x2="32.4129278%" y2="73.3926883%" id="linearGradient-11">
            <stop stop-color="#29ABE2" offset="17%"></stop>
            <stop stop-color="#72B6F6" offset="55%"></stop>
        </linearGradient>
        <linearGradient x1="55.6465725%" y1="39.0534888%" x2="33.0323123%" y2="74.4655634%" id="linearGradient-12">
            <stop stop-color="#4395D0" offset="0%"></stop>
            <stop stop-color="#010027" offset="100%"></stop>
        </linearGradient>
        <linearGradient x1="38.1396116%" y1="5.93475877%" x2="48.8028846%" y2="43.4347588%" id="linearGradient-13">
            <stop stop-color="#CF8D61" offset="0%"></stop>
            <stop stop-color="#E8A476" offset="100%"></stop>
        </linearGradient>
        <linearGradient x1="48.6408147%" y1="62.9862295%" x2="58.9216903%" y2="17.7877778%" id="linearGradient-14">
            <stop stop-color="#072C47" offset="0%"></stop>
            <stop stop-color="#104E7A" offset="100%"></stop>
        </linearGradient>
        <linearGradient x1="62.0230413%" y1="42.6461417%" x2="42.6543658%" y2="53.241799%" id="linearGradient-15">
            <stop stop-color="#29ABE2" offset="17%"></stop>
            <stop stop-color="#72B6F6" offset="55%"></stop>
        </linearGradient>
        <linearGradient x1="110.775656%" y1="-109.462731%" x2="-6.26995589%" y2="173.530529%" id="linearGradient-16">
            <stop stop-color="#592589" offset="0%"></stop>
            <stop stop-color="#B590D1" offset="100%"></stop>
        </linearGradient>
        <linearGradient x1="83.7774442%" y1="-3.61529051%" x2="-50.1253563%" y2="173.530529%" id="linearGradient-17">
            <stop stop-color="#592589" offset="0%"></stop>
            <stop stop-color="#B590D1" offset="100%"></stop>
        </linearGradient>
        <linearGradient x1="46.7085028%" y1="41.8129303%" x2="57.0532083%" y2="97.582038%" id="linearGradient-18">
            <stop stop-color="#E8A476" offset="0%"></stop>
            <stop stop-color="#F1B287" offset="100%"></stop>
        </linearGradient>
        <linearGradient x1="53.1462585%" y1="45.3777807%" x2="42.0918367%" y2="60.0482305%" id="linearGradient-19">
            <stop stop-color="#CF8D61" offset="0%"></stop>
            <stop stop-color="#E8A476" offset="100%"></stop>
        </linearGradient>
        <linearGradient x1="61.632025%" y1="43.6477737%" x2="81.111053%" y2="58.9580697%" id="linearGradient-20">
            <stop stop-color="#E8A476" offset="0%"></stop>
            <stop stop-color="#F1B287" offset="100%"></stop>
        </linearGradient>
        <linearGradient x1="34.2617945%" y1="15.7389348%" x2="69.8247237%" y2="85.1105192%" id="linearGradient-21">
            <stop stop-color="#CF8D61" offset="0%"></stop>
            <stop stop-color="#E8A476" offset="100%"></stop>
        </linearGradient>
        <linearGradient x1="54.3433123%" y1="53.0352727%" x2="50.1252362%" y2="47.3282946%" id="linearGradient-22">
            <stop stop-color="#CF8D61" offset="0%"></stop>
            <stop stop-color="#E8A476" offset="100%"></stop>
        </linearGradient>
        <linearGradient x1="102.513905%" y1="-52.0864871%" x2="-24.2061099%" y2="175.292538%" id="linearGradient-23">
            <stop stop-color="#592589" offset="0%"></stop>
            <stop stop-color="#B590D1" offset="100%"></stop>
        </linearGradient>
        <linearGradient x1="46.950754%" y1="2.12653945%" x2="51.4411147%" y2="91.3271854%" id="linearGradient-24">
            <stop stop-color="#29ABE2" offset="17%"></stop>
            <stop stop-color="#72B6F6" offset="55%"></stop>
        </linearGradient>
        <linearGradient x1="44.7528011%" y1="22.6945279%" x2="58.1290801%" y2="56.3236487%" id="linearGradient-25">
            <stop stop-color="#7288F6" offset="0%"></stop>
            <stop stop-color="#72B6F6" offset="100%"></stop>
        </linearGradient>
        <linearGradient x1="115.547602%" y1="31.3402432%" x2="25.841088%" y2="63.8797335%" id="linearGradient-26">
            <stop stop-color="#310D71" offset="0%"></stop>
            <stop stop-color="#662D91" offset="100%"></stop>
        </linearGradient>
        <linearGradient x1="51.1798626%" y1="57.2581429%" x2="68.0479105%" y2="5.9920425%" id="linearGradient-27">
            <stop stop-color="#040728" offset="0%"></stop>
            <stop stop-color="#104E7A" offset="100%"></stop>
        </linearGradient>
        <linearGradient x1="44.5667125%" y1="57.2617168%" x2="68.6382393%" y2="39.095521%" id="linearGradient-28">
            <stop stop-color="#072C47" offset="0%"></stop>
            <stop stop-color="#104E7A" offset="100%"></stop>
        </linearGradient>
        <linearGradient x1="50.5399198%" y1="85.1294118%" x2="58.2589487%" y2="-162.998514%" id="linearGradient-29">
            <stop stop-color="#040728" offset="0%"></stop>
            <stop stop-color="#104E7A" offset="100%"></stop>
        </linearGradient>
        <linearGradient x1="65.4380342%" y1="91.7236089%" x2="47.4358974%" y2="33.9997312%" id="linearGradient-30">
            <stop stop-color="#072C47" offset="0%"></stop>
            <stop stop-color="#104E7A" offset="100%"></stop>
        </linearGradient>
        <linearGradient x1="60.4962031%" y1="39.2006502%" x2="45.7685322%" y2="53.8093947%" id="linearGradient-31">
            <stop stop-color="#105B91" offset="0%"></stop>
            <stop stop-color="#0A3C5F" offset="100%"></stop>
        </linearGradient>
        <linearGradient x1="56.2723852%" y1="27.8821315%" x2="47.1273602%" y2="59.5239178%" id="linearGradient-32">
            <stop stop-color="#105B91" offset="0%"></stop>
            <stop stop-color="#0A3C5F" offset="100%"></stop>
        </linearGradient>
        <linearGradient x1="49.2992064%" y1="4.0486389%" x2="50.1276281%" y2="89.3385162%" id="linearGradient-33">
            <stop stop-color="#7288F6" offset="0%"></stop>
            <stop stop-color="#72B6F6" offset="100%"></stop>
        </linearGradient>
        <linearGradient x1="49.9821035%" y1="3.7022293%" x2="50.0752382%" y2="89.669586%" id="linearGradient-34">
            <stop stop-color="#7288F6" offset="0%"></stop>
            <stop stop-color="#72B6F6" offset="100%"></stop>
        </linearGradient>
        <linearGradient x1="42.0593204%" y1="30.2873301%" x2="50%" y2="58.1830041%" id="linearGradient-35">
            <stop stop-color="#CF8D61" offset="0%"></stop>
            <stop stop-color="#E8A476" offset="100%"></stop>
        </linearGradient>
        <linearGradient x1="47.6235798%" y1="52.9221226%" x2="63.7142232%" y2="67.5087827%" id="linearGradient-36">
            <stop stop-color="#E8A476" offset="0%"></stop>
            <stop stop-color="#F1B287" offset="100%"></stop>
        </linearGradient>
        <linearGradient x1="50.8838381%" y1="30.3151676%" x2="39.5174079%" y2="61.5613895%" id="linearGradient-37">
            <stop stop-color="#632E40" offset="0%"></stop>
            <stop stop-color="#48202D" offset="100%"></stop>
        </linearGradient>
        <linearGradient x1="58.0414922%" y1="64.6124613%" x2="41.7491435%" y2="21.6442635%" id="linearGradient-38">
            <stop stop-color="#E8A476" offset="0%"></stop>
            <stop stop-color="#F1B287" offset="100%"></stop>
        </linearGradient>
        <linearGradient x1="39.6675482%" y1="63.0612792%" x2="49.6411031%" y2="45.4236554%" id="linearGradient-39">
            <stop stop-color="#F58672" offset="0%"></stop>
            <stop stop-color="#F7A191" offset="100%"></stop>
        </linearGradient>
        <linearGradient x1="50.61174%" y1="45.8392479%" x2="45.5819445%" y2="63.3138929%" id="linearGradient-40">
            <stop stop-color="#7288F6" offset="0%"></stop>
            <stop stop-color="#72B6F6" offset="100%"></stop>
        </linearGradient>
        <linearGradient x1="35.5408116%" y1="30.3119818%" x2="99.4515153%" y2="98.0524123%" id="linearGradient-41">
            <stop stop-color="#105B91" offset="3%"></stop>
            <stop stop-color="#72B6F6" offset="94%"></stop>
        </linearGradient>
    </defs>
    <g id="ILUSTRACION_01" stroke="none" stroke-width="1" fill="none" fill-rule="evenodd">
        <g id="ilustracion_home" transform="translate(18.000000, 20.238095)">
            <g id="WG_ilustraciones-02" transform="translate(263.500000, 291.500000) scale(-1, 1) translate(-263.500000, -291.500000) translate(0.000000, 7.000000)">
                <path d="M422.56915,254.998567 C404.718459,251.113761 390.078323,232.831237 382.446373,211.860648 C379.575219,203.980568 379.593565,202.019753 380.235676,195.805905 C380.914479,189.196211 380.822749,186.848757 378.612052,182.439226 C376.272933,177.790346 374.50254,178.554419 375.465707,182.917922 C375.841801,184.630183 376.786622,185.38505 375.511572,189.140976 C371.842365,180.791405 369.228055,167.314258 360,168.888433 C360.431132,169.634094 361.568586,171.530469 362.816116,177.274827 C364.063647,183.019185 365.127717,192.528675 365.32035,193.062605 C366.925628,197.426108 368.989557,200.786189 370.016935,207.322238 C376.309625,246.906755 381.272227,263.412578 414.964719,279.761905 L425,266.201906 L422.56915,254.998567 Z" id="Path" fill="url(#linearGradient-1)"></path>
                <path d="M422.568402,254.797742 C420.72361,254.388335 418.913465,253.833106 417.154655,253.137175 C413.438006,257.630103 410.471891,262.706415 408.373373,268.165768 C388.039706,254.927618 378.487654,234.982263 370,206.761905 C376.294628,246.652615 381.258759,263.286114 414.961628,279.761905 L425,266.097017 L422.568402,254.797742 Z" id="Path" fill="url(#linearGradient-2)"></path>
                <path d="M403.708466,243.31892 C392.19407,232.927524 383.360857,217.683758 380.551124,204.637291 C379.761461,203.154113 371.084344,203.392154 369,206.624016 C373.196235,232.900058 377.530202,249.086832 389.577162,261.785393 C398.300189,270.940808 414.121005,280.636393 428.004392,283.840789 C438.894402,286.349372 446.432934,283.932343 448.820289,274.136048 C449.628317,270.830943 447.902075,262.087522 439.720794,258.571842 C424.827373,252.24545 418.216237,256.456941 403.708466,243.31892 Z" id="Path" fill="url(#linearGradient-3)"></path>
                <path d="M369,206.761905 C373.205683,233.327856 377.549408,249.693222 389.62349,262.531889 C398.366157,271.788317 414.222593,281.590876 428.137237,284.830626 C439.051766,287.366887 446.60727,284.92319 449,275.018811 C411.342114,280.378283 382.252042,255.589567 369,206.761905 Z" id="Path" fill="url(#linearGradient-4)"></path>
                <path d="M95,142.48306 L133.764354,142.48306 C147.657895,142.069656 151.069378,137.669207 149.748804,131.890746 C147.914673,123.760479 141.495215,121.785329 141.495215,110.761239 C141.330734,102.600119 145.58291,94.9874219 152.612132,90.858555 C159.641355,86.729688 168.349475,86.729688 175.378697,90.858555 C182.407919,94.9874219 186.660096,102.600119 186.495614,110.761239 C186.495614,121.068764 181.323365,122.786684 178.663876,130.475988 C176.417065,136.961828 179.177432,142.08803 194.253987,142.528994 L233,142.528994 L233,181.34298 C232.559809,196.427611 227.442584,199.19282 220.968102,196.960442 C213.292265,194.296286 211.577352,189.105777 201.297049,189.105777 C188.868,189.105777 178.792265,199.199188 178.792265,211.650043 C178.792265,224.100897 188.868,234.194308 201.297049,234.194308 C212.301834,234.194308 214.310207,227.763589 222.389553,225.92624 C228.157895,224.603349 232.550638,228.020817 232.963317,241.929545 L232.963317,280.761905 L194.217305,280.761905 C179.159091,280.320941 176.398724,275.194739 178.627193,268.708899 C181.286683,261.019596 186.458931,259.301675 186.458931,248.99415 C186.458931,236.543296 176.383196,226.449884 163.954147,226.449884 C151.525097,226.449884 141.449362,236.543296 141.449362,248.99415 C141.449362,260.018241 147.86882,262.039324 149.702951,270.123657 C151.032695,275.902118 147.621212,280.302568 133.727671,280.715971 L95,280.715971 L95,142.48306 Z" id="Path" fill="url(#linearGradient-5)"></path>
                <path d="M166,150.675509 C166.898674,148.854626 167.797349,146.951804 168.696023,145.030773 C170.583239,140.687968 171.778476,136.490834 174.007188,132.166238 C176.020219,128.260445 178.177037,126.494189 179.614916,126.794635 C185.339471,127.996417 188.035494,131.0555 188.835315,132.894591 C189.176811,133.686675 189.275665,134.979502 186.139292,136.964264 C185.042909,140.096181 185.240617,141.716767 182.77825,143.737947 C179.821611,146.196138 178.078183,147.033744 176.882946,148.690747 C176.071761,150.320498 175.398342,152.016952 174.869916,153.761905 L166,150.675509 Z" id="Path" fill="#ECAB7F"></path>
                <path d="M182.775502,120.924439 L187.556454,117.761905 C189.002715,120.297717 186.635268,122.41893 184.433635,123.547029 L182.499146,126.584219 L179.348692,131.761905 C179.597412,130.701299 175.663951,130.383117 176.023213,129.293585 C176.465382,127.895514 181.587173,121.705431 182.775502,120.924439 Z" id="Path" fill="#ECAB7F"></path>
                <path d="M175.464094,134.127548 C177.748618,131.007466 178.456921,134.009294 180.751421,135.473822 C182.024307,136.226383 183.466526,136.708258 184.971307,136.883771 C185.629728,138.03902 174.755792,144.452016 173,145.761905 C174.207107,143.03297 176.152444,139.539934 175.19474,138.120888 L175.464094,134.127548 Z" id="Path" fill="#D79469"></path>
                <path d="M69.0622012,121.618314 C59.2292223,117.483991 54.2059537,121.73775 50.3526145,128.683413 C46.3228573,135.959822 45.8771699,139.662338 43.1380493,142.381804 C38.4954719,146.975496 32.4322659,146.056758 20.0365844,146.865248 C-1.82066968,148.289292 -2.97202886,168.648537 3.32330601,183.18298 C10.7514298,200.427701 32.1629965,211.994619 49.0898334,214.27309 C70.0278572,217.102805 76.3603327,207.235553 76.9452975,195.291953 C77.3074185,187.418364 74.633294,182.236679 75.2739696,179.158905 C77.8645278,166.654875 89.2017017,170.449265 89.9816547,156.346629 C90.4180569,148.491415 82.9156519,142.988171 83.760601,133.074983 C92.7579159,115.159583 75.5618094,115.343331 69.0622012,121.618314 Z" id="Path" fill="url(#linearGradient-6)"></path>
                <path d="M3,180.92741 C3.27345062,181.681699 3.56513129,182.41759 3.91150208,183.144283 C11.2035187,200.410136 32.2227565,211.991228 48.8394394,214.272491 C69.3938112,217.105673 75.6102553,207.22633 76.1845017,195.268094 C76.5399875,187.384857 73.9148615,182.196823 74.5437979,179.115277 C77.0868887,166.595924 88.2163291,170.394963 88.9819908,156.275046 C89.4103968,148.410206 82.04546,142.900219 82.8749269,132.974883 C83.0481123,132.625335 83.2030676,132.284985 83.358023,131.953834 C78.6090972,133.26924 72.2454626,133.243506 65.2542417,129.784816 C63.5588478,133.970199 63.7242683,137.555808 63.3323224,142.109136 C58.774812,139.478324 57.4804791,142.835829 57.1523383,147.729507 C56.6874723,154.821661 56.4504817,156.468218 54.1170364,157.60885 C39.5876933,164.756195 38.3662805,166.14519 26.717284,179.943155 C18.2858898,189.850094 13.3637786,187.660817 3,180.92741 Z" id="Path" fill="#48202D"></path>
                <path d="M177,150.511976 C175.528283,146.898895 170.752145,144.67114 166.522115,144.764743 C137.893054,184.461834 123.740505,169.756781 90.1779518,161.847316 C88.030652,161.200568 85.8214732,160.786389 83.5876214,160.611755 C62.9002784,160.611755 58.8276023,187.475855 96.1758928,194.46801 C102.710687,195.694211 124.073724,196.939132 135.125485,193.691104 C153.554345,188.299563 165.587251,177.329275 177,150.511976 Z" id="Path" fill="url(#linearGradient-7)"></path>
                <path d="M177,150.511976 C154.498214,184.900089 127.675937,193.797876 98.239114,170.708974 C76.3956005,153.569415 46.2170621,185.468796 96.0417827,194.506348 C102.58742,195.696216 123.985904,196.904251 135.056004,193.752462 C153.515442,188.493424 165.568314,176.534677 177,150.511976 Z" id="Path" fill="url(#linearGradient-8)" opacity="0.35" style="mix-blend-mode: multiply;"></path>
                <path d="M71.738247,347.088488 C69.1760681,351.105718 70.3340185,351.983243 62.9989723,354.794377 L62,372.273502 L69.0945529,389.761905 L70.2507708,384.390135 C72.1839671,371.401401 71.4069887,365.111143 80,355.174761 L71.738247,347.088488 Z" id="Path" fill="url(#linearGradient-9)"></path>
                <path d="M66.6251911,352.761905 C56.391419,356.034146 57.0519625,361.687035 59.5917986,369.123111 C62.2060622,376.770596 64.4667955,384.289398 67.295038,391.900116 C68.0765261,393.738454 69.6488056,396.734945 71.4164571,392.911202 C72.4305309,390.714388 71.8444149,387.028521 71.7048634,383.627596 C71.0815337,381.789258 69.1743307,379.610828 68.3649324,374.307224 C67.2113071,366.797614 69.5650747,363.166897 66.6251911,352.761905 Z" id="Path" fill="url(#linearGradient-10)"></path>
                <path d="M98.8493886,241.761905 C107.903384,256.428388 119.341971,273.362598 126.588893,288.572967 C129.942225,295.569736 130.752613,298.455097 130.976168,303.11961 C131.38602,311.582106 126.48643,318.311542 118.056527,327.087464 C106.878755,338.711873 90.6430409,352.032469 82.790656,358.761905 C76.9968442,354.825646 72.0413652,348.621659 70.2901809,344.150732 C73.2616054,341.458958 79.40938,333.87221 86.125358,327.677442 C91.0901518,323.068239 94.5086871,319.933982 97.5732596,315.887102 C106.468903,304.004577 98.2066667,297.330452 89.8792265,287.946115 C79.4186948,276.174212 66.3407015,263.563433 62,259.230783 L98.8493886,241.761905 Z" id="Path" fill="url(#linearGradient-11)"></path>
                <path d="M82.5106229,251.761905 C91.4575298,266.424773 104.01637,278.774391 110.410967,294.34044 C118.289037,313.509997 98.0160184,328.123287 72.6034856,341.873758 C75.5427887,339.182647 79.2211834,334.485916 85.8645612,328.292675 C90.7756852,323.684608 94.1572659,320.551123 97.1887102,316.50524 C105.988191,304.625645 97.8152701,297.953164 89.5778501,288.571141 C79.2303975,276.802139 66.2937782,264.194468 62,259.862886 L82.5106229,251.761905 Z" id="Path" fill="url(#linearGradient-12)"></path>
                <path d="M71.1652212,379.761905 C69.699046,389.33071 67.5954033,399.817826 65,412.123199 L74.2341717,446.761905 L75.0719861,430.370046 C76.8386817,414.115934 81.3191674,400.130052 86,386.768621 L71.1652212,379.761905 Z" id="Path" fill="url(#linearGradient-13)"></path>
                <path d="M67.8965115,396.761905 C65.6727409,398.808957 62.3138238,401.874905 60.8995429,404.060897 C56.7218316,410.378046 56.9544436,413.666297 62.2766059,424.021974 C64.974905,429.283177 69.2084432,441.009731 71.7206526,449.077526 C72.1672677,450.494716 73.0977156,451.689602 73.8792919,449.744439 C76.6148089,442.954894 76.5310686,437.036041 74.6143458,430.394699 C71.2368197,418.732984 69.9993239,410.11869 67.8965115,396.761905 Z" id="Path" fill="url(#linearGradient-14)"></path>
                <path d="M45.8790643,248.111212 C41.2441286,267.231195 45.7400162,275.081419 53.2949615,290.478521 C62.1384188,308.50462 70.2495563,315.067922 72.2796582,336.541134 C73.8462665,353.087273 69.4430775,365.607185 66.0503046,384.341092 C68.5624397,387.714665 81.5680694,398.469656 85.3223673,397.72508 C91.7000389,377.786982 97.317581,356.755001 99.7555572,336.311326 C102.100835,316.584652 86.9260551,258.608818 81.7627367,247.761905 L45.8790643,248.111212 Z" id="Path" fill="url(#linearGradient-15)"></path>
                <path d="M68.6149401,162.304927 C55.7889116,165.634896 45.4606314,165.800018 42.698523,182.055401 C41.2764473,190.458297 42.2518454,201.68662 43.6101099,214.0708 L44.9957221,254.920247 C57.8764458,262.983724 87.5121376,261.341674 103,247.223709 L98.1230098,207.997965 C97.3663926,199.521682 97.0564531,194.678091 97.6945639,191.173827 C102.498627,164.910192 88.9159816,157.039358 68.6149401,162.304927 Z" id="Path" fill="url(#linearGradient-16)"></path>
                <path d="M45.4613139,173.761905 C44.0641551,176.344348 43.1308919,179.153335 42.7042259,182.060339 C41.2705401,190.5063 42.2539015,201.79217 43.6232552,214.239821 L44.6709487,243.063048 C62.711495,250.36567 83.9135022,245.285184 95.1164701,241.218952 C98.3238826,240.04795 99.1969605,238.213074 102,235.576017 L99.9873257,219.403291 C93.7379261,220.869348 92.5248073,221.450238 86.9187282,224.575981 C72.9862432,227.102393 54.385089,227.886134 52.8411197,215.447704 C51.0949639,201.321926 68.0234847,187.131604 60.3403992,178.870052 L45.4613139,173.761905 Z" id="Path" fill="url(#linearGradient-17)" opacity="0.35" style="mix-blend-mode: multiply;"></path>
                <path d="M66.3874269,153.761905 C66.3874269,159.036339 66.3874269,160.50146 65,165.615203 C66.3969298,170.832923 75.7097953,173.923855 78,165.671918 C77.3740485,163.648399 77.1481516,161.52342 77.3347953,159.414435 L73.0394737,155.567311 L66.3874269,153.761905 Z" id="Path" fill="url(#linearGradient-18)"></path>
                <path d="M66.3339001,153.260366 C66.3339001,154.487822 66.4684277,156.132459 66.4684277,156.985691 C67.8714889,159.320851 73.4965752,162.33917 77.2720854,161.777833 C77.0640663,160.634853 77.4631313,159.450634 77.5581513,158.296107 L72.9863946,155.191442 L66.3339001,153.260366 Z" id="Path" fill="url(#linearGradient-19)"></path>
                <path d="M84.2853817,134.83786 C84.8760726,142.869722 85.9938417,149.433004 83.1039997,155.588347 C80.6230975,160.864356 76.8335876,160.320438 72.9441147,158.398593 C69.0546417,156.476747 66.8554537,155.189474 64.1655378,151.799049 C63.184082,151.264196 62.0663129,151.200739 60.9758065,150.076641 C59.3491344,148.390494 58.2495404,145.408008 59.621761,143.468032 C60.2215395,142.561501 61.6391979,143.232334 62.593391,144.873155 C63.774773,146.912849 64.4745146,144.918481 64.5017773,143.458967 C64.5744777,139.443036 65.6740717,136.941011 66.4737764,132.761905 C71.8263456,135.481497 78.9146374,138.97164 84.2853817,134.83786 Z" id="Path" fill="url(#linearGradient-20)"></path>
                <path d="M84.2766258,133.813578 C84.3662958,135.159435 84.3246754,136.413779 84.4233124,137.682176 C79.0431115,139.831673 72.8629842,138.801024 66.9626973,133.979179 C65.6804161,137.910242 66.3619082,141.027981 65.5907461,143.826201 C64.963056,146.111252 64.0484218,147.127906 62.7751076,146.643785 C60.9817073,145.946651 61.4869555,144.792036 59.2452051,144.133632 C59.3369502,143.859697 59.3880668,143.803863 59.5404351,143.563477 C60.1322572,142.595234 61.559027,142.881702 62.5005621,144.63422 C63.6662723,146.812764 64.1560258,144.746031 64.1829268,143.187161 C64.2546628,138.897849 65.33967,136.225501 66.1287661,131.761905 C71.41033,134.666631 78.9771279,138.228762 84.2766258,133.813578 Z" id="Path" fill="url(#linearGradient-21)"></path>
                <path d="M81.3065117,136.598775 C75.0346277,137.635564 65.2278506,133.628513 65.0051802,127.473158 C64.7917877,121.812847 71.2121186,118.020625 76.704656,117.021198 C91.7441884,114.265766 95.0471332,134.329046 81.3065117,136.598775 Z" id="Path" fill="#632E40"></path>
                <path d="M80.5860517,136.622756 C74.9977503,137.445021 66.4938133,134.550649 65,129.855517 L65.1169854,129.58417 C75.7176603,134.328637 85.3751609,134.259432 89.6316288,129.013383 C89.3706614,132.60668 86.0573678,135.800491 80.5860517,136.622756 Z" id="Path" fill="#48202D"></path>
                <path d="M85.291486,228.737521 C89.7165842,227.423917 91.6543115,224.684912 94.8403823,223.31541 C95.6797563,222.997117 96.5467158,222.756979 97.4302293,222.598052 C99.2934285,222.113602 105.143874,222.206766 109.941612,221.843428 C112.829571,221.629152 115.587106,221.675734 115.922482,224.051401 C116.117218,225.404638 115.943429,226.78535 115.419418,228.048112 C115.00527,229.036115 114.110703,229.740524 113.053155,229.91138 C109.270861,230.936178 102.731031,231.709434 101.231156,233.060304 C99.4424845,234.672031 98.9580527,236.414187 94.6447463,237.578729 C93.7969907,237.802322 88.0303889,237.261974 86.0647137,237.75574 C84.7791062,238.091128 83.5400786,238.426516 82.3383151,238.761905 L80,229.827533 C81.7922222,229.6191 83.5627916,229.254374 85.291486,228.737521 Z" id="Path" fill="url(#linearGradient-22)"></path>
                <path d="M53.8614809,197.764302 C41.8336108,211.336224 41.7880507,236.634801 83.8309238,228.460279 C85.1339431,230.960613 87.3481646,235.721395 84.8970305,239.864014 C5.62243228,255.271974 20.7939502,205.486735 36.8857825,178.831888 C44.8314663,165.684377 56.1668227,165.389135 60.1032165,172.004409 C62.5907987,176.16548 65.1330531,185.050429 53.8614809,197.764302 Z" id="Path" fill="url(#linearGradient-23)"></path>
                <path d="M95,3.76190476 L233.561033,3.76190476 L233.561033,42.532547 C234.003102,57.6059415 239.142155,60.3674093 245.644255,58.1288772 C253.352835,55.4683268 255.075062,50.2848405 265.399217,50.2848405 C277.881285,50.2848405 288,60.3645949 288,72.798602 C288,85.2326091 277.881285,95.3123635 265.399217,95.3123635 C254.34749,95.3123635 252.33055,88.8903451 244.21674,87.0554827 C238.423793,85.7343818 234.012312,89.1472259 233.597872,103.046308 L233.597872,141.761905 L194.649742,141.761905 C179.527295,141.321538 176.755154,136.202272 178.993128,129.725208 C181.663963,122.046308 186.858274,120.330712 186.858274,110.037134 C186.858274,97.6031274 176.739559,87.5233736 164.257492,87.5233736 C151.775425,87.5233736 141.65671,97.6031274 141.656709,110.037134 C141.656709,121.046308 148.10355,123.064657 149.945505,131.138052 C151.280922,136.908694 147.854886,141.303189 133.902081,141.716033 L95,141.716033 L95,3.76190476 Z" id="Path" fill="url(#linearGradient-24)"></path>
                <path d="M315.963308,193.761905 C328.395662,193.761905 338.474076,183.645603 338.474076,171.166513 C338.474076,160.835613 333.291279,159.113796 330.631082,151.407055 C328.392848,144.906507 331.153948,139.777887 346.225339,139.326716 L385,139.326716 L385,0.761904762 L247,0.761904762 L247,39.6731208 C247.440308,54.8011682 252.549721,57.5726485 259.025924,55.326 C266.703802,52.655803 268.428344,47.4535225 278.71138,47.4535225 C291.143734,47.4535225 301.222148,57.5698239 301.222148,70.048914 C301.222148,82.5280041 291.143734,92.6443054 278.71138,92.6443054 C267.703669,92.6443054 265.694762,86.1990022 257.567402,84.357487 C251.797527,83.0223885 247.403616,86.4568144 247,100.406292 L247,139.3083 L285.765488,139.3083 C299.662723,139.722641 303.075113,144.13307 301.745015,149.924636 C299.910396,158.07334 293.489232,160.052969 293.489232,171.10206 C293.47218,177.099513 295.831278,182.857725 300.046778,187.108071 C304.262279,191.358416 309.988299,193.752153 315.963308,193.761905 L315.963308,193.761905 Z" id="Path" fill="url(#linearGradient-25)"></path>
                <path d="M236.404724,142.798585 L275.336292,142.798585 C289.280554,143.211237 292.706753,147.603688 291.371272,153.371646 C289.529229,161.487136 283.082081,163.458695 283.082081,174.462749 C283.082081,186.890972 293.201279,196.966038 305.683942,196.966038 C318.166605,196.966038 328.285803,186.890972 328.285803,174.462749 C328.285803,164.183129 323.091243,162.46833 320.411071,154.793003 C318.16378,148.318952 320.936053,143.202067 336.068432,142.761905 L375,142.761905 L375,280.761905 L335.819757,280.761905 L336.050012,280.633524 C320.926843,280.193362 318.154569,275.131497 320.392651,268.611596 C323.072823,260.936269 328.267382,259.22147 328.267382,248.93268 C328.267382,236.504457 318.148185,226.429391 305.665521,226.429391 C293.182858,226.429391 283.06366,236.504457 283.06366,248.93268 C283.06366,259.936734 289.510809,261.944973 291.352851,270.069633 C292.688332,275.837591 289.262133,280.230042 275.308661,280.633524 L275.492866,280.761905 L236.404724,280.761905 L236.404724,242.009297 C235.990265,228.116679 231.578573,224.705423 225.78535,226.035079 C217.634312,227.869088 215.654116,234.288119 204.601861,234.288119 C192.119198,234.288119 182,224.213053 182,211.78483 C182,199.356606 192.119198,189.281541 204.601861,189.281541 C214.926509,189.281541 216.648819,194.462616 224.357767,197.121929 C230.860177,199.35942 235.999475,196.608406 236.441565,181.532853 L236.404724,142.798585 Z" id="Path" fill="url(#linearGradient-26)"></path>
                <path d="M443.558031,530.006611 C444.301716,533.856022 446.559979,536.792493 446.913683,539.616022 C447.530397,544.481905 444.827737,549.376022 439.277309,549.432493 L403,549.761905 C404.922697,536.896022 424.321988,544.03014 430.842835,529.761905 L439.286378,530.251317 L443.558031,530.006611 Z" id="Path" fill="url(#linearGradient-27)"></path>
                <path d="M443.927556,530.761905 C444.448156,532.63918 445.141704,534.468288 446,536.227606 C442.570381,538.515983 429.053645,540.452303 426,536.438841 C427.485557,535.206638 429.924805,533.067885 430.915177,531.043551 L439.590096,530.990742 L443.927556,530.761905 Z" id="Path" fill="url(#linearGradient-28)" opacity="0.5" style="mix-blend-mode: multiply;"></path>
                <path d="M490.222057,519.527431 C491.806598,525.257298 494.287536,533.52441 494.052119,539.385353 C493.898192,543.130364 490.240166,541.632359 488.230063,544.834344 C487.876241,545.638468 487.933289,546.572041 488.382181,547.323719 C488.831072,548.075398 489.612751,548.54629 490.466529,548.579355 C495.075279,549.122382 505.524194,548.326567 509.064511,547.849078 C512.776864,547.343501 510.141999,544.104067 509.390474,535.724604 C509.218438,533.805286 509.109784,532.073219 509.788873,530.874815 C511.128942,528.534183 511.337196,526.268451 509.960909,523.18818 C508.403531,519.714682 505.216341,519.068668 502.554312,514.761905 L490.222057,519.527431 Z" id="Path" fill="url(#linearGradient-29)"></path>
                <path d="M491,520.207859 C491.68109,522.572908 492.598291,526.05252 493.252137,528.761905 C499.608974,526.840869 505.738782,524.53019 508,520.117245 C506.15792,518.471273 504.451228,516.680408 502.896368,514.761905 L491,520.207859 Z" id="Path" fill="url(#linearGradient-30)" opacity="0.5" style="mix-blend-mode: multiply;"></path>
                <path d="M456.477182,347.761905 C457.664932,361.839252 457.011209,374.887446 457.63731,388.955605 C460.39952,450.66805 472.203363,456.19975 505,516.524675 C500.884307,524.794658 491.741393,526.025966 485.876301,523.756315 C434.315052,449.841052 426.645316,437.656612 413,351.37313 L456.477182,347.761905 Z" id="Path" fill="url(#linearGradient-31)"></path>
                <path d="M444.04757,354.797792 C445.241707,368.90497 445.491643,400.123204 446.121111,414.239596 C447.916945,454.506328 473.428902,494.938917 485,521.761905 C433.161481,447.632419 426.681666,437.284698 413,350.761905 L444.04757,354.797792 Z" id="Path" fill="#0A3C5F" opacity="0.3" style="mix-blend-mode: multiply;"></path>
                <path d="M394.777593,340.761905 C386.15196,424.534032 390.626219,454.812671 425.8391,532.817876 C429.676815,536.791258 442.970439,534.289499 445,528.789309 C433.311574,485.137298 426.733952,459.687421 425.626919,440.289593 C422.914687,394.301381 443.311774,393.381617 444.640214,344.183428 L394.777593,340.761905 Z" id="Path" fill="url(#linearGradient-32)"></path>
                <path d="M391.733969,280.374586 C388.750573,308.390921 390.20521,335.203931 391.733969,365.985157 C411.533712,370.982168 439.514632,373.02139 460,359.160194 C457.007339,328.847438 459.76837,286.235052 453.115953,272.676983 C442.108889,250.392515 402.657646,247.388797 391.733969,280.374586 Z" id="Path" fill="url(#linearGradient-33)"></path>
                <path d="M392.644615,275.640388 C387.321578,302.851773 391.702485,337.532406 391.570587,365.761905 L409,272.761905 L392.644615,275.640388 Z" id="Path" fill="url(#linearGradient-34)" opacity="0.5" style="mix-blend-mode: multiply;"></path>
                <path d="M424.255461,247.429823 C424.417854,250.564396 422.92925,254.840515 422,256.917755 C423.380342,259.593838 430.291073,262.878122 436.489079,261.39037 C436.795821,255.58907 437.725071,252.388998 441,248.066095 L434.423077,244.622743 L428.667142,243.761905 L424.255461,247.429823 Z" id="Path" fill="#ECAB80"></path>
                <path d="M423.607477,248.380343 C423.644103,249.940371 423.782194,251.886012 423.342946,253.384938 C424.230796,255.914153 433.417474,260.896432 437.081025,255.948771 C437.876131,253.516488 439.326831,250.994762 441,249.044955 L434.140187,245.61113 L428.17757,244.761905 L423.607477,248.380343 Z" id="Path" fill="url(#linearGradient-35)"></path>
                <path d="M422.882129,221.860002 C419.873862,229.1831 416.568117,235.76487 416.037784,243.302304 C415.763474,247.160326 416.952151,248.294514 420.609618,248.946448 C427.321071,250.125288 432.496388,250.375345 435.513799,247.285355 L441,239.346044 L437.095653,225.441087 L429.698425,222.761905 L422.882129,221.860002 Z" id="Path" fill="url(#linearGradient-36)"></path>
                <path d="M422.882129,221.860002 C422.429682,222.95073 421.753615,224.415878 421.338103,225.444024 C422.746538,226.669231 424.979764,228.198293 426.672207,229.020183 C428.518929,232.703627 426.4506,237.96058 428.666667,239.113892 C429.590028,239.614554 430.984303,239.113892 431.944598,238.425481 C435.638042,235.627137 435.019391,238.720514 432.655586,241.492037 C430.624192,243.888064 429.959372,245.139719 430.578024,249.761905 C432.78368,249.707869 434.885904,248.845111 436.459834,247.347997 L442,239.399984 L438.066482,225.444024 L430.596491,222.761905 L422.882129,221.860002 Z" id="Path" fill="#DA9569"></path>
                <path d="M458.039215,231.296723 C463.077789,222.323928 457.742828,213.86413 449.564407,215.067342 C448.480743,209.610913 443.293976,208.211828 438.91301,209.153878 C437.338455,203.753412 430.577134,202.522217 426.548127,204.956625 C418.795762,209.666876 416.359834,219.880193 428.020798,225.998856 C429.743546,230.364 429.039628,232.369355 429.725022,236.86508 C429.845429,237.676549 431.633011,235.577922 433.429856,234.794435 C434.624665,234.262783 436.208481,234.523945 436.680847,235.428686 C438.348023,238.4134 434.16156,240.157592 432.800034,243.440777 C432.001542,245.842809 431.810537,248.40746 432.244309,250.902562 C432.772248,253.364951 434.624665,254.633454 436.995758,253.085134 C448.341812,245.483441 454.186187,238.170892 458.039215,231.296723 Z" id="Path" fill="url(#linearGradient-37)"></path>
                <path d="M423.458021,209.761905 C419.400074,214.839638 419.810428,222.066341 428.929411,226.772312 C430.625541,231.015847 429.932499,232.965334 430.607303,237.335812 C430.72585,238.124674 432.485814,236.084513 434.254896,235.322853 C435.431245,234.806012 436.990591,235.059899 437.455659,235.939435 C439.097076,238.840997 434.975296,240.536597 433.634805,243.728316 C432.848651,246.063429 432.660596,248.556631 433.087666,250.982221 C433.607448,253.376009 435.431245,254.609173 437.765704,253.103988 C439.662453,251.852689 441.413297,250.619525 443,249.386362 C440.437566,248.207602 439.206503,245.759409 440.382852,241.470538 C441.987793,235.585807 442.854096,230.644084 436.233715,231.541755 C432.69555,232.022326 435.230627,229.193303 432.449338,222.837069 C428.610246,220.697167 423.968684,218.221772 423.458021,209.761905 Z" id="Path" fill="#48202D"></path>
                <path d="M386.547488,268.095567 C368.426913,271.139332 347.933955,259.704649 333.007328,243.215307 C327.385611,237.018093 326.674819,235.199147 324.957842,229.239585 C323.111629,222.896124 322.188523,220.766403 318.449943,217.521549 C314.535973,214.103027 313.160544,215.464951 315.680624,219.130265 C316.668348,220.565313 317.840693,220.91265 318.043776,224.852176 C311.489722,218.517856 304.031024,207.064893 296,211.936744 C296.683099,212.466889 298.455463,213.764831 301.760183,218.627541 C305.064903,223.490252 309.606585,231.826327 309.99429,232.246787 C313.12362,235.67445 316.289874,238.014401 319.696136,243.654048 C340.355253,277.83927 351.137134,291.184303 388.679863,293.761905 L393,277.546776 L386.547488,268.095567 Z" id="Path" fill="url(#linearGradient-38)"></path>
                <path d="M386.592621,268.638592 C384.727666,268.960124 382.840025,269.128131 380.948243,269.140963 C379.144699,274.724872 378.259604,280.570639 378.328296,286.444867 C354.528145,281.79328 338.302859,266.824473 320,243.761905 C340.573479,278.555776 351.310666,292.13841 388.697771,294.761905 L393,278.258074 L386.592621,268.638592 Z" id="Path" fill="url(#linearGradient-39)"></path>
                <path d="M365.144912,265.363813 C350.507746,259.972615 336.535067,249.061639 329.031904,237.966976 C327.730617,236.874042 319.72909,240.327347 319,244.111289 C332.769642,267.016991 342.884607,280.472025 358.887662,287.819484 C370.470035,293.128023 388.854168,296.241509 403.002199,294.05564 C414.076978,292.338171 420.232709,287.277609 418.792988,277.275881 C418.303852,273.89605 413.440178,266.383273 404.460378,266.172034 C388.171224,265.786292 383.602877,272.169397 365.144912,265.363813 Z" id="Path" fill="url(#linearGradient-40)"></path>
                <path d="M319,243.761905 C332.769642,266.825609 342.884607,280.373455 358.887662,287.771596 C370.470035,293.116753 388.854168,296.251715 403.002199,294.050768 C414.076978,292.321453 420.232709,287.225983 418.792988,277.155264 C385.734772,296.27021 349.455642,284.155754 319,243.761905 Z" id="Path" fill="url(#linearGradient-41)"></path>
                <path d="M172.886708,144.316122 C176.947174,143.972748 177.322127,140.35829 177.642209,138.126363 C178.675616,137.457688 179.526119,135.831182 180.449783,134.773953 C184.638283,133.472748 185.552802,132.722748 184.720589,130.761905 C183.284794,130.978772 179.928507,131.782989 178.712197,132.090218 C172.511755,135.758893 171.396041,135.984796 169,144.804073 L172.228254,145.761905 L172.886708,144.316122 Z" id="Path" fill="#ECAB7F"></path>
                <ellipse id="Oval" fill="#72B8F8" fill-rule="nonzero" opacity="0.11" style="mix-blend-mode: multiply;" cx="284.5" cy="549.761905" rx="242.5" ry="19"></ellipse>
            </g>
            <g id="Group-3" transform="translate(474.000000, 0.761905)" fill="#72B6F6">
                <path d="M12.2822,-0.0002 L0.0002,25.4238 L27.4442,18.2798 C23.4282,11.5698 18.1782,5.2138 12.2822,-0.0002" id="Fill-1"></path>
            </g>
            <g id="Group-3-Copy-3" transform="translate(532.837169, 373.259327) rotate(60.000000) translate(-532.837169, -373.259327) translate(518.837169, 360.259327)" fill="#105B91">
                <path d="M0.516860498,25.5340725 L27.9608605,18.3900725 C23.9448605,11.6800725 18.6948605,5.32407254 12.7988605,0.110072543 L0.516860498,25.5340725 Z" id="Fill-1"></path>
            </g>
        </g>
    </g>
</svg>