<?xml version="1.0" encoding="UTF-8"?>
<svg width="92px" height="106px" viewBox="0 0 92 106" version="1.1" xmlns="http://www.w3.org/2000/svg" xmlns:xlink="http://www.w3.org/1999/xlink">
    <title>PARTICLES_01</title>
    <g id="Page-1" stroke="none" stroke-width="1" fill="none" fill-rule="evenodd">
        <g id="1.0-Home---Usuario" transform="translate(-1215.000000, -366.000000)">
            <g id="PARTICLES_01" transform="translate(1215.000000, 366.000000)">
                <polygon id="Fill-28" fill="#321371" transform="translate(50.892353, 48.900640) rotate(133.000000) translate(-50.892353, -48.900640) " points="54.9631166 52.9822791 45.9990246 51.9451086 46.8215903 44.8190008 55.7856823 45.8557722"></polygon>
                <polygon id="Fill-30" fill="#E5E7EB" transform="translate(6.103259, 54.689441) rotate(133.000000) translate(-6.103259, -54.689441) " points="10.2065182 55.8413425 4.0534238 58.4288815 2 53.537938 8.15269567 50.95"></polygon>
                <polygon id="Fill-30" fill="#E5E7EB" transform="translate(85.853259, 65.689441) rotate(209.000000) translate(-85.853259, -65.689441) " points="89.9565182 66.8413425 83.8034238 69.4288815 81.75 64.537938 87.9026957 61.95"></polygon>
                <polygon id="Fill-30" fill="#DCD1F2" transform="translate(39.103259, 5.739441) rotate(72.000000) translate(-39.103259, -5.739441) " points="43.2065182 6.89134253 37.0534238 9.47888149 35 4.58793802 41.1526957 2"></polygon>
                <polygon id="Fill-36" fill="#72B8F8" transform="translate(54.167969, 96.167770) rotate(133.000000) translate(-54.167969, -96.167770) " points="58.1719456 102.649986 47.0459771 98.8640543 50.1639914 89.685554 61.28996 93.4714859"></polygon>
            </g>
        </g>
    </g>
</svg>