<svg width="50" height="50" viewBox="0 0 50 50" fill="none" xmlns="http://www.w3.org/2000/svg">
<path d="M44.4593 49.81H23.0566C20.1062 49.81 17.7059 47.4096 17.7059 44.4593V19.1652C17.7059 18.8495 17.8084 18.5422 17.9978 18.2896L26.7534 6.61539C27.0291 6.24794 27.4615 6.03168 27.9209 6.03168H39.5951C40.0545 6.03168 40.4869 6.24794 40.7625 6.61539L49.5182 18.2896C49.7076 18.5422 49.81 18.8495 49.81 19.1652V44.4593C49.81 47.4096 47.4097 49.81 44.4593 49.81Z" fill="url(#paint0_linear)"/>
<path d="M49.5181 18.2896L40.7625 6.61539C40.4869 6.24794 40.0544 6.03168 39.595 6.03168H33.7579V49.81H44.4593C47.4097 49.81 49.81 47.4096 49.81 44.4593V19.1652C49.81 18.8495 49.7075 18.5422 49.5181 18.2896Z" fill="url(#paint1_linear)"/>
<path d="M16.6986 43.0779L1.56459 27.9439C-0.521692 25.8576 -0.521692 22.4631 1.56459 20.3769L19.4503 2.4913C19.6735 2.26803 19.9631 2.12327 20.2757 2.07852L34.7219 0.0148132C35.1766 -0.0501732 35.6353 0.102759 35.9601 0.427594L44.215 8.68252C44.5399 9.00736 44.6927 9.46606 44.6278 9.92077L42.5641 24.3668C42.5195 24.6794 42.3746 24.9691 42.1513 25.1923L24.2657 43.0779C22.1794 45.1641 18.7848 45.1641 16.6986 43.0779Z" fill="url(#paint2_linear)"/>
<path d="M44.6278 9.92071C44.6928 9.466 44.5399 9.0073 44.215 8.68247L40.0876 4.55505L9.13171 35.5109L16.6987 43.0779C18.785 45.1642 22.1795 45.1642 24.2658 43.0779L42.1514 25.1922C42.3746 24.969 42.5195 24.6793 42.5641 24.3668L44.6278 9.92071Z" fill="url(#paint3_linear)"/>
<path d="M17.3872 34.1361C17.0087 33.7576 16.8533 33.1842 17.0342 32.6418L23.9133 12.0045C24.1681 11.24 24.9945 10.8267 25.7591 11.0816C26.524 11.3364 26.9368 12.1627 26.682 12.9274L19.8029 33.5646C19.5481 34.3292 18.7217 34.7425 17.9571 34.4876C17.7348 34.4136 17.5423 34.2912 17.3872 34.1361Z" fill="#DCDFFF"/>
<path fill-rule="evenodd" clip-rule="evenodd" d="M27.7038 19.6876C29.4115 17.9799 32.1901 17.9799 33.8978 19.6876C35.6056 21.3953 35.6056 24.1739 33.8978 25.8816C32.1901 27.5894 29.4115 27.5894 27.7038 25.8816C25.996 24.1739 25.996 21.3953 27.7038 19.6876ZM29.7685 23.817C30.3377 24.3862 31.2639 24.3862 31.8331 23.817C32.4025 23.2477 32.4024 22.3215 31.8331 21.7523C31.2639 21.1831 30.3377 21.1831 29.7685 21.7523C29.1992 22.3215 29.1992 23.2478 29.7685 23.817Z" fill="#72B8F8"/>
<path fill-rule="evenodd" clip-rule="evenodd" d="M9.81816 19.6876C11.5259 17.9799 14.3045 17.9799 16.0122 19.6876C17.7199 21.3953 17.7199 24.1739 16.0122 25.8816C14.3045 27.5894 11.5259 27.5894 9.81816 25.8816C8.11042 24.1739 8.11042 21.3953 9.81816 19.6876ZM11.8828 23.817C12.4521 24.3862 13.3783 24.3862 13.9475 23.817C14.5167 23.2477 14.5167 22.3215 13.9475 21.7523C13.3783 21.1831 12.4521 21.1831 11.8828 21.7523C11.3136 22.3215 11.3136 23.2478 11.8828 23.817Z" fill="#DCDFFF"/>
<path d="M19.8028 33.5646L24.1653 20.4772L19.5507 25.0918L17.0341 32.6417C16.8532 33.184 17.0086 33.7574 17.3871 34.136C17.5422 34.291 17.7347 34.4134 17.9569 34.4875C18.7216 34.7425 19.548 34.3292 19.8028 33.5646Z" fill="#72B8F8"/>
<path d="M44.215 0.427349C43.6452 -0.14245 42.7212 -0.14245 42.1513 0.427349L33.8965 8.68228L35.9602 10.746L44.215 2.49106C44.785 1.92126 44.785 0.997148 44.215 0.427349Z" fill="#00429B"/>
<path d="M44.215 2.49108C44.7849 1.92128 44.785 0.997264 44.215 0.427368L34.9282 9.7141L35.9601 10.746L44.215 2.49108Z" fill="#002659"/>
<path d="M36.9921 13.2372C36.6187 13.2372 36.2452 13.0947 35.9603 12.8097L31.8328 8.68222C31.2629 8.11242 31.2629 7.18841 31.8328 6.61851C32.4026 6.04871 33.3266 6.04871 33.8965 6.61851L38.024 10.746C38.5939 11.3158 38.5939 12.2398 38.024 12.8097C37.7391 13.0947 37.3656 13.2372 36.9921 13.2372Z" fill="#DCDFFF"/>
<path d="M38.024 10.746L35.9603 8.68231L33.8966 10.746L35.9603 12.8097C36.2453 13.0947 36.6187 13.2372 36.9921 13.2372C37.3656 13.2372 37.7391 13.0947 38.0239 12.8097C38.5939 12.2399 38.5939 11.3159 38.024 10.746Z" fill="#72B8F8"/>
<defs>
<linearGradient id="paint0_linear" x1="11.5628" y1="-12.921" x2="-55.3376" y2="15.6714" gradientUnits="userSpaceOnUse">
<stop stop-color="#105B91"/>
<stop offset="1" stop-color="#010027"/>
</linearGradient>
<linearGradient id="paint1_linear" x1="33.7579" y1="6.03168" x2="33.7579" y2="49.81" gradientUnits="userSpaceOnUse">
<stop stop-color="#ABCFFB"/>
<stop offset="1" stop-color="#72A2F6"/>
</linearGradient>
<linearGradient id="paint2_linear" x1="-0.00012207" y1="0.00012207" x2="-0.00012207" y2="44.6426" gradientUnits="userSpaceOnUse">
<stop stop-color="#ABCFFB"/>
<stop offset="1" stop-color="#72A2F6"/>
</linearGradient>
<linearGradient id="paint3_linear" x1="9.51666" y1="18.7005" x2="20.6211" y2="48.8955" gradientUnits="userSpaceOnUse">
<stop stop-color="#7288F6"/>
<stop offset="1" stop-color="#72B6F6"/>
</linearGradient>
</defs>
</svg>
