<svg width="50" height="59" viewBox="0 0 50 59" fill="none" xmlns="http://www.w3.org/2000/svg">
<path d="M47.2859 39.1015C45.7121 43.3668 43.332 47.0755 40.2107 50.1235C36.6579 53.5928 32.0057 56.3495 26.3832 58.316C26.1987 58.3803 26.0062 58.4331 25.8127 58.4719C25.5572 58.5224 25.2972 58.5496 25.0395 58.5532H24.989C24.7142 58.5532 24.4382 58.5255 24.1643 58.4719C23.9709 58.4331 23.781 58.3803 23.5974 58.3173C17.9682 56.354 13.3102 53.5986 9.75386 50.1293C6.63125 47.0813 4.25154 43.3748 2.67996 39.1095C-0.177743 31.3543 -0.0151347 22.8112 0.115756 15.9459L0.117989 15.8405C0.144346 15.2736 0.161322 14.6781 0.170703 14.0205C0.218503 10.792 2.78539 8.12105 6.01432 7.94102C12.7465 7.56532 17.9544 5.36967 22.4042 1.03241L22.4431 0.996674C23.182 0.318992 24.113 -0.013372 25.0395 0.0004765C25.9329 0.0120914 26.8228 0.344008 27.5353 0.996674L27.5733 1.03241C32.024 5.36967 37.2319 7.56532 43.9641 7.94102C47.193 8.12105 49.7599 10.792 49.8077 14.0205C49.8171 14.6826 49.8341 15.2771 49.8604 15.8405L49.8618 15.8851C49.9922 22.7634 50.1539 31.3235 47.2859 39.1015Z" fill="url(#paint0_linear)"/>
<path d="M47.2859 39.1014C45.7121 43.3667 43.3319 47.0755 40.2107 50.1235C36.6579 53.5927 32.0057 56.3495 26.3832 58.316C26.1987 58.3803 26.0061 58.433 25.8127 58.4719C25.5572 58.5223 25.2972 58.5496 25.0394 58.5532V0.000427246C25.9329 0.0120421 26.8228 0.343959 27.5353 0.996625L27.5733 1.03236C32.024 5.36962 37.2319 7.56528 43.9641 7.94097C47.193 8.121 49.7599 10.792 49.8077 14.0205C49.8171 14.6825 49.834 15.2771 49.8604 15.8404L49.8617 15.8851C49.9922 22.7633 50.1539 31.3235 47.2859 39.1014Z" fill="url(#paint1_linear)"/>
<path d="M39.5808 29.2766C39.5808 37.3056 33.0617 43.8412 25.0394 43.8697H24.9881C16.9421 43.8697 10.3949 37.323 10.3949 29.2766C10.3949 21.2306 16.9421 14.6838 24.9881 14.6838H25.0394C33.0617 14.7124 39.5808 21.248 39.5808 29.2766Z" fill="white"/>
<path d="M39.5808 29.2766C39.5808 37.3056 33.0617 43.8412 25.0394 43.8697V14.6838C33.0617 14.7124 39.5808 21.248 39.5808 29.2766Z" fill="#E1EBF0"/>
<path d="M31.6117 27.1752L25.0395 33.7483L23.6193 35.1684C23.2838 35.5039 22.8438 35.6714 22.4042 35.6714C21.9642 35.6714 21.5246 35.5039 21.1887 35.1684L18.1353 32.1137C17.4643 31.4427 17.4643 30.3559 18.1353 29.6844C18.8054 29.0134 19.8936 29.0134 20.5646 29.6844L22.4042 31.524L29.1824 24.7459C29.8534 24.0745 30.9416 24.0745 31.6117 24.7459C32.2827 25.4169 32.2827 26.5051 31.6117 27.1752Z" fill="url(#paint2_linear)"/>
<path d="M31.6117 27.1752L25.0394 33.7483V28.8884L29.1824 24.7459C29.8533 24.0745 30.9416 24.0745 31.6117 24.7459C32.2826 25.4169 32.2826 26.5051 31.6117 27.1752Z" fill="url(#paint3_linear)"/>
<defs>
<linearGradient id="paint0_linear" x1="0.057251" y1="6.10352e-05" x2="0.057251" y2="58.5532" gradientUnits="userSpaceOnUse">
<stop stop-color="#ABCFFB"/>
<stop offset="1" stop-color="#72A2F6"/>
</linearGradient>
<linearGradient id="paint1_linear" x1="30.7426" y1="20.9483" x2="44.04" y2="28.2111" gradientUnits="userSpaceOnUse">
<stop stop-color="#7288F6"/>
<stop offset="1" stop-color="#72B6F6"/>
</linearGradient>
<linearGradient id="paint2_linear" x1="17.6321" y1="24.2423" x2="17.6321" y2="35.6714" gradientUnits="userSpaceOnUse">
<stop stop-color="#ABCFFB"/>
<stop offset="1" stop-color="#72A2F6"/>
</linearGradient>
<linearGradient id="paint3_linear" x1="25.0394" y1="24.2423" x2="25.0394" y2="33.7483" gradientUnits="userSpaceOnUse">
<stop stop-color="#ABCFFB"/>
<stop offset="1" stop-color="#72A2F6"/>
</linearGradient>
</defs>
</svg>
