<?xml version="1.0" encoding="UTF-8"?>
<svg width="88px" height="5px" viewBox="0 0 88 5" version="1.1" xmlns="http://www.w3.org/2000/svg" xmlns:xlink="http://www.w3.org/1999/xlink">
    <title>Fill 1</title>
    <g id="Page-1" stroke="none" stroke-width="1" fill="none" fill-rule="evenodd">
        <g id="1.0-Home---Usuario" transform="translate(-316.000000, -1176.000000)" fill="#321371">
            <g id="Group-4" transform="translate(180.000000, 1003.000000)">
                <g id="01.-Perfil" transform="translate(0.000000, 132.000000)">
                    <path d="M137.259644,41 C139.973422,41 141.367344,42.0810583 142.487167,42.9496124 C143.611274,43.8213684 144.319698,44.3147961 145.807337,44.3147961 C147.294221,44.3147961 148.002645,43.8215369 149.126248,42.9496124 C150.246071,42.0810583 151.639742,41 154.353267,41 C157.067045,41 158.460715,42.0810583 159.58079,42.9496124 C160.704645,43.8213684 161.412817,44.3147961 162.900205,44.3147961 C164.387593,44.3147961 165.095764,43.8213684 166.219871,42.9496124 C167.339695,42.0810583 168.733617,41 171.447394,41 C174.161423,41 175.555346,42.0808898 176.675169,42.9496124 C177.799528,43.8213684 178.5077,44.3147961 179.995591,44.3147961 C181.483231,44.3147961 182.191655,43.8213684 183.315761,42.9496124 C184.435837,42.0810583 185.829759,41 188.543788,41 C191.25807,41 192.65174,42.0810583 193.771815,42.9496124 C194.895922,43.8213684 195.604598,44.3147961 197.091986,44.3147961 C198.579625,44.3147961 199.288301,43.8213684 200.412659,42.9496124 C201.532483,42.0808898 202.926405,41 205.640687,41 C208.35522,41 209.749142,42.0808898 210.869469,42.9494439 C211.993576,43.8213684 212.702504,44.3147961 214.190395,44.3147961 C215.678539,44.3147961 216.387215,43.8213684 217.511573,42.9494439 C218.6319,42.0808898 220.025823,41 222.740356,41 C223.435931,41 224,41.3771486 224,41.842602 C224,42.3078868 223.435931,42.6852039 222.740356,42.6852039 C221.252212,42.6852039 220.543536,43.1784631 219.419178,44.0503876 C218.299103,44.9189417 216.90518,46 214.190395,46 C211.476114,46 210.082192,44.9189417 208.961612,44.0503876 C207.837254,43.1784631 207.12883,42.6852039 205.640687,42.6852039 C204.152795,42.6852039 203.444371,43.1784631 202.320265,44.0503876 C201.200189,44.9189417 199.806267,46 197.091986,46 C194.378208,46 192.984034,44.9189417 191.86421,44.0503876 C190.739852,43.1784631 190.03168,42.6852039 188.543788,42.6852039 C187.056149,42.6852039 186.347725,43.1784631 185.223618,44.0503876 C184.103291,44.9189417 182.709621,46 179.995591,46 C177.28131,46 175.88764,44.9189417 174.767564,44.0503876 C173.643458,43.1784631 172.934782,42.6852039 171.447394,42.6852039 C169.960006,42.6852039 169.251582,43.1784631 168.127728,44.0503876 C167.007904,44.9189417 165.613982,46 162.900205,46 C160.186427,46 158.792757,44.9189417 157.672681,44.0502191 C156.548575,43.1784631 155.840403,42.6852039 154.353267,42.6852039 C152.866131,42.6852039 152.157959,43.1784631 151.034105,44.0502191 C149.914281,44.9189417 148.520611,46 145.807337,46 C143.093056,46 141.699386,44.9189417 140.579562,44.0503876 C139.455456,43.1784631 138.747032,42.6852039 137.259644,42.6852039 C136.564069,42.6852039 136,42.3078868 136,41.842602 C136,41.3771486 136.564069,41 137.259644,41" id="Fill-1"></path>
                </g>
            </g>
        </g>
    </g>
</svg>