<?xml version="1.0" encoding="UTF-8"?>
<svg width="241px" height="150px" viewBox="0 0 241 150" version="1.1" xmlns="http://www.w3.org/2000/svg" xmlns:xlink="http://www.w3.org/1999/xlink">
    <title>dot</title>
    <g id="Page-1" stroke="none" stroke-width="1" fill="none" fill-rule="evenodd" opacity="0.2">
        <g id="1.0-Home---Cliente" transform="translate(69.000000, -591.000000)" fill-rule="nonzero">
            <g id="dot" transform="translate(-68.500000, 591.000000)">
                <circle id="Oval" fill="#FFFFFF" transform="translate(2.093020, 147.768000) rotate(-90.000000) translate(-2.093020, -147.768000) " cx="2.09302" cy="147.768" r="2.09302"></circle>
                <circle id="Oval" fill="#72B8F8" transform="translate(20.232500, 147.768000) rotate(-90.000000) translate(-20.232500, -147.768000) " cx="20.2325" cy="147.768" r="2.09302"></circle>
                <circle id="Oval" fill="#72B8F8" transform="translate(38.372100, 147.768000) rotate(-90.000000) translate(-38.372100, -147.768000) " cx="38.3721" cy="147.768" r="2.09302"></circle>
                <circle id="Oval" fill="#72B8F8" transform="translate(56.511600, 147.768000) rotate(-90.000000) translate(-56.511600, -147.768000) " cx="56.5116" cy="147.768" r="2.09302"></circle>
                <circle id="Oval" fill="#72B8F8" transform="translate(74.651100, 147.768000) rotate(-90.000000) translate(-74.651100, -147.768000) " cx="74.6511" cy="147.768" r="2.09302"></circle>
                <circle id="Oval" fill="#72B8F8" transform="translate(92.790700, 147.768000) rotate(-90.000000) translate(-92.790700, -147.768000) " cx="92.7907" cy="147.768" r="2.09302"></circle>
                <circle id="Oval" fill="#72B8F8" transform="translate(110.930000, 147.768000) rotate(-90.000000) translate(-110.930000, -147.768000) " cx="110.93" cy="147.768" r="2.09302"></circle>
                <circle id="Oval" fill="#72B8F8" transform="translate(129.070000, 147.768000) rotate(-90.000000) translate(-129.070000, -147.768000) " cx="129.07" cy="147.768" r="2.09302"></circle>
                <circle id="Oval" fill="#72B8F8" transform="translate(147.209000, 147.768000) rotate(-90.000000) translate(-147.209000, -147.768000) " cx="147.209" cy="147.768" r="2.09302"></circle>
                <circle id="Oval" fill="#72B8F8" transform="translate(165.349000, 147.768000) rotate(-90.000000) translate(-165.349000, -147.768000) " cx="165.349" cy="147.768" r="2.09302"></circle>
                <circle id="Oval" fill="#72B8F8" transform="translate(183.488000, 147.768000) rotate(-90.000000) translate(-183.488000, -147.768000) " cx="183.488" cy="147.768" r="2.09302"></circle>
                <circle id="Oval" fill="#72B8F8" transform="translate(201.628000, 147.768000) rotate(-90.000000) translate(-201.628000, -147.768000) " cx="201.628" cy="147.768" r="2.09302"></circle>
                <circle id="Oval" fill="#72B8F8" transform="translate(219.767000, 147.768000) rotate(-90.000000) translate(-219.767000, -147.768000) " cx="219.767" cy="147.768" r="2.09302"></circle>
                <circle id="Oval" fill="#72B8F8" transform="translate(237.907000, 147.768000) rotate(-90.000000) translate(-237.907000, -147.768000) " cx="237.907" cy="147.768" r="2.09302"></circle>
                <circle id="Oval" fill="#FFFFFF" transform="translate(2.093020, 129.628000) rotate(-90.000000) translate(-2.093020, -129.628000) " cx="2.09302" cy="129.628" r="2.09302"></circle>
                <circle id="Oval" fill="#72B8F8" transform="translate(20.232500, 129.628000) rotate(-90.000000) translate(-20.232500, -129.628000) " cx="20.2325" cy="129.628" r="2.09302"></circle>
                <circle id="Oval" fill="#72B8F8" transform="translate(38.372100, 129.628000) rotate(-90.000000) translate(-38.372100, -129.628000) " cx="38.3721" cy="129.628" r="2.09302"></circle>
                <circle id="Oval" fill="#72B8F8" transform="translate(56.511600, 129.628000) rotate(-90.000000) translate(-56.511600, -129.628000) " cx="56.5116" cy="129.628" r="2.09302"></circle>
                <circle id="Oval" fill="#72B8F8" transform="translate(74.651100, 129.628000) rotate(-90.000000) translate(-74.651100, -129.628000) " cx="74.6511" cy="129.628" r="2.09302"></circle>
                <circle id="Oval" fill="#72B8F8" transform="translate(92.790700, 129.628000) rotate(-90.000000) translate(-92.790700, -129.628000) " cx="92.7907" cy="129.628" r="2.09302"></circle>
                <circle id="Oval" fill="#72B8F8" transform="translate(110.930000, 129.628000) rotate(-90.000000) translate(-110.930000, -129.628000) " cx="110.93" cy="129.628" r="2.09302"></circle>
                <circle id="Oval" fill="#72B8F8" transform="translate(129.070000, 129.628000) rotate(-90.000000) translate(-129.070000, -129.628000) " cx="129.07" cy="129.628" r="2.09302"></circle>
                <circle id="Oval" fill="#72B8F8" transform="translate(147.209000, 129.628000) rotate(-90.000000) translate(-147.209000, -129.628000) " cx="147.209" cy="129.628" r="2.09302"></circle>
                <circle id="Oval" fill="#72B8F8" transform="translate(165.349000, 129.628000) rotate(-90.000000) translate(-165.349000, -129.628000) " cx="165.349" cy="129.628" r="2.09302"></circle>
                <circle id="Oval" fill="#72B8F8" transform="translate(183.488000, 129.628000) rotate(-90.000000) translate(-183.488000, -129.628000) " cx="183.488" cy="129.628" r="2.09302"></circle>
                <circle id="Oval" fill="#72B8F8" transform="translate(201.628000, 129.628000) rotate(-90.000000) translate(-201.628000, -129.628000) " cx="201.628" cy="129.628" r="2.09302"></circle>
                <circle id="Oval" fill="#72B8F8" transform="translate(219.767000, 129.628000) rotate(-90.000000) translate(-219.767000, -129.628000) " cx="219.767" cy="129.628" r="2.09302"></circle>
                <circle id="Oval" fill="#72B8F8" transform="translate(237.907000, 129.628000) rotate(-90.000000) translate(-237.907000, -129.628000) " cx="237.907" cy="129.628" r="2.09302"></circle>
                <circle id="Oval" fill="#FFFFFF" transform="translate(2.093020, 111.488000) rotate(-90.000000) translate(-2.093020, -111.488000) " cx="2.09302" cy="111.488" r="2.09302"></circle>
                <circle id="Oval" fill="#72B8F8" transform="translate(20.232500, 111.488000) rotate(-90.000000) translate(-20.232500, -111.488000) " cx="20.2325" cy="111.488" r="2.09302"></circle>
                <circle id="Oval" fill="#72B8F8" transform="translate(38.372100, 111.488000) rotate(-90.000000) translate(-38.372100, -111.488000) " cx="38.3721" cy="111.488" r="2.09302"></circle>
                <circle id="Oval" fill="#72B8F8" transform="translate(56.511600, 111.488000) rotate(-90.000000) translate(-56.511600, -111.488000) " cx="56.5116" cy="111.488" r="2.09302"></circle>
                <circle id="Oval" fill="#72B8F8" transform="translate(74.651100, 111.488000) rotate(-90.000000) translate(-74.651100, -111.488000) " cx="74.6511" cy="111.488" r="2.09302"></circle>
                <circle id="Oval" fill="#72B8F8" transform="translate(92.790700, 111.488000) rotate(-90.000000) translate(-92.790700, -111.488000) " cx="92.7907" cy="111.488" r="2.09302"></circle>
                <circle id="Oval" fill="#72B8F8" transform="translate(110.930000, 111.488000) rotate(-90.000000) translate(-110.930000, -111.488000) " cx="110.93" cy="111.488" r="2.09302"></circle>
                <circle id="Oval" fill="#72B8F8" transform="translate(129.070000, 111.488000) rotate(-90.000000) translate(-129.070000, -111.488000) " cx="129.07" cy="111.488" r="2.09302"></circle>
                <circle id="Oval" fill="#72B8F8" transform="translate(147.209000, 111.488000) rotate(-90.000000) translate(-147.209000, -111.488000) " cx="147.209" cy="111.488" r="2.09302"></circle>
                <circle id="Oval" fill="#72B8F8" transform="translate(165.349000, 111.488000) rotate(-90.000000) translate(-165.349000, -111.488000) " cx="165.349" cy="111.488" r="2.09302"></circle>
                <circle id="Oval" fill="#72B8F8" transform="translate(183.488000, 111.488000) rotate(-90.000000) translate(-183.488000, -111.488000) " cx="183.488" cy="111.488" r="2.09302"></circle>
                <circle id="Oval" fill="#72B8F8" transform="translate(201.628000, 111.488000) rotate(-90.000000) translate(-201.628000, -111.488000) " cx="201.628" cy="111.488" r="2.09302"></circle>
                <circle id="Oval" fill="#72B8F8" transform="translate(219.767000, 111.488000) rotate(-90.000000) translate(-219.767000, -111.488000) " cx="219.767" cy="111.488" r="2.09302"></circle>
                <circle id="Oval" fill="#72B8F8" transform="translate(237.907000, 111.488000) rotate(-90.000000) translate(-237.907000, -111.488000) " cx="237.907" cy="111.488" r="2.09302"></circle>
                <circle id="Oval" fill="#FFFFFF" transform="translate(2.093020, 93.349000) rotate(-90.000000) translate(-2.093020, -93.349000) " cx="2.09302" cy="93.349" r="2.09302"></circle>
                <circle id="Oval" fill="#72B8F8" transform="translate(20.232500, 93.349000) rotate(-90.000000) translate(-20.232500, -93.349000) " cx="20.2325" cy="93.349" r="2.09302"></circle>
                <circle id="Oval" fill="#72B8F8" transform="translate(38.372100, 93.349000) rotate(-90.000000) translate(-38.372100, -93.349000) " cx="38.3721" cy="93.349" r="2.09302"></circle>
                <circle id="Oval" fill="#72B8F8" transform="translate(56.511600, 93.349000) rotate(-90.000000) translate(-56.511600, -93.349000) " cx="56.5116" cy="93.349" r="2.09302"></circle>
                <circle id="Oval" fill="#72B8F8" transform="translate(74.651100, 93.349000) rotate(-90.000000) translate(-74.651100, -93.349000) " cx="74.6511" cy="93.349" r="2.09302"></circle>
                <circle id="Oval" fill="#72B8F8" transform="translate(92.790700, 93.349000) rotate(-90.000000) translate(-92.790700, -93.349000) " cx="92.7907" cy="93.349" r="2.09302"></circle>
                <circle id="Oval" fill="#72B8F8" transform="translate(110.930000, 93.349000) rotate(-90.000000) translate(-110.930000, -93.349000) " cx="110.93" cy="93.349" r="2.09302"></circle>
                <circle id="Oval" fill="#72B8F8" transform="translate(129.070000, 93.349000) rotate(-90.000000) translate(-129.070000, -93.349000) " cx="129.07" cy="93.349" r="2.09302"></circle>
                <circle id="Oval" fill="#72B8F8" transform="translate(147.209000, 93.349000) rotate(-90.000000) translate(-147.209000, -93.349000) " cx="147.209" cy="93.349" r="2.09302"></circle>
                <circle id="Oval" fill="#72B8F8" transform="translate(165.349000, 93.349000) rotate(-90.000000) translate(-165.349000, -93.349000) " cx="165.349" cy="93.349" r="2.09302"></circle>
                <circle id="Oval" fill="#72B8F8" transform="translate(183.488000, 93.349000) rotate(-90.000000) translate(-183.488000, -93.349000) " cx="183.488" cy="93.349" r="2.09302"></circle>
                <circle id="Oval" fill="#72B8F8" transform="translate(201.628000, 93.349000) rotate(-90.000000) translate(-201.628000, -93.349000) " cx="201.628" cy="93.349" r="2.09302"></circle>
                <circle id="Oval" fill="#72B8F8" transform="translate(219.767000, 93.349000) rotate(-90.000000) translate(-219.767000, -93.349000) " cx="219.767" cy="93.349" r="2.09302"></circle>
                <circle id="Oval" fill="#72B8F8" transform="translate(237.907000, 93.349000) rotate(-90.000000) translate(-237.907000, -93.349000) " cx="237.907" cy="93.349" r="2.09302"></circle>
                <circle id="Oval" fill="#FFFFFF" transform="translate(2.093020, 75.209000) rotate(-90.000000) translate(-2.093020, -75.209000) " cx="2.09302" cy="75.209" r="2.09302"></circle>
                <circle id="Oval" fill="#72B8F8" transform="translate(20.232500, 75.209000) rotate(-90.000000) translate(-20.232500, -75.209000) " cx="20.2325" cy="75.209" r="2.09302"></circle>
                <circle id="Oval" fill="#72B8F8" transform="translate(38.372100, 75.209000) rotate(-90.000000) translate(-38.372100, -75.209000) " cx="38.3721" cy="75.209" r="2.09302"></circle>
                <circle id="Oval" fill="#72B8F8" transform="translate(56.511600, 75.209000) rotate(-90.000000) translate(-56.511600, -75.209000) " cx="56.5116" cy="75.209" r="2.09302"></circle>
                <circle id="Oval" fill="#72B8F8" transform="translate(74.651100, 75.209000) rotate(-90.000000) translate(-74.651100, -75.209000) " cx="74.6511" cy="75.209" r="2.09302"></circle>
                <circle id="Oval" fill="#72B8F8" transform="translate(92.790700, 75.209000) rotate(-90.000000) translate(-92.790700, -75.209000) " cx="92.7907" cy="75.209" r="2.09302"></circle>
                <circle id="Oval" fill="#72B8F8" transform="translate(110.930000, 75.209000) rotate(-90.000000) translate(-110.930000, -75.209000) " cx="110.93" cy="75.209" r="2.09302"></circle>
                <circle id="Oval" fill="#72B8F8" transform="translate(129.070000, 75.209000) rotate(-90.000000) translate(-129.070000, -75.209000) " cx="129.07" cy="75.209" r="2.09302"></circle>
                <circle id="Oval" fill="#72B8F8" transform="translate(147.209000, 75.209000) rotate(-90.000000) translate(-147.209000, -75.209000) " cx="147.209" cy="75.209" r="2.09302"></circle>
                <circle id="Oval" fill="#72B8F8" transform="translate(165.349000, 75.209000) rotate(-90.000000) translate(-165.349000, -75.209000) " cx="165.349" cy="75.209" r="2.09302"></circle>
                <circle id="Oval" fill="#72B8F8" transform="translate(183.488000, 75.209000) rotate(-90.000000) translate(-183.488000, -75.209000) " cx="183.488" cy="75.209" r="2.09302"></circle>
                <circle id="Oval" fill="#72B8F8" transform="translate(201.628000, 75.209000) rotate(-90.000000) translate(-201.628000, -75.209000) " cx="201.628" cy="75.209" r="2.09302"></circle>
                <circle id="Oval" fill="#72B8F8" transform="translate(219.767000, 75.209000) rotate(-90.000000) translate(-219.767000, -75.209000) " cx="219.767" cy="75.209" r="2.09302"></circle>
                <circle id="Oval" fill="#72B8F8" transform="translate(237.907000, 75.209000) rotate(-90.000000) translate(-237.907000, -75.209000) " cx="237.907" cy="75.209" r="2.09302"></circle>
                <circle id="Oval" fill="#FFFFFF" transform="translate(2.093020, 57.070000) rotate(-90.000000) translate(-2.093020, -57.070000) " cx="2.09302" cy="57.07" r="2.09302"></circle>
                <circle id="Oval" fill="#72B8F8" transform="translate(20.232500, 57.070000) rotate(-90.000000) translate(-20.232500, -57.070000) " cx="20.2325" cy="57.07" r="2.09302"></circle>
                <circle id="Oval" fill="#72B8F8" transform="translate(38.372100, 57.070000) rotate(-90.000000) translate(-38.372100, -57.070000) " cx="38.3721" cy="57.07" r="2.09302"></circle>
                <circle id="Oval" fill="#72B8F8" transform="translate(56.511600, 57.070000) rotate(-90.000000) translate(-56.511600, -57.070000) " cx="56.5116" cy="57.07" r="2.09302"></circle>
                <circle id="Oval" fill="#72B8F8" transform="translate(74.651100, 57.070000) rotate(-90.000000) translate(-74.651100, -57.070000) " cx="74.6511" cy="57.07" r="2.09302"></circle>
                <circle id="Oval" fill="#72B8F8" transform="translate(92.790700, 57.070000) rotate(-90.000000) translate(-92.790700, -57.070000) " cx="92.7907" cy="57.07" r="2.09302"></circle>
                <circle id="Oval" fill="#72B8F8" transform="translate(110.930000, 57.070000) rotate(-90.000000) translate(-110.930000, -57.070000) " cx="110.93" cy="57.07" r="2.09302"></circle>
                <circle id="Oval" fill="#72B8F8" transform="translate(129.070000, 57.070000) rotate(-90.000000) translate(-129.070000, -57.070000) " cx="129.07" cy="57.07" r="2.09302"></circle>
                <circle id="Oval" fill="#72B8F8" transform="translate(147.209000, 57.070000) rotate(-90.000000) translate(-147.209000, -57.070000) " cx="147.209" cy="57.07" r="2.09302"></circle>
                <circle id="Oval" fill="#72B8F8" transform="translate(165.349000, 57.070000) rotate(-90.000000) translate(-165.349000, -57.070000) " cx="165.349" cy="57.07" r="2.09302"></circle>
                <circle id="Oval" fill="#72B8F8" transform="translate(183.488000, 57.070000) rotate(-90.000000) translate(-183.488000, -57.070000) " cx="183.488" cy="57.07" r="2.09302"></circle>
                <circle id="Oval" fill="#72B8F8" transform="translate(201.628000, 57.070000) rotate(-90.000000) translate(-201.628000, -57.070000) " cx="201.628" cy="57.07" r="2.09302"></circle>
                <circle id="Oval" fill="#72B8F8" transform="translate(219.767000, 57.070000) rotate(-90.000000) translate(-219.767000, -57.070000) " cx="219.767" cy="57.07" r="2.09302"></circle>
                <circle id="Oval" fill="#72B8F8" transform="translate(237.907000, 57.070000) rotate(-90.000000) translate(-237.907000, -57.070000) " cx="237.907" cy="57.07" r="2.09302"></circle>
                <circle id="Oval" fill="#FFFFFF" transform="translate(2.093020, 38.930000) rotate(-90.000000) translate(-2.093020, -38.930000) " cx="2.09302" cy="38.93" r="2.09302"></circle>
                <circle id="Oval" fill="#72B8F8" transform="translate(20.232500, 38.930000) rotate(-90.000000) translate(-20.232500, -38.930000) " cx="20.2325" cy="38.93" r="2.09302"></circle>
                <circle id="Oval" fill="#72B8F8" transform="translate(38.372100, 38.930000) rotate(-90.000000) translate(-38.372100, -38.930000) " cx="38.3721" cy="38.93" r="2.09302"></circle>
                <circle id="Oval" fill="#72B8F8" transform="translate(56.511600, 38.930000) rotate(-90.000000) translate(-56.511600, -38.930000) " cx="56.5116" cy="38.93" r="2.09302"></circle>
                <circle id="Oval" fill="#72B8F8" transform="translate(74.651100, 38.930000) rotate(-90.000000) translate(-74.651100, -38.930000) " cx="74.6511" cy="38.93" r="2.09302"></circle>
                <circle id="Oval" fill="#72B8F8" transform="translate(92.790700, 38.930000) rotate(-90.000000) translate(-92.790700, -38.930000) " cx="92.7907" cy="38.93" r="2.09302"></circle>
                <circle id="Oval" fill="#72B8F8" transform="translate(110.930000, 38.930000) rotate(-90.000000) translate(-110.930000, -38.930000) " cx="110.93" cy="38.93" r="2.09302"></circle>
                <circle id="Oval" fill="#72B8F8" transform="translate(129.070000, 38.930000) rotate(-90.000000) translate(-129.070000, -38.930000) " cx="129.07" cy="38.93" r="2.09302"></circle>
                <circle id="Oval" fill="#72B8F8" transform="translate(147.209000, 38.930000) rotate(-90.000000) translate(-147.209000, -38.930000) " cx="147.209" cy="38.93" r="2.09302"></circle>
                <circle id="Oval" fill="#72B8F8" transform="translate(165.349000, 38.930000) rotate(-90.000000) translate(-165.349000, -38.930000) " cx="165.349" cy="38.93" r="2.09302"></circle>
                <circle id="Oval" fill="#72B8F8" transform="translate(183.488000, 38.930000) rotate(-90.000000) translate(-183.488000, -38.930000) " cx="183.488" cy="38.93" r="2.09302"></circle>
                <circle id="Oval" fill="#72B8F8" transform="translate(201.628000, 38.930000) rotate(-90.000000) translate(-201.628000, -38.930000) " cx="201.628" cy="38.93" r="2.09302"></circle>
                <circle id="Oval" fill="#72B8F8" transform="translate(219.767000, 38.930000) rotate(-90.000000) translate(-219.767000, -38.930000) " cx="219.767" cy="38.93" r="2.09302"></circle>
                <circle id="Oval" fill="#72B8F8" transform="translate(237.907000, 38.930000) rotate(-90.000000) translate(-237.907000, -38.930000) " cx="237.907" cy="38.93" r="2.09302"></circle>
                <circle id="Oval" fill="#FFFFFF" transform="translate(2.093020, 20.791000) rotate(-90.000000) translate(-2.093020, -20.791000) " cx="2.09302" cy="20.791" r="2.09302"></circle>
                <circle id="Oval" fill="#72B8F8" transform="translate(20.232500, 20.791000) rotate(-90.000000) translate(-20.232500, -20.791000) " cx="20.2325" cy="20.791" r="2.09302"></circle>
                <circle id="Oval" fill="#72B8F8" transform="translate(38.372100, 20.791000) rotate(-90.000000) translate(-38.372100, -20.791000) " cx="38.3721" cy="20.791" r="2.09302"></circle>
                <circle id="Oval" fill="#72B8F8" transform="translate(56.511600, 20.791000) rotate(-90.000000) translate(-56.511600, -20.791000) " cx="56.5116" cy="20.791" r="2.09302"></circle>
                <circle id="Oval" fill="#72B8F8" transform="translate(74.651100, 20.791000) rotate(-90.000000) translate(-74.651100, -20.791000) " cx="74.6511" cy="20.791" r="2.09302"></circle>
                <circle id="Oval" fill="#72B8F8" transform="translate(92.790700, 20.791000) rotate(-90.000000) translate(-92.790700, -20.791000) " cx="92.7907" cy="20.791" r="2.09302"></circle>
                <circle id="Oval" fill="#72B8F8" transform="translate(110.930000, 20.791000) rotate(-90.000000) translate(-110.930000, -20.791000) " cx="110.93" cy="20.791" r="2.09302"></circle>
                <circle id="Oval" fill="#72B8F8" transform="translate(129.070000, 20.791000) rotate(-90.000000) translate(-129.070000, -20.791000) " cx="129.07" cy="20.791" r="2.09302"></circle>
                <circle id="Oval" fill="#72B8F8" transform="translate(147.209000, 20.791000) rotate(-90.000000) translate(-147.209000, -20.791000) " cx="147.209" cy="20.791" r="2.09302"></circle>
                <circle id="Oval" fill="#72B8F8" transform="translate(165.349000, 20.791000) rotate(-90.000000) translate(-165.349000, -20.791000) " cx="165.349" cy="20.791" r="2.09302"></circle>
                <circle id="Oval" fill="#72B8F8" transform="translate(183.488000, 20.791000) rotate(-90.000000) translate(-183.488000, -20.791000) " cx="183.488" cy="20.791" r="2.09302"></circle>
                <circle id="Oval" fill="#72B8F8" transform="translate(201.628000, 20.791000) rotate(-90.000000) translate(-201.628000, -20.791000) " cx="201.628" cy="20.791" r="2.09302"></circle>
                <circle id="Oval" fill="#72B8F8" transform="translate(219.767000, 20.791000) rotate(-90.000000) translate(-219.767000, -20.791000) " cx="219.767" cy="20.791" r="2.09302"></circle>
                <circle id="Oval" fill="#72B8F8" transform="translate(237.907000, 20.791000) rotate(-90.000000) translate(-237.907000, -20.791000) " cx="237.907" cy="20.791" r="2.09302"></circle>
                <circle id="Oval" fill="#FFFFFF" transform="translate(2.093020, 2.651000) rotate(-90.000000) translate(-2.093020, -2.651000) " cx="2.09302" cy="2.651" r="2.09302"></circle>
                <circle id="Oval" fill="#72B8F8" transform="translate(20.232500, 2.651000) rotate(-90.000000) translate(-20.232500, -2.651000) " cx="20.2325" cy="2.651" r="2.09302"></circle>
                <circle id="Oval" fill="#72B8F8" transform="translate(38.372100, 2.651000) rotate(-90.000000) translate(-38.372100, -2.651000) " cx="38.3721" cy="2.651" r="2.09302"></circle>
                <circle id="Oval" fill="#72B8F8" transform="translate(56.511600, 2.651000) rotate(-90.000000) translate(-56.511600, -2.651000) " cx="56.5116" cy="2.651" r="2.09302"></circle>
                <circle id="Oval" fill="#72B8F8" transform="translate(74.651100, 2.651000) rotate(-90.000000) translate(-74.651100, -2.651000) " cx="74.6511" cy="2.651" r="2.09302"></circle>
                <circle id="Oval" fill="#72B8F8" transform="translate(92.790700, 2.651000) rotate(-90.000000) translate(-92.790700, -2.651000) " cx="92.7907" cy="2.651" r="2.09302"></circle>
                <circle id="Oval" fill="#72B8F8" transform="translate(110.930000, 2.651000) rotate(-90.000000) translate(-110.930000, -2.651000) " cx="110.93" cy="2.651" r="2.09302"></circle>
                <circle id="Oval" fill="#72B8F8" transform="translate(129.070000, 2.651000) rotate(-90.000000) translate(-129.070000, -2.651000) " cx="129.07" cy="2.651" r="2.09302"></circle>
                <circle id="Oval" fill="#72B8F8" transform="translate(147.209000, 2.651000) rotate(-90.000000) translate(-147.209000, -2.651000) " cx="147.209" cy="2.651" r="2.09302"></circle>
                <circle id="Oval" fill="#72B8F8" transform="translate(165.349000, 2.651000) rotate(-90.000000) translate(-165.349000, -2.651000) " cx="165.349" cy="2.651" r="2.09302"></circle>
                <circle id="Oval" fill="#72B8F8" transform="translate(183.488000, 2.651000) rotate(-90.000000) translate(-183.488000, -2.651000) " cx="183.488" cy="2.651" r="2.09302"></circle>
                <circle id="Oval" fill="#72B8F8" transform="translate(201.628000, 2.651000) rotate(-90.000000) translate(-201.628000, -2.651000) " cx="201.628" cy="2.651" r="2.09302"></circle>
                <circle id="Oval" fill="#72B8F8" transform="translate(219.767000, 2.651000) rotate(-90.000000) translate(-219.767000, -2.651000) " cx="219.767" cy="2.651" r="2.09302"></circle>
                <circle id="Oval" fill="#72B8F8" transform="translate(237.907000, 2.651000) rotate(-90.000000) translate(-237.907000, -2.651000) " cx="237.907" cy="2.651" r="2.09302"></circle>
            </g>
        </g>
    </g>
</svg>