<?xml version="1.0" encoding="UTF-8"?>
<svg width="12px" height="16px" viewBox="0 0 12 16" version="1.1" xmlns="http://www.w3.org/2000/svg" xmlns:xlink="http://www.w3.org/1999/xlink">
    <title>location-pin</title>
    <defs>
        <linearGradient x1="78.125%" y1="-3.61529051%" x2="-33.3700037%" y2="173.530529%" id="linearGradient-1">
            <stop stop-color="#592589" offset="0%"></stop>
            <stop stop-color="#B590D1" offset="100%"></stop>
        </linearGradient>
    </defs>
    <g id="Page-1" stroke="none" stroke-width="1" fill="none" fill-rule="evenodd">
        <g id="1.0-Home---Usuario" transform="translate(-203.000000, -3034.000000)" fill="url(#linearGradient-1)" fill-rule="nonzero">
            <g id="Vacantes" transform="translate(116.000000, 2659.000000)">
                <g id="Group-18-Copy" transform="translate(0.000000, 202.000000)">
                    <g id="location-pin" transform="translate(87.400000, 173.880000)">
                        <path d="M5.2992,0 C2.3775744,0 0,2.3940608 0,5.337472 C0,9.5197184 4.8010752,13.8379776 5.0053888,14.019328 C5.0895872,14.0941056 5.1943936,14.1312 5.2992,14.1312 C5.4040064,14.1312 5.5088128,14.0941056 5.5930112,14.0199168 C5.7973248,13.8379776 10.5984,9.5197184 10.5984,5.337472 C10.5984,2.3940608 8.2208256,0 5.2992,0 Z M5.2992,8.2432 C3.6758784,8.2432 2.3552,6.9225216 2.3552,5.2992 C2.3552,3.6758784 3.6758784,2.3552 5.2992,2.3552 C6.9225216,2.3552 8.2432,3.6758784 8.2432,5.2992 C8.2432,6.9225216 6.9225216,8.2432 5.2992,8.2432 Z" id="Shape"></path>
                    </g>
                </g>
            </g>
        </g>
    </g>
</svg>