<?xml version="1.0" encoding="UTF-8"?>
<svg width="82px" height="82px" viewBox="0 0 82 82" version="1.1" xmlns="http://www.w3.org/2000/svg" xmlns:xlink="http://www.w3.org/1999/xlink">
    <title>Group</title>
    <defs>
        <path d="M16.0264,12.503674 C21.7077588,12.503674 26.329526,17.1254412 26.329526,22.8068 L38.4097332,22.8068 C38.4097332,10.4646228 28.3685772,0.4234668 16.0264,0.4234668 C9.8556196,0.4234668 4.2599404,2.934064 0.206494,6.986894 L8.7442504,15.5246504 C10.6100932,13.659424 13.1860288,12.503674 16.0264,12.503674" id="path-1"></path>
        <linearGradient x1="70.7109915%" y1="49.4366893%" x2="-17.4163881%" y2="123.619955%" id="linearGradient-3">
            <stop stop-color="#105B91" offset="0%"></stop>
            <stop stop-color="#105A90" offset="0%"></stop>
            <stop stop-color="#105B91" offset="0%"></stop>
            <stop stop-color="#0F588D" offset="0%"></stop>
            <stop stop-color="#010027" offset="100%"></stop>
        </linearGradient>
        <path d="M0.4240832,16.0264 C0.4240832,28.3685772 10.4646228,38.4097332 22.8068,38.4097332 L22.8068,26.3301424 C17.1254412,26.3301424 12.503674,21.7077588 12.503674,16.0264 C12.503674,13.1860288 13.659424,10.6100932 15.5246504,8.7442504 L6.986894,0.206494 C2.934064,4.2599404 0.4240832,9.8556196 0.4240832,16.0264" id="path-4"></path>
        <linearGradient x1="67.1630801%" y1="-3.61529051%" x2="-0.875948385%" y2="173.530529%" id="linearGradient-6">
            <stop stop-color="#592589" offset="0%"></stop>
            <stop stop-color="#B590D1" offset="100%"></stop>
        </linearGradient>
        <path d="M39.4736396,40.066 C39.4736396,18.2996832 21.7663168,0.5923604 0,0.5923604 L0,12.6725676 C15.104882,12.6725676 27.3940488,24.961118 27.3940488,40.066 C27.3940488,47.6181328 24.3219112,54.4669532 19.361124,59.427124 L38.9361388,79.0021388 L32.6883084,62.1694876 C36.9698228,55.8587844 39.4736396,48.2493264 39.4736396,40.066" id="path-7"></path>
        <linearGradient x1="62.671963%" y1="-3.61529051%" x2="12.436921%" y2="173.530529%" id="linearGradient-9">
            <stop stop-color="#592589" offset="0%"></stop>
            <stop stop-color="#B590D1" offset="100%"></stop>
        </linearGradient>
        <path d="M40.066,27.3940488 C24.961118,27.3940488 12.6719512,15.104882 12.6725676,0 L0.5923604,0 C0.5923604,21.7663168 18.2996832,39.4736396 40.066,39.4736396 C48.2493264,39.4736396 55.8587844,36.9698228 62.1694876,32.6883084 L79.0021388,38.9361388 L59.427124,19.361124 C54.4669532,24.3219112 47.6181328,27.3940488 40.066,27.3940488" id="path-10"></path>
        <linearGradient x1="70.7109915%" y1="49.5841155%" x2="-17.4163881%" y2="104.352597%" id="linearGradient-12">
            <stop stop-color="#105B91" offset="0%"></stop>
            <stop stop-color="#105A90" offset="0%"></stop>
            <stop stop-color="#105B91" offset="0%"></stop>
            <stop stop-color="#0F588D" offset="0%"></stop>
            <stop stop-color="#010027" offset="100%"></stop>
        </linearGradient>
    </defs>
    <g id="Page-1" stroke="none" stroke-width="1" fill="none" fill-rule="evenodd">
        <g id="1.0-Home---Usuario" transform="translate(-221.000000, -2882.000000)">
            <g id="Vacantes" transform="translate(116.000000, 2659.000000)">
                <g id="Group-18-Copy" transform="translate(0.000000, 202.000000)">
                    <g id="Group" transform="translate(105.800000, 21.160000)">
                        <g id="Group-9" transform="translate(24.039600, 17.259200)">
                            <mask id="mask-2" fill="white">
                                <use xlink:href="#path-1"></use>
                            </mask>
                            <g id="Clip-8"></g>
                            <path d="M16.0264,12.503674 C21.7077588,12.503674 26.329526,17.1254412 26.329526,22.8068 L38.4097332,22.8068 C38.4097332,10.4646228 28.3685772,0.4234668 16.0264,0.4234668 C9.8556196,0.4234668 4.2599404,2.934064 0.206494,6.986894 L8.7442504,15.5246504 C10.6100932,13.659424 13.1860288,12.503674 16.0264,12.503674" id="Fill-7" fill="url(#linearGradient-3)" mask="url(#mask-2)"></path>
                        </g>
                        <g id="Group-12" transform="translate(17.259200, 24.039600)">
                            <mask id="mask-5" fill="white">
                                <use xlink:href="#path-4"></use>
                            </mask>
                            <g id="Clip-11"></g>
                            <path d="M0.4240832,16.0264 C0.4240832,28.3685772 10.4646228,38.4097332 22.8068,38.4097332 L22.8068,26.3301424 C17.1254412,26.3301424 12.503674,21.7077588 12.503674,16.0264 C12.503674,13.1860288 13.659424,10.6100932 15.5246504,8.7442504 L6.986894,0.206494 C2.934064,4.2599404 0.4240832,9.8556196 0.4240832,16.0264" id="Fill-10" fill="url(#linearGradient-6)" mask="url(#mask-5)"></path>
                        </g>
                        <g id="Group-15" transform="translate(40.066000, 0.000000)">
                            <mask id="mask-8" fill="white">
                                <use xlink:href="#path-7"></use>
                            </mask>
                            <g id="Clip-14"></g>
                            <path d="M39.4736396,40.066 C39.4736396,18.2996832 21.7663168,0.5923604 -7.51754214e-14,0.5923604 L-7.51754214e-14,12.6725676 C15.104882,12.6725676 27.3940488,24.961118 27.3940488,40.066 C27.3940488,47.6181328 24.3219112,54.4669532 19.361124,59.427124 L38.9361388,79.0021388 L32.6883084,62.1694876 C36.9698228,55.8587844 39.4736396,48.2493264 39.4736396,40.066" id="Fill-13" fill="url(#linearGradient-9)" mask="url(#mask-8)"></path>
                        </g>
                        <g id="Group-18" transform="translate(0.000000, 40.066000)">
                            <mask id="mask-11" fill="white">
                                <use xlink:href="#path-10"></use>
                            </mask>
                            <g id="Clip-17"></g>
                            <path d="M40.066,27.3940488 C24.961118,27.3940488 12.6719512,15.104882 12.6725676,1.40545353e-13 L0.5923604,1.40545353e-13 C0.5923604,21.7663168 18.2996832,39.4736396 40.066,39.4736396 C48.2493264,39.4736396 55.8587844,36.9698228 62.1694876,32.6883084 L79.0021388,38.9361388 L59.427124,19.361124 C54.4669532,24.3219112 47.6181328,27.3940488 40.066,27.3940488" id="Fill-16" fill="url(#linearGradient-12)" mask="url(#mask-11)"></path>
                        </g>
                    </g>
                </g>
            </g>
        </g>
    </g>
</svg>