<?xml version="1.0" encoding="UTF-8"?>
<svg width="87px" height="87px" viewBox="0 0 87 87" version="1.1" xmlns="http://www.w3.org/2000/svg" xmlns:xlink="http://www.w3.org/1999/xlink">
    <title>Group</title>
    <defs>
        <path d="M17.42,13.59095 C23.59539,13.59095 28.61905,18.61461 28.61905,24.79 L41.74971,24.79 C41.74971,11.37459 30.83541,0.46029 17.42,0.46029 C10.71263,0.46029 4.63037,3.1892 0.22445,7.59445 L9.50462,16.87462 C11.53271,14.8472 14.33264,13.59095 17.42,13.59095" id="path-1"></path>
        <path d="M0.46096,17.42 C0.46096,30.83541 11.37459,41.74971 24.79,41.74971 L24.79,28.61972 C18.61461,28.61972 13.59095,23.59539 13.59095,17.42 C13.59095,14.33264 14.8472,11.53271 16.87462,9.50462 L7.59445,0.22445 C3.1892,4.63037 0.46096,10.71263 0.46096,17.42" id="path-3"></path>
        <path d="M42.90613,43.55 C42.90613,19.89096 23.65904,0.64387 0,0.64387 L0,13.77453 C16.41835,13.77453 29.77614,27.13165 29.77614,43.55 C29.77614,51.75884 26.43686,59.20321 21.0447,64.5947 L42.32189,85.87189 L35.53077,67.57553 C40.18459,60.71607 42.90613,52.44492 42.90613,43.55" id="path-5"></path>
        <path d="M43.55,29.77614 C27.13165,29.77614 13.77386,16.41835 13.77453,0 L0.64387,0 C0.64387,23.65904 19.89096,42.90613 43.55,42.90613 C52.44492,42.90613 60.71607,40.18459 67.57553,35.53077 L85.87189,42.32189 L64.5947,21.0447 C59.20321,26.43686 51.75884,29.77614 43.55,29.77614" id="path-7"></path>
    </defs>
    <g id="Page-1" stroke="none" stroke-width="1" fill="none" fill-rule="evenodd">
        <g id="1.0-Home---Usuario" transform="translate(-525.000000, -2868.000000)">
            <g id="Vacantes" transform="translate(116.000000, 2659.000000)">
                <g id="Vacante" transform="translate(294.000000, 186.000000)">
                    <g id="Group" transform="translate(115.000000, 23.000000)">
                        <g id="Group-9" transform="translate(26.130000, 18.760000)">
                            <mask id="mask-2" fill="white">
                                <use xlink:href="#path-1"></use>
                            </mask>
                            <g id="Clip-8"></g>
                            <path d="M17.42,13.59095 C23.59539,13.59095 28.61905,18.61461 28.61905,24.79 L41.74971,24.79 C41.74971,11.37459 30.83541,0.46029 17.42,0.46029 C10.71263,0.46029 4.63037,3.1892 0.22445,7.59445 L9.50462,16.87462 C11.53271,14.8472 14.33264,13.59095 17.42,13.59095" id="Fill-7" fill="#4E6881" mask="url(#mask-2)"></path>
                        </g>
                        <g id="Group-12" transform="translate(18.760000, 26.130000)">
                            <mask id="mask-4" fill="white">
                                <use xlink:href="#path-3"></use>
                            </mask>
                            <g id="Clip-11"></g>
                            <path d="M0.46096,17.42 C0.46096,30.83541 11.37459,41.74971 24.79,41.74971 L24.79,28.61972 C18.61461,28.61972 13.59095,23.59539 13.59095,17.42 C13.59095,14.33264 14.8472,11.53271 16.87462,9.50462 L7.59445,0.22445 C3.1892,4.63037 0.46096,10.71263 0.46096,17.42" id="Fill-10" fill="#FFFFFF" mask="url(#mask-4)"></path>
                        </g>
                        <g id="Group-15" transform="translate(43.550000, 0.000000)">
                            <mask id="mask-6" fill="white">
                                <use xlink:href="#path-5"></use>
                            </mask>
                            <g id="Clip-14"></g>
                            <path d="M42.90613,43.55 C42.90613,19.89096 23.65904,0.64387 -8.17124146e-14,0.64387 L-8.17124146e-14,13.77453 C16.41835,13.77453 29.77614,27.13165 29.77614,43.55 C29.77614,51.75884 26.43686,59.20321 21.0447,64.5947 L42.32189,85.87189 L35.53077,67.57553 C40.18459,60.71607 42.90613,52.44492 42.90613,43.55" id="Fill-13" fill="#FFFFFF" mask="url(#mask-6)"></path>
                        </g>
                        <g id="Group-18" transform="translate(0.000000, 43.550000)">
                            <mask id="mask-8" fill="white">
                                <use xlink:href="#path-7"></use>
                            </mask>
                            <g id="Clip-17"></g>
                            <path d="M43.55,29.77614 C27.13165,29.77614 13.77386,16.41835 13.77453,1.52766688e-13 L0.64387,1.52766688e-13 C0.64387,23.65904 19.89096,42.90613 43.55,42.90613 C52.44492,42.90613 60.71607,40.18459 67.57553,35.53077 L85.87189,42.32189 L64.5947,21.0447 C59.20321,26.43686 51.75884,29.77614 43.55,29.77614" id="Fill-16" fill="#4E6881" mask="url(#mask-8)"></path>
                        </g>
                    </g>
                </g>
            </g>
        </g>
    </g>
</svg>