<?xml version="1.0" encoding="UTF-8"?>
<svg width="16px" height="16px" viewBox="0 0 16 16" version="1.1" xmlns="http://www.w3.org/2000/svg" xmlns:xlink="http://www.w3.org/1999/xlink">
    <title>settings</title>
    <g id="Page-1" stroke="none" stroke-width="1" fill="none" fill-rule="evenodd">
        <g id="1.0-Home---Usuario" transform="translate(-285.000000, -3070.000000)" fill-rule="nonzero">
            <g id="Vacantes" transform="translate(116.000000, 2659.000000)">
                <g id="Group-18-Copy" transform="translate(0.000000, 202.000000)">
                    <g id="Habilidades" transform="translate(41.000000, 209.000000)">
                        <g id="settings" transform="translate(128.000000, 0.000000)">
                            <path d="M14.98203,6.339 L13.791,6.14097 C13.638,5.547 13.404,4.98 13.089,4.44897 L13.773,3.48603 C13.89897,3.30603 13.881,3.063 13.72797,2.91003 L12.45,1.63203 C12.29703,1.479 12.054,1.46103 11.874,1.587 L10.91106,2.271 C10.38,1.956 9.813,1.722 9.21903,1.56903 L9.021,0.37797 C8.985,0.162 8.796,0 8.58,0 L6.78,0 C6.564,0 6.375,0.162 6.339,0.37797 L6.14097,1.569 C5.547,1.722 4.98,1.956 4.44897,2.271 L3.48603,1.587 C3.30603,1.46103 3.063,1.479 2.91003,1.63203 L1.63203,2.91 C1.479,3.06297 1.46103,3.306 1.587,3.486 L2.271,4.44894 C1.956,4.98 1.722,5.547 1.56903,6.14097 L0.37797,6.339 C0.162,6.375 0,6.564 0,6.78 L0,8.58 C0,8.796 0.162,8.985 0.37797,9.021 L1.569,9.21903 C1.722,9.813 1.956,10.38 2.271,10.91103 L1.587,11.87397 C1.46103,12.05397 1.479,12.297 1.63203,12.44997 L2.91,13.72797 C3.06297,13.881 3.306,13.89897 3.486,13.773 L4.44894,13.089 C4.97997,13.40397 5.54697,13.638 6.14094,13.79097 L6.33897,14.982 C6.375,15.198 6.564,15.36 6.78,15.36 L8.58,15.36 C8.796,15.36 8.985,15.198 9.021,14.98203 L9.21903,13.791 C9.813,13.638 10.38,13.404 10.91103,13.089 L11.87397,13.773 C12.05397,13.89897 12.297,13.881 12.44997,13.72797 L13.72797,12.45 C13.881,12.29703 13.89897,12.054 13.773,11.874 L13.089,10.91106 C13.40397,10.38003 13.638,9.81303 13.79097,9.21906 L14.982,9.02103 C15.198,8.985 15.36,8.796 15.36,8.58 L15.36,6.78 C15.36,6.564 15.198,6.375 14.98203,6.339 Z M7.68,11.28 C5.69097,11.28 4.08,9.66903 4.08,7.68 C4.08,5.69097 5.69097,4.08 7.68,4.08 C9.66903,4.08 11.28,5.69097 11.28,7.68 C11.28,9.66903 9.66903,11.28 7.68,11.28 Z" id="Shape" fill="#E1E4FB"></path>
                            <path d="M15.36,6.78 L15.36,8.58 C15.36,8.796 15.198,8.985 14.98203,9.021 L13.791,9.21903 C13.638,9.813 13.404,10.38 13.089,10.91103 L13.773,11.87397 C13.89897,12.05397 13.881,12.297 13.72797,12.44997 L12.45,13.72797 C12.29703,13.881 12.054,13.89897 11.874,13.773 L10.91106,13.089 C10.38,13.404 9.813,13.638 9.21903,13.79097 L9.021,14.982 C8.985,15.198 8.796,15.36 8.58,15.36 L7.68,15.36 L7.68,11.28 C9.66903,11.28 11.28,9.66903 11.28,7.68 C11.28,5.69097 9.66903,4.08 7.68,4.08 L7.68,0 L8.58,0 C8.796,0 8.985,0.162 9.021,0.37797 L9.21903,1.569 C9.813,1.722 10.38,1.956 10.91103,2.271 L11.87397,1.587 C12.05397,1.46103 12.297,1.479 12.44997,1.63203 L13.72797,2.91 C13.881,3.06297 13.89897,3.306 13.773,3.486 L13.089,4.44894 C13.40397,4.97997 13.638,5.54697 13.79097,6.14094 L14.982,6.33897 C15.198,6.375 15.36,6.564 15.36,6.78 Z" id="Path" fill="#C5C9F7"></path>
                            <path d="M10.596,10.092 L7.68,11.13603 L4.764,10.092 C5.24097,8.904 6.393,8.13 7.68,8.13 C8.967,8.13 10.11903,8.904 10.596,10.092 Z" id="Path" fill="#1689FC"></path>
                            <path d="M7.68,5.43 C6.69003,5.43 5.88,6.24003 5.88,7.23 C5.88,8.21997 6.69003,9.03 7.68,9.03 C8.66997,9.03 9.48,8.21997 9.48,7.23 C9.48,6.24003 8.66997,5.43 7.68,5.43 Z" id="Path" fill="#17ACE8"></path>
                            <path d="M7.68,3.63 C5.44803,3.63 3.63,5.44803 3.63,7.68 C3.63,9.91197 5.44803,11.73 7.68,11.73 C9.91197,11.73 11.73,9.91197 11.73,7.68 C11.73,5.44803 9.91197,3.63 7.68,3.63 Z M7.68,10.83 C5.943,10.83 4.53,9.417 4.53,7.68 C4.53,5.943 5.943,4.53 7.68,4.53 C9.417,4.53 10.83,5.943 10.83,7.68 C10.83,9.417 9.417,10.83 7.68,10.83 Z" id="Shape" fill="#C5C9F7"></path>
                            <path d="M10.596,10.092 L7.68,11.13603 L7.68,8.13 C8.967,8.13 10.11903,8.904 10.596,10.092 Z" id="Path" fill="#136EF1"></path>
                            <path d="M9.48,7.23 C9.48,8.21997 8.66997,9.03 7.68,9.03 L7.68,5.43 C8.66997,5.43 9.48,6.24003 9.48,7.23 Z" id="Path" fill="#1689FC"></path>
                            <path d="M11.73,7.68 C11.73,9.91197 9.91197,11.73 7.68,11.73 L7.68,10.83 C9.417,10.83 10.83,9.417 10.83,7.68 C10.83,5.943 9.417,4.53 7.68,4.53 L7.68,3.63 C9.91197,3.63 11.73,5.44803 11.73,7.68 Z" id="Path" fill="#A8AFF1"></path>
                        </g>
                    </g>
                </g>
            </g>
        </g>
    </g>
</svg>