<?xml version="1.0" encoding="UTF-8"?>
<svg width="16px" height="16px" viewBox="0 0 16 16" version="1.1" xmlns="http://www.w3.org/2000/svg" xmlns:xlink="http://www.w3.org/1999/xlink">
    <title>skill-development</title>
    <g id="Page-1" stroke="none" stroke-width="1" fill="none" fill-rule="evenodd">
        <g id="1.0-Home---Usuario" transform="translate(-157.000000, -3070.000000)" fill-rule="nonzero">
            <g id="Vacantes" transform="translate(116.000000, 2659.000000)">
                <g id="Group-18-Copy" transform="translate(0.000000, 202.000000)">
                    <g id="skill-development" transform="translate(41.000000, 209.000000)">
                        <path d="M6.78,15.36 L7.23,14.31159 L7.23,9.16737 L6.78,8.58 L6.19737,6.33 L0.9537,6.33 L4.26325641e-16,8.58 C4.26325641e-16,12.30216 3.05784,15.36 6.78,15.36 Z" id="Path" fill="#72B8F8"></path>
                        <path d="M6.78,8.58 L6.78,10.155 C5.78589,10.155 4.98,10.96089 4.98,11.955 C4.98,12.94911 5.78589,13.755 6.78,13.755 L6.78,15.36 C10.50216,15.36 13.53,12.30216 13.53,8.58 L12.69159,8.13 L7.9737,8.13 L6.78,8.58 Z" id="Path" fill="#040728"></path>
                        <path d="M13.53,3.63 L13.53,1.83 L11.73,1.83 C11.73,0.83727 10.92273,0 9.93,0 C8.93727,0 8.13,0.83727 8.13,1.83 L6.78,1.83 L6.33,2.60211 L6.33,7.7463 L6.78,8.58 L8.355,8.58 C8.355,9.57411 9.16089,10.38 10.155,10.38 C11.14911,10.38 11.955,9.57411 11.955,8.58 L13.53,8.58 L13.53,7.23 C14.52273,7.23 15.36,6.42273 15.36,5.43 C15.36,4.43727 14.52273,3.63 13.53,3.63 Z" id="Path" fill="#7854C0"></path>
                        <path d="M6.78,3.405 L6.78,1.83 C3.05784,1.83 0,4.85784 0,8.58 L1.605,8.58 C1.605,7.58589 2.41089,6.78 3.405,6.78 C4.39911,6.78 5.205,7.58589 5.205,8.58 L6.78,8.58 L6.78,7.005 C7.77411,7.005 8.58,6.19911 8.58,5.205 C8.58,4.21089 7.77411,3.405 6.78,3.405 Z" id="Path" fill="#FFFFFF"></path>
                    </g>
                </g>
            </g>
        </g>
    </g>
</svg>