<?xml version="1.0" encoding="UTF-8"?>
<svg width="16px" height="16px" viewBox="0 0 16 16" version="1.1" xmlns="http://www.w3.org/2000/svg" xmlns:xlink="http://www.w3.org/1999/xlink">
    <title>skill</title>
    <g id="Page-1" stroke="none" stroke-width="1" fill="none" fill-rule="evenodd">
        <g id="1.0-Home---Usuario" transform="translate(-216.000000, -3106.000000)" fill-rule="nonzero">
            <g id="Vacantes" transform="translate(116.000000, 2659.000000)">
                <g id="Group-18-Copy" transform="translate(0.000000, 202.000000)">
                    <g id="Habilidades" transform="translate(41.000000, 209.000000)">
                        <g id="skill" transform="translate(59.000000, 36.000000)">
                            <path d="M4.1625,0.95625 L3.90147,1.59528 L2.7585,2.73828 L1.61547,3.87222 L0.98547,4.14225 L0.66147,3.81822 C-0.2205,2.94525 -0.2205,1.51422 0.66147,0.64125 C1.51647,-0.21375 2.99244,-0.21375 3.84744,0.64125 L4.1625,0.95625 Z" id="Path" fill="#E6733C"></path>
                            <path d="M2.7585,2.73828 L1.61547,3.87222 L0.98547,4.14225 L0.66147,3.81822 C-0.2205,2.94525 -0.2205,1.51422 0.66147,0.64125 L2.7585,2.73828 Z" id="Path" fill="#EC9046"></path>
                            <polygon id="Path" fill="#F29737" points="12.77436 9.58863 12.5583 10.38063 11.50533 11.49663 10.47036 12.59466 9.6423 12.81966 2.89347 6.05028 3.1545 5.41125 4.29747 4.26822 5.43147 3.13428 6.0705 2.86422"></polygon>
                            <polygon id="Path" fill="#F6B73C" points="11.50533 11.49663 10.47036 12.59466 9.6423 12.81966 2.89347 6.05028 3.1545 5.41125 4.29747 4.26822"></polygon>
                            <path d="M14.09529,11.86695 L13.4583,10.38063 C13.4133,10.28163 13.39536,10.20963 13.32333,10.1376 L12.77433,9.5886 C11.99127,9.78663 11.29833,10.2006 10.75827,10.74963 C10.20927,11.30763 9.81327,12.0276 9.64227,12.81963 L10.13727,13.31463 C10.2183,13.4046 10.3443,13.44063 10.47033,13.49463 L11.86671,14.09616 L14.09529,11.86695 Z" id="Path" fill="#FFBF66"></path>
                            <path d="M11.86674,14.09619 L10.47036,13.49466 C10.34436,13.44066 10.21833,13.40463 10.1373,13.31466 L9.6423,12.81966 C9.8133,12.02766 10.2093,11.30766 10.7583,10.74966 L12.94536,12.93666 L11.86674,14.09619 Z" id="Path" fill="#FFD966"></path>
                            <polygon id="Path" fill="#E0E4EC" points="6.0705 2.86422 4.47747 4.45725 2.89347 6.05028 0.98547 4.14228 2.56947 2.54925 4.1625 0.95625"></polygon>
                            <polygon id="Path" fill="#D1D7E3" points="4.47747 4.45725 2.89347 6.05028 0.98547 4.14228 2.56947 2.54925"></polygon>
                            <path d="M14.09481,11.86719 C13.01154,12.15768 12.15696,13.01253 11.86686,14.09595 C12.95928,14.565 14.13888,15.06921 14.73633,15.32163 C14.9163,15.40266 15.1053,15.34866 15.23133,15.22263 C15.34833,15.10563 15.40233,14.9166 15.3213,14.72763 C14.54805,12.92613 14.49654,12.80862 14.09481,11.86719 Z" id="Path" fill="#66728B"></path>
                            <path d="M12.68802,12.67938 C12.30027,13.06563 12.01251,13.55202 11.86686,14.09595 C12.95928,14.565 14.13888,15.06921 14.73633,15.32163 C14.9163,15.40266 15.1053,15.34866 15.23133,15.22263 L12.68802,12.67938 Z" id="Path" fill="#6F7D96"></path>
                        </g>
                    </g>
                </g>
            </g>
        </g>
    </g>
</svg>