<?xml version="1.0" encoding="UTF-8"?>
<svg width="70px" height="70px" viewBox="0 0 70 70" version="1.1" xmlns="http://www.w3.org/2000/svg" xmlns:xlink="http://www.w3.org/1999/xlink">
    <title>icon_calidad</title>
    <defs>
        <linearGradient x1="50%" y1="0%" x2="50%" y2="100%" id="linearGradient-1">
            <stop stop-color="#ABCFFB" offset="0%"></stop>
            <stop stop-color="#72A2F6" offset="100%"></stop>
        </linearGradient>
        <linearGradient x1="48.146884%" y1="22.6945279%" x2="52.8708896%" y2="56.3236487%" id="linearGradient-2">
            <stop stop-color="#7288F6" offset="0%"></stop>
            <stop stop-color="#72B6F6" offset="100%"></stop>
        </linearGradient>
        <linearGradient x1="50%" y1="0%" x2="50%" y2="100%" id="linearGradient-3">
            <stop stop-color="#ABCFFB" offset="0%"></stop>
            <stop stop-color="#72A2F6" offset="100%"></stop>
        </linearGradient>
        <linearGradient x1="50%" y1="0%" x2="50%" y2="100%" id="linearGradient-4">
            <stop stop-color="#ABCFFB" offset="0%"></stop>
            <stop stop-color="#72A2F6" offset="100%"></stop>
        </linearGradient>
    </defs>
    <g id="icon_calidad" stroke="none" stroke-width="1" fill="none" fill-rule="evenodd">
        <g transform="translate(0.000000, 10.000000)" fill-rule="nonzero" id="Path">
            <path d="M41.1387186,34.0182419 C39.7695008,37.7290825 37.6987678,40.955664 34.9832625,43.6074303 C31.8923204,46.6256948 27.8449078,49.0240608 22.9533452,50.7349028 C22.7928323,50.7908686 22.6253236,50.8367295 22.4570377,50.870542 C22.2347292,50.9144597 22.0085343,50.9381674 21.7842827,50.9412766 L21.740365,50.9412766 C21.5013447,50.9412766 21.2611582,50.9171802 21.0229151,50.870542 C20.8546292,50.8367295 20.6894525,50.7908686 20.5297169,50.7360688 C15.6323245,49.0279472 11.5798595,46.6307473 8.485808,43.6124829 C5.76913688,40.9607164 3.69879247,37.7360783 2.33151796,34.0252376 C-0.154683186,27.2782546 -0.0132140876,19.845691 0.100660659,13.8729009 L0.10260389,13.7811793 C0.125534329,13.2879811 0.140303021,12.7699091 0.148464769,12.1978147 C0.190050362,9.38903325 2.42323962,7.06528832 5.23240974,6.9086619 C11.0893817,6.58180635 15.6202763,4.67158619 19.4916298,0.89817271 L19.5254425,0.867080622 C20.1682714,0.277496834 20.9782202,-0.0116595827 21.7842827,2.7196433e-05 C22.5615849,0.0104936045 23.3357778,0.299261295 23.9556764,0.867080622 L23.9887117,0.89817271 C27.8608426,4.67158619 32.391737,6.58180635 38.2487091,6.9086619 C41.0578791,7.06528832 43.2910684,9.38903325 43.3326541,12.1978147 C43.3408157,12.7737956 43.3555844,13.2910903 43.3785149,13.7811793 L43.3796809,13.8200444 C43.493167,19.8041053 43.6338587,27.2514377 41.1387186,34.0182419 Z" fill="url(#linearGradient-1)"></path>
            <path d="M41.1387186,34.0182419 C39.7695008,37.7290825 37.6987678,40.955664 34.9832625,43.6074303 C31.8923204,46.6256948 27.8449078,49.0240608 22.9533452,50.7349028 C22.7928323,50.7908686 22.6253236,50.8367295 22.4570377,50.870542 C22.2347292,50.9144597 22.0085343,50.9381674 21.7842827,50.9412766 L21.7842827,0.000388651097 C22.5615849,0.0104936045 23.3357778,0.299261295 23.9556764,0.867080622 L23.9887117,0.89817271 C27.8608426,4.67158619 32.391737,6.58180635 38.2487091,6.9086619 C41.0578791,7.06528832 43.2910684,9.38903325 43.3326541,12.1978147 C43.3408157,12.7737956 43.3555844,13.2910903 43.3785149,13.7811793 L43.3796809,13.8200444 C43.493167,19.8041053 43.6338587,27.2514377 41.1387186,34.0182419 Z" fill="url(#linearGradient-2)"></path>
            <path d="M34.4352645,25.4706383 C34.4352645,32.4558644 28.763679,38.14183 21.7842827,38.1667037 L21.7395878,38.1667037 C14.7395928,38.1667037 9.04352235,32.4710219 9.04352235,25.4706383 C9.04352235,18.4706434 14.7395928,12.7749616 21.7395878,12.7749616 L21.7842827,12.7749616 C28.763679,12.7998353 34.4352645,18.4858008 34.4352645,25.4706383 Z" fill="#FFFFFF"></path>
            <path d="M34.4352645,25.4706383 C34.4352645,32.4558644 28.763679,38.14183 21.7842827,38.1667037 L21.7842827,12.7749616 C28.763679,12.7998353 34.4352645,18.4858008 34.4352645,25.4706383 Z" fill="#E1EBF0"></path>
            <path d="M27.5021176,23.6424235 L21.7842827,29.3610357 L20.5487608,30.5965576 C20.2568838,30.8884346 19.8740625,31.0341788 19.4916298,31.0341788 C19.1088085,31.0341788 18.7263758,30.8884346 18.4341102,30.5965576 L15.7776799,27.9389614 C15.193926,27.3552074 15.193926,26.4096193 15.7776799,25.8254767 C16.3606566,25.2417228 17.3074107,25.2417228 17.8911646,25.8254767 L19.4916298,27.425942 L25.3886329,21.5289388 C25.9723869,20.9447963 26.919141,20.9447963 27.5021176,21.5289388 C28.0858715,22.1126928 28.0858715,23.0594469 27.5021176,23.6424235 Z" fill="url(#linearGradient-3)"></path>
            <path d="M27.5021176,23.6424235 L21.7842827,29.3610357 L21.7842827,25.1329005 L25.3886329,21.5289388 C25.9723869,20.9447963 26.919141,20.9447963 27.5021176,21.5289388 C28.0858715,22.1126928 28.0858715,23.0594469 27.5021176,23.6424235 Z" fill="url(#linearGradient-4)"></path>
        </g>
    </g>
</svg>