<svg xmlns="http://www.w3.org/2000/svg" xmlns:xlink="http://www.w3.org/1999/xlink" width="13" height="13" viewBox="0 0 13 13"><defs><linearGradient id="a" x1="0.049" y1="0.085" x2="0.918" y2="0.829" gradientUnits="objectBoundingBox"><stop offset="0" stop-color="#7288f6"/><stop offset="1" stop-color="#72b6f6"/></linearGradient></defs><path d="M13,6.5A6.5,6.5,0,1,1,6.5,0,6.5,6.5,0,0,1,13,6.5Z" fill="url(#a)"/><path d="M.113,8.649a.381.381,0,0,1-.1-.373L.776,5.54a.376.376,0,0,1,.1-.167L5.725.521A1.778,1.778,0,0,1,8.24,3.035l-3.66,3.65a.381.381,0,0,1-.538-.54L7.09,3.105,5.654,1.669,1.692,5.631l1.7,1.7a.383.383,0,0,1,.1.365.379.379,0,0,1-.264.27L.485,8.745a.375.375,0,0,1-.1.014A.38.38,0,0,1,.113,8.649Z" transform="translate(2.123 2.117)" fill="#fff"/></svg>