<?xml version="1.0" encoding="UTF-8"?>
<svg width="191px" height="44px" viewBox="0 0 191 44" version="1.1" xmlns="http://www.w3.org/2000/svg" xmlns:xlink="http://www.w3.org/1999/xlink">
    <title>WING_IGP_Mesa de trabajo 1</title>
    <defs>
        <linearGradient x1="-121.508037%" y1="-34.3073558%" x2="476.635635%" y2="107.131658%" id="linearGradient-1">
            <stop stop-color="#ABCFFB" offset="0%"></stop>
            <stop stop-color="#72A2F6" offset="100%"></stop>
        </linearGradient>
        <linearGradient x1="18.4985238%" y1="-115.242417%" x2="128.361647%" y2="161.97805%" id="linearGradient-2">
            <stop stop-color="#ABCFFB" offset="0%"></stop>
            <stop stop-color="#72A2F6" offset="100%"></stop>
        </linearGradient>
        <linearGradient x1="-37.5041005%" y1="-115.242417%" x2="267.671242%" y2="161.97805%" id="linearGradient-3">
            <stop stop-color="#ABCFFB" offset="0%"></stop>
            <stop stop-color="#72A2F6" offset="100%"></stop>
        </linearGradient>
        <linearGradient x1="-121.508037%" y1="-115.242417%" x2="476.635635%" y2="161.97805%" id="linearGradient-4">
            <stop stop-color="#ABCFFB" offset="0%"></stop>
            <stop stop-color="#72A2F6" offset="100%"></stop>
        </linearGradient>
        <linearGradient x1="-73.4731873%" y1="-115.242417%" x2="357.146315%" y2="161.97805%" id="linearGradient-5">
            <stop stop-color="#ABCFFB" offset="0%"></stop>
            <stop stop-color="#72A2F6" offset="100%"></stop>
        </linearGradient>
        <linearGradient x1="-91.7421793%" y1="-115.242417%" x2="402.591433%" y2="161.97805%" id="linearGradient-6">
            <stop stop-color="#ABCFFB" offset="0%"></stop>
            <stop stop-color="#72A2F6" offset="100%"></stop>
        </linearGradient>
        <linearGradient x1="-121.508037%" y1="-105.665218%" x2="476.635635%" y2="155.487973%" id="linearGradient-7">
            <stop stop-color="#ABCFFB" offset="0%"></stop>
            <stop stop-color="#72A2F6" offset="100%"></stop>
        </linearGradient>
    </defs>
    <g id="Page-1" stroke="none" stroke-width="1" fill="none" fill-rule="evenodd">
        <g id="1.0-Home---Usuario" transform="translate(-139.000000, -44.000000)" fill-rule="nonzero">
            <g id="WING_IGP_Mesa-de-trabajo-1" transform="translate(139.000000, 44.000000)">
                <path d="M16.5373622,16.6022395 C17.4264677,14.0549895 19.0591887,12.8270197 21.5357517,12.8270197 C24.0123146,12.8270197 25.6935323,14.1022191 26.6279013,16.7407797 L29.5247687,24.7918531 L32.9357007,16.2842268 C33.7763095,14.190381 35.7388078,12.8270197 37.9825868,12.8270197 C40.8794542,12.8270197 43.12,15.0090275 43.12,17.7861283 C43.12,18.3780727 42.9809762,18.9700171 42.5121752,20.1507572 L35.130983,39.7132598 C34.1481173,42.3518204 32.5153963,43.6270197 30.1778571,43.6270197 C27.7950544,43.6270197 26.0685731,42.3077394 25.1794676,39.8045703 L21.7232721,29.8422722 L18.3123401,39.7604894 C17.4717313,42.2636584 15.7420169,43.6270197 13.4077109,43.6270197 C11.1186684,43.6270197 9.38895404,42.39905 8.54834521,40.1698126 L0.607824848,19.9240551 C0.232783984,19.058179 0,18.104141 0,17.6035071 C0,14.9649465 2.33753918,12.8270197 5.18590987,12.8270197 C7.5687126,12.8270197 9.34369049,14.190381 10.46558,16.8761712 L13.7827517,24.565151 L16.5373622,16.6022395 Z" id="Path" fill="url(#linearGradient-1)"></path>
                <path d="M54.7692116,38.6578681 C54.4533428,40.5586024 53.9083142,41.6742508 52.8585149,42.5197279 C51.7591675,43.4001684 50.2448552,43.7879437 48.9627993,43.5654497 C47.6404857,43.3334202 46.2872045,42.4466228 45.6059188,41.3500453 C44.850311,40.1485778 44.7140539,39.0520003 45.0608902,36.9700923 L48.15145,18.2678836 C48.5695117,15.7314522 48.9411221,14.8637257 50.1426623,13.91018 C51.1986552,13.0233826 52.5736136,12.6546782 53.9857331,12.9026001 C55.3978525,13.1473435 56.6241668,13.9673928 57.3426136,15.1180045 C58.1260921,16.4180051 58.2623493,17.5145826 57.8597714,19.9588379 L54.7692116,38.6578681 Z" id="Path" fill="url(#linearGradient-2)"></path>
                <path d="M53.3234503,34.966504 C54.3857109,36.8002001 54.726016,38.1171845 54.4874844,39.5318401 C54.2330507,41.0126599 53.3139091,42.3485485 52.1562358,43.0070407 C50.9603976,43.6875877 49.2906766,43.8230669 48.0026061,43.3378621 C46.5841383,42.8085478 45.7222442,41.9641654 44.5582102,39.957182 L34.0978056,21.9226867 C32.6793379,19.4777587 32.3708371,18.4915957 32.6570749,16.8784472 C32.8701632,15.4196822 33.6970726,14.1940674 34.9724214,13.4694109 C36.2477702,12.7447544 37.7711918,12.6313299 39.1260512,13.1385895 C40.6367511,13.7309174 41.4986452,14.5752998 42.8662262,16.9351595 L53.3234503,34.966504 Z" id="Path" fill="url(#linearGradient-3)"></path>
                <path d="M60.72,5.78701972 C60.72,8.70465507 58.3576353,11.0670197 55.44,11.0670197 C52.5223647,11.0670197 50.16,8.70136944 50.16,5.78701972 C50.16,2.87267 52.5256503,0.507019723 55.44,0.507019723 C58.3576353,0.507019723 60.72,2.87267 60.72,5.78701972" id="Path" fill="url(#linearGradient-4)"></path>
                <path d="M88.8736974,17.8324714 C88.8736974,16.1693593 88.6247449,15.289457 87.8904924,14.3386468 C87.093214,13.3684981 85.983957,12.8270197 84.7770098,12.8270197 C83.4534646,12.8270197 82.1425246,13.5393216 81.4366338,14.6448399 C80.8378872,15.5247423 80.677171,16.2757212 80.677171,18.1515569 L80.677171,25.9449775 L71.5951298,14.5320319 C70.6402865,13.3233749 69.7642256,12.8302428 68.5604297,12.8302428 C65.9353984,12.8302428 64.24,14.6190552 64.24,17.3844626 L64.24,36.4554592 C64.24,38.6213727 64.4700448,39.3336746 65.1129096,40.2490308 C65.878675,41.2546335 67.1076813,41.8670197 68.383957,41.8670197 C69.6035094,41.8670197 70.7600358,41.3094259 71.5573142,40.3360541 C72.2064816,39.4948288 72.4837959,38.821204 72.4837959,36.8583449 L72.4837959,28.2688222 L81.5343241,40.1297767 C82.410385,41.2997567 83.4692211,41.8637966 84.7801611,41.8637966 C86.0532856,41.8637966 87.2476276,41.2836413 87.9755774,40.3167156 C88.6436526,39.4206979 88.88,38.672942 88.88,36.2717434 L88.88,17.8324714 L88.8736974,17.8324714 Z" id="Path" fill="url(#linearGradient-5)"></path>
                <path d="M121.117286,36.1100544 C121.300907,35.531246 121.304073,35.5219104 121.389551,33.2377955 L121.392717,33.1226562 L121.437039,30.6487171 C121.47503,28.9776412 121.148945,27.8262482 120.37014,26.9113575 C119.613497,26.0338093 118.936001,25.7817475 115.608669,25.697727 L112.420636,25.6541607 C110.897852,25.6292658 109.751806,25.9466768 109.118632,26.5597158 C108.665912,26.9984899 108.444301,27.5990814 108.444301,28.3926091 C108.444301,30.7763039 110.581265,31.1310574 111.853945,31.1310574 L116.058223,31.1310574 L113.664824,32.5282885 C112.218021,33.3716061 111.375899,33.7263596 109.900602,33.7263596 C106.272513,33.7263596 103.321921,30.8260939 103.321921,27.2598873 C103.321921,23.8150437 106.31367,20.7934149 109.723314,20.7934149 C110.739558,20.7934149 111.891936,21.0797073 113.148787,21.6460682 L115.364897,22.8005731 C115.463039,22.8472512 115.896764,22.9312718 116.292498,22.9312718 C118.571925,22.9312718 120.499941,21.0765954 120.499941,18.8827248 C120.499941,17.4139207 119.616663,16.1536121 117.793121,15.0240021 C115.425049,13.6080999 112.61692,12.8270197 109.900602,12.8270197 C101.70416,12.8270197 95.04,19.3214989 95.04,27.3034535 C95.04,35.335198 101.726321,41.8670197 109.944925,41.8670197 C112.265509,41.8670197 114.506946,41.3224419 116.605919,40.2488457 C118.954996,39.0569983 120.680396,37.4730549 121.117286,36.1100544" id="Path" fill="url(#linearGradient-6)"></path>
                <path d="M140.776064,12.8270197 C132.538889,12.8270197 125.84,19.2623733 125.84,27.1727548 C125.84,35.4129949 132.420804,41.8670197 140.820745,41.8670197 C149.05792,41.8670197 155.76,35.3320862 155.76,27.3034535 C155.756809,19.3214989 149.03558,12.8270197 140.776064,12.8270197 M140.817553,33.8570583 C137.160132,33.8570583 134.185685,30.9163382 134.185685,27.3034535 C134.185685,23.80882 137.160132,20.9676798 140.817553,20.9676798 C144.474974,20.9676798 147.449423,23.8306031 147.449423,27.3470197 C147.452612,30.9381213 144.478165,33.8570583 140.817553,33.8570583" id="Shape" fill="url(#linearGradient-7)"></path>
                <path d="M175.096064,12.8270197 C166.858889,12.8270197 160.16,19.2623733 160.16,27.1727548 C160.16,35.4129949 166.740804,41.8670197 175.140745,41.8670197 C183.37792,41.8670197 190.08,35.3320862 190.08,27.3034535 C190.08,19.3214989 183.358771,12.8270197 175.096064,12.8270197 M175.140745,33.8570583 C171.483324,33.8570583 168.508877,30.9163382 168.508877,27.3034535 C168.508877,23.80882 171.483324,20.9676798 175.140745,20.9676798 C178.798165,20.9676798 181.772615,23.8306031 181.772615,27.3470197 C181.775804,30.9381213 178.798165,33.8570583 175.140745,33.8570583" id="Shape" fill="url(#linearGradient-7)"></path>
            </g>
        </g>
    </g>
</svg>