<svg id="Combined_Shape_2" data-name="Combined Shape 2" xmlns="http://www.w3.org/2000/svg" width="65.28" height="46.08" viewBox="0 0 65.28 46.08">
  <path id="Combined_Shape" data-name="Combined Shape" d="M52.029,45.765c-1.517-.578-2.437-1.5-3.683-3.691L41.37,29.8,37.152,41.329c-1.038,2.878-2.767,4.269-5.238,4.269-2.52,0-4.347-1.438-5.286-4.168L22.972,30.563,19.366,41.381c-.888,2.73-2.718,4.219-5.189,4.219A5.259,5.259,0,0,1,9.04,41.827L.642,19.742A7.886,7.886,0,0,1,0,17.211,5.363,5.363,0,0,1,5.483,12c2.518,0,4.4,1.49,5.583,4.417L14.575,24.8l2.915-8.682C18.427,13.341,20.157,12,22.775,12s4.4,1.389,5.386,4.269l3.062,8.783,3.606-9.28A5.741,5.741,0,0,1,40.164,12a5.406,5.406,0,0,1,4.223,1.963,12.514,12.514,0,0,1,2.149,3l4.434,7.8,1.079-6.431c.458-2.728.861-3.659,2.172-4.686a5.13,5.13,0,0,1,4.193-1.084,5.419,5.419,0,0,1,3.662,2.381c.854,1.4,1,2.576.563,5.207L59.266,40.257a11.829,11.829,0,0,1-.309,1.382A5.52,5.52,0,0,1,56.471,45.4a5.356,5.356,0,0,1-2.649.677A5.038,5.038,0,0,1,52.029,45.765ZM54.24,5.52a5.52,5.52,0,1,1,5.52,5.521A5.52,5.52,0,0,1,54.24,5.52Z" fill="#fff"/>
</svg>
