<?xml version="1.0" encoding="UTF-8"?>
<svg width="32px" height="32px" viewBox="0 0 32 32" version="1.1" xmlns="http://www.w3.org/2000/svg" xmlns:xlink="http://www.w3.org/1999/xlink">
    <title>icon_fb</title>
    <defs>
        <linearGradient x1="38.3598826%" y1="20.0527467%" x2="62.9192445%" y2="69.589009%" id="linearGradient-1">
            <stop stop-color="#7288F6" offset="0%"></stop>
            <stop stop-color="#72B6F6" offset="100%"></stop>
        </linearGradient>
        <linearGradient x1="0%" y1="20.0599729%" x2="105.494477%" y2="69.5842822%" id="linearGradient-2">
            <stop stop-color="#7288F6" offset="0%"></stop>
            <stop stop-color="#72B6F6" offset="100%"></stop>
        </linearGradient>
    </defs>
    <g id="icon_fb" stroke="none" stroke-width="1" fill="none" fill-rule="evenodd">
        <g id="Group-17">
            <path d="M10.4962667,11.9102046 L12.9501714,11.9102046 L12.9501714,10.7959189 L12.9501714,9.7026808 L12.9501714,9.52439508 C12.9501714,8.47201413 12.9798857,6.84763318 13.7413143,5.84477604 C14.5460762,4.78496651 15.6516952,4.0606808 17.5496952,4.0606808 C20.639981,4.0606808 21.9461714,4.50020461 21.9461714,4.50020461 L21.3357905,8.13525223 C21.3357905,8.13525223 20.3131238,7.84058556 19.3585524,7.84058556 C18.403981,7.84058556 17.5496952,8.18353794 17.5496952,9.13934747 L17.5496952,9.52439508 L17.5496952,10.7959189 L17.5496952,11.9102046 L21.4596,11.9102046 L21.1909333,15.4598237 L17.5496952,15.4598237 L17.5496952,27.7912522 L12.9501714,27.7912522 L12.9501714,15.4598237 L10.4962667,15.4598237 L10.4962667,11.9102046 Z" id="Fill-6" fill="url(#linearGradient-1)"></path>
            <path d="M19.194381,31.3166046 L7.23314286,31.3166046 C3.70580952,31.3166046 0.833428571,28.4454618 0.829714286,24.9144141 L0.829714286,6.93603318 C0.833428571,3.40746175 3.70457143,0.536318894 7.22942857,0.536318894 L25.2078095,0.536318894 C28.7400952,0.536318894 31.6137143,3.40746175 31.6137143,6.93603318 L31.6137143,24.9144141 C31.6137143,28.4454618 28.7425714,31.3166046 25.2115238,31.3166046 L19.194381,31.3166046 Z M16.1870476,29.1028903 L25.2115238,29.1028903 C27.4809524,29.1028903 29.4,27.1863189 29.4,24.9144141 L29.4,6.93603318 C29.4,4.6690808 27.4809524,2.75003318 25.2078095,2.75003318 L7.22942857,2.75003318 C4.96247619,2.75003318 3.04714286,4.6690808 3.04466667,6.93603318 L3.04466667,24.9144141 C3.04714286,27.1863189 4.96371429,29.1028903 7.23314286,29.1028903 L16.1870476,29.1028903 Z" id="Fill-8" fill="url(#linearGradient-2)"></path>
        </g>
    </g>
</svg>