<?xml version="1.0" encoding="UTF-8"?>
<svg width="31px" height="32px" viewBox="0 0 31 32" version="1.1" xmlns="http://www.w3.org/2000/svg" xmlns:xlink="http://www.w3.org/1999/xlink">
    <title>icon_ig copy 3</title>
    <defs>
        <polygon id="path-1" points="0.48372381 0.263318894 30.7353429 0.263318894 30.7353429 31.3517665 0.48372381 31.3517665"></polygon>
    </defs>
    <g id="icon_ig-copy-3" stroke="none" stroke-width="1" fill="none" fill-rule="evenodd">
        <g id="Group">
            <g id="Group-12">
                <mask id="mask-2" fill="white">
                    <use xlink:href="#path-1"></use>
                </mask>
                <g id="Clip-11"></g>
                <path d="M21.8544857,31.3518903 L9.36458095,31.3518903 C4.46791429,31.3518903 0.48372381,27.3676998 0.48372381,22.4710332 L0.48372381,9.14417604 C0.48372381,4.24627127 4.46791429,0.263318894 9.36458095,0.263318894 L21.8544857,0.263318894 C26.7511524,0.263318894 30.7353429,4.24627127 30.7353429,9.14417604 L30.7353429,22.4710332 C30.7353429,27.3676998 26.7511524,31.3518903 21.8544857,31.3518903 L21.8544857,31.3518903 Z M9.36458095,2.54017604 C5.72334286,2.54017604 2.76181905,5.50293794 2.76181905,9.14417604 L2.76181905,22.4710332 C2.76181905,26.1122713 5.72334286,29.0750332 9.36458095,29.0750332 L21.8544857,29.0750332 C25.4957238,29.0750332 28.4572476,26.1122713 28.4572476,22.4710332 L28.4572476,9.14417604 C28.4572476,5.50293794 25.4957238,2.54017604 21.8544857,2.54017604 L9.36458095,2.54017604 Z" id="Fill-10" fill="#321371" mask="url(#mask-2)"></path>
            </g>
            <path d="M15.6095333,24.0237284 C11.055819,24.0237284 7.3502,20.3181094 7.3502,15.7643951 C7.3502,13.5197284 8.27258095,11.3344903 9.88210476,9.77077604 C11.4507714,8.24791889 13.499819,7.44191889 15.6503905,7.50506175 C18.2206762,7.58182366 20.3551524,8.44725223 21.8210571,10.0122046 C23.2114381,11.4954427 23.9183905,13.4949665 23.8676286,15.7941094 C23.820581,17.9966808 22.9514381,20.0581094 21.4223905,21.5995379 C19.8735333,23.1632522 17.8083905,24.0237284 15.6095333,24.0237284 M15.4188667,10.2858237 C14.0817238,10.2858237 12.8089619,10.8082998 11.8209619,11.7678237 C10.7487714,12.8102998 10.1334381,14.2675379 10.1334381,15.7643951 C10.1334381,18.7841094 12.589819,21.2404903 15.6095333,21.2404903 C18.6119143,21.2404903 21.0187714,18.8212522 21.0856286,15.7334427 C21.1202952,14.177157 20.6721048,12.8561094 19.790581,11.915157 C18.8422,10.9036332 17.3824857,10.3402998 15.5699143,10.2870618 C15.5191524,10.2858237 15.4696286,10.2858237 15.4188667,10.2858237" id="Fill-13" fill="#321371"></path>
            <path d="M25.9949238,7.27192842 C25.9949238,8.33669032 25.1332095,9.19840461 24.0684476,9.19840461 C23.0036857,9.19840461 22.1419714,8.33669032 22.1419714,7.27192842 C22.1419714,6.20840461 23.0036857,5.34545223 24.0684476,5.34545223 C25.1332095,5.34545223 25.9949238,6.20840461 25.9949238,7.27192842" id="Fill-15" fill="#321371"></path>
        </g>
    </g>
</svg>