<?xml version="1.0" encoding="UTF-8"?>
<svg width="31px" height="32px" viewBox="0 0 31 32" version="1.1" xmlns="http://www.w3.org/2000/svg" xmlns:xlink="http://www.w3.org/1999/xlink">
    <title>icon_lk</title>
    <defs>
        <linearGradient x1="8.51492078%" y1="-10.8333257%" x2="114.025675%" y2="100%" id="linearGradient-1">
            <stop stop-color="#7288F6" offset="0%"></stop>
            <stop stop-color="#72B6F6" offset="100%"></stop>
        </linearGradient>
    </defs>
    <g id="icon_lk" stroke="none" stroke-width="1" fill="none" fill-rule="evenodd">
        <g id="linkedin" fill="url(#linearGradient-1)" fill-rule="nonzero">
            <path d="M28.1957984,0 L2.80420157,0 C1.2555,0 0,1.2555 0,2.80420157 L0,28.1957173 C0,29.7445 1.2555,31 2.80420157,31 L28.1957173,31 C29.7445,31 31,29.7445 31,28.1957173 L31,2.80420157 C31,1.2555 29.7445,0 28.1957984,0 Z M9.59271466,26.767445 C9.59271466,27.2181623 9.22736911,27.5835079 8.77665183,27.5835079 L5.30286649,27.5835079 C4.85214921,27.5835079 4.48680366,27.2181623 4.48680366,26.767445 L4.48680366,12.2054791 C4.48680366,11.7547618 4.85214921,11.3894162 5.30286649,11.3894162 L8.77665183,11.3894162 C9.22736911,11.3894162 9.59271466,11.7547618 9.59271466,12.2054791 L9.59271466,26.767445 Z M7.03975916,10.016733 C5.21717016,10.016733 3.73963874,8.53920157 3.73963874,6.71661257 C3.73963874,4.89402356 5.21717016,3.41649215 7.03975916,3.41649215 C8.86234817,3.41649215 10.3398796,4.89402356 10.3398796,6.71661257 C10.3398796,8.53920157 8.86242932,10.016733 7.03975916,10.016733 Z M27.7466252,26.833178 C27.7466252,27.2475393 27.4106545,27.5835079 26.9962932,27.5835079 L23.2686649,27.5835079 C22.8543037,27.5835079 22.5183351,27.2475393 22.5183351,26.833178 L22.5183351,20.0027906 C22.5183351,18.9838482 22.8172173,15.5377356 19.8555,15.5377356 C17.5581728,15.5377356 17.092199,17.8964948 16.9986309,18.9550393 L16.9986309,26.833178 C16.9986309,27.2475393 16.6627435,27.5835079 16.248301,27.5835079 L12.6430497,27.5835079 C12.2286885,27.5835079 11.8927199,27.2475393 11.8927199,26.833178 L11.8927199,12.1397461 C11.8927199,11.7253848 12.2286885,11.3894162 12.6430497,11.3894162 L16.248301,11.3894162 C16.6626623,11.3894162 16.9986309,11.7253848 16.9986309,12.1397461 L16.9986309,13.410178 C17.8504817,12.1317932 19.1164503,11.1450681 21.8119084,11.1450681 C27.780788,11.1450681 27.7466252,16.7214974 27.7466252,19.785466 L27.7466252,26.833178 L27.7466252,26.833178 Z" id="Shape"></path>
        </g>
    </g>
</svg>